<?xml version="1.0" encoding="UTF-8" standalone="no"?>
<svg
   width="100"
   height="125"
   viewBox="0 0 26.458333 33.072917"
   version="1.1"
   id="svg1872"
   inkscape:version="1.1.2 (0a00cf5339, 2022-02-04, custom)"
   sodipodi:docname="benchmarkResult.svg"
   xmlns:inkscape="http://www.inkscape.org/namespaces/inkscape"
   xmlns:sodipodi="http://sodipodi.sourceforge.net/DTD/sodipodi-0.dtd"
   xmlns="http://www.w3.org/2000/svg"
   xmlns:svg="http://www.w3.org/2000/svg"
   xmlns:rdf="http://www.w3.org/1999/02/22-rdf-syntax-ns#"
   xmlns:cc="http://creativecommons.org/ns#"
   xmlns:dc="http://purl.org/dc/elements/1.1/">
  <defs
     id="defs1866">
    <rect
       x="29.944963"
       y="7.1063386"
       width="37.623437"
       height="27.065452"
       id="rect887" />
    <filter
       inkscape:collect="always"
       style="color-interpolation-filters:sRGB"
       id="filter41698"
       x="-0.0026151896"
       y="-0.0035567109"
       width="1.0052304"
       height="1.0071134">
      <feGaussianBlur
         inkscape:collect="always"
         stdDeviation="0.025020549"
         id="feGaussianBlur41700" />
    </filter>
  </defs>
  <sodipodi:namedview
     id="base"
     pagecolor="#ffffff"
     bordercolor="#666666"
     borderopacity="1.0"
     inkscape:pageopacity="0.0"
     inkscape:pageshadow="2"
     inkscape:zoom="2.6462094"
     inkscape:cx="83.137789"
     inkscape:cy="-4.9126876"
     inkscape:document-units="mm"
     inkscape:current-layer="g1227"
     inkscape:document-rotation="0"
     showgrid="false"
     units="px"
     inkscape:window-width="1920"
     inkscape:window-height="1043"
     inkscape:window-x="0"
     inkscape:window-y="0"
     inkscape:window-maximized="1"
     inkscape:snap-global="false"
     inkscape:pagecheckerboard="0"
     showguides="true"
     inkscape:guide-bbox="true">
    <sodipodi:guide
       position="30.860824,25.649351"
       orientation="-0.96592583,-0.25881905"
       id="guide36556" />
  </sodipodi:namedview>
  <metadata
     id="metadata1869">
    <rdf:RDF>
      <cc:Work
         rdf:about="">
        <dc:format>image/svg+xml</dc:format>
        <dc:type
           rdf:resource="http://purl.org/dc/dcmitype/StillImage" />
        <dc:title />
      </cc:Work>
    </rdf:RDF>
  </metadata>
  <g
     inkscape:label="Layer 1"
     inkscape:groupmode="layer"
     id="layer1">
    <path
       id="path1688"
       style="color:#000000;font-style:normal;font-variant:normal;font-weight:normal;font-stretch:normal;font-size:medium;line-height:1.25;font-family:sans-serif;font-variant-ligatures:normal;font-variant-position:normal;font-variant-caps:normal;font-variant-numeric:normal;font-variant-alternates:normal;font-variant-east-asian:normal;font-feature-settings:normal;font-variation-settings:normal;text-indent:0;text-align:start;text-decoration:none;text-decoration-line:none;text-decoration-style:solid;text-decoration-color:#000000;letter-spacing:0px;word-spacing:0px;text-transform:none;writing-mode:lr-tb;direction:ltr;text-orientation:mixed;dominant-baseline:auto;baseline-shift:baseline;text-anchor:start;white-space:normal;shape-padding:0;shape-margin:0;inline-size:0;clip-rule:nonzero;display:inline;overflow:visible;visibility:visible;isolation:auto;mix-blend-mode:normal;color-interpolation:sRGB;color-interpolation-filters:linearRGB;solid-color:#000000;solid-opacity:1;vector-effect:none;fill:#6426ca;fill-opacity:1;fill-rule:nonzero;stroke:none;stroke-width:0.613368;stroke-linecap:butt;stroke-linejoin:miter;stroke-miterlimit:4;stroke-dasharray:none;stroke-dashoffset:0;stroke-opacity:1;color-rendering:auto;image-rendering:auto;shape-rendering:auto;text-rendering:auto;enable-background:accumulate;stop-color:#000000"
       d="m 20.186019,14.979284 c 3.887465,1.973901 3.985221,7.276443 -0.966235,8.684574 -5.054673,1.354394 -6.436822,5.451293 -6.746449,6.700275 l -0.732502,-1.863325 0.599852,3.285828 2.102974,-2.488098 -1.514474,1.19568 c 0.262897,-1.134084 1.520267,-5.143814 6.374513,-6.444504 4.827336,-1.277448 5.227536,-6.986702 0.882321,-9.07043 z"
       sodipodi:nodetypes="ccccccccc" />
    <path
       id="path1704"
       style="color:#000000;font-style:normal;font-variant:normal;font-weight:normal;font-stretch:normal;font-size:medium;line-height:1.25;font-family:sans-serif;font-variant-ligatures:normal;font-variant-position:normal;font-variant-caps:normal;font-variant-numeric:normal;font-variant-alternates:normal;font-variant-east-asian:normal;font-feature-settings:normal;font-variation-settings:normal;text-indent:0;text-align:start;text-decoration:none;text-decoration-line:none;text-decoration-style:solid;text-decoration-color:#000000;letter-spacing:0px;word-spacing:0px;text-transform:none;writing-mode:lr-tb;direction:ltr;text-orientation:mixed;dominant-baseline:auto;baseline-shift:baseline;text-anchor:start;white-space:normal;shape-padding:0;shape-margin:0;inline-size:0;clip-rule:nonzero;display:inline;overflow:visible;visibility:visible;isolation:auto;mix-blend-mode:normal;color-interpolation:sRGB;color-interpolation-filters:linearRGB;solid-color:#000000;solid-opacity:1;vector-effect:none;fill:#6426ca;fill-opacity:1;fill-rule:nonzero;stroke:none;stroke-width:0.613368;stroke-linecap:butt;stroke-linejoin:miter;stroke-miterlimit:4;stroke-dasharray:none;stroke-dashoffset:0;stroke-opacity:1;color-rendering:auto;image-rendering:auto;shape-rendering:auto;text-rendering:auto;enable-background:accumulate;stop-color:#000000"
       d="m 20.186019,14.979284 c 3.887465,1.973901 3.985221,7.276443 -0.966235,8.684574 -5.054673,1.354394 -6.436822,5.451293 -6.746449,6.700275 l -0.732502,-1.863325 0.599852,3.285828 2.102974,-2.488098 -1.514474,1.19568 c 0.262897,-1.134084 1.520267,-5.143814 6.374513,-6.444504 4.827336,-1.277448 5.227536,-6.986702 0.882321,-9.07043 z"
       sodipodi:nodetypes="ccccccccc" />
    <text
       xml:space="preserve"
       style="font-style:normal;font-weight:normal;font-size:10.5833px;line-height:1.25;font-family:sans-serif;letter-spacing:0px;word-spacing:0px;fill:#000000;fill-opacity:1;stroke:none;stroke-width:0.264583"
       x="59.76255"
       y="18.083391"
       id="text893"><tspan
         sodipodi:role="line"
         id="tspan891"
         x="59.76255"
         y="18.083391"
         style="stroke-width:0.264583"> </tspan></text>
    <g
       aria-label="Check out our Contest status! "
       transform="matrix(0.78381016,-0.2100213,0.2100213,0.78381016,-24.527908,5.7957791)"
       id="g1227"
       style="font-style:normal;font-weight:normal;font-size:4.93889px;line-height:0;font-family:sans-serif;letter-spacing:0px;word-spacing:0px;white-space:pre;shape-inside:url(#rect887);fill:#6426ca;fill-opacity:1;stroke:none">
      <g
         id="g40562"
         transform="translate(30.733399,12.041318)"
         style="mix-blend-mode:normal;fill:#333333;fill-opacity:0.677989;filter:url(#filter41698)">
        <g
           aria-label="Server!"
           id="g40528"
           style="font-style:italic;font-weight:500;font-size:5.65168px;line-height:1.25;font-family:Asap;-inkscape-font-specification:'Asap, Medium Italic';fill:#333333;fill-opacity:0.677989;stroke-width:0.326058">
          <path
             d="m 1.3017781,12.274083 q -0.1978088,0 -0.45778612,-0.04521 -0.2543256,-0.04521 -0.40126928,-0.13564 -0.0734718,-0.04521 -0.10738192,-0.107382 -0.0339101,-0.06782 -0.0339101,-0.20346 0,-0.169551 0.0282584,-0.220416 0.0282584,-0.05086 0.0791235,-0.05086 0.0282584,0 0.0960786,0.03391 0.0678202,0.02826 0.11868528,0.05086 0.34475248,0.152595 0.68950494,0.152595 0.3051907,0 0.5199546,-0.175202 0.2204155,-0.175202 0.2204155,-0.474741 0,-0.163898 -0.096079,-0.276932 Q 1.8669461,10.708567 1.7313057,10.635095 1.5956654,10.561624 1.3582949,10.459893 1.0700592,10.335556 0.88920542,10.228175 0.71400334,10.120793 0.58966638,9.9286355 0.46532942,9.7364784 0.46532942,9.442591 q 0,-0.3786626 0.18085376,-0.6499432 0.18650544,-0.2712806 0.50299952,-0.4125726 0.3164941,-0.141292 0.7121117,-0.141292 0.2147638,0 0.440831,0.056517 0.2260672,0.050865 0.3560559,0.141292 0.1073819,0.073472 0.1073819,0.158247 0,0.079123 -0.090427,0.2204155 -0.090427,0.141292 -0.1638987,0.141292 -0.028258,0 -0.084775,-0.028258 -0.056517,-0.028258 -0.090427,-0.045213 -0.2260672,-0.1186853 -0.5143029,-0.1186853 -0.3334491,0 -0.5312579,0.158247 -0.1978088,0.1525954 -0.1978088,0.4182244 0,0.1638987 0.084775,0.2712806 0.090427,0.1073819 0.2204155,0.1752021 0.1299887,0.062169 0.3673592,0.158247 0.4351794,0.1865055 0.6782016,0.4182245 0.2430223,0.226067 0.2430223,0.632988 0,0.412573 -0.1865055,0.700808 -0.1865054,0.288236 -0.5029995,0.43518 -0.3108424,0.141292 -0.6951566,0.141292 z"
             id="path40514"
             style="fill:#333333;fill-opacity:0.677989" />
          <path
             d="m 4.2971685,11.047668 q -0.2938874,0 -0.5199546,-0.03956 v 0.0113 q 0,0.429527 0.1921571,0.599078 0.1978088,0.16955 0.565168,0.16955 0.2317189,0 0.4125727,-0.06217 0.1808537,-0.06217 0.3504041,-0.152596 0.090427,-0.05086 0.1130336,-0.05086 0.022607,0 0.028258,0.0113 0.011303,0.0113 0.011303,0.05652 0,0.141292 -0.03391,0.310843 -0.039562,0.186505 -0.3560558,0.282584 -0.3164941,0.09043 -0.5877748,0.09043 -0.5708196,0 -0.9325272,-0.271281 -0.3617075,-0.276932 -0.3617075,-0.921224 0,-0.847752 0.3956176,-1.3450996 0.4012693,-0.4973479 1.1359877,-0.4973479 0.3673592,0 0.5934264,0.124337 0.2317189,0.1243369 0.3277974,0.3051907 0.096079,0.1752021 0.096079,0.3447528 0,0.536909 -0.4182243,0.785583 -0.4125727,0.248674 -1.0116507,0.248674 z M 4.6814827,9.725175 q -0.3560558,0 -0.582123,0.2317189 Q 3.8732925,10.188613 3.811124,10.595534 h 0.3617075 q 0.3334491,0 0.6499432,-0.107382 0.3164941,-0.113034 0.3164941,-0.412573 0,-0.1582469 -0.1299887,-0.2543254 Q 4.8849432,9.725175 4.6814827,9.725175 Z"
             id="path40516"
             style="fill:#333333;fill-opacity:0.677989" />
          <path
             d="m 6.5239281,12.245824 q -0.124337,0 -0.1921572,-0.03956 -0.062168,-0.03956 -0.056517,-0.107382 l 0.2091122,-1.944178 q 0.022607,-0.2091125 0.022607,-0.3617078 0,-0.1186853 -0.011303,-0.1978088 -0.011303,-0.084775 -0.011303,-0.1130336 0.00565,-0.084775 0.1130336,-0.124337 0.1073819,-0.039562 0.3391008,-0.039562 0.096079,0 0.1299886,0.1130336 0.03391,0.107382 0.022607,0.265629 0.1299886,-0.2091122 0.316494,-0.3334491 0.1865055,-0.124337 0.4012693,-0.124337 0.1186853,0 0.1978088,0.062169 0.079124,0.062169 0.079124,0.1695504 0,0.1186853 -0.056517,0.2486739 -0.050865,0.124337 -0.1130336,0.124337 -0.022607,0 -0.1073819,-0.028258 -0.079123,-0.028258 -0.1978088,-0.028258 -0.1356403,0 -0.2882357,0.090427 Q 7.1738726,9.9625476 7.060839,10.13775 l -0.1978088,1.961133 q -0.016955,0.146943 -0.2769324,0.146943 z"
             id="path40518"
             style="fill:#333333;fill-opacity:0.677989" />
          <path
             d="m 9.1745612,12.245824 q -0.107382,0 -0.1695504,-0.02261 -0.062169,-0.02826 -0.079124,-0.09608 L 8.3042024,9.4086809 q -0.016955,-0.073472 0.050865,-0.1073819 0.06782,-0.03391 0.2260672,-0.03391 h 0.073472 q 0.2204155,0 0.2430222,0.1017303 l 0.2882357,1.2885827 q 0.1017303,0.491696 0.1582471,0.915572 H 9.37237 Q 9.5532237,10.996803 9.7058191,10.652051 L 10.259684,9.3691192 q 0.02261,-0.056517 0.07912,-0.079124 0.05652,-0.022607 0.163899,-0.022607 h 0.10173 q 0.113034,0 0.175202,0.022607 0.06217,0.016955 0.06217,0.073472 0,0.045213 -0.02261,0.096078 L 9.6266906,12.144093 q -0.03391,0.10173 -0.2599773,0.10173 z"
             id="path40520"
             style="fill:#333333;fill-opacity:0.677989" />
          <path
             d="m 12.096482,11.047668 q -0.293887,0 -0.519955,-0.03956 v 0.0113 q 0,0.429527 0.192158,0.599078 0.197808,0.16955 0.565168,0.16955 0.231718,0 0.412572,-0.06217 0.180854,-0.06217 0.350404,-0.152596 0.09043,-0.05086 0.113034,-0.05086 0.02261,0 0.02826,0.0113 0.0113,0.0113 0.0113,0.05652 0,0.141292 -0.03391,0.310843 -0.03956,0.186505 -0.356056,0.282584 -0.316494,0.09043 -0.587775,0.09043 -0.57082,0 -0.932527,-0.271281 -0.361708,-0.276932 -0.361708,-0.921224 0,-0.847752 0.395618,-1.3450996 0.401269,-0.4973479 1.135988,-0.4973479 0.367359,0 0.593426,0.124337 0.231719,0.1243369 0.327797,0.3051907 0.09608,0.1752021 0.09608,0.3447528 0,0.536909 -0.418224,0.785583 -0.412573,0.248674 -1.011651,0.248674 z m 0.384314,-1.322493 q -0.356056,0 -0.582123,0.2317189 -0.226067,0.2317191 -0.288235,0.6386401 h 0.361707 q 0.333449,0 0.649943,-0.107382 0.316494,-0.113034 0.316494,-0.412573 0,-0.1582469 -0.129988,-0.2543254 -0.124337,-0.096079 -0.327798,-0.096079 z"
             id="path40522"
             style="fill:#333333;fill-opacity:0.677989" />
          <path
             d="m 14.323242,12.245824 q -0.124337,0 -0.192158,-0.03956 -0.06217,-0.03956 -0.05652,-0.107382 l 0.209112,-1.944178 q 0.02261,-0.2091125 0.02261,-0.3617078 0,-0.1186853 -0.0113,-0.1978088 -0.0113,-0.084775 -0.0113,-0.1130336 0.0057,-0.084775 0.113033,-0.124337 0.107382,-0.039562 0.339101,-0.039562 0.09608,0 0.129989,0.1130336 0.03391,0.107382 0.02261,0.265629 0.129988,-0.2091122 0.316494,-0.3334491 0.186505,-0.124337 0.401269,-0.124337 0.118685,0 0.197809,0.062169 0.07912,0.062169 0.07912,0.1695504 0,0.1186853 -0.05652,0.2486739 -0.05086,0.124337 -0.113033,0.124337 -0.02261,0 -0.107382,-0.028258 -0.07912,-0.028258 -0.197809,-0.028258 -0.13564,0 -0.288236,0.090427 -0.146943,0.084775 -0.259977,0.2599774 l -0.197809,1.961133 q -0.01696,0.146943 -0.276932,0.146943 z"
             id="path40524"
             style="fill:#333333;fill-opacity:0.677989" />
          <path
             d="m 16.561302,11.058971 q -0.118685,0 -0.163899,-0.03391 -0.03956,-0.03956 -0.02826,-0.113033 l 0.265629,-2.5036944 q 0.01695,-0.141292 0.271281,-0.141292 h 0.152595 q 0.271281,0 0.243022,0.1469436 l -0.457786,2.5036938 q -0.0113,0.07347 -0.06217,0.107382 -0.05087,0.03391 -0.158247,0.03391 z m -0.152595,1.186853 q -0.135641,0 -0.192157,-0.03391 -0.05087,-0.03391 -0.05087,-0.107382 l 0.04521,-0.418224 q 0.0113,-0.141292 0.271281,-0.141292 h 0.124336 q 0.135641,0 0.192158,0.03956 0.05652,0.03391 0.05086,0.10173 l -0.04521,0.418224 q -0.01695,0.141292 -0.27128,0.141292 z"
             id="path40526"
             style="fill:#333333;fill-opacity:0.677989" />
        </g>
        <g
           aria-label="Join our"
           id="g40544"
           style="font-style:italic;font-weight:500;font-size:5.65168px;line-height:1.25;font-family:Asap;-inkscape-font-specification:'Asap, Medium Italic';fill:#333333;fill-opacity:0.677989;stroke-width:0.326058">
          <path
             d="m 0.58806679,-0.59095298 q -0.21476384,0 -0.3673592,-0.0452134 -0.14694368,-0.0452134 -0.14694368,-0.15824704 0,-0.39561768 0.09607856,-0.39561768 0.016955,0 0.1130336,0.028258 0.10173024,0.022607 0.2543256,0.022607 0.35040416,0 0.51995453,-0.1582471 0.1752021,-0.1638987 0.2147639,-0.5143029 l 0.2769323,-2.6449862 q 0.016955,-0.141292 0.2769323,-0.141292 h 0.090427 q 0.2543256,0 0.2486739,0.141292 l -0.282584,2.6732446 q -0.062169,0.5595164 -0.3786626,0.87601048 -0.316494,0.31649408 -0.91557221,0.31649424 z"
             id="path40530"
             style="fill:#333333;fill-opacity:0.677989" />
          <path
             d="m 3.928212,-0.59095298 q -0.5934264,0 -0.9155722,-0.32779744 Q 2.6904941,-1.2521995 2.6904941,-1.862581 q 0,-0.7686285 0.3504041,-1.2659763 0.3560559,-0.4973478 1.113381,-0.4973478 0.5764713,0 0.8929654,0.3391008 0.3164941,0.3334491 0.3164941,0.9438305 0,0.8534037 -0.3786626,1.3055381 -0.3730108,0.44648272 -1.0568641,0.44648272 z M 3.967774,-1.0769975 q 0.7968869,0 0.7968869,-1.2490212 0,-0.3956176 -0.1752021,-0.6047298 -0.1695504,-0.2091122 -0.5029995,-0.2091122 -0.4012693,0 -0.6047297,0.3221458 -0.1978088,0.3221458 -0.1978088,0.9325272 0,0.3956176 0.175202,0.6047298 0.1752021,0.2034604 0.5086512,0.2034604 z"
             id="path40532"
             style="fill:#333333;fill-opacity:0.677989" />
          <path
             d="m 6.4601659,-0.59095298 q -0.2373706,0 -0.3786626,-0.13564032 -0.141292,-0.13564032 -0.141292,-0.4295277 0,-0.090427 0.00565,-0.141292 l 0.2147639,-2.1589417 q 0.016955,-0.141292 0.2712806,-0.141292 h 0.062168 q 0.2599773,0 0.2486739,0.141292 l -0.2147638,2.15329 q -0.011303,0.124337 0.022607,0.1808538 0.03391,0.050865 0.1243369,0.050865 0.062169,0 0.1186853,-0.016955 0.056517,-0.016955 0.073472,-0.016955 0.039562,0 0.039562,0.050865 0,0.0960785 -0.028258,0.2430222 -0.022607,0.10738192 -0.1525953,0.16389872 -0.124337,0.0565168 -0.265629,0.0565168 z m 0.03391,-3.36840132 q -0.2995391,0 -0.2882357,-0.141292 l 0.039562,-0.3673592 q 0.011303,-0.141292 0.316494,-0.141292 0.1582471,0 0.2204156,0.039562 0.06782,0.03391 0.062168,0.1017302 l -0.03391,0.3673592 q -0.016955,0.141292 -0.3164939,0.1412918 z"
             id="path40534"
             style="fill:#333333;fill-opacity:0.677989" />
          <path
             d="m 10.082889,-1.1052559 q 0.03956,0 0.03956,0.050865 0,0.0960785 -0.02826,0.2430222 -0.02261,0.10738192 -0.1469441,0.16389872 -0.124337,0.0565168 -0.2430223,0.0565168 -0.5538646,0 -0.5538646,-0.58212302 0,-0.090427 0.00565,-0.1356403 l 0.1299886,-1.3733583 q 0.00565,-0.028258 0.00565,-0.079124 0,-0.3673592 -0.3899659,-0.3673592 -0.2091122,0 -0.423876,0.1808538 -0.2147639,0.175202 -0.3560559,0.5595163 l -0.1695504,1.62768382 q -0.00565,0.0678202 -0.079123,0.10738192 -0.06782,0.0339101 -0.1921571,0.0339101 h -0.062169 q -0.1243369,0 -0.1865054,-0.0395618 -0.062169,-0.0395618 -0.056517,-0.10173024 l 0.1808613,-1.7520201 q 0.050865,-0.4690894 0.050865,-0.6499432 0,-0.1017302 -0.00565,-0.1525953 0,-0.050865 0,-0.079124 0,-0.084775 0.1356403,-0.1186852 0.1356403,-0.03391 0.282584,-0.03391 0.158247,0 0.158247,0.3956176 v 0.062169 q 0.1921572,-0.2599773 0.4464828,-0.3956176 0.2543256,-0.141292 0.5199545,-0.141292 0.3673592,0 0.5538647,0.1808537 0.1865054,0.1808538 0.1865054,0.5256063 0,0.090427 -0.00565,0.1356403 L 9.732485,-1.3030647 q -0.022607,0.2317189 0.1525954,0.2317189 0.06782,0 0.1243366,-0.016955 0.05652,-0.016955 0.07347,-0.016955 z"
             id="path40536"
             style="fill:#333333;fill-opacity:0.677989" />
          <path
             d="m 13.146094,-0.59095298 q -0.593427,0 -0.915572,-0.32779744 -0.322146,-0.33344908 -0.322146,-0.94383058 0,-0.7686285 0.350404,-1.2659763 0.356056,-0.4973478 1.113381,-0.4973478 0.576471,0 0.892966,0.3391008 0.316494,0.3334491 0.316494,0.9438305 0,0.8534037 -0.378663,1.3055381 -0.373011,0.44648272 -1.056864,0.44648272 z m 0.03956,-0.48604452 q 0.796887,0 0.796887,-1.2490212 0,-0.3956176 -0.175203,-0.6047298 -0.16955,-0.2091122 -0.502999,-0.2091122 -0.401269,0 -0.60473,0.3221458 -0.197809,0.3221458 -0.197809,0.9325272 0,0.3956176 0.175202,0.6047298 0.175203,0.2034604 0.508652,0.2034604 z"
             id="path40538"
             style="fill:#333333;fill-opacity:0.677989" />
          <path
             d="m 17.774821,-1.1052559 q 0.03956,0 0.03956,0.050865 0,0.0960785 -0.02826,0.2430222 -0.01695,0.10738192 -0.141292,0.16389872 -0.124337,0.0565168 -0.243022,0.0565168 -0.254326,0 -0.395618,-0.12998864 -0.141292,-0.12998864 -0.16955,-0.41822428 -0.192157,0.26562892 -0.446483,0.40692092 -0.254325,0.141292 -0.519954,0.141292 -0.36736,0 -0.553865,-0.18085376 -0.186505,-0.18085376 -0.186505,-0.52560626 0,-0.090427 0.0057,-0.1356403 l 0.203461,-2.0233014 q 0.01696,-0.141292 0.27128,-0.141292 h 0.06782 q 0.259977,0 0.243022,0.141292 l -0.192157,1.9215712 q -0.0057,0.028258 -0.0057,0.079124 0,0.3673592 0.389966,0.3673592 0.209112,0 0.423876,-0.1808538 0.214764,-0.1808537 0.356056,-0.582123 l 0.16955,-1.6050771 q 0.01695,-0.141292 0.271281,-0.141292 h 0.06217 q 0.259978,0 0.248674,0.141292 l -0.214764,2.15329 q -0.02261,0.2317189 0.152596,0.2317189 0.06217,0 0.118685,-0.016955 0.05652,-0.016955 0.07347,-0.016955 z"
             id="path40540"
             style="fill:#333333;fill-opacity:0.677989" />
          <path
             d="m 18.537793,-0.61921138 q -0.124337,0 -0.192158,-0.0395618 -0.06217,-0.0395618 -0.05652,-0.10738192 l 0.209116,-1.9441779 q 0.02261,-0.2091121 0.02261,-0.3617075 0,-0.1186853 -0.0113,-0.1978088 -0.0113,-0.084775 -0.0113,-0.1130336 0.0057,-0.084775 0.113033,-0.124337 0.107382,-0.039562 0.339101,-0.039562 0.09608,0 0.129989,0.1130336 0.03391,0.1073819 0.02261,0.2656289 0.129988,-0.2091121 0.316494,-0.3334491 0.186505,-0.1243369 0.401269,-0.1243369 0.118685,0 0.197809,0.062168 0.07912,0.062169 0.07912,0.1695504 0,0.1186853 -0.05652,0.248674 -0.05087,0.1243369 -0.113033,0.1243369 -0.02261,0 -0.107382,-0.028258 -0.07912,-0.028258 -0.197809,-0.028258 -0.13564,0 -0.288236,0.090427 -0.146943,0.084775 -0.259977,0.2599773 L 18.8769,-0.76615486 q -0.01695,0.14694368 -0.276932,0.14694368 z"
             id="path40542"
             style="fill:#333333;fill-opacity:0.677989" />
        </g>
        <g
           aria-label="Discord"
           id="g40560"
           style="font-style:italic;font-weight:bold;font-size:6.95591px;line-height:1.25;font-family:Asap;-inkscape-font-specification:'Asap, Bold Italic';fill:#333333;fill-opacity:0.677989;stroke-width:0.326058">
          <path
             d="m 0.59574481,6.2735362 q -0.14607411,0 -0.20172139,-0.062603 -0.0556473,-0.062603 -0.0417355,-0.2365009 L 0.79746621,1.6826355 q 0.0139118,-0.1460741 0.0834709,-0.2086773 0.076515,-0.069559 0.22258919,-0.069559 h 1.5581238 q 0.9738275,0 1.4816089,0.5216932 0.5147374,0.5147374 0.5147374,1.4885648 0,0.9112242 -0.3060601,1.551168 Q 4.0458763,5.6057688 3.4824475,5.9396525 2.9190188,6.2735362 2.1538687,6.2735362 Z M 2.2442955,5.362312 q 0.6051642,0 0.9529597,-0.4799578 0.3547515,-0.4869138 0.3547515,-1.3703143 0,-0.5842965 -0.2504128,-0.8903566 -0.2434569,-0.30606 -0.7303706,-0.30606 H 1.8130291 L 1.4861013,5.362312 Z"
             id="path40546"
             style="fill:#333333;fill-opacity:0.677989" />
          <path
             d="m 5.8404989,6.3291835 q -0.8347093,0 -0.8347093,-0.8277533 0,-0.1252064 0.00696,-0.1947655 L 5.2631583,2.8442725 Q 5.2840261,2.6216833 5.7013807,2.6216833 h 0.1947655 q 0.2017213,0 0.30606,0.062603 0.1043387,0.062603 0.090427,0.1530301 l -0.2504129,2.413701 q -0.013912,0.1391182 0.034779,0.2017214 0.055647,0.062603 0.1669419,0.062603 0.062603,0 0.1182504,-0.020868 0.062603,-0.020868 0.083471,-0.020868 0.034779,0 0.041735,0.020868 0.013912,0.013912 0.013912,0.062603 0,0.1669418 -0.048691,0.4103987 -0.03478,0.1808536 -0.2225892,0.2712805 -0.1808536,0.090427 -0.3895305,0.090427 z m 0,-4.0483398 q -0.5147374,0 -0.4938697,-0.2225891 l 0.055647,-0.542561 q 0.020868,-0.2225891 0.542561,-0.2225891 0.5077815,0 0.4869137,0.2225891 L 6.376104,2.0582546 Q 6.3552362,2.2808437 5.8404989,2.2808437 Z"
             id="path40548"
             style="fill:#333333;fill-opacity:0.677989" />
          <path
             d="m 7.7951052,6.3291835 q -0.2017214,0 -0.4382223,-0.055647 -0.236501,-0.055648 -0.4034428,-0.173898 -0.159986,-0.1182505 -0.159986,-0.2921483 0,-0.2712805 0.041735,-0.3964869 0.048691,-0.1321623 0.1112946,-0.1321623 0.034779,0 0.1599859,0.062603 0.1669419,0.083471 0.2991041,0.1321623 0.1321623,0.041736 0.3060601,0.041736 0.2365009,0 0.3477955,-0.062603 0.1112946,-0.062603 0.1112946,-0.2156332 0,-0.1460741 -0.1182505,-0.2295451 Q 7.9411793,4.9171337 7.7951052,4.8545305 7.6490311,4.7849714 7.5933838,4.7571478 7.2455883,4.5902059 7.0856024,4.3676168 q -0.15303,-0.229545 -0.15303,-0.5564728 0,-0.5982083 0.3756191,-0.9112242 0.3825751,-0.3199719 1.0016511,-0.3199719 0.3756191,0 0.695591,0.1043386 0.3199719,0.097383 0.3199719,0.3199719 0,0.069559 -0.069559,0.1947655 -0.062603,0.1252064 -0.1530301,0.229545 -0.083471,0.097383 -0.1460741,0.097383 -0.027824,0 -0.1808536,-0.069559 -0.1530301,-0.069559 -0.389531,-0.069559 -0.3964869,0 -0.3964869,0.2573686 0,0.159986 0.1043387,0.2434569 0.1112945,0.076515 0.2573686,0.1391182 0.1460741,0.055647 0.2086773,0.083471 0.2782364,0.1182505 0.4730019,0.3617074 0.1947655,0.2365009 0.1947655,0.5634287 0,0.6260319 -0.3964869,0.9599156 Q 8.435049,6.3291835 7.7951052,6.3291835 Z"
             id="path40550"
             style="fill:#333333;fill-opacity:0.677989" />
          <path
             d="m 11.321753,6.3291835 q -0.79993,0 -1.189461,-0.3686633 Q 9.7427609,5.591857 9.7427609,4.8475746 q 0,-1.1059897 0.5147371,-1.6833303 0.514738,-0.5842964 1.495521,-0.5842964 0.361707,0 0.695591,0.1252064 0.34084,0.1252064 0.34084,0.3338837 0,0.069559 -0.08347,0.2086773 -0.08347,0.1321623 -0.18781,0.2434568 -0.104339,0.1043387 -0.159986,0.1043387 -0.02782,0 -0.132162,-0.055647 -0.132162,-0.069559 -0.236501,-0.1043387 -0.104339,-0.041735 -0.271281,-0.041735 -0.445178,0 -0.681679,0.3408396 -0.229545,0.3408396 -0.229545,1.001651 0,0.3964869 0.15303,0.5912524 0.159986,0.1878096 0.49387,0.1878096 0.15303,0 0.27128,-0.027824 0.125207,-0.03478 0.222589,-0.076515 0.09738,-0.041735 0.139119,-0.055647 0.111294,-0.041735 0.125206,-0.041735 0.104339,0 0.201721,0.1878096 0.104339,0.1878095 0.104339,0.3199718 0,0.1808537 -0.236501,0.2991042 -0.229545,0.1112945 -0.514737,0.1599859 -0.285193,0.048691 -0.445178,0.048691 z"
             id="path40552"
             style="fill:#333333;fill-opacity:0.677989" />
          <path
             d="m 14.702329,6.3291835 q -0.744282,0 -1.147725,-0.4034428 -0.396487,-0.4103987 -0.396487,-1.1546811 0,-0.9668715 0.431267,-1.5789916 0.431266,-0.6121201 1.439873,-0.6121201 0.744283,0 1.140769,0.4103987 0.403443,0.4034428 0.403443,1.1546811 0,1.0572983 -0.493869,1.6207271 -0.486914,0.5634287 -1.377271,0.5634287 z M 14.7858,5.515342 q 0.361708,0 0.549517,-0.3269278 0.18781,-0.3338837 0.18781,-0.9946951 0,-0.3825751 -0.15303,-0.5912524 -0.146074,-0.2086773 -0.424311,-0.2086773 -0.744282,0 -0.744282,1.3285788 0,0.3756192 0.15303,0.5842965 0.15303,0.2086773 0.431266,0.2086773 z"
             id="path40554"
             style="fill:#333333;fill-opacity:0.677989" />
          <path
             d="m 17.429048,6.287448 q -0.201722,0 -0.30606,-0.069559 -0.104339,-0.069559 -0.09043,-0.1808536 l 0.236501,-2.246759 q 0.03478,-0.3477955 0.03478,-0.5912524 0,-0.1043387 -0.007,-0.1808537 -0.007,-0.083471 -0.007,-0.1252064 0.007,-0.1321622 0.180854,-0.1808536 0.180854,-0.055647 0.577341,-0.055647 0.243457,0 0.27128,0.4382223 0.159986,-0.229545 0.347796,-0.3686632 0.194765,-0.1460741 0.45909,-0.1460741 0.326928,0 0.326928,0.3199719 0,0.1738977 -0.104339,0.4103987 -0.09738,0.2365009 -0.173898,0.2365009 -0.02782,0 -0.104339,-0.027824 -0.07652,-0.03478 -0.180853,-0.03478 -0.159986,0 -0.319972,0.097383 -0.159986,0.090427 -0.285192,0.2573686 L 18.062036,6.0509471 Q 18.041168,6.287448 17.623813,6.287448 Z"
             id="path40556"
             style="fill:#333333;fill-opacity:0.677989" />
          <path
             d="m 20.628758,6.3291835 q -0.549517,0 -0.876445,-0.389531 -0.319972,-0.3964869 -0.319972,-1.1199015 0,-0.6608115 0.201722,-1.1685929 0.208677,-0.5077815 0.570384,-0.7860179 0.368664,-0.2851923 0.841665,-0.2851923 0.396487,0 0.744283,0.2851923 L 21.964293,1.251369 q 0.02087,-0.2225891 0.438222,-0.2225891 h 0.194765 q 0.201722,0 0.30606,0.069559 0.104339,0.062603 0.09043,0.1669419 l -0.417354,3.9857365 q -0.01391,0.1391182 0.03478,0.2017214 0.05565,0.062603 0.166942,0.062603 0.0626,0 0.118251,-0.020868 0.0626,-0.020868 0.08347,-0.020868 0.03478,0 0.04174,0.020868 0.01391,0.013912 0.01391,0.062603 0,0.1669418 -0.04869,0.4103987 -0.03478,0.1808536 -0.222589,0.2712805 -0.180853,0.090427 -0.389531,0.090427 -0.326927,0 -0.528649,-0.1252064 -0.201721,-0.1321623 -0.27128,-0.4103987 -0.15303,0.2434569 -0.403443,0.389531 -0.243457,0.1460741 -0.542561,0.1460741 z m 0.389531,-0.8416651 q 0.292148,0 0.549517,-0.4103988 l 0.15303,-1.5163884 q -0.208678,-0.1669418 -0.438223,-0.1669418 -0.382575,0 -0.598208,0.3547514 -0.208677,0.3477955 -0.208677,1.008607 0,0.7303706 0.542561,0.7303706 z"
             id="path40558"
             style="fill:#333333;fill-opacity:0.677989" />
        </g>
      </g>
      <text
         xml:space="preserve"
         style="font-style:italic;font-variant:normal;font-weight:500;font-stretch:normal;font-size:5.65167826px;line-height:1.25;font-family:Asap;-inkscape-font-specification:'Asap, Medium Italic';font-variant-ligatures:normal;font-variant-caps:normal;font-variant-numeric:normal;font-variant-east-asian:normal;letter-spacing:0px;word-spacing:0px;fill:#6426ca;fill-opacity:1;stroke:none;stroke-width:0.326058"
         x="65.24369"
         y="17.509871"
         id="text3908"><tspan
           sodipodi:role="line"
           id="tspan3906"
           style="font-style:italic;font-variant:normal;font-weight:500;font-stretch:normal;font-size:5.65167826px;font-family:Asap;-inkscape-font-specification:'Asap, Medium Italic';font-variant-ligatures:normal;font-variant-caps:normal;font-variant-numeric:normal;font-variant-east-asian:normal;fill:#6426ca;fill-opacity:1;stroke-width:0.326058"
           x="65.24369"
           y="17.509871">Join our</tspan></text>
      <text
         xml:space="preserve"
         style="font-style:italic;font-variant:normal;font-weight:bold;font-stretch:normal;font-size:6.95591px;line-height:1.25;font-family:Asap;-inkscape-font-specification:'Asap, Bold Italic';font-variant-ligatures:normal;font-variant-caps:normal;font-variant-numeric:normal;font-variant-east-asian:normal;letter-spacing:0px;word-spacing:0px;fill:#fe8efe;fill-opacity:1;stroke:none;stroke-width:0.326058"
         x="65.059212"
         y="24.413921"
         id="text24248"><tspan
           sodipodi:role="line"
           id="tspan24246"
           style="font-style:italic;font-variant:normal;font-weight:bold;font-stretch:normal;font-size:6.95591px;font-family:Asap;-inkscape-font-specification:'Asap, Bold Italic';font-variant-ligatures:normal;font-variant-caps:normal;font-variant-numeric:normal;font-variant-east-asian:normal;fill:#fe8efe;fill-opacity:1;stroke-width:0.326058"
           x="65.059212"
           y="24.413921">Discord</tspan></text>
      <text
         xml:space="preserve"
         style="font-style:italic;font-variant:normal;font-weight:500;font-stretch:normal;font-size:5.65167826px;line-height:1.25;font-family:Asap;-inkscape-font-specification:'Asap, Medium Italic';font-variant-ligatures:normal;font-variant-caps:normal;font-variant-numeric:normal;font-variant-east-asian:normal;letter-spacing:0px;word-spacing:0px;fill:#6426ca;fill-opacity:1;stroke:none;stroke-width:0.326058"
         x="65.21138"
         y="30.374907"
         id="text33924"><tspan
           sodipodi:role="line"
           id="tspan33922"
           style="font-style:italic;font-variant:normal;font-weight:500;font-stretch:normal;font-size:5.65167826px;font-family:Asap;-inkscape-font-specification:'Asap, Medium Italic';font-variant-ligatures:normal;font-variant-caps:normal;font-variant-numeric:normal;font-variant-east-asian:normal;fill:#6426ca;fill-opacity:1;stroke-width:0.326058"
           x="65.21138"
           y="30.374907">Server!</tspan></text>
      <g
         id="g40512"
         transform="translate(30.622782,11.983247)">
        <g
           aria-label="Server!"
           id="text40324"
           style="font-style:italic;font-weight:500;font-size:5.65168px;line-height:1.25;font-family:Asap;-inkscape-font-specification:'Asap, Medium Italic';stroke-width:0.326058">
          <path
             d="m 1.3017781,12.274083 q -0.1978088,0 -0.45778612,-0.04521 -0.2543256,-0.04521 -0.40126928,-0.13564 -0.0734718,-0.04521 -0.10738192,-0.107382 -0.0339101,-0.06782 -0.0339101,-0.20346 0,-0.169551 0.0282584,-0.220416 0.0282584,-0.05086 0.0791235,-0.05086 0.0282584,0 0.0960786,0.03391 0.0678202,0.02826 0.11868528,0.05086 0.34475248,0.152595 0.68950494,0.152595 0.3051907,0 0.5199546,-0.175202 0.2204155,-0.175202 0.2204155,-0.474741 0,-0.163898 -0.096079,-0.276932 Q 1.8669461,10.708567 1.7313057,10.635095 1.5956654,10.561624 1.3582949,10.459893 1.0700592,10.335556 0.88920542,10.228175 0.71400334,10.120793 0.58966638,9.9286355 0.46532942,9.7364784 0.46532942,9.442591 q 0,-0.3786626 0.18085376,-0.6499432 0.18650544,-0.2712806 0.50299952,-0.4125726 0.3164941,-0.141292 0.7121117,-0.141292 0.2147638,0 0.440831,0.056517 0.2260672,0.050865 0.3560559,0.141292 0.1073819,0.073472 0.1073819,0.158247 0,0.079123 -0.090427,0.2204155 -0.090427,0.141292 -0.1638987,0.141292 -0.028258,0 -0.084775,-0.028258 -0.056517,-0.028258 -0.090427,-0.045213 -0.2260672,-0.1186853 -0.5143029,-0.1186853 -0.3334491,0 -0.5312579,0.158247 -0.1978088,0.1525954 -0.1978088,0.4182244 0,0.1638987 0.084775,0.2712806 0.090427,0.1073819 0.2204155,0.1752021 0.1299887,0.062169 0.3673592,0.158247 0.4351794,0.1865055 0.6782016,0.4182245 0.2430223,0.226067 0.2430223,0.632988 0,0.412573 -0.1865055,0.700808 -0.1865054,0.288236 -0.5029995,0.43518 -0.3108424,0.141292 -0.6951566,0.141292 z"
             id="path40326" />
          <path
             d="m 4.2971685,11.047668 q -0.2938874,0 -0.5199546,-0.03956 v 0.0113 q 0,0.429527 0.1921571,0.599078 0.1978088,0.16955 0.565168,0.16955 0.2317189,0 0.4125727,-0.06217 0.1808537,-0.06217 0.3504041,-0.152596 0.090427,-0.05086 0.1130336,-0.05086 0.022607,0 0.028258,0.0113 0.011303,0.0113 0.011303,0.05652 0,0.141292 -0.03391,0.310843 -0.039562,0.186505 -0.3560558,0.282584 -0.3164941,0.09043 -0.5877748,0.09043 -0.5708196,0 -0.9325272,-0.271281 -0.3617075,-0.276932 -0.3617075,-0.921224 0,-0.847752 0.3956176,-1.3450996 0.4012693,-0.4973479 1.1359877,-0.4973479 0.3673592,0 0.5934264,0.124337 0.2317189,0.1243369 0.3277974,0.3051907 0.096079,0.1752021 0.096079,0.3447528 0,0.536909 -0.4182243,0.785583 -0.4125727,0.248674 -1.0116507,0.248674 z M 4.6814827,9.725175 q -0.3560558,0 -0.582123,0.2317189 Q 3.8732925,10.188613 3.811124,10.595534 h 0.3617075 q 0.3334491,0 0.6499432,-0.107382 0.3164941,-0.113034 0.3164941,-0.412573 0,-0.1582469 -0.1299887,-0.2543254 Q 4.8849432,9.725175 4.6814827,9.725175 Z"
             id="path40328" />
          <path
             d="m 6.5239281,12.245824 q -0.124337,0 -0.1921572,-0.03956 -0.062168,-0.03956 -0.056517,-0.107382 l 0.2091122,-1.944178 q 0.022607,-0.2091125 0.022607,-0.3617078 0,-0.1186853 -0.011303,-0.1978088 -0.011303,-0.084775 -0.011303,-0.1130336 0.00565,-0.084775 0.1130336,-0.124337 0.1073819,-0.039562 0.3391008,-0.039562 0.096079,0 0.1299886,0.1130336 0.03391,0.107382 0.022607,0.265629 0.1299886,-0.2091122 0.316494,-0.3334491 0.1865055,-0.124337 0.4012693,-0.124337 0.1186853,0 0.1978088,0.062169 0.079124,0.062169 0.079124,0.1695504 0,0.1186853 -0.056517,0.2486739 -0.050865,0.124337 -0.1130336,0.124337 -0.022607,0 -0.1073819,-0.028258 -0.079123,-0.028258 -0.1978088,-0.028258 -0.1356403,0 -0.2882357,0.090427 Q 7.1738726,9.9625476 7.060839,10.13775 l -0.1978088,1.961133 q -0.016955,0.146943 -0.2769324,0.146943 z"
             id="path40330" />
          <path
             d="m 9.1745612,12.245824 q -0.107382,0 -0.1695504,-0.02261 -0.062169,-0.02826 -0.079124,-0.09608 L 8.3042024,9.4086809 q -0.016955,-0.073472 0.050865,-0.1073819 0.06782,-0.03391 0.2260672,-0.03391 h 0.073472 q 0.2204155,0 0.2430222,0.1017303 l 0.2882357,1.2885827 q 0.1017303,0.491696 0.1582471,0.915572 H 9.37237 Q 9.5532237,10.996803 9.7058191,10.652051 L 10.259684,9.3691192 q 0.02261,-0.056517 0.07912,-0.079124 0.05652,-0.022607 0.163899,-0.022607 h 0.10173 q 0.113034,0 0.175202,0.022607 0.06217,0.016955 0.06217,0.073472 0,0.045213 -0.02261,0.096078 L 9.6266906,12.144093 q -0.03391,0.10173 -0.2599773,0.10173 z"
             id="path40332" />
          <path
             d="m 12.096482,11.047668 q -0.293887,0 -0.519955,-0.03956 v 0.0113 q 0,0.429527 0.192158,0.599078 0.197808,0.16955 0.565168,0.16955 0.231718,0 0.412572,-0.06217 0.180854,-0.06217 0.350404,-0.152596 0.09043,-0.05086 0.113034,-0.05086 0.02261,0 0.02826,0.0113 0.0113,0.0113 0.0113,0.05652 0,0.141292 -0.03391,0.310843 -0.03956,0.186505 -0.356056,0.282584 -0.316494,0.09043 -0.587775,0.09043 -0.57082,0 -0.932527,-0.271281 -0.361708,-0.276932 -0.361708,-0.921224 0,-0.847752 0.395618,-1.3450996 0.401269,-0.4973479 1.135988,-0.4973479 0.367359,0 0.593426,0.124337 0.231719,0.1243369 0.327797,0.3051907 0.09608,0.1752021 0.09608,0.3447528 0,0.536909 -0.418224,0.785583 -0.412573,0.248674 -1.011651,0.248674 z m 0.384314,-1.322493 q -0.356056,0 -0.582123,0.2317189 -0.226067,0.2317191 -0.288235,0.6386401 h 0.361707 q 0.333449,0 0.649943,-0.107382 0.316494,-0.113034 0.316494,-0.412573 0,-0.1582469 -0.129988,-0.2543254 -0.124337,-0.096079 -0.327798,-0.096079 z"
             id="path40334" />
          <path
             d="m 14.323242,12.245824 q -0.124337,0 -0.192158,-0.03956 -0.06217,-0.03956 -0.05652,-0.107382 l 0.209112,-1.944178 q 0.02261,-0.2091125 0.02261,-0.3617078 0,-0.1186853 -0.0113,-0.1978088 -0.0113,-0.084775 -0.0113,-0.1130336 0.0057,-0.084775 0.113033,-0.124337 0.107382,-0.039562 0.339101,-0.039562 0.09608,0 0.129989,0.1130336 0.03391,0.107382 0.02261,0.265629 0.129988,-0.2091122 0.316494,-0.3334491 0.186505,-0.124337 0.401269,-0.124337 0.118685,0 0.197809,0.062169 0.07912,0.062169 0.07912,0.1695504 0,0.1186853 -0.05652,0.2486739 -0.05086,0.124337 -0.113033,0.124337 -0.02261,0 -0.107382,-0.028258 -0.07912,-0.028258 -0.197809,-0.028258 -0.13564,0 -0.288236,0.090427 -0.146943,0.084775 -0.259977,0.2599774 l -0.197809,1.961133 q -0.01696,0.146943 -0.276932,0.146943 z"
             id="path40336" />
          <path
             d="m 16.561302,11.058971 q -0.118685,0 -0.163899,-0.03391 -0.03956,-0.03956 -0.02826,-0.113033 l 0.265629,-2.5036944 q 0.01695,-0.141292 0.271281,-0.141292 h 0.152595 q 0.271281,0 0.243022,0.1469436 l -0.457786,2.5036938 q -0.0113,0.07347 -0.06217,0.107382 -0.05087,0.03391 -0.158247,0.03391 z m -0.152595,1.186853 q -0.135641,0 -0.192157,-0.03391 -0.05087,-0.03391 -0.05087,-0.107382 l 0.04521,-0.418224 q 0.0113,-0.141292 0.271281,-0.141292 h 0.124336 q 0.135641,0 0.192158,0.03956 0.05652,0.03391 0.05086,0.10173 l -0.04521,0.418224 q -0.01695,0.141292 -0.27128,0.141292 z"
             id="path40338" />
        </g>
        <g
           aria-label="Join our"
           id="text40316"
           style="font-style:italic;font-weight:500;font-size:5.65168px;line-height:1.25;font-family:Asap;-inkscape-font-specification:'Asap, Medium Italic';stroke-width:0.326058">
          <path
             d="m 0.58806679,-0.59095298 q -0.21476384,0 -0.3673592,-0.0452134 -0.14694368,-0.0452134 -0.14694368,-0.15824704 0,-0.39561768 0.09607856,-0.39561768 0.016955,0 0.1130336,0.028258 0.10173024,0.022607 0.2543256,0.022607 0.35040416,0 0.51995453,-0.1582471 0.1752021,-0.1638987 0.2147639,-0.5143029 l 0.2769323,-2.6449862 q 0.016955,-0.141292 0.2769323,-0.141292 h 0.090427 q 0.2543256,0 0.2486739,0.141292 l -0.282584,2.6732446 q -0.062169,0.5595164 -0.3786626,0.87601048 -0.316494,0.31649408 -0.91557221,0.31649424 z"
             id="path40356" />
          <path
             d="m 3.928212,-0.59095298 q -0.5934264,0 -0.9155722,-0.32779744 Q 2.6904941,-1.2521995 2.6904941,-1.862581 q 0,-0.7686285 0.3504041,-1.2659763 0.3560559,-0.4973478 1.113381,-0.4973478 0.5764713,0 0.8929654,0.3391008 0.3164941,0.3334491 0.3164941,0.9438305 0,0.8534037 -0.3786626,1.3055381 -0.3730108,0.44648272 -1.0568641,0.44648272 z M 3.967774,-1.0769975 q 0.7968869,0 0.7968869,-1.2490212 0,-0.3956176 -0.1752021,-0.6047298 -0.1695504,-0.2091122 -0.5029995,-0.2091122 -0.4012693,0 -0.6047297,0.3221458 -0.1978088,0.3221458 -0.1978088,0.9325272 0,0.3956176 0.175202,0.6047298 0.1752021,0.2034604 0.5086512,0.2034604 z"
             id="path40358" />
          <path
             d="m 6.4601659,-0.59095298 q -0.2373706,0 -0.3786626,-0.13564032 -0.141292,-0.13564032 -0.141292,-0.4295277 0,-0.090427 0.00565,-0.141292 l 0.2147639,-2.1589417 q 0.016955,-0.141292 0.2712806,-0.141292 h 0.062168 q 0.2599773,0 0.2486739,0.141292 l -0.2147638,2.15329 q -0.011303,0.124337 0.022607,0.1808538 0.03391,0.050865 0.1243369,0.050865 0.062169,0 0.1186853,-0.016955 0.056517,-0.016955 0.073472,-0.016955 0.039562,0 0.039562,0.050865 0,0.0960785 -0.028258,0.2430222 -0.022607,0.10738192 -0.1525953,0.16389872 -0.124337,0.0565168 -0.265629,0.0565168 z m 0.03391,-3.36840132 q -0.2995391,0 -0.2882357,-0.141292 l 0.039562,-0.3673592 q 0.011303,-0.141292 0.316494,-0.141292 0.1582471,0 0.2204156,0.039562 0.06782,0.03391 0.062168,0.1017302 l -0.03391,0.3673592 q -0.016955,0.141292 -0.3164939,0.1412918 z"
             id="path40360" />
          <path
             d="m 10.082889,-1.1052559 q 0.03956,0 0.03956,0.050865 0,0.0960785 -0.02826,0.2430222 -0.02261,0.10738192 -0.1469441,0.16389872 -0.124337,0.0565168 -0.2430223,0.0565168 -0.5538646,0 -0.5538646,-0.58212302 0,-0.090427 0.00565,-0.1356403 l 0.1299886,-1.3733583 q 0.00565,-0.028258 0.00565,-0.079124 0,-0.3673592 -0.3899659,-0.3673592 -0.2091122,0 -0.423876,0.1808538 -0.2147639,0.175202 -0.3560559,0.5595163 l -0.1695504,1.62768382 q -0.00565,0.0678202 -0.079123,0.10738192 -0.06782,0.0339101 -0.1921571,0.0339101 h -0.062169 q -0.1243369,0 -0.1865054,-0.0395618 -0.062169,-0.0395618 -0.056517,-0.10173024 l 0.1808613,-1.7520201 q 0.050865,-0.4690894 0.050865,-0.6499432 0,-0.1017302 -0.00565,-0.1525953 0,-0.050865 0,-0.079124 0,-0.084775 0.1356403,-0.1186852 0.1356403,-0.03391 0.282584,-0.03391 0.158247,0 0.158247,0.3956176 v 0.062169 q 0.1921572,-0.2599773 0.4464828,-0.3956176 0.2543256,-0.141292 0.5199545,-0.141292 0.3673592,0 0.5538647,0.1808537 0.1865054,0.1808538 0.1865054,0.5256063 0,0.090427 -0.00565,0.1356403 L 9.732485,-1.3030647 q -0.022607,0.2317189 0.1525954,0.2317189 0.06782,0 0.1243366,-0.016955 0.05652,-0.016955 0.07347,-0.016955 z"
             id="path40362" />
          <path
             d="m 13.146094,-0.59095298 q -0.593427,0 -0.915572,-0.32779744 -0.322146,-0.33344908 -0.322146,-0.94383058 0,-0.7686285 0.350404,-1.2659763 0.356056,-0.4973478 1.113381,-0.4973478 0.576471,0 0.892966,0.3391008 0.316494,0.3334491 0.316494,0.9438305 0,0.8534037 -0.378663,1.3055381 -0.373011,0.44648272 -1.056864,0.44648272 z m 0.03956,-0.48604452 q 0.796887,0 0.796887,-1.2490212 0,-0.3956176 -0.175203,-0.6047298 -0.16955,-0.2091122 -0.502999,-0.2091122 -0.401269,0 -0.60473,0.3221458 -0.197809,0.3221458 -0.197809,0.9325272 0,0.3956176 0.175202,0.6047298 0.175203,0.2034604 0.508652,0.2034604 z"
             id="path40364" />
          <path
             d="m 17.774821,-1.1052559 q 0.03956,0 0.03956,0.050865 0,0.0960785 -0.02826,0.2430222 -0.01695,0.10738192 -0.141292,0.16389872 -0.124337,0.0565168 -0.243022,0.0565168 -0.254326,0 -0.395618,-0.12998864 -0.141292,-0.12998864 -0.16955,-0.41822428 -0.192157,0.26562892 -0.446483,0.40692092 -0.254325,0.141292 -0.519954,0.141292 -0.36736,0 -0.553865,-0.18085376 -0.186505,-0.18085376 -0.186505,-0.52560626 0,-0.090427 0.0057,-0.1356403 l 0.203461,-2.0233014 q 0.01696,-0.141292 0.27128,-0.141292 h 0.06782 q 0.259977,0 0.243022,0.141292 l -0.192157,1.9215712 q -0.0057,0.028258 -0.0057,0.079124 0,0.3673592 0.389966,0.3673592 0.209112,0 0.423876,-0.1808538 0.214764,-0.1808537 0.356056,-0.582123 l 0.16955,-1.6050771 q 0.01695,-0.141292 0.271281,-0.141292 h 0.06217 q 0.259978,0 0.248674,0.141292 l -0.214764,2.15329 q -0.02261,0.2317189 0.152596,0.2317189 0.06217,0 0.118685,-0.016955 0.05652,-0.016955 0.07347,-0.016955 z"
             id="path40366" />
          <path
             d="m 18.537793,-0.61921138 q -0.124337,0 -0.192158,-0.0395618 -0.06217,-0.0395618 -0.05652,-0.10738192 l 0.209116,-1.9441779 q 0.02261,-0.2091121 0.02261,-0.3617075 0,-0.1186853 -0.0113,-0.1978088 -0.0113,-0.084775 -0.0113,-0.1130336 0.0057,-0.084775 0.113033,-0.124337 0.107382,-0.039562 0.339101,-0.039562 0.09608,0 0.129989,0.1130336 0.03391,0.1073819 0.02261,0.2656289 0.129988,-0.2091121 0.316494,-0.3334491 0.186505,-0.1243369 0.401269,-0.1243369 0.118685,0 0.197809,0.062168 0.07912,0.062169 0.07912,0.1695504 0,0.1186853 -0.05652,0.248674 -0.05087,0.1243369 -0.113033,0.1243369 -0.02261,0 -0.107382,-0.028258 -0.07912,-0.028258 -0.197809,-0.028258 -0.13564,0 -0.288236,0.090427 -0.146943,0.084775 -0.259977,0.2599773 L 18.8769,-0.76615486 q -0.01695,0.14694368 -0.276932,0.14694368 z"
             id="path40368" />
        </g>
        <g
           aria-label="Discord"
           id="text40320"
           style="font-style:italic;font-weight:bold;font-size:6.95591px;line-height:1.25;font-family:Asap;-inkscape-font-specification:'Asap, Bold Italic';fill:#fe8efe;stroke-width:0.326058">
          <path
             d="m 0.59574481,6.2735362 q -0.14607411,0 -0.20172139,-0.062603 -0.0556473,-0.062603 -0.0417355,-0.2365009 L 0.79746621,1.6826355 q 0.0139118,-0.1460741 0.0834709,-0.2086773 0.076515,-0.069559 0.22258919,-0.069559 h 1.5581238 q 0.9738275,0 1.4816089,0.5216932 0.5147374,0.5147374 0.5147374,1.4885648 0,0.9112242 -0.3060601,1.551168 Q 4.0458763,5.6057688 3.4824475,5.9396525 2.9190188,6.2735362 2.1538687,6.2735362 Z M 2.2442955,5.362312 q 0.6051642,0 0.9529597,-0.4799578 0.3547515,-0.4869138 0.3547515,-1.3703143 0,-0.5842965 -0.2504128,-0.8903566 -0.2434569,-0.30606 -0.7303706,-0.30606 H 1.8130291 L 1.4861013,5.362312 Z"
             id="path40341" />
          <path
             d="m 5.8404989,6.3291835 q -0.8347093,0 -0.8347093,-0.8277533 0,-0.1252064 0.00696,-0.1947655 L 5.2631583,2.8442725 Q 5.2840261,2.6216833 5.7013807,2.6216833 h 0.1947655 q 0.2017213,0 0.30606,0.062603 0.1043387,0.062603 0.090427,0.1530301 l -0.2504129,2.413701 q -0.013912,0.1391182 0.034779,0.2017214 0.055647,0.062603 0.1669419,0.062603 0.062603,0 0.1182504,-0.020868 0.062603,-0.020868 0.083471,-0.020868 0.034779,0 0.041735,0.020868 0.013912,0.013912 0.013912,0.062603 0,0.1669418 -0.048691,0.4103987 -0.03478,0.1808536 -0.2225892,0.2712805 -0.1808536,0.090427 -0.3895305,0.090427 z m 0,-4.0483398 q -0.5147374,0 -0.4938697,-0.2225891 l 0.055647,-0.542561 q 0.020868,-0.2225891 0.542561,-0.2225891 0.5077815,0 0.4869137,0.2225891 L 6.376104,2.0582546 Q 6.3552362,2.2808437 5.8404989,2.2808437 Z"
             id="path40343" />
          <path
             d="m 7.7951052,6.3291835 q -0.2017214,0 -0.4382223,-0.055647 -0.236501,-0.055648 -0.4034428,-0.173898 -0.159986,-0.1182505 -0.159986,-0.2921483 0,-0.2712805 0.041735,-0.3964869 0.048691,-0.1321623 0.1112946,-0.1321623 0.034779,0 0.1599859,0.062603 0.1669419,0.083471 0.2991041,0.1321623 0.1321623,0.041736 0.3060601,0.041736 0.2365009,0 0.3477955,-0.062603 0.1112946,-0.062603 0.1112946,-0.2156332 0,-0.1460741 -0.1182505,-0.2295451 Q 7.9411793,4.9171337 7.7951052,4.8545305 7.6490311,4.7849714 7.5933838,4.7571478 7.2455883,4.5902059 7.0856024,4.3676168 q -0.15303,-0.229545 -0.15303,-0.5564728 0,-0.5982083 0.3756191,-0.9112242 0.3825751,-0.3199719 1.0016511,-0.3199719 0.3756191,0 0.695591,0.1043386 0.3199719,0.097383 0.3199719,0.3199719 0,0.069559 -0.069559,0.1947655 -0.062603,0.1252064 -0.1530301,0.229545 -0.083471,0.097383 -0.1460741,0.097383 -0.027824,0 -0.1808536,-0.069559 -0.1530301,-0.069559 -0.389531,-0.069559 -0.3964869,0 -0.3964869,0.2573686 0,0.159986 0.1043387,0.2434569 0.1112945,0.076515 0.2573686,0.1391182 0.1460741,0.055647 0.2086773,0.083471 0.2782364,0.1182505 0.4730019,0.3617074 0.1947655,0.2365009 0.1947655,0.5634287 0,0.6260319 -0.3964869,0.9599156 Q 8.435049,6.3291835 7.7951052,6.3291835 Z"
             id="path40345" />
          <path
             d="m 11.321753,6.3291835 q -0.79993,0 -1.189461,-0.3686633 Q 9.7427609,5.591857 9.7427609,4.8475746 q 0,-1.1059897 0.5147371,-1.6833303 0.514738,-0.5842964 1.495521,-0.5842964 0.361707,0 0.695591,0.1252064 0.34084,0.1252064 0.34084,0.3338837 0,0.069559 -0.08347,0.2086773 -0.08347,0.1321623 -0.18781,0.2434568 -0.104339,0.1043387 -0.159986,0.1043387 -0.02782,0 -0.132162,-0.055647 -0.132162,-0.069559 -0.236501,-0.1043387 -0.104339,-0.041735 -0.271281,-0.041735 -0.445178,0 -0.681679,0.3408396 -0.229545,0.3408396 -0.229545,1.001651 0,0.3964869 0.15303,0.5912524 0.159986,0.1878096 0.49387,0.1878096 0.15303,0 0.27128,-0.027824 0.125207,-0.03478 0.222589,-0.076515 0.09738,-0.041735 0.139119,-0.055647 0.111294,-0.041735 0.125206,-0.041735 0.104339,0 0.201721,0.1878096 0.104339,0.1878095 0.104339,0.3199718 0,0.1808537 -0.236501,0.2991042 -0.229545,0.1112945 -0.514737,0.1599859 -0.285193,0.048691 -0.445178,0.048691 z"
             id="path40347" />
          <path
             d="m 14.702329,6.3291835 q -0.744282,0 -1.147725,-0.4034428 -0.396487,-0.4103987 -0.396487,-1.1546811 0,-0.9668715 0.431267,-1.5789916 0.431266,-0.6121201 1.439873,-0.6121201 0.744283,0 1.140769,0.4103987 0.403443,0.4034428 0.403443,1.1546811 0,1.0572983 -0.493869,1.6207271 -0.486914,0.5634287 -1.377271,0.5634287 z M 14.7858,5.515342 q 0.361708,0 0.549517,-0.3269278 0.18781,-0.3338837 0.18781,-0.9946951 0,-0.3825751 -0.15303,-0.5912524 -0.146074,-0.2086773 -0.424311,-0.2086773 -0.744282,0 -0.744282,1.3285788 0,0.3756192 0.15303,0.5842965 0.15303,0.2086773 0.431266,0.2086773 z"
             id="path40349" />
          <path
             d="m 17.429048,6.287448 q -0.201722,0 -0.30606,-0.069559 -0.104339,-0.069559 -0.09043,-0.1808536 l 0.236501,-2.246759 q 0.03478,-0.3477955 0.03478,-0.5912524 0,-0.1043387 -0.007,-0.1808537 -0.007,-0.083471 -0.007,-0.1252064 0.007,-0.1321622 0.180854,-0.1808536 0.180854,-0.055647 0.577341,-0.055647 0.243457,0 0.27128,0.4382223 0.159986,-0.229545 0.347796,-0.3686632 0.194765,-0.1460741 0.45909,-0.1460741 0.326928,0 0.326928,0.3199719 0,0.1738977 -0.104339,0.4103987 -0.09738,0.2365009 -0.173898,0.2365009 -0.02782,0 -0.104339,-0.027824 -0.07652,-0.03478 -0.180853,-0.03478 -0.159986,0 -0.319972,0.097383 -0.159986,0.090427 -0.285192,0.2573686 L 18.062036,6.0509471 Q 18.041168,6.287448 17.623813,6.287448 Z"
             id="path40351" />
          <path
             d="m 20.628758,6.3291835 q -0.549517,0 -0.876445,-0.389531 -0.319972,-0.3964869 -0.319972,-1.1199015 0,-0.6608115 0.201722,-1.1685929 0.208677,-0.5077815 0.570384,-0.7860179 0.368664,-0.2851923 0.841665,-0.2851923 0.396487,0 0.744283,0.2851923 L 21.964293,1.251369 q 0.02087,-0.2225891 0.438222,-0.2225891 h 0.194765 q 0.201722,0 0.30606,0.069559 0.104339,0.062603 0.09043,0.1669419 l -0.417354,3.9857365 q -0.01391,0.1391182 0.03478,0.2017214 0.05565,0.062603 0.166942,0.062603 0.0626,0 0.118251,-0.020868 0.0626,-0.020868 0.08347,-0.020868 0.03478,0 0.04174,0.020868 0.01391,0.013912 0.01391,0.062603 0,0.1669418 -0.04869,0.4103987 -0.03478,0.1808536 -0.222589,0.2712805 -0.180853,0.090427 -0.389531,0.090427 -0.326927,0 -0.528649,-0.1252064 -0.201721,-0.1321623 -0.27128,-0.4103987 -0.15303,0.2434569 -0.403443,0.389531 -0.243457,0.1460741 -0.542561,0.1460741 z m 0.389531,-0.8416651 q 0.292148,0 0.549517,-0.4103988 l 0.15303,-1.5163884 q -0.208678,-0.1669418 -0.438223,-0.1669418 -0.382575,0 -0.598208,0.3547514 -0.208677,0.3477955 -0.208677,1.008607 0,0.7303706 0.542561,0.7303706 z"
             id="path40353" />
        </g>
      </g>
    </g>
  </g>
</svg>
