<?xml version="1.0" encoding="UTF-8" standalone="no"?>
<svg
   xmlns:dc="http://purl.org/dc/elements/1.1/"
   xmlns:cc="http://creativecommons.org/ns#"
   xmlns:rdf="http://www.w3.org/1999/02/22-rdf-syntax-ns#"
   xmlns:svg="http://www.w3.org/2000/svg"
   xmlns="http://www.w3.org/2000/svg"
   xmlns:sodipodi="http://sodipodi.sourceforge.net/DTD/sodipodi-0.dtd"
   xmlns:inkscape="http://www.inkscape.org/namespaces/inkscape"
   width="1000"
   height="1000"
   viewBox="0 0 264.58333 264.58333"
   version="1.1"
   id="svg8"
   inkscape:version="1.0.1 (3bc2e813f5, 2020-09-07)"
   sodipodi:docname="colaboration.svg">
  <defs
     id="defs2">
    <rect
       x="-0.71398103"
       y="16.767326"
       width="21.942346"
       height="11.119438"
       id="rect5773" />
    <marker
       style="overflow:visible"
       id="marker3125"
       refX="0.0"
       refY="0.0"
       orient="auto"
       inkscape:stockid="Arrow1Lstart"
       inkscape:isstock="true">
      <path
         transform="scale(0.8) translate(12.5,0)"
         style="fill-rule:evenodd;stroke:none;stroke-width:1pt;stroke-opacity:1;fill:#000000;fill-opacity:0.8"
         d="M 0.0,0.0 L 5.0,-5.0 L -12.5,0.0 L 5.0,5.0 L 0.0,0.0 z "
         id="path3123" />
    </marker>
    <marker
       style="overflow:visible"
       id="Arrow1Lstart"
       refX="0.0"
       refY="0.0"
       orient="auto"
       inkscape:stockid="Arrow1Lstart"
       inkscape:isstock="true">
      <path
         transform="scale(0.8) translate(12.5,0)"
         style="fill-rule:evenodd;stroke:#000000;stroke-width:1.0pt"
         d="M 0.0,0.0 L 5.0,-5.0 L -12.5,0.0 L 5.0,5.0 L 0.0,0.0 z "
         id="path2853" />
    </marker>
    <inkscape:path-effect
       effect="mirror_symmetry"
       start_point="-7.9490307,19.452064"
       end_point="-7.9490307,30.123016"
       center_point="-7.9490307,24.78754"
       id="path-effect2826"
       is_visible="true"
       lpeversion="1"
       mode="free"
       discard_orig_path="false"
       fuse_paths="false"
       oposite_fuse="true"
       split_items="true" />
    <inkscape:path-effect
       effect="mirror_symmetry"
       start_point="-7.9548834,24.361696"
       end_point="-7.9548834,30.054287"
       center_point="-7.9548834,27.207991"
       id="path-effect2822"
       is_visible="true"
       lpeversion="1"
       mode="free"
       discard_orig_path="false"
       fuse_paths="false"
       oposite_fuse="false"
       split_items="false" />
    <rect
       x="32.507607"
       y="20.713452"
       width="12.528049"
       height="14.297926"
       id="rect2660" />
    <rect
       x="33.229984"
       y="-1.0837546"
       width="29.448308"
       height="10.781345"
       id="rect1811" />
    <inkscape:path-effect
       effect="mirror_symmetry"
       start_point="129.07097,10.103266"
       end_point="129.07097,20.22924"
       center_point="129.07097,15.166253"
       id="path-effect875"
       is_visible="true"
       lpeversion="1"
       mode="X"
       discard_orig_path="false"
       fuse_paths="true"
       oposite_fuse="true"
       split_items="false" />
    <filter
       inkscape:collect="always"
       style="color-interpolation-filters:sRGB"
       id="filter1464"
       x="-0.050965608"
       width="1.1019312"
       y="-0.045675351"
       height="1.0913507">
      <feGaussianBlur
         inkscape:collect="always"
         stdDeviation="0.25874906"
         id="feGaussianBlur1466" />
    </filter>
    <filter
       inkscape:collect="always"
       style="color-interpolation-filters:sRGB"
       id="filter1805"
       x="-0.03032798"
       width="1.060656"
       y="-0.056503898"
       height="1.1130078">
      <feGaussianBlur
         inkscape:collect="always"
         stdDeviation="0.27426932"
         id="feGaussianBlur1807" />
    </filter>
    <rect
       x="33.229984"
       y="-1.0837546"
       width="29.448308"
       height="10.781345"
       id="rect1819" />
    <rect
       x="33.229984"
       y="-1.0837546"
       width="29.448308"
       height="10.781345"
       id="rect1825" />
    <rect
       x="33.229984"
       y="-1.0837546"
       width="29.448308"
       height="10.781345"
       id="rect1846" />
    <rect
       x="33.229984"
       y="-1.0837546"
       width="29.448308"
       height="10.781345"
       id="rect1852" />
    <rect
       x="33.229984"
       y="-1.0837546"
       width="29.448308"
       height="10.781345"
       id="rect2126" />
    <filter
       inkscape:collect="always"
       style="color-interpolation-filters:sRGB"
       id="filter2252"
       x="-0.015736797"
       width="1.0314736"
       y="-0.094978117"
       height="1.1899562">
      <feGaussianBlur
         inkscape:collect="always"
         stdDeviation="0.083973049"
         id="feGaussianBlur2254" />
    </filter>
    <rect
       x="33.229984"
       y="-1.0837546"
       width="29.448308"
       height="10.781345"
       id="rect2260" />
    <filter
       inkscape:collect="always"
       style="color-interpolation-filters:sRGB"
       id="filter2262"
       x="-0.016680142"
       width="1.0333603"
       y="-0.070808768"
       height="1.1416175">
      <feGaussianBlur
         inkscape:collect="always"
         stdDeviation="0.060898355"
         id="feGaussianBlur2264" />
    </filter>
    <rect
       x="33.229984"
       y="-1.0837546"
       width="29.448308"
       height="10.781345"
       id="rect2270" />
    <filter
       inkscape:collect="always"
       style="color-interpolation-filters:sRGB"
       id="filter2272"
       x="-0.016951274"
       width="1.0339025"
       y="-0.066306594"
       height="1.1326132">
      <feGaussianBlur
         inkscape:collect="always"
         stdDeviation="0.057824993"
         id="feGaussianBlur2274" />
    </filter>
    <filter
       inkscape:collect="always"
       style="color-interpolation-filters:sRGB"
       id="filter1564"
       x="-0.013655781"
       width="1.0273116"
       y="-0.010702329"
       height="1.0214047">
      <feGaussianBlur
         inkscape:collect="always"
         stdDeviation="0.060930948"
         id="feGaussianBlur1566" />
    </filter>
    <rect
       x="32.507607"
       y="20.713452"
       width="12.528049"
       height="14.297926"
       id="rect2680" />
    <filter
       inkscape:collect="always"
       style="color-interpolation-filters:sRGB"
       id="filter2802"
       x="-0.057774735"
       width="1.1155495"
       y="-0.034650698"
       height="1.0693014">
      <feGaussianBlur
         inkscape:collect="always"
         stdDeviation="0.039349663"
         id="feGaussianBlur2804" />
    </filter>
    <filter
       inkscape:collect="always"
       style="color-interpolation-filters:sRGB"
       id="filter3563"
       x="-0.059247737"
       width="1.1184955"
       y="-0.040341475"
       height="1.0806829">
      <feGaussianBlur
         inkscape:collect="always"
         stdDeviation="0.26422012"
         id="feGaussianBlur3565" />
    </filter>
    <rect
       x="-0.71398103"
       y="16.767326"
       width="21.942346"
       height="11.119438"
       id="rect5781" />
    <filter
       inkscape:collect="always"
       style="color-interpolation-filters:sRGB"
       id="filter5787"
       x="-0.016303519"
       width="1.032607"
       y="-0.07850759"
       height="1.1570152">
      <feGaussianBlur
         inkscape:collect="always"
         stdDeviation="0.085116395"
         id="feGaussianBlur5789" />
    </filter>
  </defs>
  <sodipodi:namedview
     id="base"
     pagecolor="#ffffff"
     bordercolor="#666666"
     borderopacity="1.0"
     inkscape:pageopacity="0.0"
     inkscape:pageshadow="2"
     inkscape:zoom="1.2254242"
     inkscape:cx="339.32147"
     inkscape:cy="10.249206"
     inkscape:document-units="px"
     inkscape:current-layer="text5771"
     inkscape:document-rotation="0"
     showgrid="false"
     showguides="true"
     inkscape:guide-bbox="true"
     inkscape:window-width="1920"
     inkscape:window-height="997"
     inkscape:window-x="1920"
     inkscape:window-y="28"
     inkscape:window-maximized="1"
     units="px"
     inkscape:snap-global="false">
    <sodipodi:guide
       position="124.19596,293.39345"
       orientation="0,-1"
       id="guide873" />
    <sodipodi:guide
       position="286.23478,287.14452"
       orientation="0,-1"
       id="guide1360" />
    <sodipodi:guide
       position="0,84.037564"
       orientation="1,0"
       id="guide1411" />
  </sodipodi:namedview>
  <metadata
     id="metadata5">
    <rdf:RDF>
      <cc:Work
         rdf:about="">
        <dc:format>image/svg+xml</dc:format>
        <dc:type
           rdf:resource="http://purl.org/dc/dcmitype/StillImage" />
        <dc:title></dc:title>
      </cc:Work>
    </rdf:RDF>
  </metadata>
  <g
     inkscape:label="Layer 1"
     inkscape:groupmode="layer"
     id="layer1">
    <path
       id="path5791"
       style="color:#000000;font-style:normal;font-variant:normal;font-weight:normal;font-stretch:normal;font-size:medium;line-height:normal;font-family:sans-serif;font-variant-ligatures:normal;font-variant-position:normal;font-variant-caps:normal;font-variant-numeric:normal;font-variant-alternates:normal;font-variant-east-asian:normal;font-feature-settings:normal;font-variation-settings:normal;text-indent:0;text-align:start;text-decoration:none;text-decoration-line:none;text-decoration-style:solid;text-decoration-color:#000000;letter-spacing:normal;word-spacing:normal;text-transform:none;writing-mode:lr-tb;direction:ltr;text-orientation:mixed;dominant-baseline:auto;baseline-shift:baseline;text-anchor:start;white-space:normal;shape-padding:0;shape-margin:0;inline-size:0;clip-rule:nonzero;display:inline;overflow:visible;visibility:visible;isolation:auto;mix-blend-mode:normal;color-interpolation:sRGB;color-interpolation-filters:linearRGB;solid-color:#000000;solid-opacity:1;vector-effect:none;fill:#666666;fill-opacity:1;fill-rule:nonzero;stroke:none;stroke-width:4.80919;stroke-linecap:butt;stroke-linejoin:miter;stroke-miterlimit:4;stroke-dasharray:none;stroke-dashoffset:0;stroke-opacity:1;color-rendering:auto;image-rendering:auto;shape-rendering:auto;text-rendering:auto;enable-background:accumulate;stop-color:#000000"
       d="m 31.562231,99.549634 c 0,0 1.157879,-19.346783 12.760918,-33.820064 C 55.334494,51.9944 70.15193,46.853426 73.192873,46.065534 l -1.261014,1.981225 6.158778,-4.275765 -7.574962,-0.280657 2.230571,1.113402 C 70.429372,45.470583 55.642914,49.848136 43.390491,65.131429 30.7633,80.882136 31.562214,99.54962 31.562214,99.54962 Z"
       sodipodi:nodetypes="cscccccsc" />
    <circle
       style="fill:#5a1d69;fill-opacity:1;stroke:none;stroke-width:1.64877;stroke-linecap:round;stroke-miterlimit:4;stroke-dasharray:none;paint-order:markers fill stroke"
       id="circle1838"
       cx="550.94824"
       cy="-576.60577"
       r="16.934723" />
    <text
       xml:space="preserve"
       id="text2268"
       style="font-style:italic;font-variant:normal;font-weight:bold;font-stretch:normal;font-size:3.71686px;line-height:1.25;font-family:sans-serif;-inkscape-font-specification:'sans-serif, Bold Italic';font-variant-ligatures:normal;font-variant-caps:normal;font-variant-numeric:normal;font-variant-east-asian:normal;letter-spacing:0px;word-spacing:0px;white-space:pre;shape-inside:url(#rect2270);fill:#000000;fill-opacity:0.75;stroke:none;filter:url(#filter2272);"
       transform="matrix(4.271077,0,0,4.271077,393.11136,-576.4262)"><tspan
         x="33.230469"
         y="2.2978944"><tspan
           style="font-style:italic;font-variant:normal;font-weight:bold;font-stretch:normal;font-size:3.71686px;font-family:sans-serif;-inkscape-font-specification:'sans-serif, Bold Italic';font-variant-ligatures:normal;font-variant-caps:normal;font-variant-numeric:normal;font-variant-east-asian:normal;fill:#000000;fill-opacity:0.75">BUILD</tspan></tspan></text>
    <circle
       style="fill:#5a1d69;fill-opacity:1;stroke:none;stroke-width:1.84755;stroke-linecap:round;stroke-miterlimit:4;stroke-dasharray:none;paint-order:markers fill stroke"
       id="circle1840"
       cx="562.50409"
       cy="-457.35098"
       r="18.976475" />
    <text
       xml:space="preserve"
       id="text2124"
       style="font-style:italic;font-variant:normal;font-weight:bold;font-stretch:normal;font-size:3.71686px;line-height:1.25;font-family:sans-serif;-inkscape-font-specification:'sans-serif, Bold Italic';font-variant-ligatures:normal;font-variant-caps:normal;font-variant-numeric:normal;font-variant-east-asian:normal;letter-spacing:0px;word-spacing:0px;white-space:pre;shape-inside:url(#rect2126);fill:#000000;fill-opacity:0.75;stroke:none;filter:url(#filter2252);"
       transform="matrix(4.271077,0,0,4.271077,399.81921,-455.13589)"><tspan
         x="33.230469"
         y="2.2978944"><tspan
           style="font-style:italic;font-variant:normal;font-weight:bold;font-stretch:normal;font-size:3.71686px;font-family:sans-serif;-inkscape-font-specification:'sans-serif, Bold Italic';font-variant-ligatures:normal;font-variant-caps:normal;font-variant-numeric:normal;font-variant-east-asian:normal;fill:#000000;fill-opacity:0.75">MEASURE</tspan></tspan></text>
    <circle
       style="fill:#5a1d69;fill-opacity:1;stroke:none;stroke-width:1.75051;stroke-linecap:round;stroke-miterlimit:4;stroke-dasharray:none;paint-order:markers fill stroke"
       id="path1827"
       cx="462.98141"
       cy="-519.49158"
       r="17.97971" />
    <path
       style="fill:#732486;fill-opacity:1;stroke:none;stroke-width:0.968243px;stroke-linecap:butt;stroke-linejoin:miter;stroke-opacity:1"
       d="M 103.40371,203.48521 H -3.1679853e-6 c 0,0 -5.1383756320147,-78.84886 50.7931321679853,-78.84886 55.931511,0 52.610581,78.84886 52.610581,78.84886 z"
       id="path837"
       sodipodi:nodetypes="cczc" />
    <text
       xml:space="preserve"
       id="text1809"
       style="font-style:italic;font-variant:normal;font-weight:bold;font-stretch:normal;font-size:3.71686px;line-height:1.25;font-family:sans-serif;-inkscape-font-specification:'sans-serif, Bold Italic';font-variant-ligatures:normal;font-variant-caps:normal;font-variant-numeric:normal;font-variant-east-asian:normal;letter-spacing:0px;word-spacing:0px;white-space:pre;shape-inside:url(#rect1811);fill:#ff5dff;fill-opacity:1;stroke:none;"
       transform="matrix(4.271077,0,0,4.271077,392.58219,-576.95538)"><tspan
         x="33.230469"
         y="2.2978944"><tspan
           style="shape-inside:url(#rect1811)">BUILD</tspan></tspan></text>
    <text
       xml:space="preserve"
       id="text2258"
       style="font-style:italic;font-variant:normal;font-weight:bold;font-stretch:normal;font-size:3.71686px;line-height:1.25;font-family:sans-serif;-inkscape-font-specification:'sans-serif, Bold Italic';font-variant-ligatures:normal;font-variant-caps:normal;font-variant-numeric:normal;font-variant-east-asian:normal;letter-spacing:0px;word-spacing:0px;white-space:pre;shape-inside:url(#rect2260);fill:#000000;fill-opacity:0.75;stroke:none;filter:url(#filter2262);"
       transform="matrix(4.271077,0,0,4.271077,304.82598,-517.91231)"><tspan
         x="33.230469"
         y="2.2978944"><tspan
           style="font-style:italic;font-variant:normal;font-weight:bold;font-stretch:normal;font-size:3.71686px;font-family:sans-serif;-inkscape-font-specification:'sans-serif, Bold Italic';font-variant-ligatures:normal;font-variant-caps:normal;font-variant-numeric:normal;font-variant-east-asian:normal;fill:#000000;fill-opacity:0.75">LEARN</tspan></tspan></text>
    <text
       xml:space="preserve"
       id="text1817"
       style="font-style:italic;font-variant:normal;font-weight:bold;font-stretch:normal;font-size:3.71686px;line-height:1.25;font-family:sans-serif;-inkscape-font-specification:'sans-serif, Bold Italic';font-variant-ligatures:normal;font-variant-caps:normal;font-variant-numeric:normal;font-variant-east-asian:normal;letter-spacing:0px;word-spacing:0px;white-space:pre;shape-inside:url(#rect1819);fill:#ff5dff;fill-opacity:1;stroke:none;"
       transform="matrix(4.271077,0,0,4.271077,304.29681,-518.44146)"><tspan
         x="33.230469"
         y="2.2978944"><tspan
           style="font-style:italic;font-variant:normal;font-weight:bold;font-stretch:normal;font-size:3.71686px;font-family:sans-serif;-inkscape-font-specification:'sans-serif, Bold Italic';font-variant-ligatures:normal;font-variant-caps:normal;font-variant-numeric:normal;font-variant-east-asian:normal;fill:#ff5dff;fill-opacity:1">LEARN</tspan></tspan></text>
    <text
       xml:space="preserve"
       id="text1844"
       style="font-style:italic;font-variant:normal;font-weight:bold;font-stretch:normal;font-size:3.71686px;line-height:1.25;font-family:sans-serif;-inkscape-font-specification:'sans-serif, Bold Italic';font-variant-ligatures:normal;font-variant-caps:normal;font-variant-numeric:normal;font-variant-east-asian:normal;letter-spacing:0px;word-spacing:0px;white-space:pre;shape-inside:url(#rect1846);fill:#ff5dff;fill-opacity:1;stroke:none;"
       transform="matrix(4.271077,0,0,4.271077,399.29003,-455.66503)"><tspan
         x="33.230469"
         y="2.2978944"><tspan
           style="font-style:italic;font-variant:normal;font-weight:bold;font-stretch:normal;font-size:3.71686px;font-family:sans-serif;-inkscape-font-specification:'sans-serif, Bold Italic';font-variant-ligatures:normal;font-variant-caps:normal;font-variant-numeric:normal;font-variant-east-asian:normal;fill:#ff5dff;fill-opacity:1">MEASURE</tspan></tspan></text>
    <path
       id="path2295"
       style="color:#000000;font-style:normal;font-variant:normal;font-weight:normal;font-stretch:normal;font-size:medium;line-height:normal;font-family:sans-serif;font-variant-ligatures:normal;font-variant-position:normal;font-variant-caps:normal;font-variant-numeric:normal;font-variant-alternates:normal;font-variant-east-asian:normal;font-feature-settings:normal;font-variation-settings:normal;text-indent:0;text-align:start;text-decoration:none;text-decoration-line:none;text-decoration-style:solid;text-decoration-color:#000000;letter-spacing:normal;word-spacing:normal;text-transform:none;writing-mode:lr-tb;direction:ltr;text-orientation:mixed;dominant-baseline:auto;baseline-shift:baseline;text-anchor:start;white-space:normal;shape-padding:0;shape-margin:0;inline-size:0;clip-rule:nonzero;display:inline;overflow:visible;visibility:visible;isolation:auto;mix-blend-mode:normal;color-interpolation:sRGB;color-interpolation-filters:linearRGB;solid-color:#000000;solid-opacity:1;vector-effect:none;fill:#666666;fill-opacity:1;fill-rule:nonzero;stroke:none;stroke-width:5.09983;stroke-linecap:butt;stroke-linejoin:miter;stroke-miterlimit:4;stroke-dasharray:none;stroke-dashoffset:0;stroke-opacity:1;color-rendering:auto;image-rendering:auto;shape-rendering:auto;text-rendering:auto;enable-background:accumulate;stop-color:#000000"
       d="m 497.57999,-597.9021 c -8.63366,-0.0609 -17.01809,2.2141 -24.61764,7.3106 -27.98423,19.27179 -18.34497,48.43949 -18.34497,48.43949 0,0 -7.01177,-30.53661 19.30913,-47.22629 17.56355,-11.13675 34.28364,-7.07599 46.64606,-1.35663 l -1.54314,0.74297 9.04301,2.75936 -6.27178,-6.71359 -0.0904,1.81081 c -7.97521,-3.65801 -16.15856,-5.71034 -24.13009,-5.76672 z"
       sodipodi:nodetypes="sccscccccs" />
    <path
       id="path2303"
       style="color:#000000;font-style:normal;font-variant:normal;font-weight:normal;font-stretch:normal;font-size:medium;line-height:normal;font-family:sans-serif;font-variant-ligatures:normal;font-variant-position:normal;font-variant-caps:normal;font-variant-numeric:normal;font-variant-alternates:normal;font-variant-east-asian:normal;font-feature-settings:normal;font-variation-settings:normal;text-indent:0;text-align:start;text-decoration:none;text-decoration-line:none;text-decoration-style:solid;text-decoration-color:#000000;letter-spacing:normal;word-spacing:normal;text-transform:none;writing-mode:lr-tb;direction:ltr;text-orientation:mixed;dominant-baseline:auto;baseline-shift:baseline;text-anchor:start;white-space:normal;shape-padding:0;shape-margin:0;inline-size:0;clip-rule:nonzero;display:inline;overflow:visible;visibility:visible;isolation:auto;mix-blend-mode:normal;color-interpolation:sRGB;color-interpolation-filters:linearRGB;solid-color:#000000;solid-opacity:1;vector-effect:none;fill:#666666;fill-opacity:1;fill-rule:nonzero;stroke:none;stroke-width:3.9646;stroke-linecap:butt;stroke-linejoin:miter;stroke-miterlimit:4;stroke-dasharray:none;stroke-dashoffset:0;stroke-opacity:1;color-rendering:auto;image-rendering:auto;shape-rendering:auto;text-rendering:auto;enable-background:accumulate;stop-color:#000000"
       d="m 236.3975,87.105685 c 0,0 -0.59776,-15.966504 -9.89398,-28.108865 C 217.68136,47.473672 205.5639,42.963541 203.07216,42.258135 l 1.00275,1.656135 -4.99712,-3.637485 6.24828,-0.09171 -1.8589,0.876538 c 1.89353,0.757134 13.99951,4.637507 23.81602,17.459432 10.11676,13.214075 9.11429,28.584648 9.11429,28.584648 z"
       sodipodi:nodetypes="cscccccsc" />
    <path
       id="path2311"
       style="color:#000000;font-style:normal;font-variant:normal;font-weight:normal;font-stretch:normal;font-size:medium;line-height:normal;font-family:sans-serif;font-variant-ligatures:normal;font-variant-position:normal;font-variant-caps:normal;font-variant-numeric:normal;font-variant-alternates:normal;font-variant-east-asian:normal;font-feature-settings:normal;font-variation-settings:normal;text-indent:0;text-align:start;text-decoration:none;text-decoration-line:none;text-decoration-style:solid;text-decoration-color:#000000;letter-spacing:normal;word-spacing:normal;text-transform:none;writing-mode:lr-tb;direction:ltr;text-orientation:mixed;dominant-baseline:auto;baseline-shift:baseline;text-anchor:start;white-space:normal;shape-padding:0;shape-margin:0;inline-size:0;clip-rule:nonzero;display:inline;overflow:visible;visibility:visible;isolation:auto;mix-blend-mode:normal;color-interpolation:sRGB;color-interpolation-filters:linearRGB;solid-color:#000000;solid-opacity:1;vector-effect:none;fill:#666666;fill-opacity:1;fill-rule:nonzero;stroke:none;stroke-width:5.29167;stroke-linecap:butt;stroke-linejoin:miter;stroke-miterlimit:4;stroke-dasharray:none;stroke-dashoffset:0;stroke-opacity:1;color-rendering:auto;image-rendering:auto;shape-rendering:auto;text-rendering:auto;enable-background:accumulate;stop-color:#000000"
       d="m 539.19025,-457.42337 c 0,0 -21.16318,2.62793 -39.14892,-7.02218 -17.06854,-9.15796 -25.60255,-24.15753 -27.06493,-27.28941 l 2.39643,0.96685 -5.86123,-5.80545 1.21577,8.25153 0.75716,-2.63652 c 1.40254,2.33269 9.10443,17.45187 28.09675,27.642 19.57321,10.50184 39.60897,5.89318 39.60897,5.89318 z"
       sodipodi:nodetypes="cscccccsc" />
    <path
       style="fill:#33103c;fill-opacity:1;stroke:none;stroke-width:1.21273px;stroke-linecap:butt;stroke-linejoin:miter;stroke-opacity:1"
       d="m 440.49294,-219.47901 c 0,0 -33.20197,6.9495 -42.03772,11.43103 -19.42166,-4.69875 -49.70527,-23.10124 -49.70527,-23.10124 l 6.79262,-21.63671 c 0,0 24.23377,22.50839 40.1636,25.71495 15.0622,-1.35276 40.52218,-4.50453 40.52218,-4.50453 z"
       id="path1447"
       sodipodi:nodetypes="ccccccc" />
    <path
       style="fill:#5a1d69;fill-opacity:1;stroke:none;stroke-width:1.00329px;stroke-linecap:butt;stroke-linejoin:miter;stroke-opacity:1"
       d="m 377.26025,-203.38269 h -124.7941 c 0,0 -4.54378,-81.70277 59.31054,-81.70277 63.85428,0 65.48356,81.70277 65.48356,81.70277 z"
       id="path1449"
       sodipodi:nodetypes="cczc" />
    <g
       id="g1455"
       transform="matrix(-4.1627529,0,0,4.4008619,566.97908,-552.13983)">
      <rect
         style="fill:#000000;fill-opacity:0.449033;stroke:none;stroke-width:0.640593;stroke-linecap:round;stroke-opacity:1;paint-order:stroke fill markers;filter:url(#filter1464)"
         id="rect1451"
         width="11.423151"
         height="13.729175"
         x="75.394539"
         y="26.349283"
         ry="5.7655268"
         transform="rotate(19.710586,3.1869046,-6.1529369)" />
      <rect
         style="fill:#78278c;fill-opacity:1;stroke:none;stroke-width:0.640593;stroke-linecap:round;stroke-opacity:1;paint-order:stroke fill markers"
         id="rect1453"
         width="11.423151"
         height="13.729175"
         x="72.806816"
         y="25.220133"
         ry="5.7655268"
         transform="rotate(19.710586)" />
    </g>
    <path
       style="fill:#000000;fill-opacity:0.619708;stroke:none;stroke-width:0.251461px;stroke-linecap:butt;stroke-linejoin:miter;stroke-opacity:1;filter:url(#filter1805)"
       d="m 27.765368,60.849276 1.442025,2.324904 c 0,0 -1.692389,3.754096 -2.772759,5.88285 -3.682192,1.314443 -13.920943,0.166781 -17.2143246,-3.930042 -0.665139,-0.827404 -0.5656068,-2.300787 -0.014211,-3.222734 0.495016,-0.827679 1.5275976,-1.327143 2.5550056,-1.357489 2.968558,-0.08768 8.549167,4.366386 12.543002,4.029175 2.569603,-1.377923 3.461262,-3.726664 3.461262,-3.726664 z"
       id="path1457"
       sodipodi:nodetypes="cccsascc"
       transform="matrix(4.4008619,0,0,4.4008619,232.41477,-532.85751)" />
    <path
       style="fill:#33103c;fill-opacity:1;stroke:none;stroke-width:1.10664px;stroke-linecap:butt;stroke-linejoin:miter;stroke-opacity:1"
       d="m 359.8999,-280.14041 6.56823,7.52997 c 0,0 -12.96361,32.09286 -17.71818,41.46122 -16.20481,5.78468 -61.26414,0.73399 -75.75786,-17.29556 -2.92718,-3.64129 -2.48915,-10.12545 -0.0625,-14.18281 2.1785,-3.6425 6.72272,-5.84058 11.24423,-5.97411 13.06421,-0.38588 37.6237,19.21585 55.2,17.73184 11.30847,-6.06405 20.5261,-29.27055 20.5261,-29.27055 z"
       id="path1459"
       sodipodi:nodetypes="cccsascc" />
    <path
       style="fill:#78278c;fill-opacity:1;stroke:none;stroke-width:0.367026px;stroke-linecap:butt;stroke-linejoin:miter;stroke-opacity:1"
       d="m 359.79873,-287.72836 c -1.38877,2.45992 -1.99145,5.64034 -1.33944,8.39961 0.61452,2.60064 2.12597,5.70406 4.67239,6.51438 6.44196,2.05002 14.95177,-2.82715 19.17068,-6.61797 1.86656,-1.67715 4.19868,-7.99416 6.84094,-13.21876 1.21631,-2.40499 -1.62408,-2.73173 -2.22397,-2.17711 -7.45126,6.88907 -17.33357,8.83435 -20.30374,8.10527 -3.75839,-0.92256 -1.72465,-6.40109 -2.01335,-9.57735 -0.20589,-1.48573 -1.19988,-2.74871 -2.4581,-2.74871 -0.93713,2.36455 -1.22859,9.34239 -2.34541,11.32064 z"
       id="path1461"
       sodipodi:nodetypes="saassssccs" />
    <path
       style="fill:#78278c;fill-opacity:1;stroke:none;stroke-width:0.367026px;stroke-linecap:butt;stroke-linejoin:miter;stroke-opacity:1"
       d="m 442.62573,-236.3946 c -2.80869,0.30171 -5.746,1.66218 -7.61074,3.79789 -1.75755,2.01296 -3.40212,5.04795 -2.57952,7.59047 2.08095,6.432 10.99897,10.51525 16.53679,11.7408 2.45008,0.54221 8.94461,-1.23659 14.73119,-2.12756 2.66364,-0.41011 1.27675,-2.91031 0.4766,-3.0755 -9.93836,-2.0517 -17.27043,-8.95713 -18.40565,-11.79698 -1.43649,-3.59345 4.20251,-5.12708 6.61778,-7.21 1.08852,-1.03192 1.53737,-2.57516 0.80528,-3.59846 -2.46835,0.61363 -8.31299,4.43661 -10.57173,4.67934 z"
       id="path1463"
       sodipodi:nodetypes="saassssccs" />
    <path
       style="fill:#ffffff;stroke:none;stroke-width:0.306965px;stroke-linecap:butt;stroke-linejoin:miter;stroke-opacity:1"
       d="m 73.237586,131.37888 c 0,0 2.318008,25.94721 2.371097,38.95669 0.04505,11.03947 -1.742177,33.07284 -1.742177,33.07284 l 29.537204,0.0768 c 0,0 -2.02096,-22.80271 -5.377701,-33.65671 -2.868536,-9.27541 -6.817434,-18.4221 -12.443647,-26.33459 -3.341067,-4.69874 -12.344776,-12.11503 -12.344776,-12.11503 z"
       id="path1486"
       sodipodi:nodetypes="caccaacc" />
    <path
       style="fill:#ffffff;stroke:none;stroke-width:0.306965px;stroke-linecap:butt;stroke-linejoin:miter;stroke-opacity:1"
       d="m 53.943933,142.54715 c 2.372553,8.47456 3.969933,17.24383 4.916771,26.01959 1.232013,11.41889 0.971219,34.44178 0.971219,34.44178 L 0,203.48518 c 0,0 1.701718,-28.04584 8.135318,-44.86534 11.248968,-29.40843 36.707183,-32.91583 36.707183,-32.91583 0,0 7.380971,10.6978 9.101432,16.84314 z"
       id="path1484"
       sodipodi:nodetypes="saccscs" />
    <path
       style="fill:#000000;fill-opacity:0.6;stroke:none;stroke-width:0.0712431px;stroke-linecap:butt;stroke-linejoin:miter;stroke-opacity:1;filter:url(#filter1564)"
       d="m 12.295423,53.598267 c 0.03448,1.333287 0.02255,3.199222 1.167877,3.815107 2.174564,1.169345 5.274294,-0.496368 7.016259,-2.278252 1.780815,-1.821627 3.015062,-4.897303 2.324613,-7.385945 -0.498058,-1.795205 -2.350839,-3.47123 -4.154333,-3.601773 -1.865574,-0.135037 -3.652597,1.512378 -4.758378,3.070267 -1.257456,1.771575 -1.65282,4.184666 -1.596038,6.380596 z"
       id="path1554"
       sodipodi:nodetypes="aaaaaaa"
       transform="matrix(-3.5455392,-0.98828617,-0.98828617,3.5455392,172.41413,-47.640332)" />
    <path
       style="fill:#3f144a;fill-opacity:1;stroke:none;stroke-width:0.266508px;stroke-linecap:butt;stroke-linejoin:miter;stroke-opacity:1"
       d="m 76.343715,128.46878 c -1.443973,4.69201 -3.244321,11.31995 -8.04756,12.3344 -9.119608,1.92608 -18.825621,-7.1441 -23.444245,-15.2401 -4.721629,-8.27658 -6.202193,-20.44153 -1.214056,-28.560301 3.598227,-5.85654 12.040102,-9.90756 18.774096,-8.52933 6.965787,1.42567 11.882323,9.09091 14.392411,15.743311 2.854392,7.56489 1.917516,16.52423 -0.460646,24.25202 z"
       id="path1465"
       sodipodi:nodetypes="aaaaaaa" />
    <path
       style="fill:#732486;fill-opacity:1;stroke:none;stroke-width:0.266508px;stroke-linecap:butt;stroke-linejoin:miter;stroke-opacity:1"
       d="m 76.217642,128.34872 c -1.472249,4.41913 -4.082532,11.5592 -8.10647,11.38205 -11.360327,-0.50011 -16.859845,-7.90575 -21.289492,-15.47956 -4.616692,-7.89362 -7.680061,-19.28554 -3.183826,-27.248431 3.379631,-5.98535 12.040102,-9.90756 18.774096,-8.52933 6.965787,1.42567 11.90001,9.08426 14.392411,15.743311 2.820561,7.53582 1.956553,16.49813 -0.586719,24.13196 z"
       id="path1552"
       sodipodi:nodetypes="asaaaaa" />
    <g
       id="g1548"
       transform="matrix(-4.2215533,-0.04239108,-0.04239108,4.2215533,94.380162,-99.954643)">
      <ellipse
         style="fill:#33103c;fill-opacity:1;stroke:none;stroke-width:0.315207;stroke-linecap:round;paint-order:stroke fill markers"
         id="ellipse1524"
         cx="5.7127361"
         cy="49.550163"
         rx="1.1007149"
         ry="1.7809942" />
      <path
         style="fill:#33103c;fill-opacity:1;stroke:none;stroke-width:0.0869619px;stroke-linecap:butt;stroke-linejoin:miter;stroke-opacity:1"
         d="m 3.8127116,48.7089 c 0,0 0.2422458,-0.153431 0.3792714,-0.159636 0.1754061,-0.0079 0.5019859,0.159636 0.5019859,0.159636 l -0.1265866,0.364567 c 0,0 -0.2517292,-0.159295 -0.3908339,-0.149318 -0.1020359,0.0073 -0.2681195,0.149318 -0.2681195,0.149318 z"
         id="path1526"
         sodipodi:nodetypes="caccacc" />
      <ellipse
         style="fill:#5a1d69;fill-opacity:1;stroke:none;stroke-width:0.315207;stroke-linecap:round;paint-order:stroke fill markers"
         id="ellipse1528"
         cx="5.5656276"
         cy="49.542206"
         rx="1.1007149"
         ry="1.7809942" />
      <ellipse
         style="fill:#d093e2;fill-opacity:1;stroke:none;stroke-width:0.270006;stroke-linecap:round;paint-order:stroke fill markers"
         id="ellipse1530"
         cx="5.5656276"
         cy="49.542206"
         rx="0.94287008"
         ry="1.5255959" />
      <ellipse
         style="fill:#33103c;fill-opacity:1;stroke:none;stroke-width:0.258286;stroke-linecap:round;paint-order:stroke fill markers"
         id="ellipse1532"
         cx="3.1670861"
         cy="49.439949"
         rx="0.90194422"
         ry="1.4593765" />
      <ellipse
         style="fill:#5a1d69;fill-opacity:1;stroke:none;stroke-width:0.258286;stroke-linecap:round;paint-order:stroke fill markers"
         id="ellipse1534"
         cx="3.0465431"
         cy="49.433426"
         rx="0.90194422"
         ry="1.4593765" />
      <ellipse
         style="fill:#d093e2;fill-opacity:1;stroke:none;stroke-width:0.221247;stroke-linecap:round;paint-order:stroke fill markers"
         id="ellipse1536"
         cx="3.0465431"
         cy="49.433426"
         rx="0.77260351"
         ry="1.2500988" />
      <path
         style="fill:#33103c;fill-opacity:1;stroke:none;stroke-width:0.0833985px;stroke-linecap:butt;stroke-linejoin:miter;stroke-opacity:1"
         d="m 6.7088606,48.861052 2.7634581,-0.04823 c 0,0 -2.3522404,0.11572 -2.6790802,0.681823 z"
         id="path1538"
         sodipodi:nodetypes="cccc" />
    </g>
    <path
       style="fill:#732486;fill-opacity:1;stroke:none;stroke-width:0.968269px;stroke-linecap:butt;stroke-linejoin:miter;stroke-opacity:1"
       d="m 161.17715,203.56984 h 103.40636 c 0,0 5.13851,-78.85088 -50.79444,-78.85088 -55.93294,0 -52.61192,78.85088 -52.61192,78.85088 z"
       id="path1572"
       sodipodi:nodetypes="cczc" />
    <path
       style="fill:#000000;stroke:none;stroke-width:0.306973px;stroke-linecap:butt;stroke-linejoin:miter;stroke-opacity:1"
       d="m 191.34404,131.46166 c 0,0 -2.31807,25.94787 -2.37116,38.9577 -0.0451,11.03975 1.74222,33.07368 1.74222,33.07368 l -29.53795,0.0768 c 0,0 2.02101,-22.80329 5.37783,-33.65757 2.86861,-9.27565 6.81761,-18.42258 12.44397,-26.33527 3.34115,-4.69886 12.34509,-12.11534 12.34509,-12.11534 z"
       id="path1576"
       sodipodi:nodetypes="caccaacc" />
    <path
       style="fill:#000000;stroke:none;stroke-width:0.306973px;stroke-linecap:butt;stroke-linejoin:miter;stroke-opacity:1"
       d="m 210.63819,142.63021 c -2.37262,8.47479 -4.9169,26.02027 -4.9169,26.02027 l 5.58336,34.85503 53.27886,0.0643 c 0,0 -1.70176,-28.04657 -8.13553,-44.86651 -11.24926,-29.40918 -36.70813,-32.91666 -36.70813,-32.91666 0,0 -7.38116,10.69806 -9.10166,16.84356 z"
       id="path1578"
       sodipodi:nodetypes="scccscs" />
    <rect
       style="fill:#ffffff;fill-opacity:1;stroke:#732486;stroke-width:3.70637;stroke-linecap:butt;stroke-linejoin:bevel;stroke-miterlimit:4;stroke-dasharray:none;stroke-opacity:1;paint-order:stroke fill markers"
       id="rect5946"
       width="298.67096"
       height="72.351158"
       x="-15.788974"
       y="203.18073" />
    <path
       style="fill:#000000;fill-opacity:0.6;stroke:none;stroke-width:0.0712431px;stroke-linecap:butt;stroke-linejoin:miter;stroke-opacity:1;filter:url(#filter1564)"
       d="m 12.295423,53.598267 c 0.03448,1.333287 0.02255,3.199222 1.167877,3.815107 2.174564,1.169345 5.274294,-0.496368 7.016259,-2.278252 1.780815,-1.821627 3.015062,-4.897303 2.324613,-7.385945 -0.498058,-1.795205 -2.350839,-3.47123 -4.154333,-3.601773 -1.865574,-0.135037 -3.652597,1.512378 -4.758378,3.070267 -1.257456,1.771575 -1.65282,4.184666 -1.596038,6.380596 z"
       id="path1584"
       sodipodi:nodetypes="aaaaaaa"
       transform="matrix(3.5526497,-0.96277277,0.96277277,3.5526497,93.366113,-45.851459)" />
    <path
       style="fill:#3f144a;fill-opacity:1;stroke:none;stroke-width:0.266515px;stroke-linecap:butt;stroke-linejoin:miter;stroke-opacity:1"
       d="m 188.16925,130.94893 c 1.41021,4.7024 3.16286,11.34329 7.9588,12.3923 9.10575,1.9917 18.87702,-7.00863 23.55391,-15.07139 4.78119,-8.2426 6.34929,-20.39689 1.41957,-28.551561 -3.55608,-5.88243 -11.96881,-9.9942 -18.71272,-8.66442 -6.97604,1.37555 -11.94773,9.005401 -14.50569,15.639751 -2.90883,7.54435 -2.03642,16.51042 0.28613,24.25532 z"
       id="path1586"
       sodipodi:nodetypes="aaaaaaa" />
    <path
       style="fill:#732486;fill-opacity:1;stroke:none;stroke-width:0.266515px;stroke-linecap:butt;stroke-linejoin:miter;stroke-opacity:1"
       d="m 188.29619,130.82977 c 1.44044,4.42973 3.99935,11.58858 8.02456,11.44039 11.36393,-0.41837 16.91673,-7.78443 21.40088,-15.32636 4.6735,-7.86041 7.75829,-19.19696 3.3799,-27.225521 -3.46991,-6.36269 -11.96881,-9.9942 -18.71272,-8.66442 -6.97604,1.37555 -11.96538,8.998621 -14.50569,15.639751 -2.87479,7.51553 -2.07527,16.48403 0.41307,24.13616 z"
       id="path1588"
       sodipodi:nodetypes="asasaaa" />
    <path
       id="path1574"
       style="fill:#33103c;fill-opacity:1;stroke:none;stroke-width:1.06802px;stroke-linecap:butt;stroke-linejoin:miter;stroke-opacity:1"
       d="m 318.37289,193.68189 c 0.82688,0.0295 1.50377,0.36639 1.50377,0.36639 0,0 2.67805,1.42848 3.66284,2.54144 0.94528,1.0683 1.99316,3.78685 1.99316,3.78685 0.40881,-0.77209 0.809,-2.09351 1.53994,-2.79983 0.88891,-0.58538 1.90542,-1.52802 3.3347,-1.6092 2.10275,-0.11945 3.129,1.21956 3.129,1.21956 0,0 -2.45541,2.13242 -3.35276,3.46594 -2.25562,3.352 -4.89634,11.0877 -4.89634,11.0877 0,0 6.71632,12.63712 15.2399,21.59971 11.55536,-5.80135 4.98102,-24.14072 13.58676,-31.74638 4.92496,-4.35261 11.46749,-3.93584 15.45436,-0.66611 4.5045,3.69425 4.37944,11.69818 2.67941,17.27027 -4.85354,15.90828 -14.96106,33.44024 -33.87181,36.63858 -4.58861,-9.04135 -20.20292,-42.36485 -20.20292,-42.36485 0,0 -1.91517,-1.86845 -2.93315,-2.73472 -1.27668,-1.08641 -3.36968,-1.5183 -3.97392,-3.08198 -0.62254,-1.61105 0.17106,-3.53572 0.89555,-5.10357 0.77619,-1.67966 3.54191,-4.27363 3.54191,-4.27363 0,0 -0.46295,-1.47293 0.7152,-2.80397 0.57748,-0.65243 1.31126,-0.81519 1.9544,-0.7922 z" />
    <path
       id="path1612"
       style="fill:#732486;fill-opacity:1;stroke:none;stroke-width:1.06802px;stroke-linecap:butt;stroke-linejoin:miter;stroke-opacity:1"
       d="m 318.04888,193.79196 c 0.87235,0.0146 1.58026,0.49558 1.58026,0.49558 0,0 2.33882,1.5829 3.26491,2.6293 1.17269,1.32497 2.80241,4.50824 2.80241,4.50824 l -0.1637,-1.04851 c 0.40884,-0.77209 0.80902,-2.09351 1.53997,-2.79983 0.88891,-0.58538 1.90488,-1.52802 3.33416,-1.6092 2.10275,-0.11945 3.12953,1.22008 3.12953,1.22008 0,0 -3.76591,2.53433 -4.97749,4.38371 -1.95135,2.97866 -3.27163,10.16941 -3.27163,10.16941 1.70022,4.36094 8.35426,16.62764 15.15411,22.25652 11.84958,-5.27346 5.0668,-24.79753 13.67255,-32.40319 4.92495,-4.35261 11.60618,-4.09799 15.45435,-0.66611 4.26121,3.80022 1.93048,11.42029 1.21803,17.08526 -1.82842,14.53818 -12.66299,30.64746 -30.85085,34.29765 -6.85122,-8.86588 -21.31496,-39.81359 -21.31496,-39.81359 0,0 -2.03151,-2.08235 -3.10472,-3.06286 -1.0846,-0.99093 -2.74824,-1.51252 -3.36517,-2.84582 -0.7048,-1.52365 -0.77842,-3.55515 0.0108,-5.03691 0.93094,-1.74772 4.9227,-3.32486 4.9227,-3.32486 0,0 -2.11562,-2.2821 -0.6656,-3.75274 0.52435,-0.5318 1.10698,-0.69084 1.63039,-0.68213 z" />
    <path
       style="fill:#3f144a;fill-opacity:1;stroke:none;stroke-width:0.306965px;stroke-linecap:butt;stroke-linejoin:miter;stroke-opacity:1"
       d="m 168.63828,146.93458 -4.26589,5.58972 c 11.55324,13.1727 12.87256,23.16706 32.74806,34.89019 0,0 12.23289,-0.87272 17.83757,-3.11265 11.56545,-4.62216 24.32504,-10.26201 31.09646,-20.71532 2.60436,-4.02046 4.00868,-9.66672 2.38143,-14.17214 -1.66713,-4.61583 -6.2949,-8.92487 -11.15458,-9.60948 -4.67312,-0.65832 -9.52736,2.57797 -12.86177,5.9176 -3.20565,3.21064 -2.75959,8.89318 -5.66975,12.3739 -4.5222,5.40882 -17.36349,12.07726 -17.36349,12.07726 0,0 -4.99847,-0.397 -7.20047,-1.4704 -10.05681,-4.90236 -25.54757,-21.76868 -25.54757,-21.76868 z"
       id="path3656"
       sodipodi:nodetypes="cccaaaaaacac" />
    <path
       style="fill:#732486;fill-opacity:1;stroke:none;stroke-width:0.333908px;stroke-linecap:butt;stroke-linejoin:miter;stroke-opacity:1"
       d="m 243.13655,170.10566 c 5.14177,-4.02236 8.82289,-11.57287 8.61133,-18.36874 -0.15072,-4.84188 -2.95438,-10.07816 -6.93675,-12.65556 -4.37751,-2.83313 -10.83938,-3.39394 -15.47695,-1.04034 -6.68907,3.39475 -6.94421,13.85161 -12.4464,19.1465 0,0 11.43537,1.16104 15.96732,3.3555 4.45989,2.15961 10.28146,9.56263 10.28146,9.56263 z"
       id="path1580"
       sodipodi:nodetypes="caaacscc" />
    <path
       style="fill:#732486;fill-opacity:1;stroke:none;stroke-width:0.306965px;stroke-linecap:butt;stroke-linejoin:miter;stroke-opacity:1"
       d="m 168.63828,146.93458 -4.26589,5.58972 c 6.12236,4.90147 7.38725,9.80455 11.85098,15.95515 8.59892,11.84849 11.38243,11.54929 21.32019,17.41085 0,0 13.38251,0.33288 19.43042,-2.08699 10.47605,-4.19163 20.40265,-11.34702 26.86127,-20.59925 2.53198,-3.62719 5.01767,-8.37609 3.95039,-12.66891 -1.11086,-4.46808 -5.29288,-8.8245 -9.80798,-9.72541 -4.44727,-0.88737 -9.2156,2.11652 -12.59724,5.13815 -3.44015,3.07389 -3.64393,8.63237 -6.63061,12.14851 -4.73305,5.5721 -17.29862,13.48361 -17.29862,13.48361 0,0 -4.20778,1.51772 -16.58186,-9.13589 -7.98297,-7.70029 -9.76429,-5.84428 -16.23105,-15.50954 z"
       id="path3658"
       sodipodi:nodetypes="ccscaaaaaaccc" />
    <path
       style="fill:#000000;stroke:none;stroke-width:0.333908px;stroke-linecap:butt;stroke-linejoin:miter;stroke-opacity:1"
       d="m 243.13655,170.10566 c 4.59495,-4.71408 7.14083,-11.0769 6.99125,-17.29255 -0.10435,-4.33637 -2.03728,-9.14101 -5.45217,-11.81561 -4.10004,-3.21124 -10.54871,-4.99413 -15.34145,-2.95648 -7.0053,2.97832 -2.15307,12.6243 -12.4464,19.1465 0,0 10.97861,1.22882 15.7809,3.7056 4.13108,2.1306 10.46787,9.21254 10.46787,9.21254 z"
       id="path1582"
       sodipodi:nodetypes="caaacac" />
    <path
       style="fill:#800080;stroke:none;stroke-width:0.264583px;stroke-linecap:butt;stroke-linejoin:miter;stroke-opacity:1"
       d="m 216.59961,94.893039 c -2.89085,-1.69804 -6.66706,-2.02995 -9.96006,-1.40021 -2.25625,0.43149 -4.41588,1.73556 -5.98877,3.40974 -1.73976,1.8518 -3.35126,6.846351 -3.35126,6.846351 l -7.33077,-35.656301 13.45111,12.40988 5.33752,-17.93196 4.71765,16.99257 14.00877,-11.73811 -5.65362,16.8743 13.31635,-2.69006 -8.52144,12.69291 12.83948,3.62927 -11.4778,7.703991 7.26587,9.80741 -11.29687,-1.03339 c 0,0 0.11463,-8.29073 -1.38993,-12.04016 -1.22658,-3.056701 -3.12629,-6.208101 -5.96622,-7.876231 z"
       id="path1620"
       sodipodi:nodetypes="aaacccccccccccccaaa" />
    <path
       style="fill:#ff00ff;stroke:none;stroke-width:0.264583px;stroke-linecap:butt;stroke-linejoin:miter;stroke-opacity:1"
       d="m 206.53487,92.529879 c -2.36119,0.36959 -4.65914,1.75444 -6.22218,3.5624 -1.79377,2.07484 -3.01317,7.656641 -3.01317,7.656641 l -7.33077,-35.656301 13.45111,12.40988 5.33752,-17.93196 4.04565,17.5934 14.68077,-12.33894 -6.93607,17.19234 14.5988,-3.0081 -9.85762,12.38356 14.17566,3.93862 -12.11872,6.897301 7.90679,10.6141 -11.31507,-3.73786 c 0,0 -0.19026,-6.42071 -1.37173,-9.33569 -1.24491,-3.071491 -2.86821,-6.348461 -5.81144,-8.067311 -2.94322,-1.71884 -6.77883,-2.71068 -10.21953,-2.17208 z"
       id="path1622"
       sodipodi:nodetypes="aacccccccccccccaca" />
    <path
       id="path1023"
       style="fill:#5a1d69;fill-opacity:1;stroke:none;stroke-width:0.684934;stroke-linecap:round;stroke-miterlimit:4;stroke-dasharray:0.684934, 1.3699;stroke-dashoffset:0;stroke-opacity:1;paint-order:stroke fill markers"
       d="m 414.79699,26.135769 a 13.409221,11.130594 0 0 0 -9.81945,3.55091 13.409221,11.130594 0 0 0 -6.66896,-1.474861 13.409221,11.130594 0 0 0 -12.98315,8.350424 13.409221,11.130594 0 0 0 -1.94105,-0.117922 13.409221,11.130594 0 0 0 -13.40973,11.131017 13.409221,11.130594 0 0 0 0.0793,1.204706 13.409221,11.130594 0 0 0 -11.18287,10.975277 13.409221,11.130594 0 0 0 10.2505,10.818251 13.409221,11.130594 0 0 0 -0.53219,3.100687 13.409221,11.130594 0 0 0 13.40977,11.131008 13.409221,11.130594 0 0 0 2.16385,-0.147205 13.409221,11.130594 0 0 0 11.10223,4.888307 13.409221,11.130594 0 0 0 0.25507,-0.0014 13.409221,11.130594 0 0 0 0.26649,-0.0054 13.409221,11.130594 0 0 0 5.10179,-1.018566 13.409221,11.130594 0 0 0 11.25471,5.080587 13.409221,11.130594 0 0 0 11.56846,-5.502846 13.409221,11.130594 0 0 0 4.16641,0.551352 13.409221,11.130594 0 0 0 12.98465,-8.352838 13.409221,11.130594 0 0 0 3.42756,0.368694 13.409221,11.130594 0 0 0 13.32769,-9.921462 13.409221,11.130594 0 0 0 11.48636,-11.014192 13.409221,11.130594 0 0 0 -11.05388,-10.95811 13.409221,11.130594 0 0 0 -11.64467,-10.784158 13.409221,11.130594 0 0 0 -12.54332,-7.198016 13.409221,11.130594 0 0 0 -6.993,1.633092 13.409221,11.130594 0 0 0 -12.07274,-6.286672 z" />
    <path
       id="path1111"
       style="fill:#5a1d69;fill-opacity:0.8;stroke:none;stroke-width:0.120812;stroke-linecap:round;stroke-miterlimit:4;stroke-dasharray:0.120812, 0.241629;stroke-dashoffset:0;stroke-opacity:1;paint-order:stroke fill markers"
       d="m 483.23183,135.72671 a 2.2334058,2.0791369 0 0 0 -1.63553,0.6633 2.2334058,2.0791369 0 0 0 -1.11076,-0.27553 2.2334058,2.0791369 0 0 0 -2.16243,1.55982 2.2334058,2.0791369 0 0 0 -0.32324,-0.0222 2.2334058,2.0791369 0 0 0 -2.23352,2.07922 2.2334058,2.0791369 0 0 0 0.0127,0.22503 2.2334058,2.0791369 0 0 0 -1.86259,2.05014 2.2334058,2.0791369 0 0 0 1.70733,2.02079 2.2334058,2.0791369 0 0 0 -0.0885,0.57919 2.2334058,2.0791369 0 0 0 2.23352,2.07923 2.2334058,2.0791369 0 0 0 0.36037,-0.0276 2.2334058,2.0791369 0 0 0 1.84916,0.91312 2.2334058,2.0791369 0 0 0 0.0425,-2.3e-4 2.2334058,2.0791369 0 0 0 0.0444,-0.001 2.2334058,2.0791369 0 0 0 0.84976,-0.19026 2.2334058,2.0791369 0 0 0 1.87455,0.94902 2.2334058,2.0791369 0 0 0 1.92679,-1.02789 2.2334058,2.0791369 0 0 0 0.69396,0.10302 2.2334058,2.0791369 0 0 0 2.16268,-1.56027 2.2334058,2.0791369 0 0 0 0.57092,0.0689 2.2334058,2.0791369 0 0 0 2.21978,-1.85326 2.2334058,2.0791369 0 0 0 1.91316,-2.05742 2.2334058,2.0791369 0 0 0 -1.84108,-2.04693 2.2334058,2.0791369 0 0 0 -1.93952,-2.01444 2.2334058,2.0791369 0 0 0 -2.0892,-1.34454 2.2334058,2.0791369 0 0 0 -1.16472,0.30501 2.2334058,2.0791369 0 0 0 -2.01078,-1.1743 z" />
    <path
       id="path1113"
       style="fill:#5a1c68;fill-opacity:0.701961;stroke:none;stroke-width:0.0564394;stroke-linecap:round;stroke-miterlimit:4;stroke-dasharray:0.0564394, 0.112881;stroke-dashoffset:0;stroke-opacity:1;paint-order:stroke fill markers"
       d="m 483.27361,154.67534 a 1.05023,0.9649568 0 0 0 -0.76908,0.30783 1.05023,0.9649568 0 0 0 -0.52233,-0.12788 1.05023,0.9649568 0 0 0 -1.01685,0.72393 1.05023,0.9649568 0 0 0 -0.15197,-0.0101 1.05023,0.9649568 0 0 0 -1.05026,0.965 1.05023,0.9649568 0 0 0 0.006,0.10447 1.05023,0.9649568 0 0 0 -0.87587,0.95149 1.05023,0.9649568 0 0 0 0.80284,0.93789 1.05023,0.9649568 0 0 0 -0.0416,0.26881 1.05023,0.9649568 0 0 0 1.05026,0.96501 1.05023,0.9649568 0 0 0 0.16941,-0.013 1.05023,0.9649568 0 0 0 0.86956,0.42379 1.05023,0.9649568 0 0 0 0.019,-1e-4 1.05023,0.9649568 0 0 0 0.0222,-5.3e-4 1.05023,0.9649568 0 0 0 0.39958,-0.0882 1.05023,0.9649568 0 0 0 0.88148,0.44045 1.05023,0.9649568 0 0 0 0.90604,-0.47707 1.05023,0.9649568 0 0 0 0.32636,0.0478 1.05023,0.9649568 0 0 0 1.01695,-0.72412 1.05023,0.9649568 0 0 0 0.2684,0.032 1.05023,0.9649568 0 0 0 1.04385,-0.86014 1.05023,0.9649568 0 0 0 0.89963,-0.95485 1.05023,0.9649568 0 0 0 -0.86575,-0.95002 1.05023,0.9649568 0 0 0 -0.91203,-0.93494 1.05023,0.9649568 0 0 0 -0.98244,-0.62402 1.05023,0.9649568 0 0 0 -0.54767,0.14156 1.05023,0.9649568 0 0 0 -0.94554,-0.54502 z" />
    <path
       id="path1115"
       style="fill:#5a1d69;fill-opacity:0.600353;stroke:none;stroke-width:0.0384319;stroke-linecap:round;stroke-miterlimit:4;stroke-dasharray:0.0384319, 0.0768651;stroke-dashoffset:0;stroke-opacity:1;paint-order:stroke fill markers"
       d="m 477.81827,164.32596 a 0.67096485,0.70034568 0 0 0 -0.49133,0.22341 0.67096485,0.70034568 0 0 0 -0.33368,-0.0928 0.67096485,0.70034568 0 0 0 -0.64967,0.52544 0.67096485,0.70034568 0 0 0 -0.0971,-0.007 0.67096485,0.70034568 0 0 0 -0.67099,0.70036 0.67096485,0.70034568 0 0 0 0.003,0.0758 0.67096485,0.70034568 0 0 0 -0.55957,0.69057 0.67096485,0.70034568 0 0 0 0.5129,0.68071 0.67096485,0.70034568 0 0 0 -0.0254,0.19507 0.67096485,0.70034568 0 0 0 0.67099,0.70039 0.67096485,0.70034568 0 0 0 0.10818,-0.0102 0.67096485,0.70034568 0 0 0 0.55554,0.30758 0.67096485,0.70034568 0 0 0 0.0127,-9e-5 0.67096485,0.70034568 0 0 0 0.0127,-5.3e-4 0.67096485,0.70034568 0 0 0 0.25539,-0.0642 0.67096485,0.70034568 0 0 0 0.56315,0.31969 0.67096485,0.70034568 0 0 0 0.57886,-0.34625 0.67096485,0.70034568 0 0 0 0.20843,0.0346 0.67096485,0.70034568 0 0 0 0.64973,-0.52558 0.67096485,0.70034568 0 0 0 0.17164,0.0232 0.67096485,0.70034568 0 0 0 0.66686,-0.62426 0.67096485,0.70034568 0 0 0 0.57473,-0.69304 0.67096485,0.70034568 0 0 0 -0.55309,-0.68949 0.67096485,0.70034568 0 0 0 -0.58267,-0.67855 0.67096485,0.70034568 0 0 0 -0.62765,-0.4529 0.67096485,0.70034568 0 0 0 -0.3499,0.10273 0.67096485,0.70034568 0 0 0 -0.60408,-0.39555 z" />
    <path
       id="path1323"
       style="fill:#5a1d69;fill-opacity:0.9;stroke:none;stroke-width:0.157168;stroke-linecap:round;stroke-miterlimit:4;stroke-dasharray:0.157168, 0.314341;stroke-dashoffset:0;stroke-opacity:1;paint-order:stroke fill markers"
       d="m 407.45194,98.235367 a 2.9545282,2.6599213 0 0 0 -2.16356,0.848579 2.9545282,2.6599213 0 0 0 -1.46942,-0.35247 2.9545282,2.6599213 0 0 0 -2.86062,1.995534 2.9545282,2.6599213 0 0 0 -0.42763,-0.0282 2.9545282,2.6599213 0 0 0 -2.95466,2.66003 2.9545282,2.6599213 0 0 0 0.019,0.28791 2.9545282,2.6599213 0 0 0 -2.46397,2.62282 2.9545282,2.6599213 0 0 0 2.25855,2.58528 2.9545282,2.6599213 0 0 0 -0.11706,0.74098 2.9545282,2.6599213 0 0 0 2.95466,2.66003 2.9545282,2.6599213 0 0 0 0.47677,-0.0351 2.9545282,2.6599213 0 0 0 2.44623,1.16819 2.9545282,2.6599213 0 0 0 0.0565,-2.6e-4 2.9545282,2.6599213 0 0 0 0.0587,-10e-4 2.9545282,2.6599213 0 0 0 1.12412,-0.2434 2.9545282,2.6599213 0 0 0 2.47977,1.21413 2.9545282,2.6599213 0 0 0 2.54896,-1.31502 2.9545282,2.6599213 0 0 0 0.918,0.13178 2.9545282,2.6599213 0 0 0 2.86098,-1.99612 2.9545282,2.6599213 0 0 0 0.75522,0.088 2.9545282,2.6599213 0 0 0 2.93655,-2.37098 2.9545282,2.6599213 0 0 0 2.53084,-2.63213 2.9545282,2.6599213 0 0 0 -2.43551,-2.61874 2.9545282,2.6599213 0 0 0 -2.56578,-2.57714 2.9545282,2.6599213 0 0 0 -2.7637,-1.720126 2.9545282,2.6599213 0 0 0 -1.54083,0.39022 2.9545282,2.6599213 0 0 0 -2.66,-1.50233 z" />
    <path
       id="path2648"
       style="fill:#5a1d69;fill-opacity:1;stroke:none;stroke-width:0.660833;stroke-linecap:round;stroke-miterlimit:4;stroke-dasharray:0.660833, 1.32169;stroke-dashoffset:0;stroke-opacity:1;paint-order:stroke fill markers"
       d="m 548.02994,30.702282 a 12.937335,10.738896 0 0 0 -9.47391,3.425949 12.937335,10.738896 0 0 0 -6.43428,-1.422958 12.937335,10.738896 0 0 0 -12.52622,8.056564 12.937335,10.738896 0 0 0 -1.87277,-0.113773 12.937335,10.738896 0 0 0 -12.93782,10.739303 12.937335,10.738896 0 0 0 0.0765,1.162311 12.937335,10.738896 0 0 0 -10.78933,10.589045 12.937335,10.738896 0 0 0 9.88976,10.437546 12.937335,10.738896 0 0 0 -0.51347,2.991572 12.937335,10.738896 0 0 0 12.93788,10.73929 12.937335,10.738896 0 0 0 2.08768,-0.142002 12.937335,10.738896 0 0 0 10.71157,4.71628 12.937335,10.738896 0 0 0 0.24619,-0.0014 12.937335,10.738896 0 0 0 0.25729,-0.0054 12.937335,10.738896 0 0 0 4.92223,-0.98272 12.937335,10.738896 0 0 0 10.85864,4.9018 12.937335,10.738896 0 0 0 11.16134,-5.309202 12.937335,10.738896 0 0 0 4.0198,0.531952 12.937335,10.738896 0 0 0 12.52771,-8.058895 12.937335,10.738896 0 0 0 3.30694,0.35571 12.937335,10.738896 0 0 0 12.85867,-9.572314 12.937335,10.738896 0 0 0 11.08215,-10.626374 12.937335,10.738896 0 0 0 -10.66487,-10.572519 12.937335,10.738896 0 0 0 -11.23487,-10.40465 12.937335,10.738896 0 0 0 -12.10193,-6.94471 12.937335,10.738896 0 0 0 -6.7469,1.575622 A 12.937335,10.738896 0 0 0 548.03,30.702921 Z" />
    <path
       id="path2650"
       style="fill:#5a1d69;fill-opacity:0.8;stroke:none;stroke-width:0.120812;stroke-linecap:round;stroke-miterlimit:4;stroke-dasharray:0.120812, 0.241629;stroke-dashoffset:0;stroke-opacity:1;paint-order:stroke fill markers"
       d="m 389.05111,177.87895 a 2.2334058,2.0791369 0 0 0 -1.6355,0.6633 2.2334058,2.0791369 0 0 0 -1.11076,-0.27553 2.2334058,2.0791369 0 0 0 -2.16242,1.55982 2.2334058,2.0791369 0 0 0 -0.32328,-0.0222 2.2334058,2.0791369 0 0 0 -2.23349,2.07922 2.2334058,2.0791369 0 0 0 0.0127,0.22503 2.2334058,2.0791369 0 0 0 -1.86259,2.05014 2.2334058,2.0791369 0 0 0 1.7073,2.02079 2.2334058,2.0791369 0 0 0 -0.0885,0.57919 2.2334058,2.0791369 0 0 0 2.23352,2.07923 2.2334058,2.0791369 0 0 0 0.3604,-0.0276 2.2334058,2.0791369 0 0 0 1.84916,0.91312 2.2334058,2.0791369 0 0 0 0.0425,-2.4e-4 2.2334058,2.0791369 0 0 0 0.0444,-0.001 2.2334058,2.0791369 0 0 0 0.84976,-0.19026 2.2334058,2.0791369 0 0 0 1.87455,0.94902 2.2334058,2.0791369 0 0 0 1.9268,-1.02789 2.2334058,2.0791369 0 0 0 0.69395,0.10301 2.2334058,2.0791369 0 0 0 2.16268,-1.56027 2.2334058,2.0791369 0 0 0 0.57089,0.0689 2.2334058,2.0791369 0 0 0 2.21981,-1.85326 2.2334058,2.0791369 0 0 0 1.91316,-2.05742 2.2334058,2.0791369 0 0 0 -1.84111,-2.04693 2.2334058,2.0791369 0 0 0 -1.93952,-2.01444 2.2334058,2.0791369 0 0 0 -2.08916,-1.34454 2.2334058,2.0791369 0 0 0 -1.16473,0.30501 2.2334058,2.0791369 0 0 0 -2.01078,-1.1743 z" />
    <path
       id="path2652"
       style="fill:#5a1c68;fill-opacity:0.701961;stroke:none;stroke-width:0.0564394;stroke-linecap:round;stroke-miterlimit:4;stroke-dasharray:0.0564394, 0.112881;stroke-dashoffset:0;stroke-opacity:1;paint-order:stroke fill markers"
       d="m 382.55115,160.01135 a 1.05023,0.9649568 0 0 0 -0.76908,0.30783 1.05023,0.9649568 0 0 0 -0.52232,-0.12789 1.05023,0.9649568 0 0 0 -1.01686,0.72394 1.05023,0.9649568 0 0 0 -0.15196,-0.0102 1.05023,0.9649568 0 0 0 -1.05026,0.965 1.05023,0.9649568 0 0 0 0.006,0.10447 1.05023,0.9649568 0 0 0 -0.87587,0.95149 1.05023,0.9649568 0 0 0 0.80284,0.93789 1.05023,0.9649568 0 0 0 -0.0416,0.2688 1.05023,0.9649568 0 0 0 1.05026,0.96502 1.05023,0.9649568 0 0 0 0.16941,-0.013 1.05023,0.9649568 0 0 0 0.86956,0.42379 1.05023,0.9649568 0 0 0 0.019,-1e-4 1.05023,0.9649568 0 0 0 0.0222,-5.3e-4 1.05023,0.9649568 0 0 0 0.39958,-0.0882 1.05023,0.9649568 0 0 0 0.88149,0.44046 1.05023,0.9649568 0 0 0 0.90604,-0.47707 1.05023,0.9649568 0 0 0 0.32635,0.0478 1.05023,0.9649568 0 0 0 1.01695,-0.72413 1.05023,0.9649568 0 0 0 0.2684,0.032 1.05023,0.9649568 0 0 0 1.04385,-0.86013 1.05023,0.9649568 0 0 0 0.89964,-0.95486 1.05023,0.9649568 0 0 0 -0.86575,-0.95002 1.05023,0.9649568 0 0 0 -0.91204,-0.93494 1.05023,0.9649568 0 0 0 -0.9824,-0.62401 1.05023,0.9649568 0 0 0 -0.54771,0.14156 1.05023,0.9649568 0 0 0 -0.94553,-0.54502 z" />
    <path
       id="path2654"
       style="fill:#5a1d69;fill-opacity:0.600353;stroke:none;stroke-width:0.0384319;stroke-linecap:round;stroke-miterlimit:4;stroke-dasharray:0.0384319, 0.0768651;stroke-dashoffset:0;stroke-opacity:1;paint-order:stroke fill markers"
       d="m 433.01576,161.12527 a 0.67096485,0.70034568 0 0 0 -0.49136,0.22341 0.67096485,0.70034568 0 0 0 -0.33369,-0.0928 0.67096485,0.70034568 0 0 0 -0.64963,0.52544 0.67096485,0.70034568 0 0 0 -0.0971,-0.007 0.67096485,0.70034568 0 0 0 -0.67102,0.70037 0.67096485,0.70034568 0 0 0 0.003,0.0758 0.67096485,0.70034568 0 0 0 -0.55954,0.69057 0.67096485,0.70034568 0 0 0 0.5129,0.68071 0.67096485,0.70034568 0 0 0 -0.0254,0.19508 0.67096485,0.70034568 0 0 0 0.67099,0.70038 0.67096485,0.70034568 0 0 0 0.10818,-0.0102 0.67096485,0.70034568 0 0 0 0.55554,0.30757 0.67096485,0.70034568 0 0 0 0.0127,-9e-5 0.67096485,0.70034568 0 0 0 0.0127,-5.3e-4 0.67096485,0.70034568 0 0 0 0.25539,-0.0642 0.67096485,0.70034568 0 0 0 0.56316,0.31969 0.67096485,0.70034568 0 0 0 0.57885,-0.34625 0.67096485,0.70034568 0 0 0 0.20844,0.0346 0.67096485,0.70034568 0 0 0 0.6497,-0.52559 0.67096485,0.70034568 0 0 0 0.17163,0.0232 0.67096485,0.70034568 0 0 0 0.66687,-0.62426 0.67096485,0.70034568 0 0 0 0.57476,-0.69304 0.67096485,0.70034568 0 0 0 -0.55313,-0.68949 0.67096485,0.70034568 0 0 0 -0.58263,-0.67855 0.67096485,0.70034568 0 0 0 -0.62765,-0.4529 0.67096485,0.70034568 0 0 0 -0.34993,0.10273 0.67096485,0.70034568 0 0 0 -0.60405,-0.39555 z" />
    <path
       id="path2656"
       style="fill:#5a1d69;fill-opacity:0.9;stroke:none;stroke-width:0.157168;stroke-linecap:round;stroke-miterlimit:4;stroke-dasharray:0.157168, 0.314341;stroke-dashoffset:0;stroke-opacity:1;paint-order:stroke fill markers"
       d="m 566.96985,99.460213 a 2.9545282,2.6599213 0 0 0 -2.16356,0.848577 2.9545282,2.6599213 0 0 0 -1.46942,-0.352468 2.9545282,2.6599213 0 0 0 -2.86063,1.995528 2.9545282,2.6599213 0 0 0 -0.42762,-0.0282 2.9545282,2.6599213 0 0 0 -2.95466,2.66003 2.9545282,2.6599213 0 0 0 0.019,0.2879 2.9545282,2.6599213 0 0 0 -2.46397,2.62283 2.9545282,2.6599213 0 0 0 2.25855,2.58527 2.9545282,2.6599213 0 0 0 -0.11707,0.74098 2.9545282,2.6599213 0 0 0 2.95467,2.66004 2.9545282,2.6599213 0 0 0 0.47676,-0.0351 2.9545282,2.6599213 0 0 0 2.44624,1.16819 2.9545282,2.6599213 0 0 0 0.0565,-2.7e-4 2.9545282,2.6599213 0 0 0 0.0587,-10e-4 2.9545282,2.6599213 0 0 0 1.12412,-0.2434 2.9545282,2.6599213 0 0 0 2.47977,1.21413 2.9545282,2.6599213 0 0 0 2.54896,-1.31503 2.9545282,2.6599213 0 0 0 0.918,0.13179 2.9545282,2.6599213 0 0 0 2.86098,-1.99612 2.9545282,2.6599213 0 0 0 0.75522,0.088 2.9545282,2.6599213 0 0 0 2.93654,-2.37098 2.9545282,2.6599213 0 0 0 2.53085,-2.63212 2.9545282,2.6599213 0 0 0 -2.43551,-2.61874 2.9545282,2.6599213 0 0 0 -2.56578,-2.57715 2.9545282,2.6599213 0 0 0 -2.76374,-1.72012 2.9545282,2.6599213 0 0 0 -1.5408,0.39022 2.9545282,2.6599213 0 0 0 -2.66,-1.50233 z" />
    <text
       xml:space="preserve"
       id="text2678"
       style="font-style:normal;font-weight:normal;font-size:3.33594px;line-height:1.25;font-family:sans-serif;letter-spacing:0px;word-spacing:0px;white-space:pre;shape-inside:url(#rect2680);fill:#000000;fill-opacity:0.8;stroke:none;filter:url(#filter2802);"
       transform="matrix(24.986721,0,0,24.986721,-289.05723,-499.55491)"><tspan
         x="32.507812"
         y="23.74818"><tspan
           style="font-style:normal;font-variant:normal;font-weight:bold;font-stretch:normal;font-size:3.33594px;font-family:sans-serif;-inkscape-font-specification:'sans-serif, Bold';font-variant-ligatures:normal;font-variant-caps:normal;font-variant-numeric:normal;font-variant-east-asian:normal;fill:#000000;fill-opacity:0.8">$</tspan></tspan></text>
    <text
       xml:space="preserve"
       id="text2658"
       style="font-style:normal;font-weight:normal;font-size:3.33594px;line-height:1.25;font-family:sans-serif;letter-spacing:0px;word-spacing:0px;white-space:pre;shape-inside:url(#rect2660);fill:#ff75ff;fill-opacity:1;stroke:none;"
       transform="matrix(24.986721,0,0,24.986721,-289.67806,-500.61326)"><tspan
         x="32.507812"
         y="23.74818"><tspan
           style="font-style:normal;font-variant:normal;font-weight:bold;font-stretch:normal;font-size:3.33594px;font-family:sans-serif;-inkscape-font-specification:'sans-serif, Bold';font-variant-ligatures:normal;font-variant-caps:normal;font-variant-numeric:normal;font-variant-east-asian:normal;fill:#ff75ff;fill-opacity:1">$</tspan></tspan></text>
    <g
       id="g3594"
       transform="matrix(3.257909,0,0,3.257909,317.79642,26.752479)">
      <path
         id="path2851"
         style="fill:#000000;fill-opacity:0.8;stroke:none;stroke-width:0.0833985px;stroke-linecap:butt;stroke-linejoin:miter;stroke-opacity:1;marker-start:url(#marker3125);filter:url(#filter3563)"
         d="m 19.186123,-1.1809174 3.26e-4,11.7494124 2.30372,-0.0028 c 0,0 0.134436,-1.1502654 0.421716,-1.6337634 0.356654,-0.600259 2.138316,-1.971635 2.442338,-3.308248 0.360704,-1.585812 0.255254,-3.24202 -0.91494,-4.792481 -0.944814,-1.251841 -2.628516,-2.012151 -4.25316,-2.012151 z m 0,0 c -1.624644,0 -3.308345,0.76031 -4.253159,2.012151 -1.170194,1.550461 -1.275482,3.206669 -0.914777,4.792481 0.304022,1.336613 2.085683,2.707989 2.442337,3.308248 0.28728,0.483498 0.421716,1.6337634 0.421716,1.6337634 l 2.30372,0.0028 z M 16.934365,10.845404 c -0.254606,0 -0.459507,0.205063 -0.459507,0.459669 v 0.284891 c 0,0.254605 0.204901,0.459669 0.459507,0.459669 h 4.445692 c 0.254606,0 0.459669,-0.205064 0.459669,-0.459669 v -0.284891 c 0,-0.254606 -0.205063,-0.459669 -0.459669,-0.459669 z m 0.214197,1.554111 c -0.193605,0 -0.349557,0.155953 -0.349557,0.349558 v 0.21664 c 0,0.193605 0.155952,0.349557 0.349557,0.349557 h 4.061603 c 0.193604,0 0.349557,-0.155952 0.349557,-0.349557 v -0.21664 c 0,-0.193605 -0.155953,-0.349558 -0.349557,-0.349558 z m 0.74684,1.229477 c -0.192244,0 -0.346951,0.154707 -0.346951,0.34695 v 0.215175 c 0,0.192243 0.154707,0.346951 0.346951,0.346951 h 2.52997 c 0.192244,0 0.347114,-0.154708 0.347114,-0.346951 v -0.215175 c 0,-0.192243 -0.15487,-0.34695 -0.347114,-0.34695 z"
         transform="matrix(1.3431522,0,0,1.3431522,-6.5838123,0.4049948)" />
      <path
         id="path2824"
         style="fill:#ff75ff;fill-opacity:1;stroke:none;stroke-width:0.112017px;stroke-linecap:butt;stroke-linejoin:miter;stroke-opacity:1"
         d="m 18.962038,-1.4051909 4.38e-4,15.7812489 3.094246,-0.0038 c 0,0 0.180568,-1.544981 0.566429,-2.194392 0.479041,-0.80624 2.872084,-2.6482059 3.280432,-4.4434809 0.48448,-2.129987 0.342845,-4.3545263 -1.228904,-6.4370317 -1.269029,-1.6814121 -3.530497,-2.7026249 -5.712641,-2.7026249 z m 0,0 c -2.182144,0 -4.443612,1.0212128 -5.712641,2.702625 -1.571749,2.0825053 -1.713165,4.3070446 -1.228685,6.4370317 0.408349,1.7952749 2.801391,3.6372412 3.280432,4.4434812 0.385859,0.649411 0.566428,2.194392 0.566428,2.194392 l 3.094247,0.0038 z M 15.937583,14.747988 c -0.341973,0 -0.617187,0.275432 -0.617187,0.617406 v 0.382651 c 0,0.341975 0.275214,0.617407 0.617187,0.617407 h 5.971242 c 0.341975,0 0.617406,-0.275432 0.617406,-0.617407 v -0.382651 c 0,-0.341974 -0.275431,-0.617406 -0.617406,-0.617406 z m 0.2877,2.087409 c -0.260041,0 -0.469509,0.209468 -0.469509,0.469508 v 0.29098 c 0,0.260043 0.209468,0.469509 0.469509,0.469509 h 5.455351 c 0.26004,0 0.469509,-0.209466 0.469509,-0.469509 v -0.29098 c 0,-0.26004 -0.209469,-0.469508 -0.469509,-0.469508 z m 1.00312,1.651373 c -0.258213,0 -0.466008,0.207796 -0.466008,0.466007 v 0.289012 c 0,0.258213 0.207795,0.466009 0.466008,0.466009 h 3.398135 c 0.258213,0 0.466227,-0.207796 0.466227,-0.466009 v -0.289012 c 0,-0.258211 -0.208014,-0.466007 -0.466227,-0.466007 z" />
      <path
         style="fill:none;stroke:#5a1d69;stroke-width:0.416992;stroke-linecap:butt;stroke-linejoin:miter;stroke-miterlimit:4;stroke-dasharray:none;stroke-opacity:1"
         d="m -8.96344,30.054287 v -4.188513 c 0,-0.393821 0.1528716,-1.510535 -0.86838,-1.504078 -0.375829,0.0024 -0.691409,0.304122 -0.694275,0.694275 -0.0032,0.437561 0.183856,1.484489 2.5712116,1.484489 m 1.0085566,3.513827 v -4.188513 c 0,-0.393821 -0.1528716,-1.510535 0.86838,-1.504078 0.375829,0.0024 0.691409,0.304122 0.694275,0.694275 0.0032,0.437561 -0.183856,1.484489 -2.5712116,1.484489"
         id="path2820"
         transform="matrix(1.3431522,0,0,1.3431522,29.531131,-25.991454)"
         sodipodi:nodetypes="ccscc"
         inkscape:original-d="m -8.96344,30.054287 c 0,0 0,-3.890067 0,-4.188513 0,-0.393821 0.1528716,-1.510535 -0.86838,-1.504078 -0.375829,0.0024 -0.691409,0.304122 -0.694275,0.694275 -0.0032,0.437561 0.183856,1.484489 2.5712116,1.484489"
         inkscape:path-effect="#path-effect2822" />
    </g>
    <path
       style="fill:#732486;fill-opacity:1;stroke:none;stroke-width:0.306965px;stroke-linecap:butt;stroke-linejoin:miter;stroke-opacity:1"
       d="m 93.679381,142.30628 7.092069,9.0386 c -11.553235,13.17271 -14.720165,21.45019 -34.595674,33.17332 0,0 -12.232887,-0.87272 -17.837568,-3.11264 -11.565443,-4.62217 -24.325042,-10.26201 -31.096461,-20.71533 -2.60436,-4.02045 -4.008673,-9.66672 -2.381422,-14.17214 1.667128,-4.61582 6.316963,-8.78322 11.154574,-9.60947 4.764956,-0.81384 10.094751,1.85666 13.505781,5.28187 3.28043,3.29405 2.153984,9.35379 5.025739,13.00962 4.355144,5.54422 17.363495,12.07726 17.363495,12.07726 0,0 5.030224,-0.33416 7.200468,-1.47039 10.040146,-5.25651 24.568999,-23.5007 24.568999,-23.5007 z"
       id="path1482"
       sodipodi:nodetypes="cccaaaaaacac" />
    <path
       style="fill:#3f144a;fill-opacity:1;stroke:none;stroke-width:0.306965px;stroke-linecap:butt;stroke-linejoin:miter;stroke-opacity:1"
       d="m 103.23075,136.57463 c 0,0 2.7593,-0.9352 4.1851,-0.8929 1.48541,0.0441 4.29725,1.18706 4.29725,1.18706 0,0 2.18723,0.96054 1.8866,2.9292 -0.26833,1.75714 -1.69616,2.34397 -1.69616,2.34397 0,0 -0.22221,3.78564 -1.01568,5.45716 -0.74065,1.56023 -1.71121,3.40181 -3.34736,3.95488 -1.58804,0.53681 -3.25846,-0.80231 -4.91162,-1.08007 -1.06514,-0.17896 -2.24238,-0.83938 -3.218251,-0.37653 -1.070725,0.50786 -4.752812,-6.05927 -4.752812,-6.05927 0,0 4.252119,-6.98083 5.383223,-10.85943 0.44998,-1.54302 0.51638,-4.79415 0.51638,-4.79415 0,0 1.68584,-0.0689 2.94017,1.62294 0.85259,1.14996 0.77896,2.53418 0.89829,3.59179 -0.0747,1.01367 -0.8337,2.16704 -1.16513,2.97535 z"
       id="path1480"
       sodipodi:nodetypes="cacscaaascacscc" />
    <path
       style="fill:#732486;fill-opacity:1;stroke:none;stroke-width:0.306965px;stroke-linecap:butt;stroke-linejoin:miter;stroke-opacity:1"
       d="m 102.32062,137.12001 c 0,0 3.48863,-0.7855 5.25718,-0.73284 1.3967,0.0416 4.11004,0.82478 4.11004,0.82478 0,0 2.10619,0.60407 1.91185,2.58605 -0.20152,2.05536 -3.30896,1.89079 -3.30896,1.89079 0,0 1.3438,4.07638 0.59712,5.91035 -0.63305,1.55488 -2.24057,2.79852 -3.86224,3.23245 -1.41919,0.37958 -2.87651,-0.64239 -4.34059,-0.76353 -1.08775,-0.09 -2.29839,-0.43333 -3.27426,0.0295 -1.070726,0.50785 -4.752813,-6.05927 -4.752813,-6.05927 0,0 4.67882,-5.61763 5.717873,-9.02354 0.64511,-2.11463 0.18175,-6.63004 0.18175,-6.63004 0,0 1.54765,0.0171 2.80196,1.70904 0.8526,1.14996 0.78072,2.45329 0.90005,3.5109 -0.0747,1.01367 -0.69726,2.16182 -1.02869,2.97013 z"
       id="path1570"
       sodipodi:nodetypes="cacscaaascacsccc" />
    <path
       style="fill:#ffffff;fill-opacity:1;stroke:none;stroke-width:0.306965px;stroke-linecap:butt;stroke-linejoin:miter;stroke-opacity:1"
       d="m 93.679381,142.30628 c 0,0 0.823218,2.97948 1.877462,4.48168 1.054244,1.50221 5.214607,4.55692 5.214607,4.55692 -9.98055,6.9779 -8.12448,14.02484 -34.595674,33.17332 0,0 -12.121487,-1.7943 -17.536305,-3.82974 -5.618336,-2.11195 -11.870989,-3.83015 -16.985566,-7.25813 -5.03658,-3.37571 -9.539681,-7.82839 -12.968112,-12.75504 -2.554693,-3.67109 -4.864441,-9.10608 -3.520887,-13.58793 1.309815,-4.3693 5.659401,-8.39417 10.153664,-9.1739 4.617315,-0.80108 9.582374,2.1506 12.996856,5.36037 3.306327,3.1081 2.973167,8.82245 5.957779,12.24066 4.647743,5.32296 17.636709,11.76288 17.636709,11.76288 0,0 12.909062,-4.20455 18.754877,-9.26142 3.121445,-3.49329 10.772484,-11.7729 13.01459,-15.70967 z"
       id="path3654"
       sodipodi:nodetypes="czccsasaaaaccc" />
    <path
       style="fill:#3f144a;fill-opacity:1;stroke:none;stroke-width:0.306965px;stroke-linecap:butt;stroke-linejoin:miter;stroke-opacity:1"
       d="m 160.06535,139.47109 c 0,0 -2.7593,-0.9352 -4.1851,-0.8929 -1.48541,0.0441 -4.29725,1.18705 -4.29725,1.18705 0,0 -2.18723,0.96055 -1.8866,2.92921 0.26833,1.75713 1.69616,2.34397 1.69616,2.34397 0,0 0.22221,3.78564 1.01568,5.45715 0.74065,1.56024 1.71121,3.40181 3.34736,3.95489 1.58804,0.53681 3.27588,-0.71346 4.91162,-1.08007 1.23618,-0.27706 3.70517,-0.84609 3.70517,-0.84609 l 4.26589,-5.58972 c 0,0 -4.25212,-6.98083 -5.38322,-10.85943 -0.44998,-1.54301 -0.51638,-4.79414 -0.51638,-4.79414 0,0 -1.68584,-0.0689 -2.94017,1.62293 -0.85259,1.14997 -0.77896,2.53419 -0.89829,3.5918 0.0747,1.01367 0.8337,2.16704 1.16513,2.97535 z"
       id="path3702"
       sodipodi:nodetypes="cacscaaaccacscc" />
    <path
       style="fill:#732486;fill-opacity:1;stroke:none;stroke-width:0.306965px;stroke-linecap:butt;stroke-linejoin:miter;stroke-opacity:1"
       d="m 161.86311,141.06187 c 0,0 -3.56608,-1.71148 -5.49301,-1.84555 -1.611,-0.11209 -4.76184,0.89209 -4.76184,0.89209 0,0 -2.10619,0.60407 -1.91185,2.58605 0.20152,2.05536 3.30896,1.89079 3.30896,1.89079 0,0 -1.3438,4.07638 -0.59712,5.91035 0.63305,1.55488 2.22824,2.84714 3.86224,3.23244 1.49567,0.35269 2.96217,-0.85979 4.48474,-1.06762 1.19549,-0.1632 3.61716,-0.13614 3.61716,-0.13614 l 4.26576,-5.58954 c 0,0 -4.53684,-5.01858 -5.57707,-8.13839 -0.7931,-2.37863 -0.32254,-7.51519 -0.32254,-7.51519 0,0 -1.54765,0.0171 -2.80196,1.70904 -0.85259,1.14997 -0.78072,2.4533 -0.90004,3.51091 0.0747,1.01367 0.69726,2.16181 1.02868,2.97013 z"
       id="path3704"
       sodipodi:nodetypes="cacscaaaccacsccc" />
    <path
       style="fill:#c46ed8;fill-opacity:1;stroke:none;stroke-width:0.264583px;stroke-linecap:butt;stroke-linejoin:miter;stroke-opacity:1"
       d="m 52.768692,114.32258 c 0,0 14.886693,7.45759 22.429131,5.80043 2.733674,-0.60061 3.407996,-2.55093 3.407996,-2.55093 0,0 -0.830746,7.50723 -2.121419,11.4861 -2.025305,6.24361 -4.173234,9.18324 -4.173234,9.18324 -19.331273,-4.2086 -21.031696,-9.02879 -21.031696,-9.02879 0,0 5.643094,-2.56971 6.204545,-5.2117 0.74596,-3.51024 -4.715323,-9.67835 -4.715323,-9.67835 z"
       id="path3706"
       sodipodi:nodetypes="cscsccac" />
    <path
       style="fill:#daa5e8;fill-opacity:1;stroke:none;stroke-width:0.264583px;stroke-linecap:butt;stroke-linejoin:miter;stroke-opacity:1"
       d="m 52.768692,114.32258 c 0,0 13.709546,9.2991 21.251983,7.64195 2.733675,-0.60062 4.585144,-4.39245 4.585144,-4.39245 0,0 -0.982668,7.5847 -2.273341,11.56357 -2.025305,6.24361 -4.363897,8.00912 -4.363897,8.00912 -19.331272,-4.2086 -20.689111,-7.93214 -20.689111,-7.93214 0,0 6.591646,-1.61557 7.333168,-4.3612 1.04657,-3.87514 -5.843946,-10.52885 -5.843946,-10.52885 z"
       id="path3708"
       sodipodi:nodetypes="cscsccac" />
    <path
       style="fill:#c46ed8;fill-opacity:1;stroke:none;stroke-width:0.264583px;stroke-linecap:butt;stroke-linejoin:miter;stroke-opacity:1"
       d="m 211.86749,117.14578 c 0,0 -14.88669,7.45757 -22.42913,5.80042 -2.73367,-0.60062 -3.408,-2.55094 -3.408,-2.55094 0,0 0.83075,7.50723 2.12142,11.48611 2.02531,6.24361 4.17324,9.18324 4.17324,9.18324 19.33127,-4.2086 21.03169,-9.0288 21.03169,-9.0288 0,0 -5.64309,-2.5697 -6.20454,-5.2117 -0.74596,-3.51024 4.71532,-9.67833 4.71532,-9.67833 z"
       id="path3710"
       sodipodi:nodetypes="cscsccac" />
    <path
       style="fill:#daa5e8;fill-opacity:1;stroke:none;stroke-width:0.264583px;stroke-linecap:butt;stroke-linejoin:miter;stroke-opacity:1"
       d="m 211.86749,117.14578 c 0,0 -13.70955,9.29909 -21.25198,7.64194 -2.73368,-0.60062 -4.58515,-4.39246 -4.58515,-4.39246 0,0 0.98267,7.5847 2.27335,11.56358 2.0253,6.24361 4.36389,8.00911 4.36389,8.00911 19.33127,-4.2086 20.68911,-7.93214 20.68911,-7.93214 0,0 -6.59164,-1.61556 -7.33317,-4.3612 -1.04657,-3.87514 5.84395,-10.52883 5.84395,-10.52883 z"
       id="path3712"
       sodipodi:nodetypes="cscsccac" />
    <path
       id="path3714"
       style="fill:#732486;fill-opacity:1;stroke:none;stroke-width:0.601506;stroke-linecap:round;stroke-miterlimit:4;stroke-dasharray:0.601506, 1.20304;stroke-dashoffset:0;stroke-opacity:1;paint-order:stroke fill markers"
       d="m 140.17541,4.4386847 a 11.775906,9.7748286 0 0 0 -8.6234,3.1183894 11.775906,9.7748286 0 0 0 -5.85664,-1.295215 11.775906,9.7748286 0 0 0 -11.40174,7.3332989 11.775906,9.7748286 0 0 0 -1.70462,-0.10356 11.775906,9.7748286 0 0 0 -11.77636,9.7752 11.775906,9.7748286 0 0 0 0.0697,1.057967 11.775906,9.7748286 0 0 0 -9.820742,9.638428 11.775906,9.7748286 0 0 0 9.001942,9.500534 11.775906,9.7748286 0 0 0 -0.467372,2.723005 11.775906,9.7748286 0 0 0 11.776382,9.775194 11.775906,9.7748286 0 0 0 1.90029,-0.12928 11.775906,9.7748286 0 0 0 9.74993,4.29289 11.775906,9.7748286 0 0 0 0.224,-10e-4 11.775906,9.7748286 0 0 0 0.23402,-0.005 11.775906,9.7748286 0 0 0 4.48038,-0.8945 11.775906,9.7748286 0 0 0 9.88382,4.46173 11.775906,9.7748286 0 0 0 10.15936,-4.83256 11.775906,9.7748286 0 0 0 3.65892,0.4842 11.775906,9.7748286 0 0 0 11.40304,-7.335422 11.775906,9.7748286 0 0 0 3.01007,0.323786 11.775906,9.7748286 0 0 0 11.7043,-8.712976 11.775906,9.7748286 0 0 0 10.08727,-9.672606 11.775906,9.7748286 0 0 0 -9.70746,-9.623323 11.775906,9.7748286 0 0 0 -10.22628,-9.47059 11.775906,9.7748286 0 0 0 -11.01548,-6.3212589 11.775906,9.7748286 0 0 0 -6.14121,1.434172 11.775906,9.7748286 0 0 0 -10.60222,-5.5209224 z" />
    <g
       aria-label="Motivus"
       transform="matrix(7.8105227,0,0,7.8105227,96.977764,-112.87429)"
       id="text5779"
       style="font-style:normal;font-weight:normal;font-size:3.33594px;line-height:1.25;font-family:sans-serif;letter-spacing:0px;word-spacing:0px;white-space:pre;shape-inside:url(#rect5781);fill:#000000;fill-opacity:0.9;stroke:none;filter:url(#filter5787)">
      <path
         d="m 0.67290724,17.56651 q 0.0200156,0.09007 0.0500391,0.256867 0.0333594,0.163461 0.0667188,0.363618 0.0366953,0.19682 0.0733907,0.406984 0.0366953,0.206828 0.0667188,0.380297 Q 1.0431966,18.800807 1.1766342,18.600651 1.3100718,18.400495 1.4401734,18.20701 1.5702751,18.013526 1.687033,17.846729 1.8037909,17.676596 1.8871894,17.56651 h 0.4603597 q -0.023352,0.23018 -0.063383,0.51707 -0.036695,0.286891 -0.086734,0.593798 -0.046703,0.306906 -0.1000782,0.617149 -0.053375,0.310242 -0.1067501,0.583789 H 1.4835406 q 0.070055,-0.340266 0.1467814,-0.733907 0.080062,-0.396977 0.1467813,-0.800625 -0.086734,0.136773 -0.1934845,0.306906 -0.10675,0.166797 -0.2135001,0.340266 -0.1067501,0.170133 -0.2068283,0.326922 -0.1000782,0.156789 -0.17346887,0.266875 H 0.60952438 q -0.0166797,-0.100078 -0.0400313,-0.253531 -0.0233516,-0.153453 -0.053375,-0.323586 -0.0266875,-0.173469 -0.056711,-0.346938 -0.0300235,-0.176805 -0.056711,-0.316914 -0.13010165,0.403648 -0.23685173,0.800625 -0.10341414,0.393641 -0.19348451,0.733907 h -0.50372693 q 0.0767266,-0.273547 0.166797,-0.583789 0.0934063,-0.310243 0.19014857,-0.617149 0.1000782,-0.310243 0.19682045,-0.597134 0.09674226,-0.28689 0.1834767,-0.513734 z"
         style="font-style:italic;font-variant:normal;font-weight:bold;font-stretch:normal;font-size:3.33594px;font-family:Ubuntu;-inkscape-font-specification:'Ubuntu, Bold Italic';font-variant-ligatures:normal;font-variant-caps:normal;font-variant-numeric:normal;font-variant-east-asian:normal;fill:#000000;fill-opacity:0.9"
         id="path1029" />
      <path
         d="m 3.2415756,19.925019 q -0.1768048,0 -0.3069065,-0.05337 -0.1301017,-0.05337 -0.2168361,-0.150117 -0.083399,-0.09674 -0.1267657,-0.226844 -0.043367,-0.133438 -0.043367,-0.293563 0,-0.200156 0.063383,-0.400313 0.066719,-0.200156 0.1934845,-0.360281 0.1267658,-0.160125 0.3102425,-0.260203 0.1834766,-0.103415 0.4203284,-0.103415 0.1734689,0 0.3035705,0.05338 0.1334376,0.05337 0.2168361,0.150117 0.086734,0.09674 0.1301017,0.23018 0.043367,0.130101 0.043367,0.290226 0,0.200157 -0.063383,0.400313 -0.063383,0.200157 -0.1868126,0.360282 -0.1234298,0.160125 -0.3102424,0.263539 -0.1834767,0.100078 -0.4270003,0.100078 z m 0.2468595,-1.427782 q -0.110086,0 -0.1934845,0.06338 -0.083398,0.06338 -0.1401095,0.160125 -0.056711,0.09674 -0.086734,0.2135 -0.026687,0.113422 -0.026687,0.216836 0,0.170133 0.053375,0.263539 0.053375,0.09007 0.1934845,0.09007 0.110086,0 0.1934845,-0.06338 0.083398,-0.06338 0.1401095,-0.160125 0.056711,-0.09674 0.083398,-0.210164 0.030023,-0.116758 0.030023,-0.220172 0,-0.170133 -0.053375,-0.260204 -0.053375,-0.09341 -0.1934845,-0.09341 z"
         style="font-style:italic;font-variant:normal;font-weight:bold;font-stretch:normal;font-size:3.33594px;font-family:Ubuntu;-inkscape-font-specification:'Ubuntu, Bold Italic';font-variant-ligatures:normal;font-variant-caps:normal;font-variant-numeric:normal;font-variant-east-asian:normal;fill:#000000;fill-opacity:0.9"
         id="path1031" />
      <path
         d="m 4.8394886,17.686604 0.5170707,-0.08006 -0.1267657,0.517071 h 0.553766 L 5.6834814,18.530596 H 5.1330513 L 4.98627,19.144409 q -0.020016,0.07673 -0.026688,0.143446 -0.00334,0.06672 0.01668,0.116758 0.023352,0.0467 0.076727,0.07339 0.053375,0.02669 0.1467813,0.02669 0.080063,0 0.1534533,-0.01334 0.076727,-0.01668 0.1534532,-0.04337 l 0.036695,0.380297 q -0.1000782,0.0367 -0.2168361,0.06338 -0.1167578,0.02669 -0.276883,0.02669 -0.2301798,0 -0.3569455,-0.06672 -0.1267657,-0.07005 -0.1801408,-0.186813 -0.053375,-0.120094 -0.046703,-0.273547 0.00667,-0.153453 0.046703,-0.323586 z"
         style="font-style:italic;font-variant:normal;font-weight:bold;font-stretch:normal;font-size:3.33594px;font-family:Ubuntu;-inkscape-font-specification:'Ubuntu, Bold Italic';font-variant-ligatures:normal;font-variant-caps:normal;font-variant-numeric:normal;font-variant-east-asian:normal;fill:#000000;fill-opacity:0.9"
         id="path1033" />
      <path
         d="M 6.2439142,19.878316 H 5.7501951 l 0.4169925,-1.754704 h 0.497055 z m 0.2401877,-1.968204 q -0.1034142,0 -0.1868127,-0.06005 -0.083398,-0.06338 -0.083398,-0.190149 0,-0.07005 0.026687,-0.130102 0.030024,-0.06338 0.076727,-0.10675 0.046703,-0.0467 0.10675,-0.07339 0.063383,-0.02669 0.1334376,-0.02669 0.1034142,0 0.1868127,0.06338 0.083398,0.06005 0.083398,0.186813 0,0.07005 -0.030023,0.133437 -0.026688,0.06005 -0.073391,0.10675 -0.046703,0.04337 -0.110086,0.07005 -0.060047,0.02669 -0.1301016,0.02669 z"
         style="font-style:italic;font-variant:normal;font-weight:bold;font-stretch:normal;font-size:3.33594px;font-family:Ubuntu;-inkscape-font-specification:'Ubuntu, Bold Italic';font-variant-ligatures:normal;font-variant-caps:normal;font-variant-numeric:normal;font-variant-east-asian:normal;fill:#000000;fill-opacity:0.9"
         id="path1035" />
      <path
         d="M 7.1312712,19.878316 Q 7.0445367,19.544722 6.974482,19.101042 6.9044272,18.654026 6.8777397,18.123612 h 0.5137348 q 0.00334,0.130101 0.010008,0.28689 0.00667,0.153454 0.01668,0.310243 0.010008,0.156789 0.023352,0.306906 0.013344,0.146782 0.030023,0.266876 0.073391,-0.100079 0.1634611,-0.24686 0.093406,-0.146781 0.1801407,-0.306906 0.086735,-0.160126 0.1601251,-0.320251 0.073391,-0.163461 0.113422,-0.296898 H 8.6157644 Q 8.52903,18.360463 8.3989283,18.610659 8.2721626,18.860854 8.1253812,19.09437 7.9785999,19.327886 7.8251467,19.531378 7.6750294,19.734871 7.5449277,19.878316 Z"
         style="font-style:italic;font-variant:normal;font-weight:bold;font-stretch:normal;font-size:3.33594px;font-family:Ubuntu;-inkscape-font-specification:'Ubuntu, Bold Italic';font-variant-ligatures:normal;font-variant-caps:normal;font-variant-numeric:normal;font-variant-east-asian:normal;fill:#000000;fill-opacity:0.9"
         id="path1037" />
      <path
         d="m 10.353787,18.123612 -0.236852,0.997446 q -0.0467,0.190148 -0.02669,0.383633 0.02001,0.190148 0.07673,0.340266 l -0.4436796,0.06338 q -0.036695,-0.07339 -0.070055,-0.163461 -0.093406,0.07339 -0.2101642,0.12343 -0.1167579,0.05004 -0.2602033,0.05004 -0.1968205,0 -0.3202503,-0.07005 -0.1200938,-0.07339 -0.1801407,-0.190149 -0.060047,-0.120094 -0.066719,-0.273547 -0.00334,-0.153453 0.036695,-0.313578 l 0.2268439,-0.947407 h 0.4970551 l -0.223508,0.940735 q -0.01668,0.07339 -0.030024,0.150117 -0.010008,0.07673 0,0.143445 0.010008,0.06338 0.050039,0.10675 0.043367,0.04003 0.1334376,0.04003 0.076727,0 0.1401095,-0.02669 0.066719,-0.03002 0.1401095,-0.100078 0.00667,-0.0834 0.020016,-0.173469 0.01668,-0.09341 0.033359,-0.170133 L 9.856732,18.123612 Z"
         style="font-style:italic;font-variant:normal;font-weight:bold;font-stretch:normal;font-size:3.33594px;font-family:Ubuntu;-inkscape-font-specification:'Ubuntu, Bold Italic';font-variant-ligatures:normal;font-variant-caps:normal;font-variant-numeric:normal;font-variant-east-asian:normal;fill:#000000;fill-opacity:0.9"
         id="path1039" />
      <path
         d="m 11.024309,19.524706 q 0.170133,0 0.233516,-0.0467 0.06338,-0.05004 0.06338,-0.10675 0,-0.03669 -0.01334,-0.06338 -0.01001,-0.02669 -0.0367,-0.05004 -0.02669,-0.02335 -0.07339,-0.0467 -0.0467,-0.02669 -0.120094,-0.06005 -0.0834,-0.0367 -0.156789,-0.07673 -0.07339,-0.04337 -0.130102,-0.100079 -0.05338,-0.06005 -0.08673,-0.133437 -0.03002,-0.07673 -0.03002,-0.180141 0,-0.270211 0.196821,-0.427 0.200156,-0.15679 0.580453,-0.15679 0.180141,0 0.32025,0.04003 0.14011,0.04003 0.226844,0.08673 l -0.170133,0.37029 q -0.07005,-0.0367 -0.18014,-0.07005 -0.110086,-0.03336 -0.216836,-0.03336 -0.0467,0 -0.09341,0.0067 -0.04337,0.0033 -0.0834,0.02002 -0.0367,0.01668 -0.06005,0.0467 -0.02335,0.03002 -0.02335,0.08006 0,0.06672 0.05004,0.100078 0.05338,0.03336 0.146782,0.08006 0.130101,0.06338 0.216836,0.116758 0.08673,0.05337 0.136773,0.113422 0.05338,0.06005 0.07673,0.136774 0.02335,0.07673 0.02335,0.180141 0,0.10675 -0.0467,0.210164 -0.04337,0.103414 -0.140109,0.183476 -0.09674,0.08006 -0.24686,0.130102 -0.150117,0.05004 -0.360281,0.05004 -0.130102,0 -0.236852,-0.01668 -0.103414,-0.01668 -0.183477,-0.04003 -0.08006,-0.02669 -0.136773,-0.05337 -0.05337,-0.02669 -0.0834,-0.04337 l 0.170133,-0.380297 q 0.05671,0.03336 0.176805,0.0834 0.120094,0.05004 0.290227,0.05004 z"
         style="font-style:italic;font-variant:normal;font-weight:bold;font-stretch:normal;font-size:3.33594px;font-family:Ubuntu;-inkscape-font-specification:'Ubuntu, Bold Italic';font-variant-ligatures:normal;font-variant-caps:normal;font-variant-numeric:normal;font-variant-east-asian:normal;fill:#000000;fill-opacity:0.9"
         id="path1041" />
    </g>
    <g
       aria-label="Motivus"
       transform="matrix(7.8105227,0,0,7.8105227,95.900594,-113.88006)"
       id="text5771"
       style="font-style:normal;font-weight:normal;font-size:3.33594px;line-height:1.25;font-family:sans-serif;letter-spacing:0px;word-spacing:0px;white-space:pre;shape-inside:url(#rect5773);fill:#ff75ff;fill-opacity:1;stroke:none">
      <path
         d="m 0.67290724,17.56651 q 0.0200156,0.09007 0.0500391,0.256867 0.0333594,0.163461 0.0667188,0.363618 0.0366953,0.19682 0.0733907,0.406984 0.0366953,0.206828 0.0667188,0.380297 Q 1.0431966,18.800807 1.1766342,18.600651 1.3100718,18.400495 1.4401734,18.20701 1.5702751,18.013526 1.687033,17.846729 1.8037909,17.676596 1.8871894,17.56651 h 0.4603597 q -0.023352,0.23018 -0.063383,0.51707 -0.036695,0.286891 -0.086734,0.593798 -0.046703,0.306906 -0.1000782,0.617149 -0.053375,0.310242 -0.1067501,0.583789 H 1.4835406 q 0.070055,-0.340266 0.1467814,-0.733907 0.080062,-0.396977 0.1467813,-0.800625 -0.086734,0.136773 -0.1934845,0.306906 -0.10675,0.166797 -0.2135001,0.340266 -0.1067501,0.170133 -0.2068283,0.326922 -0.1000782,0.156789 -0.17346887,0.266875 H 0.60952438 q -0.0166797,-0.100078 -0.0400313,-0.253531 -0.0233516,-0.153453 -0.053375,-0.323586 -0.0266875,-0.173469 -0.056711,-0.346938 -0.0300235,-0.176805 -0.056711,-0.316914 -0.13010165,0.403648 -0.23685173,0.800625 -0.10341414,0.393641 -0.19348451,0.733907 h -0.50372693 q 0.0767266,-0.273547 0.166797,-0.583789 0.0934063,-0.310243 0.19014857,-0.617149 0.1000782,-0.310243 0.19682045,-0.597134 0.09674226,-0.28689 0.1834767,-0.513734 z"
         style="font-style:italic;font-variant:normal;font-weight:bold;font-stretch:normal;font-size:3.33594px;font-family:Ubuntu;-inkscape-font-specification:'Ubuntu, Bold Italic';font-variant-ligatures:normal;font-variant-caps:normal;font-variant-numeric:normal;font-variant-east-asian:normal;fill:#ff75ff;fill-opacity:1"
         id="path1013" />
      <path
         d="m 3.2415756,19.925019 q -0.1768048,0 -0.3069065,-0.05337 -0.1301017,-0.05337 -0.2168361,-0.150117 -0.083399,-0.09674 -0.1267657,-0.226844 -0.043367,-0.133438 -0.043367,-0.293563 0,-0.200156 0.063383,-0.400313 0.066719,-0.200156 0.1934845,-0.360281 0.1267658,-0.160125 0.3102425,-0.260203 0.1834766,-0.103415 0.4203284,-0.103415 0.1734689,0 0.3035705,0.05338 0.1334376,0.05337 0.2168361,0.150117 0.086734,0.09674 0.1301017,0.23018 0.043367,0.130101 0.043367,0.290226 0,0.200157 -0.063383,0.400313 -0.063383,0.200157 -0.1868126,0.360282 -0.1234298,0.160125 -0.3102424,0.263539 -0.1834767,0.100078 -0.4270003,0.100078 z m 0.2468595,-1.427782 q -0.110086,0 -0.1934845,0.06338 -0.083398,0.06338 -0.1401095,0.160125 -0.056711,0.09674 -0.086734,0.2135 -0.026687,0.113422 -0.026687,0.216836 0,0.170133 0.053375,0.263539 0.053375,0.09007 0.1934845,0.09007 0.110086,0 0.1934845,-0.06338 0.083398,-0.06338 0.1401095,-0.160125 0.056711,-0.09674 0.083398,-0.210164 0.030023,-0.116758 0.030023,-0.220172 0,-0.170133 -0.053375,-0.260204 -0.053375,-0.09341 -0.1934845,-0.09341 z"
         style="font-style:italic;font-variant:normal;font-weight:bold;font-stretch:normal;font-size:3.33594px;font-family:Ubuntu;-inkscape-font-specification:'Ubuntu, Bold Italic';font-variant-ligatures:normal;font-variant-caps:normal;font-variant-numeric:normal;font-variant-east-asian:normal;fill:#ff75ff;fill-opacity:1"
         id="path1015" />
      <path
         d="m 4.8394886,17.686604 0.5170707,-0.08006 -0.1267657,0.517071 h 0.553766 L 5.6834814,18.530596 H 5.1330513 L 4.98627,19.144409 q -0.020016,0.07673 -0.026688,0.143446 -0.00334,0.06672 0.01668,0.116758 0.023352,0.0467 0.076727,0.07339 0.053375,0.02669 0.1467813,0.02669 0.080063,0 0.1534533,-0.01334 0.076727,-0.01668 0.1534532,-0.04337 l 0.036695,0.380297 q -0.1000782,0.0367 -0.2168361,0.06338 -0.1167578,0.02669 -0.276883,0.02669 -0.2301798,0 -0.3569455,-0.06672 -0.1267657,-0.07005 -0.1801408,-0.186813 -0.053375,-0.120094 -0.046703,-0.273547 0.00667,-0.153453 0.046703,-0.323586 z"
         style="font-style:italic;font-variant:normal;font-weight:bold;font-stretch:normal;font-size:3.33594px;font-family:Ubuntu;-inkscape-font-specification:'Ubuntu, Bold Italic';font-variant-ligatures:normal;font-variant-caps:normal;font-variant-numeric:normal;font-variant-east-asian:normal;fill:#ff75ff;fill-opacity:1"
         id="path1017" />
      <path
         d="M 6.2439142,19.878316 H 5.7501951 l 0.4169925,-1.754704 h 0.497055 z m 0.2401877,-1.968204 q -0.1034142,0 -0.1868127,-0.06005 -0.083398,-0.06338 -0.083398,-0.190149 0,-0.07005 0.026687,-0.130102 0.030024,-0.06338 0.076727,-0.10675 0.046703,-0.0467 0.10675,-0.07339 0.063383,-0.02669 0.1334376,-0.02669 0.1034142,0 0.1868127,0.06338 0.083398,0.06005 0.083398,0.186813 0,0.07005 -0.030023,0.133437 -0.026688,0.06005 -0.073391,0.10675 -0.046703,0.04337 -0.110086,0.07005 -0.060047,0.02669 -0.1301016,0.02669 z"
         style="font-style:italic;font-variant:normal;font-weight:bold;font-stretch:normal;font-size:3.33594px;font-family:Ubuntu;-inkscape-font-specification:'Ubuntu, Bold Italic';font-variant-ligatures:normal;font-variant-caps:normal;font-variant-numeric:normal;font-variant-east-asian:normal;fill:#ff75ff;fill-opacity:1"
         id="path1019" />
      <path
         d="M 7.1312712,19.878316 Q 7.0445367,19.544722 6.974482,19.101042 6.9044272,18.654026 6.8777397,18.123612 h 0.5137348 q 0.00334,0.130101 0.010008,0.28689 0.00667,0.153454 0.01668,0.310243 0.010008,0.156789 0.023352,0.306906 0.013344,0.146782 0.030023,0.266876 0.073391,-0.100079 0.1634611,-0.24686 0.093406,-0.146781 0.1801407,-0.306906 0.086735,-0.160126 0.1601251,-0.320251 0.073391,-0.163461 0.113422,-0.296898 H 8.6157644 Q 8.52903,18.360463 8.3989283,18.610659 8.2721626,18.860854 8.1253812,19.09437 7.9785999,19.327886 7.8251467,19.531378 7.6750294,19.734871 7.5449277,19.878316 Z"
         style="font-style:italic;font-variant:normal;font-weight:bold;font-stretch:normal;font-size:3.33594px;font-family:Ubuntu;-inkscape-font-specification:'Ubuntu, Bold Italic';font-variant-ligatures:normal;font-variant-caps:normal;font-variant-numeric:normal;font-variant-east-asian:normal;fill:#ff75ff;fill-opacity:1"
         id="path1021" />
      <path
         d="m 10.353787,18.123612 -0.236852,0.997446 q -0.0467,0.190148 -0.02669,0.383633 0.02001,0.190148 0.07673,0.340266 l -0.4436796,0.06338 q -0.036695,-0.07339 -0.070055,-0.163461 -0.093406,0.07339 -0.2101642,0.12343 -0.1167579,0.05004 -0.2602033,0.05004 -0.1968205,0 -0.3202503,-0.07005 -0.1200938,-0.07339 -0.1801407,-0.190149 -0.060047,-0.120094 -0.066719,-0.273547 -0.00334,-0.153453 0.036695,-0.313578 l 0.2268439,-0.947407 h 0.4970551 l -0.223508,0.940735 q -0.01668,0.07339 -0.030024,0.150117 -0.010008,0.07673 0,0.143445 0.010008,0.06338 0.050039,0.10675 0.043367,0.04003 0.1334376,0.04003 0.076727,0 0.1401095,-0.02669 0.066719,-0.03002 0.1401095,-0.100078 0.00667,-0.0834 0.020016,-0.173469 0.01668,-0.09341 0.033359,-0.170133 L 9.856732,18.123612 Z"
         style="font-style:italic;font-variant:normal;font-weight:bold;font-stretch:normal;font-size:3.33594px;font-family:Ubuntu;-inkscape-font-specification:'Ubuntu, Bold Italic';font-variant-ligatures:normal;font-variant-caps:normal;font-variant-numeric:normal;font-variant-east-asian:normal;fill:#ff75ff;fill-opacity:1"
         id="path1024" />
      <path
         d="m 11.024309,19.524706 q 0.170133,0 0.233516,-0.0467 0.06338,-0.05004 0.06338,-0.10675 0,-0.03669 -0.01334,-0.06338 -0.01001,-0.02669 -0.0367,-0.05004 -0.02669,-0.02335 -0.07339,-0.0467 -0.0467,-0.02669 -0.120094,-0.06005 -0.0834,-0.0367 -0.156789,-0.07673 -0.07339,-0.04337 -0.130102,-0.100079 -0.05338,-0.06005 -0.08673,-0.133437 -0.03002,-0.07673 -0.03002,-0.180141 0,-0.270211 0.196821,-0.427 0.200156,-0.15679 0.580453,-0.15679 0.180141,0 0.32025,0.04003 0.14011,0.04003 0.226844,0.08673 l -0.170133,0.37029 q -0.07005,-0.0367 -0.18014,-0.07005 -0.110086,-0.03336 -0.216836,-0.03336 -0.0467,0 -0.09341,0.0067 -0.04337,0.0033 -0.0834,0.02002 -0.0367,0.01668 -0.06005,0.0467 -0.02335,0.03002 -0.02335,0.08006 0,0.06672 0.05004,0.100078 0.05338,0.03336 0.146782,0.08006 0.130101,0.06338 0.216836,0.116758 0.08673,0.05337 0.136773,0.113422 0.05338,0.06005 0.07673,0.136774 0.02335,0.07673 0.02335,0.180141 0,0.10675 -0.0467,0.210164 -0.04337,0.103414 -0.140109,0.183476 -0.09674,0.08006 -0.24686,0.130102 -0.150117,0.05004 -0.360281,0.05004 -0.130102,0 -0.236852,-0.01668 -0.103414,-0.01668 -0.183477,-0.04003 -0.08006,-0.02669 -0.136773,-0.05337 -0.05337,-0.02669 -0.0834,-0.04337 l 0.170133,-0.380297 q 0.05671,0.03336 0.176805,0.0834 0.120094,0.05004 0.290227,0.05004 z"
         style="font-style:italic;font-variant:normal;font-weight:bold;font-stretch:normal;font-size:3.33594px;font-family:Ubuntu;-inkscape-font-specification:'Ubuntu, Bold Italic';font-variant-ligatures:normal;font-variant-caps:normal;font-variant-numeric:normal;font-variant-east-asian:normal;fill:#ff75ff;fill-opacity:1"
         id="path1026" />
    </g>
    <g
       id="g5769"
       transform="matrix(4.5135474,0,0,4.5135474,29.476901,162.05663)">
      <rect
         style="fill:#732486;fill-opacity:1;stroke:none;stroke-width:0.270261;stroke-linecap:round;stroke-miterlimit:4;stroke-dasharray:none;stroke-opacity:1;paint-order:stroke fill markers"
         id="rect3716"
         width="16.561737"
         height="10.414636"
         x="32.914913"
         y="6.6929688" />
      <rect
         style="fill:#daa5e8;fill-opacity:1;stroke:none;stroke-width:0.24072;stroke-linecap:round;stroke-miterlimit:4;stroke-dasharray:none;stroke-opacity:1;paint-order:stroke fill markers"
         id="rect3718"
         width="15.325275"
         height="8.9288778"
         x="33.557137"
         y="7.4330888" />
      <path
         style="fill:#daa5e8;fill-opacity:1;stroke:none;stroke-width:0.0733043px;stroke-linecap:butt;stroke-linejoin:bevel;stroke-opacity:1"
         d="m 32.914914,17.107602 -2.407933,2.407933 h 21.611017 l -2.641346,-2.407932 z"
         id="path5761"
         sodipodi:nodetypes="ccccc" />
      <path
         style="fill:#732486;fill-opacity:1;stroke:none;stroke-width:0.0733043;stroke-linecap:butt;stroke-linejoin:bevel;stroke-miterlimit:4;stroke-dasharray:none;stroke-opacity:1"
         d="m 30.506982,19.515533 0.87072,0.87072 h 20.138033 l 0.602263,-0.870718 z"
         id="path5763"
         sodipodi:nodetypes="ccccc" />
    </g>
    <g
       id="g5944"
       transform="matrix(4.5135474,0,0,4.5135474,-132.65904,159.09732)">
      <rect
         style="fill:#732486;fill-opacity:1;stroke:none;stroke-width:0.270261;stroke-linecap:round;stroke-miterlimit:4;stroke-dasharray:none;stroke-opacity:1;paint-order:stroke fill markers"
         id="rect5936"
         width="16.561737"
         height="10.414636"
         x="32.914913"
         y="6.6929688" />
      <rect
         style="fill:#daa5e8;fill-opacity:1;stroke:none;stroke-width:0.24072;stroke-linecap:round;stroke-miterlimit:4;stroke-dasharray:none;stroke-opacity:1;paint-order:stroke fill markers"
         id="rect5938"
         width="15.325275"
         height="8.9288778"
         x="33.557137"
         y="7.4330888" />
      <path
         style="fill:#daa5e8;fill-opacity:1;stroke:none;stroke-width:0.0733043px;stroke-linecap:butt;stroke-linejoin:bevel;stroke-opacity:1"
         d="m 32.914914,17.107602 -2.407933,2.407933 h 21.611017 l -2.641346,-2.407932 z"
         id="path5940"
         sodipodi:nodetypes="ccccc" />
      <path
         style="fill:#732486;fill-opacity:1;stroke:none;stroke-width:0.0733043;stroke-linecap:butt;stroke-linejoin:bevel;stroke-miterlimit:4;stroke-dasharray:none;stroke-opacity:1"
         d="m 30.506982,19.515533 0.87072,0.87072 h 20.138033 l 0.602263,-0.870718 z"
         id="path5942"
         sodipodi:nodetypes="ccccc" />
    </g>
  </g>
</svg>
