<?xml version="1.0" encoding="utf-8"?>
<!-- Generator: Adobe Illustrator 19.0.0, SVG Export Plug-In . SVG Version: 6.00 Build 0)  -->
<svg version="1.1" id="Capa_2" xmlns="http://www.w3.org/2000/svg" xmlns:xlink="http://www.w3.org/1999/xlink" x="0px" y="0px"
	 viewBox="0 0 400 100" style="enable-background:new 0 0 400 100;" xml:space="preserve">
<style type="text/css">
	.st0{fill:#9468E9;}
	.st1{fill:#5D25CA;}
</style>
<g>
	<path class="st0" d="M83.448,49.121v26.951h-6.274V49.74c0-9.809-4.948-14.845-13.343-14.845c-9.543,0-15.552,6.185-15.552,16.789
		v24.389h-6.274V49.74c0-9.809-4.948-14.845-13.431-14.845c-9.455,0-15.552,6.185-15.552,16.789v24.389H6.748V29.593h6.009v8.483
		c3.27-5.567,9.278-8.836,17.054-8.836c7.688,0,13.696,3.269,16.524,9.808c3.358-6.009,9.985-9.808,18.379-9.808
		C76.025,29.24,83.448,35.778,83.448,49.121z"/>
</g>
<g>
	<path class="st0" d="M194.262,71.896c-2.474,2.21-6.186,3.27-9.808,3.27c-8.748,0-13.608-4.948-13.608-13.52V33.547h-8.307v-5.302
		h8.307V18.083h6.273v10.162h14.138v5.302H177.12v27.746c0,5.479,2.828,8.483,8.041,8.483c2.563,0,5.125-0.795,6.893-2.386
		L194.262,71.896z"/>
	<path class="st0" d="M210.875,13.577c0-2.386,2.032-4.418,4.595-4.418s4.596,1.944,4.596,4.33c0,2.563-1.944,4.595-4.596,4.595
		C212.907,18.083,210.875,16.051,210.875,13.577z M212.289,28.245h6.273v46.479h-6.273V28.245z"/>
	<path class="st0" d="M281.743,28.245l-20.677,46.479h-6.451l-20.589-46.479h6.539l17.408,39.587l17.584-39.587H281.743z"/>
	<path class="st0" d="M339.093,28.245v46.479h-6.009v-8.482c-3.27,5.654-9.278,8.924-16.701,8.924
		c-11.841,0-19.616-6.627-19.616-19.97V28.245h6.273v26.333c0,9.896,5.125,14.933,13.961,14.933c9.721,0,15.817-6.273,15.817-16.877
		V28.245H339.093z"/>
	<path class="st0" d="M356.855,69.423l2.827-4.948c3.711,2.916,9.985,5.213,16.524,5.213c8.836,0,12.459-3.004,12.459-7.599
		c0-12.106-30.132-2.563-30.132-20.942c0-7.599,6.539-13.254,18.38-13.254c6.008,0,12.547,1.679,16.436,4.33l-2.739,5.037
		c-4.065-2.828-8.925-3.976-13.696-3.976c-8.395,0-12.106,3.27-12.106,7.688c0,12.548,30.132,3.093,30.132,20.942
		c0,8.041-7.068,13.254-19.175,13.254C368.077,75.166,360.654,72.692,356.855,69.423z"/>
</g>
<path class="st0" d="M119.073,67.428c0.969-1.88,1.938-3.761,2.907-5.641c0.053,0.022,0.106,0.043,0.159,0.065
	c-0.623,1.773-1.247,3.545-1.87,5.318c0.05,0.019,0.099,0.038,0.149,0.057c0.679-1.636,1.359-3.273,2.038-4.909
	c0.056,0.02,0.113,0.04,0.169,0.059c-0.399,1.521-0.798,3.042-1.196,4.562c0.044,0.012,0.088,0.025,0.133,0.037
	c0.47-1.333,0.94-2.666,1.41-3.999c0.065,0.016,0.13,0.032,0.194,0.047c-0.231,1.415-0.463,2.831-0.694,4.246
	c0.04,0.008,0.08,0.016,0.12,0.023c0.315-1.254,0.631-2.509,0.946-3.763c0.063,0.005,0.125,0.011,0.188,0.016
	c-0.073,1.152-0.147,2.304-0.22,3.456c0.036,0.003,0.072,0.006,0.108,0.009c0.187-0.966,0.375-1.931,0.562-2.897
	c0.062,0.001,0.124,0.001,0.187,0.002c0.059,0.904,0.118,1.808,0.177,2.712c0.028-0.002,0.056-0.004,0.085-0.006
	c0.104-0.734,0.208-1.468,0.312-2.202c0.056-0.003,0.113-0.005,0.169-0.008c0.119,0.508,0.238,1.015,0.357,1.523
	c0.034,0.01,0.068,0.019,0.102,0.029c0.057-0.295,0.113-0.591,0.2-1.043c0.22,0.365,0.382,0.633,0.605,1.002
	c0.042-0.299,0.069-0.493,0.096-0.687c0.737,0.04,0.917,0.436,0.965,1.121c0.196,2.77,0.47,5.535,0.695,8.303
	c0.015,0.186-0.137,0.386-0.212,0.579c-0.12-0.193-0.334-0.381-0.346-0.581c-0.166-2.748-0.303-5.498-0.449-8.247
	c-0.011-0.215-0.033-0.43-0.05-0.644c-0.072-0.02-0.144-0.039-0.215-0.059c-0.053,0.252-0.156,0.504-0.152,0.755
	c0.036,2.705,0.093,5.409,0.134,8.114c0.005,0.324,0.145,0.799-0.506,0.653c0-2.933,0-5.849,0-8.802
	c-0.489,0.033-0.579,0.346-0.589,0.818c-0.05,2.461-0.13,4.921-0.2,7.382c-0.002,0.073,0.023,0.163-0.01,0.216
	c-0.087,0.138-0.2,0.261-0.302,0.389c-0.089-0.141-0.259-0.287-0.253-0.423c0.054-1.094,0.143-2.187,0.22-3.281
	c0.107-1.527,0.214-3.055,0.322-4.608c-0.57,0.033-0.721,0.348-0.759,0.813c-0.175,2.113-0.367,4.224-0.555,6.336
	c-0.019,0.218-0.018,0.445-0.081,0.651c-0.046,0.151-0.182,0.275-0.278,0.412c-0.091-0.164-0.274-0.338-0.258-0.491
	c0.117-1.114,0.273-2.224,0.417-3.336c0.169-1.298,0.338-2.597,0.512-3.924c-0.594,0.05-0.832,0.285-0.908,0.86
	c-0.25,1.908-0.575,3.806-0.871,5.707c-0.03,0.193-0.033,0.398-0.107,0.573c-0.062,0.148-0.208,0.26-0.317,0.388
	c-0.063-0.172-0.206-0.359-0.178-0.515c0.364-1.987,0.754-3.97,1.135-5.954c0.036-0.187,0.055-0.377,0.085-0.58
	c-0.635-0.043-0.864,0.268-0.978,0.824c-0.364,1.765-0.764,3.523-1.178,5.277c-0.052,0.22-0.271,0.401-0.413,0.6
	c-0.019-0.256-0.107-0.529-0.047-0.764c0.475-1.863,0.979-3.719,1.487-5.627c-0.61-0.034-0.946,0.148-1.117,0.753
	c-0.489,1.733-1.038,3.448-1.563,5.17c-0.077,0.011-0.154,0.023-0.231,0.034c-0.029-0.187-0.127-0.397-0.075-0.558
	c0.507-1.552,1.039-3.095,1.564-4.641c0.054-0.161,0.104-0.323,0.169-0.527c-0.611-0.097-0.927,0.102-1.122,0.7
	c-0.447,1.365-0.964,2.708-1.478,4.05c-0.067,0.175-0.289,0.29-0.44,0.433c0.001-0.213-0.06-0.452,0.014-0.636
	c0.586-1.465,1.197-2.92,1.808-4.395c-0.596-0.188-0.923-0.043-1.142,0.499c-0.446,1.107-0.934,2.197-1.441,3.278
	c-0.121,0.258-0.381,0.45-0.578,0.673c0.057-0.279,0.064-0.582,0.181-0.834c0.524-1.126,1.084-2.236,1.62-3.356
	c0.069-0.145,0.077-0.32,0.114-0.481C118.695,68.165,118.884,67.797,119.073,67.428z"/>
<path class="st1" d="M133.201,36.967c-0.736,1.695-1.472,3.389-2.207,5.084c-0.101,0.233-0.197,0.467-0.296,0.701
	c-0.057-0.02-0.113-0.039-0.17-0.059c0.472-1.764,0.945-3.528,1.417-5.292c-0.027-0.009-0.053-0.018-0.08-0.026
	c-0.565,1.577-1.13,3.154-1.695,4.731c-0.064-0.015-0.128-0.031-0.192-0.046c0.238-1.357,0.476-2.715,0.714-4.072
	c-0.045-0.01-0.089-0.02-0.134-0.03c-0.312,1.181-0.625,2.362-0.937,3.543c-0.06-0.006-0.12-0.012-0.179-0.019
	c0.075-1.106,0.15-2.213,0.225-3.319c-0.042-0.007-0.083-0.013-0.125-0.02c-0.193,0.927-0.385,1.853-0.578,2.78
	c-0.058-0.007-0.116-0.014-0.173-0.021c-0.055-0.856-0.109-1.712-0.164-2.569c-0.033-0.002-0.065-0.005-0.098-0.007
	c-0.105,0.679-0.211,1.358-0.316,2.037c-0.053,0.006-0.106,0.012-0.16,0.018c-0.129-0.553-0.258-1.106-0.388-1.658
	c-0.036,0-0.072,0-0.107,0c-0.039,0.345-0.078,0.689-0.117,1.034c-0.043,0.017-0.087,0.034-0.13,0.051
	c-0.204-0.383-0.407-0.767-0.636-1.197c0.314-0.118,0.486-0.293,0.582-0.499c0.136-0.292,0.117-0.645,0.129-0.98
	c0.079-2.339,0.145-4.678,0.217-7.017c0.004-0.117,0.013-0.234,0.019-0.347c0.667-0.236,0.583,0.193,0.557,0.558
	c-0.165,2.334-0.334,4.668-0.498,7.002c-0.013,0.186-0.002,0.373-0.002,0.577c0.542-0.027,0.725-0.295,0.766-0.791
	c0.173-2.138,0.379-4.273,0.573-6.409c0.013-0.146-0.008-0.309,0.051-0.432c0.081-0.167,0.225-0.303,0.342-0.452
	c0.073,0.172,0.227,0.353,0.208,0.513c-0.192,1.596-0.413,3.189-0.624,4.783c-0.101,0.765-0.199,1.53-0.299,2.295
	c0.077,0.043,0.155,0.086,0.232,0.129c0.184-0.276,0.481-0.531,0.532-0.83c0.338-1.944,0.621-3.898,0.925-5.848
	c0.041-0.262,0.099-0.521,0.148-0.777c0.56,0.036,0.571,0.038,0.471,0.555c-0.364,1.888-0.736,3.774-1.103,5.662
	c-0.045,0.232-0.073,0.467-0.113,0.722c0.558-0.025,0.819-0.209,0.927-0.758c0.352-1.792,0.769-3.572,1.188-5.35
	c0.048-0.206,0.266-0.371,0.406-0.556c0.047,0.241,0.183,0.505,0.127,0.719c-0.48,1.859-0.994,3.708-1.509,5.6
	c0.637,0.076,0.934-0.14,1.09-0.715c0.422-1.551,0.898-3.088,1.357-4.629c0.054-0.18,0.13-0.353,0.196-0.53
	c0.083-0.004,0.166-0.008,0.25-0.012c0.022,0.23,0.119,0.483,0.054,0.685c-0.487,1.506-1.006,3.002-1.513,4.502
	c-0.052,0.154-0.092,0.312-0.14,0.478c0.55,0.099,0.827-0.081,1.001-0.597c0.476-1.407,1.006-2.797,1.538-4.185
	c0.055-0.142,0.274-0.221,0.417-0.329c0.027,0.164,0.123,0.357,0.069,0.489c-0.659,1.624-1.339,3.239-2.014,4.853
	C133.223,36.78,133.212,36.874,133.201,36.967z"/>
<path class="st0" d="M119.073,67.428c-0.189,0.369-0.378,0.737-0.567,1.106c-1.044-0.044-1.372,0.735-1.745,1.489
	c-0.424,0.86-0.884,1.702-1.462,2.487c0.364-1.417,1.275-2.581,1.88-3.885c-0.726-0.28-1.143-0.043-1.46,0.612
	c-0.327,0.676-0.762,1.301-1.161,1.942c-0.133,0.213-0.299,0.405-0.574,0.517c2.205-3.831,4.757-7.427,7.188-11.102
	c0.063,0.036,0.126,0.073,0.189,0.109c-1.315,2.437-2.63,4.873-3.945,7.31c0.048,0.027,0.095,0.053,0.143,0.08
	c1.328-2.291,2.657-4.582,3.985-6.873c0.056,0.026,0.112,0.051,0.168,0.077C120.834,63.342,119.954,65.385,119.073,67.428z"/>
<path class="st1" d="M133.201,36.967c0.011-0.094,0.022-0.187,0.033-0.278c0.11-0.087,0.233-0.267,0.329-0.253
	c0.884,0.128,1.01-0.568,1.26-1.127c0.503-1.127,0.999-2.256,1.497-3.385c0.094,0.015,0.187,0.031,0.281,0.046
	c-0.019,0.209,0.018,0.445-0.066,0.624c-0.591,1.253-1.207,2.494-1.827,3.763c0.642,0.227,0.983,0.051,1.259-0.546
	c0.507-1.097,1.112-2.148,1.676-3.219c0.085,0.018,0.171,0.036,0.256,0.055c-0.035,0.193-0.025,0.41-0.114,0.574
	c-0.549,1.004-1.123,1.995-1.681,2.994c-0.105,0.188-0.173,0.396-0.258,0.595c-0.074,0.145-0.147,0.291-0.221,0.436
	c-0.986,1.587-1.975,3.172-2.956,4.762c-0.377,0.611-0.737,1.234-1.105,1.851c-0.059-0.03-0.118-0.061-0.177-0.091
	c0.842-1.848,1.683-3.696,2.525-5.544c-0.048-0.022-0.095-0.043-0.143-0.065c-0.865,1.72-1.729,3.441-2.594,5.161
	c-0.055-0.024-0.11-0.048-0.165-0.072C131.74,41.155,132.471,39.061,133.201,36.967z"/>
<path class="st0" d="M134.139,50.719c4.874-1.101,9.748-2.203,14.693-3.32c0.101,0.367,0.182,0.658,0.283,1.026
	c-5.023,0.85-9.982,1.689-14.94,2.528C134.163,50.875,134.151,50.797,134.139,50.719z"/>
<path class="st0" d="M149.358,49.942c-5.1,0.517-10.099,1.024-15.098,1.531c-0.011-0.078-0.022-0.155-0.034-0.233
	c4.957-0.774,9.915-1.547,14.962-2.335C149.245,49.248,149.294,49.546,149.358,49.942z"/>
<path class="st1" d="M118.872,54.368c-4.827,1.15-9.654,2.299-14.537,3.463c-0.117-0.337-0.21-0.605-0.352-1.016
	c4.984-0.901,9.911-1.792,14.839-2.683C118.838,54.21,118.855,54.289,118.872,54.368z"/>
<path class="st1" d="M119.12,55.393c-4.495,1.742-8.99,3.485-13.332,5.168c-0.24-0.382-0.426-0.678-0.58-0.923
	c4.368-1.41,9.1-2.937,13.833-4.465C119.067,55.246,119.093,55.319,119.12,55.393z"/>
<path class="st1" d="M118.805,53.845c-4.933,0.82-9.865,1.64-14.859,2.47c-0.067-0.374-0.116-0.648-0.183-1.017
	c5.045-0.572,10.033-1.137,15.021-1.702C118.792,53.679,118.799,53.762,118.805,53.845z"/>
<path class="st1" d="M104.92,59.308c-0.168-0.344-0.304-0.62-0.475-0.97c4.844-1.233,9.657-2.458,14.47-3.683
	c0.023,0.076,0.046,0.152,0.07,0.228C114.317,56.351,109.65,57.82,104.92,59.308z"/>
<path class="st0" d="M134.01,49.666c4.505-1.689,9.009-3.378,13.517-5.069c0.251,0.275,0.476,0.522,0.783,0.859
	c-4.779,1.49-9.51,2.964-14.241,4.439C134.049,49.819,134.03,49.743,134.01,49.666z"/>
<path class="st0" d="M148.231,45.921c0.162,0.334,0.294,0.607,0.461,0.951c-4.879,1.191-9.715,2.371-14.552,3.552
	c-0.021-0.075-0.042-0.15-0.063-0.226C138.787,48.774,143.497,47.351,148.231,45.921z"/>
<path class="st1" d="M119.245,55.909c-4.263,1.986-8.526,3.971-12.739,5.933c-0.379-0.21-0.713-0.396-1.156-0.642
	c4.609-1.838,9.206-3.67,13.802-5.503C119.183,55.767,119.214,55.838,119.245,55.909z"/>
<path class="st0" d="M133.845,49.163c4.309-1.947,8.618-3.895,12.834-5.8c0.399,0.219,0.708,0.389,1.171,0.643
	c-4.689,1.812-9.299,3.593-13.91,5.375C133.908,49.308,133.877,49.235,133.845,49.163z"/>
<path class="st0" d="M149.527,52.018c0,0.372,0,0.61,0,0.958c-5.093-0.155-10.153-0.31-15.212-0.464c0-0.081,0-0.162,0-0.243
	C139.358,52.185,144.401,52.102,149.527,52.018z"/>
<path class="st1" d="M103.614,53.207c0-0.366,0-0.619,0-0.967c5.073,0.112,10.116,0.224,15.158,0.336
	c0.001,0.078,0.003,0.156,0.004,0.234C113.757,52.941,108.736,53.073,103.614,53.207z"/>
<path class="st0" d="M133.579,48.139c0.789-0.507,1.575-1.02,2.369-1.52c2.78-1.748,5.565-3.486,8.342-5.24
	c0.397-0.251,0.754-0.526,1.044,0.018c0.379-0.155,0.682-0.279,0.985-0.402c0.044,0.103,0.088,0.206,0.133,0.308
	c-4.252,2.344-8.504,4.687-12.757,7.031C133.656,48.269,133.617,48.204,133.579,48.139z"/>
<path class="st0" d="M146.306,42.555c0.286-0.08,0.501-0.14,0.779-0.218c-0.297,0.508-12.184,6.199-13.381,6.339
	c0.188-0.113,0.371-0.235,0.564-0.339c3.665-1.976,7.332-3.95,10.997-5.926C145.664,42.197,146.07,41.9,146.306,42.555z"/>
<path class="st0" d="M149.369,55.111c-0.031,0.306-0.055,0.54-0.095,0.927c-5.041-0.837-10.032-1.665-15.023-2.494
	c0.011-0.078,0.021-0.157,0.032-0.235C139.294,53.907,144.305,54.506,149.369,55.111z"/>
<path class="st1" d="M119.518,56.933c-0.948,0.619-1.895,1.241-2.846,1.856c-2.616,1.691-5.241,3.368-7.844,5.078
	c-0.423,0.278-0.725,0.36-1.011-0.12c-0.352,0.172-0.675,0.33-0.999,0.488c-0.048-0.093-0.095-0.186-0.143-0.279
	c4.232-2.402,8.464-4.803,12.696-7.205C119.421,56.812,119.469,56.873,119.518,56.933z"/>
<path class="st1" d="M107.241,63.153c-0.154-0.203-0.285-0.375-0.426-0.56c-0.246,0.09-0.474,0.173-0.702,0.256
	c-0.036-0.081-0.073-0.162-0.109-0.243c4.427-2.133,8.854-4.267,13.282-6.4c0.036,0.068,0.072,0.136,0.108,0.205
	C115.384,58.635,111.374,60.86,107.241,63.153z"/>
<path class="st1" d="M103.866,48.641c0.072-0.347,0.124-0.598,0.192-0.924c4.948,1.092,9.841,2.172,14.735,3.252
	c-0.014,0.073-0.027,0.147-0.041,0.22C113.825,50.346,108.896,49.502,103.866,48.641z"/>
<path class="st1" d="M118.705,51.761c-4.967-0.545-9.933-1.091-14.979-1.645c0.015-0.293,0.028-0.545,0.048-0.934
	c5.031,0.789,9.992,1.566,14.954,2.344C118.72,51.604,118.712,51.683,118.705,51.761z"/>
<path class="st0" d="M149.188,56.589c-0.062,0.31-0.113,0.565-0.184,0.92c-4.973-1.146-9.893-2.279-14.814-3.413
	c0.016-0.073,0.032-0.147,0.047-0.22C139.185,54.774,144.132,55.671,149.188,56.589z"/>
<path class="st0" d="M143.77,39.989c0.206,0.14,0.385,0.261,0.588,0.398c0.349-0.237,0.695-0.472,1.041-0.707
	c0.059,0.064,0.117,0.127,0.176,0.191c-0.147,0.155-0.27,0.346-0.444,0.458c-2.599,1.677-5.205,3.342-7.807,5.012
	c-1.267,0.813-2.53,1.632-3.795,2.448c-0.046-0.064-0.092-0.128-0.139-0.192C136.831,45.077,140.27,42.555,143.77,39.989z"/>
<path class="st0" d="M134.279,51.754c5.026-0.408,10.052-0.816,15.115-1.227c0.048,0.276,0.088,0.508,0.156,0.904
	c-5.129,0.183-10.201,0.365-15.273,0.546C134.278,51.903,134.279,51.828,134.279,51.754z"/>
<path class="st1" d="M103.639,51.644c0-0.359,0-0.615,0-0.938c5.057,0.448,10.063,0.892,15.069,1.335
	c-0.005,0.07-0.01,0.141-0.015,0.211C113.681,52.05,108.67,51.848,103.639,51.644z"/>
<path class="st1" d="M118.709,53.329c-4.997,0.457-9.994,0.913-15.06,1.376c-0.018-0.34-0.032-0.594-0.049-0.927
	c5.075-0.225,10.079-0.446,15.084-0.668C118.692,53.183,118.701,53.256,118.709,53.329z"/>
<path class="st1" d="M119.7,57.485c-1.355,1.015-2.709,2.03-4.064,3.045c-1.868,1.4-3.747,2.786-5.597,4.21
	c-0.441,0.339-0.794,0.561-1.19,0.024c-0.418,0.263-0.802,0.504-1.186,0.745c-0.054-0.087-0.108-0.174-0.162-0.261
	c4.023-2.654,8.047-5.309,12.07-7.963C119.614,57.352,119.657,57.419,119.7,57.485z"/>
<path class="st0" d="M133.143,47.095c0.549-0.461,1.099-0.922,1.648-1.383c2.478-2.083,4.952-4.171,7.445-6.236
	c0.167-0.138,0.496-0.062,0.73-0.144c0.313-0.109,0.613-0.262,0.908-0.418c0.246-0.13,0.476-0.291,0.713-0.438
	c0.061,0.1,0.123,0.2,0.184,0.3c-3.825,2.835-7.649,5.67-11.474,8.505C133.246,47.219,133.195,47.157,133.143,47.095z"/>
<path class="st0" d="M149.515,53.586c-0.044,0.347-0.076,0.601-0.117,0.92c-5.058-0.492-10.073-0.979-15.087-1.466
	c0.005-0.073,0.01-0.145,0.015-0.218C139.368,53.075,144.41,53.329,149.515,53.586z"/>
<path class="st1" d="M110.382,68.735c3.277-3.29,6.554-6.581,9.831-9.871c0.05,0.039,0.1,0.077,0.15,0.116
	c-0.088,0.146-0.158,0.307-0.267,0.435c-2.161,2.506-4.328,5.007-6.489,7.513c-0.276,0.319-0.505,0.65-1.015,0.334
	c-0.097-0.06-0.418,0.134-0.565,0.281c-0.469,0.471-0.905,0.975-1.354,1.467C110.575,68.918,110.478,68.826,110.382,68.735z"/>
<path class="st1" d="M109.99,65.644c-0.537,0.437-0.967,0.787-1.537,1.251c0.17-0.664,10.259-8.493,11.48-9.056
	c-0.097,0.169-0.128,0.282-0.202,0.345c-2.858,2.46-5.721,4.914-8.578,7.374C110.781,65.878,110.436,66.227,109.99,65.644z"/>
<path class="st0" d="M132.7,46.052c0.392-0.449,0.781-0.9,1.175-1.346c1.95-2.203,3.903-4.404,5.853-6.608
	c0.212-0.24,0.383-0.486,0.785-0.258c0.122,0.069,0.446-0.069,0.583-0.206c0.461-0.46,0.88-0.963,1.315-1.45
	c0.082,0.046,0.165,0.092,0.247,0.138c-0.093,0.188-0.145,0.417-0.285,0.559c-1.142,1.161-2.292,2.315-3.456,3.455
	c-1.893,1.856-3.797,3.7-5.699,5.547c-0.116,0.113-0.252,0.206-0.379,0.308C132.793,46.145,132.746,46.098,132.7,46.052z"/>
<path class="st1" d="M104.581,45.589c0.138-0.347,0.223-0.563,0.333-0.839c4.685,1.74,9.323,3.463,13.961,5.186
	c-0.022,0.067-0.045,0.134-0.067,0.202C114.097,48.631,109.386,47.125,104.581,45.589z"/>
<path class="st0" d="M134.219,54.409c4.844,1.234,9.688,2.468,14.612,3.722c-0.075,0.288-0.138,0.53-0.226,0.866
	c-4.851-1.474-9.647-2.932-14.442-4.389C134.182,54.542,134.201,54.476,134.219,54.409z"/>
<path class="st0" d="M132.413,45.436c0.65-0.843,1.301-1.686,1.951-2.529c1.354-1.755,2.705-3.512,4.065-5.262
	c0.127-0.164,0.381-0.439,0.454-0.404c0.844,0.4,1.033-0.358,1.403-0.766c0.294-0.324,0.537-0.695,0.83-1.02
	c0.085-0.094,0.263-0.104,0.398-0.152c-0.03,0.141-0.016,0.317-0.096,0.416c-0.521,0.643-1.049,1.282-1.602,1.897
	c-2.247,2.5-4.506,4.988-6.752,7.489c-0.156,0.173-0.238,0.412-0.355,0.62C132.611,45.628,132.512,45.532,132.413,45.436z"/>
<path class="st0" d="M132.952,46.53c2.797-2.718,5.595-5.437,8.421-8.183c0.226,0.107,0.438,0.208,0.674,0.32
	c0.498-0.452,0.99-0.9,1.482-1.347c0.059,0.044,0.118,0.087,0.177,0.131c-0.083,0.157-0.128,0.357-0.254,0.464
	c-3.408,2.909-6.823,5.808-10.239,8.706c-0.033,0.028-0.089,0.03-0.135,0.045C133.037,46.621,132.994,46.575,132.952,46.53z"/>
<path class="st0" d="M134.132,54.914c4.743,1.566,9.486,3.133,14.286,4.718c-0.124,0.313-0.218,0.55-0.331,0.834
	c-4.723-1.801-9.385-3.579-14.047-5.357C134.071,55.043,134.102,54.978,134.132,54.914z"/>
<path class="st0" d="M134.084,55.518c4.577,1.825,9.154,3.65,13.804,5.504c-0.114,0.282-0.208,0.515-0.335,0.829
	c-4.558-2.062-9.06-4.1-13.562-6.137C134.022,55.648,134.053,55.583,134.084,55.518z"/>
<path class="st1" d="M104.165,47.087c0.103-0.322,0.181-0.566,0.275-0.858c4.851,1.427,9.646,2.838,14.442,4.249
	c-0.018,0.065-0.035,0.13-0.053,0.195C113.977,49.486,109.125,48.3,104.165,47.087z"/>
<path class="st1" d="M105.099,44.184c0.143-0.327,0.237-0.542,0.362-0.828c4.529,2.011,9.018,4.005,13.508,5.999
	c-0.027,0.066-0.054,0.131-0.081,0.197C114.32,47.773,109.752,45.995,105.099,44.184z"/>
<path class="st0" d="M146.586,63.777c-0.158,0.252-0.281,0.446-0.437,0.696c-4.187-2.584-8.331-5.142-12.474-7.699
	c0.044-0.074,0.088-0.149,0.131-0.223C138.048,58.949,142.29,61.348,146.586,63.777z"/>
<path class="st1" d="M109.344,67.616c3.554-3.089,7.107-6.178,10.661-9.268c0.05,0.051,0.101,0.102,0.151,0.153
	c-0.152,0.164-0.299,0.333-0.457,0.49c-2.499,2.492-4.99,4.991-7.516,7.456c-0.21,0.205-0.651,0.175-0.984,0.255
	c-0.025-0.078-0.05-0.156-0.074-0.234c-0.521,0.47-1.043,0.941-1.564,1.411C109.489,67.792,109.416,67.704,109.344,67.616z"/>
<path class="st1" d="M106.405,41.438c0.142-0.252,0.245-0.433,0.404-0.714c4.188,2.538,8.334,5.049,12.48,7.561
	c-0.042,0.075-0.084,0.149-0.126,0.224C114.942,46.17,110.722,43.831,106.405,41.438z"/>
<path class="st0" d="M111.474,69.766c3.012-3.444,6.025-6.887,9.037-10.331c0.063,0.05,0.126,0.099,0.19,0.149
	c-0.547,0.748-1.086,1.503-1.643,2.243c-1.419,1.886-2.852,3.762-4.263,5.654c-0.245,0.328-0.448,0.536-0.891,0.327
	c-0.113-0.053-0.391,0.095-0.507,0.226c-0.417,0.474-0.789,0.987-1.194,1.472c-0.149,0.178-0.341,0.319-0.514,0.477
	C111.617,69.911,111.546,69.839,111.474,69.766z"/>
<path class="st0" d="M147.307,62.448c-0.162,0.29-0.264,0.472-0.404,0.721c-4.357-2.319-8.679-4.619-13-6.919
	c0.034-0.068,0.068-0.137,0.102-0.205C138.412,58.166,142.819,60.288,147.307,62.448z"/>
<path class="st0" d="M145.793,65.111c-0.204,0.261-0.333,0.427-0.506,0.649c-3.947-2.81-7.861-5.597-11.775-8.384
	c0.048-0.071,0.095-0.142,0.143-0.214C137.673,59.794,141.692,62.426,145.793,65.111z"/>
<path class="st1" d="M107.166,40.09c0.189-0.26,0.313-0.432,0.486-0.669c3.956,2.772,7.88,5.521,11.804,8.27
	c-0.047,0.071-0.094,0.142-0.142,0.212C115.29,45.315,111.267,42.727,107.166,40.09z"/>
<path class="st1" d="M105.722,42.776c0.123-0.265,0.211-0.456,0.346-0.745c4.381,2.288,8.73,4.558,13.079,6.829
	c-0.034,0.068-0.068,0.135-0.102,0.203C114.615,46.973,110.186,44.883,105.722,42.776z"/>
<path class="st0" d="M140.41,34.315c-0.059,0.183-0.073,0.401-0.184,0.543c-1.945,2.501-3.901,4.994-5.855,7.487
	c-0.703,0.896-1.408,1.791-2.112,2.686c-0.051-0.034-0.103-0.067-0.154-0.101c0.536-0.842,1.063-1.69,1.611-2.524
	c1.138-1.731,2.283-3.457,3.438-5.177c0.112-0.167,0.377-0.426,0.458-0.39c0.678,0.302,0.849-0.25,1.119-0.618
	c0.485-0.662,0.953-1.337,1.428-2.006C140.243,34.248,140.327,34.282,140.41,34.315z"/>
<path class="st1" d="M135.626,37.246c0.074-0.145,0.147-0.291,0.221-0.436c0.094-0.076,0.211-0.233,0.278-0.214
	c0.891,0.25,1.099-0.465,1.436-0.994c0.475-0.744,0.944-1.492,1.416-2.239c0.091,0.043,0.182,0.087,0.274,0.13
	c-0.07,0.198-0.102,0.421-0.217,0.589c-2.028,2.978-4.067,5.948-6.101,8.921c-0.327,0.477-0.642,0.963-0.962,1.444
	c-0.057-0.033-0.114-0.066-0.171-0.099C133.075,41.981,134.35,39.614,135.626,37.246z"/>
<path class="st0" d="M121.009,60.146c-0.565,0.889-1.126,1.781-1.697,2.666c-1.095,1.698-2.192,3.395-3.302,5.084
	c-0.106,0.161-0.361,0.401-0.451,0.365c-0.624-0.25-0.822,0.208-1.086,0.58c-0.394,0.556-0.787,1.114-1.191,1.663
	c-0.123,0.167-0.281,0.309-0.423,0.463c-0.083-0.07-0.166-0.141-0.249-0.211c2.743-3.575,5.486-7.15,8.23-10.726
	C120.897,60.069,120.953,60.108,121.009,60.146z"/>
<path class="st0" d="M133.018,58.942c3.28,3.225,6.56,6.451,9.885,9.72c-0.225,0.206-0.393,0.361-0.592,0.544
	c-3.184-3.388-6.329-6.734-9.474-10.081C132.898,59.064,132.958,59.003,133.018,58.942z"/>
<path class="st1" d="M109.948,36.446c0.227-0.167,0.416-0.306,0.656-0.482c3.19,3.345,6.355,6.663,9.521,9.982
	c-0.061,0.061-0.121,0.123-0.182,0.184C116.65,42.94,113.357,39.749,109.948,36.446z"/>
<path class="st1" d="M119.507,47.331c-3.799-2.817-7.598-5.633-11.448-8.488c0.15-0.217,0.281-0.407,0.456-0.66
	c3.73,3.009,7.431,5.993,11.132,8.978C119.6,47.218,119.553,47.274,119.507,47.331z"/>
<path class="st0" d="M133.473,57.739c3.793,2.862,7.585,5.725,11.409,8.61c-0.151,0.209-0.275,0.38-0.465,0.644
	c-3.711-3.038-7.398-6.058-11.086-9.077C133.378,57.857,133.426,57.798,133.473,57.739z"/>
<path class="st0" d="M143.916,67.529c-0.205,0.226-0.347,0.381-0.535,0.588c-3.447-3.234-6.862-6.437-10.277-9.641
	c0.05-0.056,0.101-0.111,0.151-0.167C136.785,61.361,140.315,64.414,143.916,67.529z"/>
<path class="st1" d="M119.699,46.749c-3.545-3.016-7.09-6.032-10.68-9.087c0.174-0.214,0.319-0.392,0.503-0.618
	c3.475,3.209,6.901,6.373,10.328,9.537C119.8,46.638,119.75,46.693,119.699,46.749z"/>
<path class="st1" d="M111.452,35.171c0.228,0.043,0.555,0.004,0.67,0.142c2.739,3.295,5.455,6.608,8.172,9.921
	c0.066,0.081,0.086,0.199,0.127,0.3c-0.05,0.037-0.101,0.073-0.151,0.11c-2.958-3.388-5.916-6.776-8.874-10.164
	C111.414,35.377,111.433,35.274,111.452,35.171z"/>
<path class="st0" d="M141.22,70.085c-2.912-3.499-5.794-6.962-8.676-10.424c0.058-0.056,0.115-0.111,0.173-0.167
	c0.187,0.19,0.385,0.372,0.561,0.571c2.675,3.027,5.348,6.056,8.016,9.089C141.546,69.441,141.992,69.767,141.22,70.085z"/>
<path class="st0" d="M132.433,60.142c2.731,3.492,5.461,6.984,8.216,10.507c-0.196,0.15-0.345,0.264-0.548,0.418
	c-2.646-3.603-5.271-7.179-7.897-10.755C132.28,60.256,132.357,60.199,132.433,60.142z"/>
<path class="st1" d="M120.595,44.976c-2.702-3.496-5.404-6.993-8.108-10.491c0.288-0.376,0.501-0.51,0.811-0.08
	c2.417,3.357,4.847,6.705,7.269,10.059c0.089,0.123,0.133,0.278,0.198,0.418C120.71,44.914,120.652,44.945,120.595,44.976z"/>
<path class="st0" d="M139.355,71.528c-0.514,0.643-0.721,0.145-0.929-0.181c-1.663-2.606-3.317-5.217-4.972-7.828
	c-0.469-0.74-0.935-1.482-1.394-2.228c-0.076-0.124-0.108-0.276-0.16-0.415c0.053-0.028,0.107-0.055,0.16-0.083
	C134.483,64.36,136.907,67.926,139.355,71.528z"/>
<path class="st1" d="M115.014,32.788c0.349-0.325,0.553-0.461,0.796-0.006c1.879,3.52,3.779,7.028,5.668,10.542
	c0.049,0.091,0.044,0.211,0.065,0.317c-0.065,0.03-0.13,0.06-0.196,0.09C119.241,40.093,117.135,36.454,115.014,32.788z"/>
<path class="st0" d="M138.063,72.31c-0.391,0.467-0.626,0.349-0.853-0.076c-1.63-3.043-3.27-6.081-4.904-9.122
	c-0.289-0.538-0.566-1.082-0.849-1.623c0.076-0.04,0.152-0.079,0.227-0.119C133.803,65.005,135.922,68.639,138.063,72.31z"/>
<path class="st1" d="M113.724,33.555c0.19-0.141,0.34-0.253,0.552-0.41c2.329,3.71,4.641,7.391,6.953,11.073
	c-0.076,0.05-0.153,0.099-0.229,0.149C118.592,40.789,116.185,37.212,113.724,33.555z"/>
<path class="st1" d="M116.881,31.782c1.716,3.762,3.416,7.487,5.115,11.212c-0.05,0.03-0.101,0.06-0.151,0.09
	c-0.08-0.113-0.177-0.218-0.238-0.34c-1.702-3.417-3.392-6.84-5.109-10.249C116.274,32.049,116.381,31.877,116.881,31.782z"/>
<path class="st0" d="M134.776,73.893c-1.41-3.704-2.828-7.432-4.246-11.159c0.059-0.026,0.119-0.053,0.178-0.079
	c0.084,0.153,0.182,0.301,0.249,0.461c1.408,3.342,2.813,6.684,4.214,10.029C135.309,73.473,135.534,73.864,134.776,73.893z"/>
<path class="st1" d="M122.282,42.434c-0.471-1.138-0.94-2.276-1.414-3.413c-0.983-2.358-1.962-4.718-2.958-7.071
	c-0.153-0.362-0.253-0.644,0.372-0.768c1.409,3.721,2.821,7.451,4.233,11.182C122.437,42.388,122.359,42.411,122.282,42.434z"/>
<path class="st0" d="M131.248,62.034c0.29,0.563,0.584,1.124,0.868,1.689c1.472,2.933,2.937,5.869,4.415,8.799
	c0.187,0.37,0.337,0.679-0.342,0.791c-1.707-3.714-3.423-7.447-5.138-11.18C131.116,62.101,131.182,62.067,131.248,62.034z"/>
<path class="st0" d="M130.153,63.298c1.28,3.609,2.56,7.218,3.845,10.843c-0.571,0.511-0.666,0.024-0.791-0.369
	c-0.924-2.926-1.845-5.853-2.766-8.78c-0.17-0.54-0.339-1.081-0.509-1.622C130.006,63.346,130.08,63.322,130.153,63.298z"/>
<path class="st1" d="M119.216,30.732c0.184,0.102,0.489,0.166,0.536,0.312c1.126,3.523,2.224,7.055,3.323,10.586
	c0.01,0.034-0.033,0.084-0.129,0.311c-1.321-3.746-2.593-7.353-3.865-10.959C119.126,30.898,119.171,30.815,119.216,30.732z"/>
<path class="st0" d="M129.53,63.91c0.059,0.118,0.139,0.231,0.174,0.356c0.926,3.301,1.851,6.602,2.756,9.909
	c0.048,0.174-0.079,0.396-0.124,0.596c-0.137-0.157-0.352-0.294-0.398-0.474c-0.858-3.37-1.697-6.745-2.537-10.12
	c-0.016-0.064-0.002-0.136-0.002-0.205C129.442,63.951,129.486,63.93,129.53,63.91z"/>
<path class="st1" d="M123.479,41.204c-0.218-0.761-0.44-1.521-0.653-2.283c-0.736-2.626-1.476-5.252-2.193-7.883
	c-0.057-0.207,0.045-0.458,0.074-0.689c0.161,0.18,0.417,0.337,0.469,0.545c0.841,3.329,1.656,6.664,2.473,9.998
	c0.021,0.087,0.003,0.183,0.003,0.275C123.593,41.179,123.536,41.192,123.479,41.204z"/>
<path class="st0" d="M128.849,64.529c0.063,0.189,0.145,0.373,0.187,0.567c0.667,3.116,1.329,6.233,1.995,9.349
	c0.074,0.345,0.197,0.705-0.479,0.656c-0.626-3.499-1.254-7.011-1.882-10.523C128.729,64.562,128.789,64.546,128.849,64.529z"/>
<path class="st0" d="M128.179,65.126c0.194,1.252,0.392,2.503,0.58,3.756c0.285,1.898,0.562,3.796,0.842,5.694
	c0.014,0.096,0.059,0.202,0.034,0.287c-0.049,0.163-0.139,0.315-0.211,0.471c-0.127-0.14-0.343-0.268-0.365-0.423
	c-0.138-0.985-0.23-1.977-0.344-2.966c-0.248-2.147-0.502-4.294-0.747-6.441c-0.014-0.12,0.034-0.248,0.054-0.372
	C128.073,65.13,128.126,65.128,128.179,65.126z"/>
<path class="st1" d="M124.191,40.726c-0.745-3.521-1.454-6.847-2.142-10.177c-0.032-0.154,0.119-0.345,0.184-0.519
	c0.125,0.108,0.338,0.2,0.361,0.326c0.593,3.332,1.166,6.667,1.738,10.003C124.342,40.414,124.288,40.48,124.191,40.726z"/>
<path class="st1" d="M124.869,40.006c-0.155-1.018-0.317-2.034-0.463-3.053c-0.305-2.118-0.602-4.238-0.902-6.357
	c-0.014-0.096-0.055-0.204-0.028-0.288c0.056-0.175,0.15-0.339,0.228-0.507c0.119,0.141,0.322,0.27,0.342,0.424
	c0.115,0.867,0.177,1.741,0.273,2.611c0.248,2.248,0.504,4.495,0.754,6.743c0.015,0.135,0.002,0.273,0.002,0.409
	C125.007,39.993,124.938,39.999,124.869,40.006z"/>
<path class="st1" d="M126.675,29.771c0,3.181,0,6.362,0,9.745c-0.269-0.245-0.472-0.344-0.472-0.443
	c-0.016-2.981-0.017-5.962,0.004-8.944c0.001-0.176,0.214-0.35,0.329-0.524C126.582,29.66,126.628,29.715,126.675,29.771z"/>
<path class="st1" d="M124.977,29.466c0.139,0.123,0.395,0.24,0.401,0.37c0.165,3.086,0.303,6.174,0.442,9.261
	c0.002,0.033-0.048,0.069-0.198,0.272c-0.289-3.349-0.565-6.541-0.841-9.733C124.847,29.579,124.912,29.523,124.977,29.466z"/>
<path class="st0" d="M133.243,36.44c-0.153,0.022-0.311-0.001-0.463-0.021c-0.147,0.062-0.328,0.074-0.559,0.032
	c0.001-0.003,0.001-0.005,0.002-0.008c-0.077,0.018-0.159,0.029-0.249,0.029c-0.072,0-0.139-0.007-0.203-0.019
	c-0.167,0.181-0.406,0.252-0.752,0.226c-0.067,0.014-0.139,0.021-0.215,0.021c-0.087,0-0.168-0.01-0.243-0.028
	c-0.15,0.232-0.39,0.327-0.773,0.345c0.001-0.007,0.002-0.013,0.003-0.02c-0.104,0.039-0.221,0.061-0.353,0.061
	c-0.048,0-0.094-0.004-0.138-0.009c-0.114,0.163-0.263,0.321-0.372,0.485l-0.232-0.129c0.002-0.012,0.003-0.024,0.005-0.036
	c-0.095,0.041-0.202,0.067-0.322,0.075c-0.095,0.279-0.299,0.432-0.7,0.452c0-0.046-0.001-0.089-0.002-0.133
	c-0.1,0.063-0.218,0.107-0.353,0.127c-0.016,0.074-0.036,0.146-0.068,0.214c-0.096,0.205-0.268,0.381-0.582,0.499
	c0.229,0.431,0.433,0.814,0.636,1.197c0.043-0.017,0.087-0.034,0.13-0.051c0.039-0.345,0.078-0.689,0.117-1.034
	c0.036,0,0.072,0,0.107,0c0.129,0.553,0.258,1.106,0.388,1.658c0.053-0.006,0.106-0.012,0.16-0.018
	c0.105-0.679,0.211-1.358,0.316-2.037c0.033,0.002,0.065,0.005,0.098,0.007c0.055,0.856,0.109,1.712,0.164,2.569
	c0.058,0.007,0.116,0.014,0.173,0.021c0.193-0.927,0.385-1.853,0.577-2.78c0.042,0.007,0.083,0.013,0.125,0.02
	c-0.075,1.106-0.15,2.213-0.225,3.319c0.06,0.006,0.12,0.012,0.179,0.019c0.312-1.181,0.625-2.362,0.937-3.543
	c0.045,0.01,0.089,0.02,0.134,0.03l-0.714,4.072c0.064,0.015,0.128,0.031,0.192,0.046c0.565-1.577,1.13-3.154,1.695-4.731
	c0.027,0.009,0.053,0.018,0.08,0.026c-0.472,1.764-0.945,3.528-1.417,5.292c0.057,0.02,0.113,0.039,0.17,0.059
	c0.099-0.234,0.195-0.468,0.296-0.701c0.735-1.695,1.471-3.389,2.207-5.084c0.011-0.094,0.022-0.187,0.033-0.278
	c0.037-0.088,0.074-0.177,0.111-0.265C133.31,36.426,133.276,36.435,133.243,36.44z"/>
<path class="st0" d="M135.747,36.407c-0.115-0.006-0.229-0.004-0.344,0.001c-0.118,0.038-0.252,0.044-0.407,0.017
	c-0.111,0.003-0.222,0.004-0.333-0.004c-0.107-0.008-0.271-0.065-0.422-0.116c-0.161,0.112-0.373,0.168-0.678,0.124
	c-0.095-0.014-0.219,0.166-0.329,0.253c-0.011,0.091-0.022,0.184-0.033,0.278c-0.73,2.094-1.46,4.188-2.19,6.282
	c0.055,0.024,0.11,0.048,0.165,0.072c0.865-1.72,1.729-3.441,2.594-5.161c0.048,0.022,0.095,0.043,0.143,0.065
	c-0.842,1.848-1.683,3.696-2.525,5.544c0.059,0.03,0.118,0.061,0.177,0.091c0.368-0.617,0.727-1.24,1.105-1.851
	c0.981-1.59,1.97-3.175,2.956-4.762l0.221-0.436c0.052-0.122,0.098-0.247,0.15-0.368C135.914,36.422,135.831,36.412,135.747,36.407z
	"/>
<path class="st0" d="M136.701,36.604c-0.155,0.047-0.341,0.05-0.576-0.016c-0.067-0.019-0.184,0.139-0.278,0.214l-0.221,0.436
	c-1.275,2.368-2.551,4.735-3.826,7.103c0.057,0.033,0.114,0.066,0.171,0.099c0.32-0.482,0.636-0.967,0.962-1.444
	c1.422-2.079,2.845-4.158,4.267-6.238C137.033,36.708,136.867,36.655,136.701,36.604z"/>
<path class="st1" d="M126.808,65.911c0.072,0.02,0.144,0.039,0.215,0.059c0.002,0.019,0.003,0.039,0.005,0.058
	c0.064-0.051,0.136-0.092,0.217-0.124c-0.131-0.279-0.372-0.44-0.825-0.465c-0.027,0.194-0.054,0.388-0.096,0.687
	c-0.223-0.369-0.385-0.637-0.605-1.002c-0.087,0.452-0.143,0.748-0.2,1.043c-0.034-0.01-0.068-0.019-0.102-0.029
	c-0.119-0.508-0.238-1.015-0.357-1.523c-0.056,0.002-0.113,0.005-0.169,0.007c-0.104,0.734-0.208,1.468-0.312,2.202
	c-0.028,0.002-0.056,0.004-0.085,0.006c-0.059-0.904-0.118-1.808-0.177-2.712c-0.062-0.001-0.124-0.001-0.187-0.002
	c-0.187,0.966-0.375,1.931-0.562,2.897c-0.036-0.003-0.072-0.006-0.108-0.009c0.073-1.152,0.147-2.304,0.22-3.456
	c-0.063-0.005-0.125-0.011-0.188-0.016c-0.315,1.254-0.631,2.509-0.946,3.763c-0.04-0.008-0.08-0.016-0.12-0.023
	c0.231-1.415,0.463-2.831,0.694-4.246c-0.065-0.016-0.13-0.032-0.194-0.047c-0.47,1.333-0.94,2.666-1.41,3.999
	c-0.044-0.012-0.088-0.025-0.133-0.037c0.399-1.521,0.798-3.042,1.196-4.562c-0.056-0.02-0.113-0.04-0.169-0.059
	c-0.679,1.636-1.359,3.273-2.038,4.909c-0.05-0.019-0.099-0.038-0.149-0.057c0.623-1.773,1.247-3.545,1.87-5.318
	c-0.053-0.022-0.106-0.043-0.159-0.065l-2.907,5.641c-0.189,0.369-0.378,0.737-0.567,1.106c-0.003,0.012-0.005,0.025-0.007,0.037
	c0.03-0.002,0.06-0.004,0.091-0.004c0.104,0,0.199,0.015,0.287,0.039c0.034-0.003,0.068-0.007,0.104-0.007
	c0.156,0,0.293,0.03,0.41,0.083c0.021,0.001,0.044,0.006,0.066,0.009c0.074-0.017,0.154-0.027,0.24-0.027
	c0.158,0,0.294,0.033,0.412,0.087c0.036-0.013,0.074-0.024,0.114-0.032c0.184-0.132,0.424-0.166,0.75-0.114
	c-0.005,0.017-0.01,0.032-0.015,0.048c0.088-0.03,0.185-0.047,0.291-0.051c0.075-0.037,0.156-0.068,0.248-0.083
	c0.182-0.122,0.419-0.162,0.729-0.145c-0.003,0.013-0.007,0.025-0.01,0.037c0.037-0.004,0.076-0.006,0.116-0.006
	c0.015,0,0.029,0.002,0.044,0.002c0.07-0.035,0.147-0.062,0.232-0.079c0.151-0.192,0.381-0.289,0.749-0.264
	c-0.001,0.006-0.001,0.011-0.002,0.017c0.113-0.056,0.244-0.091,0.395-0.097c0.136-0.246,0.372-0.366,0.769-0.4
	c-0.001,0.007-0.002,0.013-0.003,0.019c0.05-0.007,0.102-0.012,0.157-0.012c0.053,0,0.102,0.005,0.15,0.011
	c0.087-0.273,0.274-0.45,0.683-0.477c0.086-0.058,0.185-0.102,0.299-0.127c0.071-0.213,0.219-0.347,0.527-0.368v0.106
	c0.006-0.001,0.012-0.002,0.017-0.003c0.091-0.132,0.218-0.239,0.38-0.306C126.714,66.256,126.772,66.083,126.808,65.911z"/>
<path class="st1" d="M121.501,61.222c-1.328,2.291-2.657,4.582-3.985,6.873c-0.048-0.027-0.095-0.053-0.143-0.08
	c1.315-2.437,2.63-4.873,3.945-7.31c-0.063-0.036-0.126-0.073-0.189-0.109c-1.747,2.64-3.55,5.243-5.247,7.919
	c0.051-0.007,0.103-0.013,0.159-0.013c0.114,0,0.217,0.016,0.31,0.045c0.215-0.064,0.47-0.042,0.784,0.079
	c-0.014,0.029-0.028,0.058-0.042,0.087c0.058-0.01,0.119-0.016,0.184-0.016c0.056,0,0.109,0.005,0.16,0.013
	c0.043-0.005,0.086-0.013,0.133-0.013c0.04,0,0.08,0.002,0.117,0.006c0.206-0.116,0.456-0.182,0.774-0.168
	c0.189-0.369,0.378-0.737,0.567-1.106c0.88-2.043,1.76-4.086,2.64-6.129C121.613,61.274,121.557,61.248,121.501,61.222z"/>
<path class="st1" d="M113.973,67.79c0.082,0.029,0.164,0.062,0.246,0.097c0.216-0.019,0.365-0.182,0.532-0.406
	c1.411-1.892,2.844-3.768,4.263-5.654c0.557-0.741,1.096-1.495,1.643-2.243c-0.063-0.05-0.126-0.099-0.19-0.149l-7.15,8.174
	C113.533,67.651,113.752,67.712,113.973,67.79z"/>
<path class="st1" d="M120.796,60.031l-6.173,8.045c0.026,0.013,0.052,0.027,0.078,0.04c0.132,0.01,0.249,0.043,0.35,0.094
	c0.125-0.033,0.274-0.024,0.464,0.052c0.09,0.036,0.346-0.204,0.451-0.365c1.109-1.689,2.206-3.386,3.302-5.084
	c0.571-0.885,1.132-1.777,1.697-2.666L120.796,60.031z"/>
<path class="st1" d="M146.319,40.995c-0.302,0.123-0.603,0.246-0.98,0.4c0.064,0.099,0.109,0.209,0.135,0.325
	c0.017,0.032,0.033,0.064,0.046,0.097c0.311-0.171,0.621-0.342,0.932-0.513C146.407,41.201,146.363,41.098,146.319,40.995z"/>
<path class="st1" d="M146.335,42.547c0.046,0.068,0.083,0.141,0.11,0.218c0.371-0.212,0.601-0.363,0.639-0.428
	C146.817,42.412,146.605,42.472,146.335,42.547z"/>
<path class="st1" d="M145.399,39.681c-0.346,0.235-0.692,0.47-1.041,0.707c-0.041-0.028-0.078-0.053-0.117-0.08
	c0.026,0.032,0.049,0.067,0.07,0.102c0.1,0.081,0.178,0.183,0.234,0.296c0.195-0.126,0.391-0.251,0.586-0.377
	c0.174-0.112,0.297-0.304,0.444-0.458C145.517,39.808,145.458,39.744,145.399,39.681z"/>
<path class="st1" d="M143.231,39.918c0.513-0.381,1.027-0.761,1.54-1.142c-0.061-0.1-0.123-0.2-0.184-0.3
	c-0.237,0.147-0.467,0.308-0.713,0.438c-0.294,0.156-0.594,0.309-0.908,0.418c-0.072,0.025-0.152,0.035-0.234,0.042
	C142.983,39.477,143.15,39.681,143.231,39.918z"/>
<path class="st1" d="M142.411,36.185c-0.435,0.487-0.854,0.989-1.315,1.45c-0.098,0.098-0.291,0.195-0.438,0.218
	c0.145,0.093,0.25,0.226,0.32,0.376c0.022-0.006,0.044-0.011,0.067-0.015c0.444-0.442,0.887-0.885,1.327-1.332
	c0.14-0.142,0.192-0.371,0.285-0.559C142.576,36.277,142.494,36.231,142.411,36.185z"/>
<path class="st1" d="M141.116,35.454c-0.293,0.325-0.535,0.696-0.83,1.02c-0.313,0.344-0.498,0.933-1.055,0.87
	c0.196,0.094,0.336,0.251,0.42,0.437c0.004,0.001,0.009,0.001,0.014,0.002c0.05-0.056,0.101-0.112,0.151-0.167
	c0.553-0.615,1.08-1.255,1.602-1.897c0.081-0.099,0.067-0.276,0.096-0.416C141.379,35.351,141.201,35.36,141.116,35.454z"/>
<path class="st1" d="M143.53,37.32c-0.489,0.444-0.978,0.889-1.472,1.338c0.058,0.107,0.096,0.225,0.114,0.348
	c0.427-0.363,0.854-0.726,1.28-1.09c0.125-0.107,0.171-0.308,0.254-0.464C143.647,37.408,143.588,37.364,143.53,37.32z"/>
<path class="st1" d="M140.16,34.215c-0.475,0.669-0.943,1.344-1.428,2.006c-0.19,0.26-0.333,0.607-0.636,0.686
	c0.119,0.064,0.216,0.151,0.29,0.254c0.016-0.001,0.031-0.004,0.047-0.004c0.599-0.766,1.197-1.531,1.794-2.299
	c0.111-0.143,0.125-0.36,0.184-0.543L140.16,34.215z"/>
<path class="st0" d="M107.75,63.394c-0.025-0.001-0.051-0.002-0.075-0.005c-0.333,0.189-0.667,0.378-1,0.567
	c0.048,0.093,0.095,0.186,0.143,0.279c0.323-0.158,0.647-0.316,0.999-0.488c0.009,0.015,0.019,0.027,0.028,0.041
	c-0.006-0.037-0.009-0.075-0.011-0.113C107.793,63.586,107.766,63.491,107.75,63.394z"/>
<path class="st0" d="M106.81,62.217c-0.269,0.129-0.537,0.259-0.806,0.388l0.109,0.243c0.228-0.083,0.456-0.166,0.702-0.256
	c0.023,0.03,0.046,0.06,0.069,0.09c-0.029-0.092-0.044-0.188-0.049-0.284C106.822,62.339,106.813,62.278,106.81,62.217z"/>
<path class="st0" d="M108.79,64.683c-0.028-0.031-0.054-0.063-0.081-0.095c-0.061-0.003-0.118-0.011-0.173-0.023l-1.036,0.683
	c0.054,0.087,0.108,0.174,0.162,0.261c0.382-0.24,0.763-0.479,1.178-0.74c-0.004-0.015-0.006-0.03-0.01-0.045
	C108.818,64.711,108.804,64.697,108.79,64.683z"/>
<path class="st0" d="M112.322,67.245c-0.04-0.037-0.077-0.075-0.11-0.118c-0.045-0.032-0.085-0.069-0.122-0.109
	c-0.57,0.572-1.139,1.144-1.709,1.716c0.097,0.091,0.194,0.183,0.29,0.274c0.449-0.491,0.885-0.996,1.354-1.467
	c0.072-0.072,0.185-0.153,0.293-0.212C112.319,67.302,112.32,67.273,112.322,67.245z"/>
<path class="st0" d="M109.887,65.572c-0.016-0.01-0.032-0.02-0.048-0.03c-0.816,0.7-1.348,1.205-1.386,1.353
	c0.554-0.451,0.977-0.795,1.494-1.216C109.925,65.644,109.905,65.608,109.887,65.572z"/>
<path class="st0" d="M111.027,66.237c-0.019-0.011-0.039-0.022-0.059-0.033c-0.541,0.471-1.083,0.941-1.624,1.412
	c0.072,0.088,0.145,0.176,0.217,0.264c0.517-0.466,1.033-0.932,1.55-1.398C111.073,66.405,111.045,66.322,111.027,66.237z"/>
<path class="st0" d="M126.635,38.803c-0.153-0.046-0.299-0.104-0.434-0.173c0.001,0.148,0,0.295,0.001,0.443
	c0.001,0.099,0.203,0.198,0.472,0.443v-0.704C126.661,38.808,126.648,38.807,126.635,38.803z"/>
<path class="st0" d="M105.599,61.1c-0.083,0.033-0.166,0.066-0.249,0.099c0.443,0.246,0.777,0.432,1.156,0.642
	c0.054-0.025,0.107-0.05,0.161-0.075C106.289,61.59,105.926,61.352,105.599,61.1z"/>
<g>
</g>
<g>
</g>
<g>
</g>
<g>
</g>
<g>
</g>
<g>
</g>
<g>
</g>
<g>
</g>
<g>
</g>
<g>
</g>
<g>
</g>
<g>
</g>
<g>
</g>
<g>
</g>
<g>
</g>
</svg>
