<?xml version="1.0" encoding="UTF-8" standalone="no"?>
<svg
   xmlns:dc="http://purl.org/dc/elements/1.1/"
   xmlns:cc="http://creativecommons.org/ns#"
   xmlns:rdf="http://www.w3.org/1999/02/22-rdf-syntax-ns#"
   xmlns:svg="http://www.w3.org/2000/svg"
   xmlns="http://www.w3.org/2000/svg"
   xmlns:sodipodi="http://sodipodi.sourceforge.net/DTD/sodipodi-0.dtd"
   xmlns:inkscape="http://www.inkscape.org/namespaces/inkscape"
   version="1.1"
   id="Capa_2"
   x="0px"
   y="0px"
   viewBox="0 0 136 400"
   xml:space="preserve"
   sodipodi:docname="logoVerticalBeta.svg"
   width="136"
   height="400"
   inkscape:version="1.0.2 (e86c870879, 2021-01-15, custom)"><metadata
   id="metadata263"><rdf:RDF><cc:Work
       rdf:about=""><dc:format>image/svg+xml</dc:format><dc:type
         rdf:resource="http://purl.org/dc/dcmitype/StillImage" /><dc:title></dc:title></cc:Work></rdf:RDF></metadata><defs
   id="defs261"><rect
     x="-44.089195"
     y="-60.181797"
     width="214.78429"
     height="59.319408"
     id="rect1132" /><rect
     x="-44.089195"
     y="-60.181797"
     width="214.78429"
     height="59.319408"
     id="rect1143" /></defs><sodipodi:namedview
   pagecolor="#ffffff"
   bordercolor="#666666"
   borderopacity="1"
   objecttolerance="10"
   gridtolerance="10"
   guidetolerance="10"
   inkscape:pageopacity="0"
   inkscape:pageshadow="2"
   inkscape:window-width="1920"
   inkscape:window-height="997"
   id="namedview259"
   showgrid="false"
   inkscape:zoom="1.8800081"
   inkscape:cx="160.22472"
   inkscape:cy="93.037803"
   inkscape:window-x="1920"
   inkscape:window-y="28"
   inkscape:window-maximized="1"
   inkscape:current-layer="Capa_2"
   inkscape:document-rotation="0"
   showguides="true"
   inkscape:guide-bbox="true"><sodipodi:guide
     position="112.76547,394.14896"
     orientation="0,-1"
     id="guide993" /></sodipodi:namedview>
<style
   type="text/css"
   id="style2">
	.st0{fill:#9468E9;}
	.st1{fill:#5D25CA;}
</style>









































































































<g
   id="g1200"
   transform="rotate(-90,203.25045,198.669)"><g
     id="g6">
	<path
   class="st0"
   d="M 83.448,49.121 V 76.072 H 77.174 V 49.74 c 0,-9.809 -4.948,-14.845 -13.343,-14.845 -9.543,0 -15.552,6.185 -15.552,16.789 V 76.073 H 42.005 V 49.74 c 0,-9.809 -4.948,-14.845 -13.431,-14.845 -9.455,0 -15.552,6.185 -15.552,16.789 V 76.073 H 6.748 v -46.48 h 6.009 v 8.483 c 3.27,-5.567 9.278,-8.836 17.054,-8.836 7.688,0 13.696,3.269 16.524,9.808 3.358,-6.009 9.985,-9.808 18.379,-9.808 11.311,0 18.734,6.538 18.734,19.881 z"
   id="path4" />
</g><g
     id="g18">
	<path
   class="st0"
   d="m 194.262,71.896 c -2.474,2.21 -6.186,3.27 -9.808,3.27 -8.748,0 -13.608,-4.948 -13.608,-13.52 V 33.547 h -8.307 v -5.302 h 8.307 V 18.083 h 6.273 v 10.162 h 14.138 v 5.302 H 177.12 v 27.746 c 0,5.479 2.828,8.483 8.041,8.483 2.563,0 5.125,-0.795 6.893,-2.386 z"
   id="path8" />
	<path
   class="st0"
   d="m 210.875,13.577 c 0,-2.386 2.032,-4.418 4.595,-4.418 2.563,0 4.596,1.944 4.596,4.33 0,2.563 -1.944,4.595 -4.596,4.595 -2.563,-0.001 -4.595,-2.033 -4.595,-4.507 z m 1.414,14.668 h 6.273 v 46.479 h -6.273 z"
   id="path10" />
	<path
   class="st0"
   d="m 281.743,28.245 -20.677,46.479 h -6.451 L 234.026,28.245 h 6.539 l 17.408,39.587 17.584,-39.587 z"
   id="path12" />
	<path
   class="st0"
   d="m 339.093,28.245 v 46.479 h -6.009 v -8.482 c -3.27,5.654 -9.278,8.924 -16.701,8.924 -11.841,0 -19.616,-6.627 -19.616,-19.97 V 28.245 h 6.273 v 26.333 c 0,9.896 5.125,14.933 13.961,14.933 9.721,0 15.817,-6.273 15.817,-16.877 V 28.245 Z"
   id="path14" />
	<path
   class="st0"
   d="m 356.855,69.423 2.827,-4.948 c 3.711,2.916 9.985,5.213 16.524,5.213 8.836,0 12.459,-3.004 12.459,-7.599 0,-12.106 -30.132,-2.563 -30.132,-20.942 0,-7.599 6.539,-13.254 18.38,-13.254 6.008,0 12.547,1.679 16.436,4.33 l -2.739,5.037 c -4.065,-2.828 -8.925,-3.976 -13.696,-3.976 -8.395,0 -12.106,3.27 -12.106,7.688 0,12.548 30.132,3.093 30.132,20.942 0,8.041 -7.068,13.254 -19.175,13.254 -7.688,-0.002 -15.111,-2.476 -18.91,-5.745 z"
   id="path16" />
</g><path
     class="st0"
     d="m 119.073,67.428 c 0.969,-1.88 1.938,-3.761 2.907,-5.641 0.053,0.022 0.106,0.043 0.159,0.065 -0.623,1.773 -1.247,3.545 -1.87,5.318 0.05,0.019 0.099,0.038 0.149,0.057 0.679,-1.636 1.359,-3.273 2.038,-4.909 0.056,0.02 0.113,0.04 0.169,0.059 -0.399,1.521 -0.798,3.042 -1.196,4.562 0.044,0.012 0.088,0.025 0.133,0.037 0.47,-1.333 0.94,-2.666 1.41,-3.999 0.065,0.016 0.13,0.032 0.194,0.047 -0.231,1.415 -0.463,2.831 -0.694,4.246 0.04,0.008 0.08,0.016 0.12,0.023 0.315,-1.254 0.631,-2.509 0.946,-3.763 0.063,0.005 0.125,0.011 0.188,0.016 -0.073,1.152 -0.147,2.304 -0.22,3.456 0.036,0.003 0.072,0.006 0.108,0.009 0.187,-0.966 0.375,-1.931 0.562,-2.897 0.062,10e-4 0.124,10e-4 0.187,0.002 0.059,0.904 0.118,1.808 0.177,2.712 0.028,-0.002 0.056,-0.004 0.085,-0.006 0.104,-0.734 0.208,-1.468 0.312,-2.202 0.056,-0.003 0.113,-0.005 0.169,-0.008 0.119,0.508 0.238,1.015 0.357,1.523 0.034,0.01 0.068,0.019 0.102,0.029 0.057,-0.295 0.113,-0.591 0.2,-1.043 0.22,0.365 0.382,0.633 0.605,1.002 0.042,-0.299 0.069,-0.493 0.096,-0.687 0.737,0.04 0.917,0.436 0.965,1.121 0.196,2.77 0.47,5.535 0.695,8.303 0.015,0.186 -0.137,0.386 -0.212,0.579 -0.12,-0.193 -0.334,-0.381 -0.346,-0.581 -0.166,-2.748 -0.303,-5.498 -0.449,-8.247 -0.011,-0.215 -0.033,-0.43 -0.05,-0.644 -0.072,-0.02 -0.144,-0.039 -0.215,-0.059 -0.053,0.252 -0.156,0.504 -0.152,0.755 0.036,2.705 0.093,5.409 0.134,8.114 0.005,0.324 0.145,0.799 -0.506,0.653 0,-2.933 0,-5.849 0,-8.802 -0.489,0.033 -0.579,0.346 -0.589,0.818 -0.05,2.461 -0.13,4.921 -0.2,7.382 -0.002,0.073 0.023,0.163 -0.01,0.216 -0.087,0.138 -0.2,0.261 -0.302,0.389 -0.089,-0.141 -0.259,-0.287 -0.253,-0.423 0.054,-1.094 0.143,-2.187 0.22,-3.281 0.107,-1.527 0.214,-3.055 0.322,-4.608 -0.57,0.033 -0.721,0.348 -0.759,0.813 -0.175,2.113 -0.367,4.224 -0.555,6.336 -0.019,0.218 -0.018,0.445 -0.081,0.651 -0.046,0.151 -0.182,0.275 -0.278,0.412 -0.091,-0.164 -0.274,-0.338 -0.258,-0.491 0.117,-1.114 0.273,-2.224 0.417,-3.336 0.169,-1.298 0.338,-2.597 0.512,-3.924 -0.594,0.05 -0.832,0.285 -0.908,0.86 -0.25,1.908 -0.575,3.806 -0.871,5.707 -0.03,0.193 -0.033,0.398 -0.107,0.573 -0.062,0.148 -0.208,0.26 -0.317,0.388 -0.063,-0.172 -0.206,-0.359 -0.178,-0.515 0.364,-1.987 0.754,-3.97 1.135,-5.954 0.036,-0.187 0.055,-0.377 0.085,-0.58 -0.635,-0.043 -0.864,0.268 -0.978,0.824 -0.364,1.765 -0.764,3.523 -1.178,5.277 -0.052,0.22 -0.271,0.401 -0.413,0.6 -0.019,-0.256 -0.107,-0.529 -0.047,-0.764 0.475,-1.863 0.979,-3.719 1.487,-5.627 -0.61,-0.034 -0.946,0.148 -1.117,0.753 -0.489,1.733 -1.038,3.448 -1.563,5.17 -0.077,0.011 -0.154,0.023 -0.231,0.034 -0.029,-0.187 -0.127,-0.397 -0.075,-0.558 0.507,-1.552 1.039,-3.095 1.564,-4.641 0.054,-0.161 0.104,-0.323 0.169,-0.527 -0.611,-0.097 -0.927,0.102 -1.122,0.7 -0.447,1.365 -0.964,2.708 -1.478,4.05 -0.067,0.175 -0.289,0.29 -0.44,0.433 10e-4,-0.213 -0.06,-0.452 0.014,-0.636 0.586,-1.465 1.197,-2.92 1.808,-4.395 -0.596,-0.188 -0.923,-0.043 -1.142,0.499 -0.446,1.107 -0.934,2.197 -1.441,3.278 -0.121,0.258 -0.381,0.45 -0.578,0.673 0.057,-0.279 0.064,-0.582 0.181,-0.834 0.524,-1.126 1.084,-2.236 1.62,-3.356 0.069,-0.145 0.077,-0.32 0.114,-0.481 0.186,-0.368 0.375,-0.736 0.564,-1.105 z"
     id="path20" /><path
     class="st1"
     d="m 133.201,36.967 c -0.736,1.695 -1.472,3.389 -2.207,5.084 -0.101,0.233 -0.197,0.467 -0.296,0.701 -0.057,-0.02 -0.113,-0.039 -0.17,-0.059 0.472,-1.764 0.945,-3.528 1.417,-5.292 -0.027,-0.009 -0.053,-0.018 -0.08,-0.026 -0.565,1.577 -1.13,3.154 -1.695,4.731 -0.064,-0.015 -0.128,-0.031 -0.192,-0.046 0.238,-1.357 0.476,-2.715 0.714,-4.072 -0.045,-0.01 -0.089,-0.02 -0.134,-0.03 -0.312,1.181 -0.625,2.362 -0.937,3.543 -0.06,-0.006 -0.12,-0.012 -0.179,-0.019 0.075,-1.106 0.15,-2.213 0.225,-3.319 -0.042,-0.007 -0.083,-0.013 -0.125,-0.02 -0.193,0.927 -0.385,1.853 -0.578,2.78 -0.058,-0.007 -0.116,-0.014 -0.173,-0.021 -0.055,-0.856 -0.109,-1.712 -0.164,-2.569 -0.033,-0.002 -0.065,-0.005 -0.098,-0.007 -0.105,0.679 -0.211,1.358 -0.316,2.037 -0.053,0.006 -0.106,0.012 -0.16,0.018 -0.129,-0.553 -0.258,-1.106 -0.388,-1.658 -0.036,0 -0.072,0 -0.107,0 -0.039,0.345 -0.078,0.689 -0.117,1.034 -0.043,0.017 -0.087,0.034 -0.13,0.051 -0.204,-0.383 -0.407,-0.767 -0.636,-1.197 0.314,-0.118 0.486,-0.293 0.582,-0.499 0.136,-0.292 0.117,-0.645 0.129,-0.98 0.079,-2.339 0.145,-4.678 0.217,-7.017 0.004,-0.117 0.013,-0.234 0.019,-0.347 0.667,-0.236 0.583,0.193 0.557,0.558 -0.165,2.334 -0.334,4.668 -0.498,7.002 -0.013,0.186 -0.002,0.373 -0.002,0.577 0.542,-0.027 0.725,-0.295 0.766,-0.791 0.173,-2.138 0.379,-4.273 0.573,-6.409 0.013,-0.146 -0.008,-0.309 0.051,-0.432 0.081,-0.167 0.225,-0.303 0.342,-0.452 0.073,0.172 0.227,0.353 0.208,0.513 -0.192,1.596 -0.413,3.189 -0.624,4.783 -0.101,0.765 -0.199,1.53 -0.299,2.295 0.077,0.043 0.155,0.086 0.232,0.129 0.184,-0.276 0.481,-0.531 0.532,-0.83 0.338,-1.944 0.621,-3.898 0.925,-5.848 0.041,-0.262 0.099,-0.521 0.148,-0.777 0.56,0.036 0.571,0.038 0.471,0.555 -0.364,1.888 -0.736,3.774 -1.103,5.662 -0.045,0.232 -0.073,0.467 -0.113,0.722 0.558,-0.025 0.819,-0.209 0.927,-0.758 0.352,-1.792 0.769,-3.572 1.188,-5.35 0.048,-0.206 0.266,-0.371 0.406,-0.556 0.047,0.241 0.183,0.505 0.127,0.719 -0.48,1.859 -0.994,3.708 -1.509,5.6 0.637,0.076 0.934,-0.14 1.09,-0.715 0.422,-1.551 0.898,-3.088 1.357,-4.629 0.054,-0.18 0.13,-0.353 0.196,-0.53 0.083,-0.004 0.166,-0.008 0.25,-0.012 0.022,0.23 0.119,0.483 0.054,0.685 -0.487,1.506 -1.006,3.002 -1.513,4.502 -0.052,0.154 -0.092,0.312 -0.14,0.478 0.55,0.099 0.827,-0.081 1.001,-0.597 0.476,-1.407 1.006,-2.797 1.538,-4.185 0.055,-0.142 0.274,-0.221 0.417,-0.329 0.027,0.164 0.123,0.357 0.069,0.489 -0.659,1.624 -1.339,3.239 -2.014,4.853 -0.009,0.09 -0.02,0.184 -0.031,0.277 z"
     id="path22" /><path
     class="st0"
     d="m 119.073,67.428 c -0.189,0.369 -0.378,0.737 -0.567,1.106 -1.044,-0.044 -1.372,0.735 -1.745,1.489 -0.424,0.86 -0.884,1.702 -1.462,2.487 0.364,-1.417 1.275,-2.581 1.88,-3.885 -0.726,-0.28 -1.143,-0.043 -1.46,0.612 -0.327,0.676 -0.762,1.301 -1.161,1.942 -0.133,0.213 -0.299,0.405 -0.574,0.517 2.205,-3.831 4.757,-7.427 7.188,-11.102 0.063,0.036 0.126,0.073 0.189,0.109 -1.315,2.437 -2.63,4.873 -3.945,7.31 0.048,0.027 0.095,0.053 0.143,0.08 1.328,-2.291 2.657,-4.582 3.985,-6.873 0.056,0.026 0.112,0.051 0.168,0.077 -0.878,2.045 -1.758,4.088 -2.639,6.131 z"
     id="path24" /><path
     class="st1"
     d="m 133.201,36.967 c 0.011,-0.094 0.022,-0.187 0.033,-0.278 0.11,-0.087 0.233,-0.267 0.329,-0.253 0.884,0.128 1.01,-0.568 1.26,-1.127 0.503,-1.127 0.999,-2.256 1.497,-3.385 0.094,0.015 0.187,0.031 0.281,0.046 -0.019,0.209 0.018,0.445 -0.066,0.624 -0.591,1.253 -1.207,2.494 -1.827,3.763 0.642,0.227 0.983,0.051 1.259,-0.546 0.507,-1.097 1.112,-2.148 1.676,-3.219 0.085,0.018 0.171,0.036 0.256,0.055 -0.035,0.193 -0.025,0.41 -0.114,0.574 -0.549,1.004 -1.123,1.995 -1.681,2.994 -0.105,0.188 -0.173,0.396 -0.258,0.595 -0.074,0.145 -0.147,0.291 -0.221,0.436 -0.986,1.587 -1.975,3.172 -2.956,4.762 -0.377,0.611 -0.737,1.234 -1.105,1.851 -0.059,-0.03 -0.118,-0.061 -0.177,-0.091 0.842,-1.848 1.683,-3.696 2.525,-5.544 -0.048,-0.022 -0.095,-0.043 -0.143,-0.065 -0.865,1.72 -1.729,3.441 -2.594,5.161 -0.055,-0.024 -0.11,-0.048 -0.165,-0.072 0.73,-2.093 1.461,-4.187 2.191,-6.281 z"
     id="path26" /><path
     class="st0"
     d="m 134.139,50.719 c 4.874,-1.101 9.748,-2.203 14.693,-3.32 0.101,0.367 0.182,0.658 0.283,1.026 -5.023,0.85 -9.982,1.689 -14.94,2.528 -0.012,-0.078 -0.024,-0.156 -0.036,-0.234 z"
     id="path28" /><path
     class="st0"
     d="m 149.358,49.942 c -5.1,0.517 -10.099,1.024 -15.098,1.531 -0.011,-0.078 -0.022,-0.155 -0.034,-0.233 4.957,-0.774 9.915,-1.547 14.962,-2.335 0.057,0.343 0.106,0.641 0.17,1.037 z"
     id="path30" /><path
     class="st1"
     d="m 118.872,54.368 c -4.827,1.15 -9.654,2.299 -14.537,3.463 -0.117,-0.337 -0.21,-0.605 -0.352,-1.016 4.984,-0.901 9.911,-1.792 14.839,-2.683 0.016,0.078 0.033,0.157 0.05,0.236 z"
     id="path32" /><path
     class="st1"
     d="m 119.12,55.393 c -4.495,1.742 -8.99,3.485 -13.332,5.168 -0.24,-0.382 -0.426,-0.678 -0.58,-0.923 4.368,-1.41 9.1,-2.937 13.833,-4.465 0.026,0.073 0.052,0.146 0.079,0.22 z"
     id="path34" /><path
     class="st1"
     d="m 118.805,53.845 c -4.933,0.82 -9.865,1.64 -14.859,2.47 -0.067,-0.374 -0.116,-0.648 -0.183,-1.017 5.045,-0.572 10.033,-1.137 15.021,-1.702 0.008,0.083 0.015,0.166 0.021,0.249 z"
     id="path36" /><path
     class="st1"
     d="m 104.92,59.308 c -0.168,-0.344 -0.304,-0.62 -0.475,-0.97 4.844,-1.233 9.657,-2.458 14.47,-3.683 0.023,0.076 0.046,0.152 0.07,0.228 -4.668,1.468 -9.335,2.937 -14.065,4.425 z"
     id="path38" /><path
     class="st0"
     d="m 134.01,49.666 c 4.505,-1.689 9.009,-3.378 13.517,-5.069 0.251,0.275 0.476,0.522 0.783,0.859 -4.779,1.49 -9.51,2.964 -14.241,4.439 -0.02,-0.076 -0.039,-0.152 -0.059,-0.229 z"
     id="path40" /><path
     class="st0"
     d="m 148.231,45.921 c 0.162,0.334 0.294,0.607 0.461,0.951 -4.879,1.191 -9.715,2.371 -14.552,3.552 -0.021,-0.075 -0.042,-0.15 -0.063,-0.226 4.71,-1.424 9.42,-2.847 14.154,-4.277 z"
     id="path42" /><path
     class="st1"
     d="m 119.245,55.909 c -4.263,1.986 -8.526,3.971 -12.739,5.933 -0.379,-0.21 -0.713,-0.396 -1.156,-0.642 4.609,-1.838 9.206,-3.67 13.802,-5.503 0.031,0.07 0.062,0.141 0.093,0.212 z"
     id="path44" /><path
     class="st0"
     d="m 133.845,49.163 c 4.309,-1.947 8.618,-3.895 12.834,-5.8 0.399,0.219 0.708,0.389 1.171,0.643 -4.689,1.812 -9.299,3.593 -13.91,5.375 -0.032,-0.073 -0.063,-0.146 -0.095,-0.218 z"
     id="path46" /><path
     class="st0"
     d="m 149.527,52.018 c 0,0.372 0,0.61 0,0.958 -5.093,-0.155 -10.153,-0.31 -15.212,-0.464 0,-0.081 0,-0.162 0,-0.243 5.043,-0.084 10.086,-0.167 15.212,-0.251 z"
     id="path48" /><path
     class="st1"
     d="m 103.614,53.207 c 0,-0.366 0,-0.619 0,-0.967 5.073,0.112 10.116,0.224 15.158,0.336 10e-4,0.078 0.003,0.156 0.004,0.234 -5.019,0.131 -10.04,0.263 -15.162,0.397 z"
     id="path50" /><path
     class="st0"
     d="m 133.579,48.139 c 0.789,-0.507 1.575,-1.02 2.369,-1.52 2.78,-1.748 5.565,-3.486 8.342,-5.24 0.397,-0.251 0.754,-0.526 1.044,0.018 0.379,-0.155 0.682,-0.279 0.985,-0.402 0.044,0.103 0.088,0.206 0.133,0.308 -4.252,2.344 -8.504,4.687 -12.757,7.031 -0.039,-0.065 -0.078,-0.13 -0.116,-0.195 z"
     id="path52" /><path
     class="st0"
     d="m 146.306,42.555 c 0.286,-0.08 0.501,-0.14 0.779,-0.218 -0.297,0.508 -12.184,6.199 -13.381,6.339 0.188,-0.113 0.371,-0.235 0.564,-0.339 3.665,-1.976 7.332,-3.95 10.997,-5.926 0.399,-0.214 0.805,-0.511 1.041,0.144 z"
     id="path54" /><path
     class="st0"
     d="m 149.369,55.111 c -0.031,0.306 -0.055,0.54 -0.095,0.927 -5.041,-0.837 -10.032,-1.665 -15.023,-2.494 0.011,-0.078 0.021,-0.157 0.032,-0.235 5.011,0.598 10.022,1.197 15.086,1.802 z"
     id="path56" /><path
     class="st1"
     d="m 119.518,56.933 c -0.948,0.619 -1.895,1.241 -2.846,1.856 -2.616,1.691 -5.241,3.368 -7.844,5.078 -0.423,0.278 -0.725,0.36 -1.011,-0.12 -0.352,0.172 -0.675,0.33 -0.999,0.488 -0.048,-0.093 -0.095,-0.186 -0.143,-0.279 4.232,-2.402 8.464,-4.803 12.696,-7.205 0.05,0.061 0.098,0.122 0.147,0.182 z"
     id="path58" /><path
     class="st1"
     d="m 107.241,63.153 c -0.154,-0.203 -0.285,-0.375 -0.426,-0.56 -0.246,0.09 -0.474,0.173 -0.702,0.256 -0.036,-0.081 -0.073,-0.162 -0.109,-0.243 4.427,-2.133 8.854,-4.267 13.282,-6.4 0.036,0.068 0.072,0.136 0.108,0.205 -4.01,2.224 -8.02,4.449 -12.153,6.742 z"
     id="path60" /><path
     class="st1"
     d="m 103.866,48.641 c 0.072,-0.347 0.124,-0.598 0.192,-0.924 4.948,1.092 9.841,2.172 14.735,3.252 -0.014,0.073 -0.027,0.147 -0.041,0.22 -4.927,-0.843 -9.856,-1.687 -14.886,-2.548 z"
     id="path62" /><path
     class="st1"
     d="m 118.705,51.761 c -4.967,-0.545 -9.933,-1.091 -14.979,-1.645 0.015,-0.293 0.028,-0.545 0.048,-0.934 5.031,0.789 9.992,1.566 14.954,2.344 -0.008,0.078 -0.016,0.157 -0.023,0.235 z"
     id="path64" /><path
     class="st0"
     d="m 149.188,56.589 c -0.062,0.31 -0.113,0.565 -0.184,0.92 -4.973,-1.146 -9.893,-2.279 -14.814,-3.413 0.016,-0.073 0.032,-0.147 0.047,-0.22 4.948,0.898 9.895,1.795 14.951,2.713 z"
     id="path66" /><path
     class="st0"
     d="m 143.77,39.989 c 0.206,0.14 0.385,0.261 0.588,0.398 0.349,-0.237 0.695,-0.472 1.041,-0.707 0.059,0.064 0.117,0.127 0.176,0.191 -0.147,0.155 -0.27,0.346 -0.444,0.458 -2.599,1.677 -5.205,3.342 -7.807,5.012 -1.267,0.813 -2.53,1.632 -3.795,2.448 -0.046,-0.064 -0.092,-0.128 -0.139,-0.192 3.441,-2.52 6.88,-5.042 10.38,-7.608 z"
     id="path68" /><path
     class="st0"
     d="m 134.279,51.754 c 5.026,-0.408 10.052,-0.816 15.115,-1.227 0.048,0.276 0.088,0.508 0.156,0.904 -5.129,0.183 -10.201,0.365 -15.273,0.546 0.001,-0.074 0.002,-0.149 0.002,-0.223 z"
     id="path70" /><path
     class="st1"
     d="m 103.639,51.644 c 0,-0.359 0,-0.615 0,-0.938 5.057,0.448 10.063,0.892 15.069,1.335 -0.005,0.07 -0.01,0.141 -0.015,0.211 -5.012,-0.202 -10.023,-0.404 -15.054,-0.608 z"
     id="path72" /><path
     class="st1"
     d="m 118.709,53.329 c -4.997,0.457 -9.994,0.913 -15.06,1.376 -0.018,-0.34 -0.032,-0.594 -0.049,-0.927 5.075,-0.225 10.079,-0.446 15.084,-0.668 0.008,0.073 0.017,0.146 0.025,0.219 z"
     id="path74" /><path
     class="st1"
     d="m 119.7,57.485 c -1.355,1.015 -2.709,2.03 -4.064,3.045 -1.868,1.4 -3.747,2.786 -5.597,4.21 -0.441,0.339 -0.794,0.561 -1.19,0.024 -0.418,0.263 -0.802,0.504 -1.186,0.745 -0.054,-0.087 -0.108,-0.174 -0.162,-0.261 4.023,-2.654 8.047,-5.309 12.07,-7.963 0.043,0.067 0.086,0.134 0.129,0.2 z"
     id="path76" /><path
     class="st0"
     d="m 133.143,47.095 c 0.549,-0.461 1.099,-0.922 1.648,-1.383 2.478,-2.083 4.952,-4.171 7.445,-6.236 0.167,-0.138 0.496,-0.062 0.73,-0.144 0.313,-0.109 0.613,-0.262 0.908,-0.418 0.246,-0.13 0.476,-0.291 0.713,-0.438 0.061,0.1 0.123,0.2 0.184,0.3 -3.825,2.835 -7.649,5.67 -11.474,8.505 -0.051,-0.062 -0.102,-0.124 -0.154,-0.186 z"
     id="path78" /><path
     class="st0"
     d="m 149.515,53.586 c -0.044,0.347 -0.076,0.601 -0.117,0.92 -5.058,-0.492 -10.073,-0.979 -15.087,-1.466 0.005,-0.073 0.01,-0.145 0.015,-0.218 5.042,0.253 10.084,0.507 15.189,0.764 z"
     id="path80" /><path
     class="st1"
     d="m 110.382,68.735 c 3.277,-3.29 6.554,-6.581 9.831,-9.871 0.05,0.039 0.1,0.077 0.15,0.116 -0.088,0.146 -0.158,0.307 -0.267,0.435 -2.161,2.506 -4.328,5.007 -6.489,7.513 -0.276,0.319 -0.505,0.65 -1.015,0.334 -0.097,-0.06 -0.418,0.134 -0.565,0.281 -0.469,0.471 -0.905,0.975 -1.354,1.467 -0.098,-0.092 -0.195,-0.184 -0.291,-0.275 z"
     id="path82" /><path
     class="st1"
     d="m 109.99,65.644 c -0.537,0.437 -0.967,0.787 -1.537,1.251 0.17,-0.664 10.259,-8.493 11.48,-9.056 -0.097,0.169 -0.128,0.282 -0.202,0.345 -2.858,2.46 -5.721,4.914 -8.578,7.374 -0.372,0.32 -0.717,0.669 -1.163,0.086 z"
     id="path84" /><path
     class="st0"
     d="m 132.7,46.052 c 0.392,-0.449 0.781,-0.9 1.175,-1.346 1.95,-2.203 3.903,-4.404 5.853,-6.608 0.212,-0.24 0.383,-0.486 0.785,-0.258 0.122,0.069 0.446,-0.069 0.583,-0.206 0.461,-0.46 0.88,-0.963 1.315,-1.45 0.082,0.046 0.165,0.092 0.247,0.138 -0.093,0.188 -0.145,0.417 -0.285,0.559 -1.142,1.161 -2.292,2.315 -3.456,3.455 -1.893,1.856 -3.797,3.7 -5.699,5.547 -0.116,0.113 -0.252,0.206 -0.379,0.308 -0.046,-0.046 -0.093,-0.093 -0.139,-0.139 z"
     id="path86" /><path
     class="st1"
     d="m 104.581,45.589 c 0.138,-0.347 0.223,-0.563 0.333,-0.839 4.685,1.74 9.323,3.463 13.961,5.186 -0.022,0.067 -0.045,0.134 -0.067,0.202 -4.711,-1.507 -9.422,-3.013 -14.227,-4.549 z"
     id="path88" /><path
     class="st0"
     d="m 134.219,54.409 c 4.844,1.234 9.688,2.468 14.612,3.722 -0.075,0.288 -0.138,0.53 -0.226,0.866 -4.851,-1.474 -9.647,-2.932 -14.442,-4.389 0.019,-0.066 0.038,-0.132 0.056,-0.199 z"
     id="path90" /><path
     class="st0"
     d="m 132.413,45.436 c 0.65,-0.843 1.301,-1.686 1.951,-2.529 1.354,-1.755 2.705,-3.512 4.065,-5.262 0.127,-0.164 0.381,-0.439 0.454,-0.404 0.844,0.4 1.033,-0.358 1.403,-0.766 0.294,-0.324 0.537,-0.695 0.83,-1.02 0.085,-0.094 0.263,-0.104 0.398,-0.152 -0.03,0.141 -0.016,0.317 -0.096,0.416 -0.521,0.643 -1.049,1.282 -1.602,1.897 -2.247,2.5 -4.506,4.988 -6.752,7.489 -0.156,0.173 -0.238,0.412 -0.355,0.62 -0.098,-0.097 -0.197,-0.193 -0.296,-0.289 z"
     id="path92" /><path
     class="st0"
     d="m 132.952,46.53 c 2.797,-2.718 5.595,-5.437 8.421,-8.183 0.226,0.107 0.438,0.208 0.674,0.32 0.498,-0.452 0.99,-0.9 1.482,-1.347 0.059,0.044 0.118,0.087 0.177,0.131 -0.083,0.157 -0.128,0.357 -0.254,0.464 -3.408,2.909 -6.823,5.808 -10.239,8.706 -0.033,0.028 -0.089,0.03 -0.135,0.045 -0.041,-0.045 -0.084,-0.091 -0.126,-0.136 z"
     id="path94" /><path
     class="st0"
     d="m 134.132,54.914 c 4.743,1.566 9.486,3.133 14.286,4.718 -0.124,0.313 -0.218,0.55 -0.331,0.834 -4.723,-1.801 -9.385,-3.579 -14.047,-5.357 0.031,-0.066 0.062,-0.131 0.092,-0.195 z"
     id="path96" /><path
     class="st0"
     d="m 134.084,55.518 c 4.577,1.825 9.154,3.65 13.804,5.504 -0.114,0.282 -0.208,0.515 -0.335,0.829 -4.558,-2.062 -9.06,-4.1 -13.562,-6.137 0.031,-0.066 0.062,-0.131 0.093,-0.196 z"
     id="path98" /><path
     class="st1"
     d="m 104.165,47.087 c 0.103,-0.322 0.181,-0.566 0.275,-0.858 4.851,1.427 9.646,2.838 14.442,4.249 -0.018,0.065 -0.035,0.13 -0.053,0.195 -4.852,-1.187 -9.704,-2.373 -14.664,-3.586 z"
     id="path100" /><path
     class="st1"
     d="m 105.099,44.184 c 0.143,-0.327 0.237,-0.542 0.362,-0.828 4.529,2.011 9.018,4.005 13.508,5.999 -0.027,0.066 -0.054,0.131 -0.081,0.197 -4.568,-1.779 -9.136,-3.557 -13.789,-5.368 z"
     id="path102" /><path
     class="st0"
     d="m 146.586,63.777 c -0.158,0.252 -0.281,0.446 -0.437,0.696 -4.187,-2.584 -8.331,-5.142 -12.474,-7.699 0.044,-0.074 0.088,-0.149 0.131,-0.223 4.242,2.398 8.484,4.797 12.78,7.226 z"
     id="path104" /><path
     class="st1"
     d="m 109.344,67.616 c 3.554,-3.089 7.107,-6.178 10.661,-9.268 0.05,0.051 0.101,0.102 0.151,0.153 -0.152,0.164 -0.299,0.333 -0.457,0.49 -2.499,2.492 -4.99,4.991 -7.516,7.456 -0.21,0.205 -0.651,0.175 -0.984,0.255 -0.025,-0.078 -0.05,-0.156 -0.074,-0.234 -0.521,0.47 -1.043,0.941 -1.564,1.411 -0.072,-0.087 -0.145,-0.175 -0.217,-0.263 z"
     id="path106" /><path
     class="st1"
     d="m 106.405,41.438 c 0.142,-0.252 0.245,-0.433 0.404,-0.714 4.188,2.538 8.334,5.049 12.48,7.561 -0.042,0.075 -0.084,0.149 -0.126,0.224 -4.221,-2.339 -8.441,-4.678 -12.758,-7.071 z"
     id="path108" /><path
     class="st0"
     d="m 111.474,69.766 c 3.012,-3.444 6.025,-6.887 9.037,-10.331 0.063,0.05 0.126,0.099 0.19,0.149 -0.547,0.748 -1.086,1.503 -1.643,2.243 -1.419,1.886 -2.852,3.762 -4.263,5.654 -0.245,0.328 -0.448,0.536 -0.891,0.327 -0.113,-0.053 -0.391,0.095 -0.507,0.226 -0.417,0.474 -0.789,0.987 -1.194,1.472 -0.149,0.178 -0.341,0.319 -0.514,0.477 -0.072,-0.072 -0.143,-0.144 -0.215,-0.217 z"
     id="path110" /><path
     class="st0"
     d="m 147.307,62.448 c -0.162,0.29 -0.264,0.472 -0.404,0.721 -4.357,-2.319 -8.679,-4.619 -13,-6.919 0.034,-0.068 0.068,-0.137 0.102,-0.205 4.407,2.121 8.814,4.243 13.302,6.403 z"
     id="path112" /><path
     class="st0"
     d="m 145.793,65.111 c -0.204,0.261 -0.333,0.427 -0.506,0.649 -3.947,-2.81 -7.861,-5.597 -11.775,-8.384 0.048,-0.071 0.095,-0.142 0.143,-0.214 4.018,2.632 8.037,5.264 12.138,7.949 z"
     id="path114" /><path
     class="st1"
     d="m 107.166,40.09 c 0.189,-0.26 0.313,-0.432 0.486,-0.669 3.956,2.772 7.88,5.521 11.804,8.27 -0.047,0.071 -0.094,0.142 -0.142,0.212 -4.024,-2.588 -8.047,-5.176 -12.148,-7.813 z"
     id="path116" /><path
     class="st1"
     d="m 105.722,42.776 c 0.123,-0.265 0.211,-0.456 0.346,-0.745 4.381,2.288 8.73,4.558 13.079,6.829 -0.034,0.068 -0.068,0.135 -0.102,0.203 -4.43,-2.09 -8.859,-4.18 -13.323,-6.287 z"
     id="path118" /><path
     class="st0"
     d="m 140.41,34.315 c -0.059,0.183 -0.073,0.401 -0.184,0.543 -1.945,2.501 -3.901,4.994 -5.855,7.487 -0.703,0.896 -1.408,1.791 -2.112,2.686 -0.051,-0.034 -0.103,-0.067 -0.154,-0.101 0.536,-0.842 1.063,-1.69 1.611,-2.524 1.138,-1.731 2.283,-3.457 3.438,-5.177 0.112,-0.167 0.377,-0.426 0.458,-0.39 0.678,0.302 0.849,-0.25 1.119,-0.618 0.485,-0.662 0.953,-1.337 1.428,-2.006 0.084,0.033 0.168,0.067 0.251,0.1 z"
     id="path120" /><path
     class="st1"
     d="m 135.626,37.246 c 0.074,-0.145 0.147,-0.291 0.221,-0.436 0.094,-0.076 0.211,-0.233 0.278,-0.214 0.891,0.25 1.099,-0.465 1.436,-0.994 0.475,-0.744 0.944,-1.492 1.416,-2.239 0.091,0.043 0.182,0.087 0.274,0.13 -0.07,0.198 -0.102,0.421 -0.217,0.589 -2.028,2.978 -4.067,5.948 -6.101,8.921 -0.327,0.477 -0.642,0.963 -0.962,1.444 -0.057,-0.033 -0.114,-0.066 -0.171,-0.099 1.275,-2.367 2.55,-4.734 3.826,-7.102 z"
     id="path122" /><path
     class="st0"
     d="m 121.009,60.146 c -0.565,0.889 -1.126,1.781 -1.697,2.666 -1.095,1.698 -2.192,3.395 -3.302,5.084 -0.106,0.161 -0.361,0.401 -0.451,0.365 -0.624,-0.25 -0.822,0.208 -1.086,0.58 -0.394,0.556 -0.787,1.114 -1.191,1.663 -0.123,0.167 -0.281,0.309 -0.423,0.463 -0.083,-0.07 -0.166,-0.141 -0.249,-0.211 2.743,-3.575 5.486,-7.15 8.23,-10.726 0.057,0.039 0.113,0.078 0.169,0.116 z"
     id="path124" /><path
     class="st0"
     d="m 133.018,58.942 c 3.28,3.225 6.56,6.451 9.885,9.72 -0.225,0.206 -0.393,0.361 -0.592,0.544 -3.184,-3.388 -6.329,-6.734 -9.474,-10.081 0.061,-0.061 0.121,-0.122 0.181,-0.183 z"
     id="path126" /><path
     class="st1"
     d="m 109.948,36.446 c 0.227,-0.167 0.416,-0.306 0.656,-0.482 3.19,3.345 6.355,6.663 9.521,9.982 -0.061,0.061 -0.121,0.123 -0.182,0.184 -3.293,-3.19 -6.586,-6.381 -9.995,-9.684 z"
     id="path128" /><path
     class="st1"
     d="m 119.507,47.331 c -3.799,-2.817 -7.598,-5.633 -11.448,-8.488 0.15,-0.217 0.281,-0.407 0.456,-0.66 3.73,3.009 7.431,5.993 11.132,8.978 -0.047,0.057 -0.094,0.113 -0.14,0.17 z"
     id="path130" /><path
     class="st0"
     d="m 133.473,57.739 c 3.793,2.862 7.585,5.725 11.409,8.61 -0.151,0.209 -0.275,0.38 -0.465,0.644 -3.711,-3.038 -7.398,-6.058 -11.086,-9.077 0.047,-0.059 0.095,-0.118 0.142,-0.177 z"
     id="path132" /><path
     class="st0"
     d="m 143.916,67.529 c -0.205,0.226 -0.347,0.381 -0.535,0.588 -3.447,-3.234 -6.862,-6.437 -10.277,-9.641 0.05,-0.056 0.101,-0.111 0.151,-0.167 3.53,3.052 7.06,6.105 10.661,9.22 z"
     id="path134" /><path
     class="st1"
     d="m 119.699,46.749 c -3.545,-3.016 -7.09,-6.032 -10.68,-9.087 0.174,-0.214 0.319,-0.392 0.503,-0.618 3.475,3.209 6.901,6.373 10.328,9.537 -0.05,0.057 -0.1,0.112 -0.151,0.168 z"
     id="path136" /><path
     class="st1"
     d="m 111.452,35.171 c 0.228,0.043 0.555,0.004 0.67,0.142 2.739,3.295 5.455,6.608 8.172,9.921 0.066,0.081 0.086,0.199 0.127,0.3 -0.05,0.037 -0.101,0.073 -0.151,0.11 -2.958,-3.388 -5.916,-6.776 -8.874,-10.164 0.018,-0.103 0.037,-0.206 0.056,-0.309 z"
     id="path138" /><path
     class="st0"
     d="m 141.22,70.085 c -2.912,-3.499 -5.794,-6.962 -8.676,-10.424 0.058,-0.056 0.115,-0.111 0.173,-0.167 0.187,0.19 0.385,0.372 0.561,0.571 2.675,3.027 5.348,6.056 8.016,9.089 0.252,0.287 0.698,0.613 -0.074,0.931 z"
     id="path140" /><path
     class="st0"
     d="m 132.433,60.142 c 2.731,3.492 5.461,6.984 8.216,10.507 -0.196,0.15 -0.345,0.264 -0.548,0.418 -2.646,-3.603 -5.271,-7.179 -7.897,-10.755 0.076,-0.056 0.153,-0.113 0.229,-0.17 z"
     id="path142" /><path
     class="st1"
     d="m 120.595,44.976 c -2.702,-3.496 -5.404,-6.993 -8.108,-10.491 0.288,-0.376 0.501,-0.51 0.811,-0.08 2.417,3.357 4.847,6.705 7.269,10.059 0.089,0.123 0.133,0.278 0.198,0.418 -0.055,0.032 -0.113,0.063 -0.17,0.094 z"
     id="path144" /><path
     class="st0"
     d="m 139.355,71.528 c -0.514,0.643 -0.721,0.145 -0.929,-0.181 -1.663,-2.606 -3.317,-5.217 -4.972,-7.828 -0.469,-0.74 -0.935,-1.482 -1.394,-2.228 -0.076,-0.124 -0.108,-0.276 -0.16,-0.415 0.053,-0.028 0.107,-0.055 0.16,-0.083 2.423,3.567 4.847,7.133 7.295,10.735 z"
     id="path146" /><path
     class="st1"
     d="m 115.014,32.788 c 0.349,-0.325 0.553,-0.461 0.796,-0.006 1.879,3.52 3.779,7.028 5.668,10.542 0.049,0.091 0.044,0.211 0.065,0.317 -0.065,0.03 -0.13,0.06 -0.196,0.09 -2.106,-3.638 -4.212,-7.277 -6.333,-10.943 z"
     id="path148" /><path
     class="st0"
     d="m 138.063,72.31 c -0.391,0.467 -0.626,0.349 -0.853,-0.076 -1.63,-3.043 -3.27,-6.081 -4.904,-9.122 -0.289,-0.538 -0.566,-1.082 -0.849,-1.623 0.076,-0.04 0.152,-0.079 0.227,-0.119 2.119,3.635 4.238,7.269 6.379,10.94 z"
     id="path150" /><path
     class="st1"
     d="m 113.724,33.555 c 0.19,-0.141 0.34,-0.253 0.552,-0.41 2.329,3.71 4.641,7.391 6.953,11.073 -0.076,0.05 -0.153,0.099 -0.229,0.149 -2.408,-3.578 -4.815,-7.155 -7.276,-10.812 z"
     id="path152" /><path
     class="st1"
     d="m 116.881,31.782 c 1.716,3.762 3.416,7.487 5.115,11.212 -0.05,0.03 -0.101,0.06 -0.151,0.09 -0.08,-0.113 -0.177,-0.218 -0.238,-0.34 -1.702,-3.417 -3.392,-6.84 -5.109,-10.249 -0.224,-0.446 -0.117,-0.618 0.383,-0.713 z"
     id="path154" /><path
     class="st0"
     d="m 134.776,73.893 c -1.41,-3.704 -2.828,-7.432 -4.246,-11.159 0.059,-0.026 0.119,-0.053 0.178,-0.079 0.084,0.153 0.182,0.301 0.249,0.461 1.408,3.342 2.813,6.684 4.214,10.029 0.138,0.328 0.363,0.719 -0.395,0.748 z"
     id="path156" /><path
     class="st1"
     d="m 122.282,42.434 c -0.471,-1.138 -0.94,-2.276 -1.414,-3.413 -0.983,-2.358 -1.962,-4.718 -2.958,-7.071 -0.153,-0.362 -0.253,-0.644 0.372,-0.768 1.409,3.721 2.821,7.451 4.233,11.182 -0.078,0.024 -0.156,0.047 -0.233,0.07 z"
     id="path158" /><path
     class="st0"
     d="m 131.248,62.034 c 0.29,0.563 0.584,1.124 0.868,1.689 1.472,2.933 2.937,5.869 4.415,8.799 0.187,0.37 0.337,0.679 -0.342,0.791 -1.707,-3.714 -3.423,-7.447 -5.138,-11.18 0.065,-0.032 0.131,-0.066 0.197,-0.099 z"
     id="path160" /><path
     class="st0"
     d="m 130.153,63.298 c 1.28,3.609 2.56,7.218 3.845,10.843 -0.571,0.511 -0.666,0.024 -0.791,-0.369 -0.924,-2.926 -1.845,-5.853 -2.766,-8.78 -0.17,-0.54 -0.339,-1.081 -0.509,-1.622 0.074,-0.024 0.148,-0.048 0.221,-0.072 z"
     id="path162" /><path
     class="st1"
     d="m 119.216,30.732 c 0.184,0.102 0.489,0.166 0.536,0.312 1.126,3.523 2.224,7.055 3.323,10.586 0.01,0.034 -0.033,0.084 -0.129,0.311 -1.321,-3.746 -2.593,-7.353 -3.865,-10.959 0.045,-0.084 0.09,-0.167 0.135,-0.25 z"
     id="path164" /><path
     class="st0"
     d="m 129.53,63.91 c 0.059,0.118 0.139,0.231 0.174,0.356 0.926,3.301 1.851,6.602 2.756,9.909 0.048,0.174 -0.079,0.396 -0.124,0.596 -0.137,-0.157 -0.352,-0.294 -0.398,-0.474 -0.858,-3.37 -1.697,-6.745 -2.537,-10.12 -0.016,-0.064 -0.002,-0.136 -0.002,-0.205 0.043,-0.021 0.087,-0.042 0.131,-0.062 z"
     id="path166" /><path
     class="st1"
     d="m 123.479,41.204 c -0.218,-0.761 -0.44,-1.521 -0.653,-2.283 -0.736,-2.626 -1.476,-5.252 -2.193,-7.883 -0.057,-0.207 0.045,-0.458 0.074,-0.689 0.161,0.18 0.417,0.337 0.469,0.545 0.841,3.329 1.656,6.664 2.473,9.998 0.021,0.087 0.003,0.183 0.003,0.275 -0.059,0.012 -0.116,0.025 -0.173,0.037 z"
     id="path168" /><path
     class="st0"
     d="m 128.849,64.529 c 0.063,0.189 0.145,0.373 0.187,0.567 0.667,3.116 1.329,6.233 1.995,9.349 0.074,0.345 0.197,0.705 -0.479,0.656 -0.626,-3.499 -1.254,-7.011 -1.882,-10.523 0.059,-0.016 0.119,-0.032 0.179,-0.049 z"
     id="path170" /><path
     class="st0"
     d="m 128.179,65.126 c 0.194,1.252 0.392,2.503 0.58,3.756 0.285,1.898 0.562,3.796 0.842,5.694 0.014,0.096 0.059,0.202 0.034,0.287 -0.049,0.163 -0.139,0.315 -0.211,0.471 -0.127,-0.14 -0.343,-0.268 -0.365,-0.423 -0.138,-0.985 -0.23,-1.977 -0.344,-2.966 -0.248,-2.147 -0.502,-4.294 -0.747,-6.441 -0.014,-0.12 0.034,-0.248 0.054,-0.372 0.051,-0.002 0.104,-0.004 0.157,-0.006 z"
     id="path172" /><path
     class="st1"
     d="m 124.191,40.726 c -0.745,-3.521 -1.454,-6.847 -2.142,-10.177 -0.032,-0.154 0.119,-0.345 0.184,-0.519 0.125,0.108 0.338,0.2 0.361,0.326 0.593,3.332 1.166,6.667 1.738,10.003 0.01,0.055 -0.044,0.121 -0.141,0.367 z"
     id="path174" /><path
     class="st1"
     d="m 124.869,40.006 c -0.155,-1.018 -0.317,-2.034 -0.463,-3.053 -0.305,-2.118 -0.602,-4.238 -0.902,-6.357 -0.014,-0.096 -0.055,-0.204 -0.028,-0.288 0.056,-0.175 0.15,-0.339 0.228,-0.507 0.119,0.141 0.322,0.27 0.342,0.424 0.115,0.867 0.177,1.741 0.273,2.611 0.248,2.248 0.504,4.495 0.754,6.743 0.015,0.135 0.002,0.273 0.002,0.409 -0.068,0.005 -0.137,0.011 -0.206,0.018 z"
     id="path176" /><path
     class="st1"
     d="m 126.675,29.771 c 0,3.181 0,6.362 0,9.745 -0.269,-0.245 -0.472,-0.344 -0.472,-0.443 -0.016,-2.981 -0.017,-5.962 0.004,-8.944 0.001,-0.176 0.214,-0.35 0.329,-0.524 0.046,0.055 0.092,0.11 0.139,0.166 z"
     id="path178" /><path
     class="st1"
     d="m 124.977,29.466 c 0.139,0.123 0.395,0.24 0.401,0.37 0.165,3.086 0.303,6.174 0.442,9.261 0.002,0.033 -0.048,0.069 -0.198,0.272 -0.289,-3.349 -0.565,-6.541 -0.841,-9.733 0.066,-0.057 0.131,-0.113 0.196,-0.17 z"
     id="path180" /><path
     class="st0"
     d="m 133.243,36.44 c -0.153,0.022 -0.311,-10e-4 -0.463,-0.021 -0.147,0.062 -0.328,0.074 -0.559,0.032 0.001,-0.003 0.001,-0.005 0.002,-0.008 -0.077,0.018 -0.159,0.029 -0.249,0.029 -0.072,0 -0.139,-0.007 -0.203,-0.019 -0.167,0.181 -0.406,0.252 -0.752,0.226 -0.067,0.014 -0.139,0.021 -0.215,0.021 -0.087,0 -0.168,-0.01 -0.243,-0.028 -0.15,0.232 -0.39,0.327 -0.773,0.345 10e-4,-0.007 0.002,-0.013 0.003,-0.02 -0.104,0.039 -0.221,0.061 -0.353,0.061 -0.048,0 -0.094,-0.004 -0.138,-0.009 -0.114,0.163 -0.263,0.321 -0.372,0.485 l -0.232,-0.129 c 0.002,-0.012 0.003,-0.024 0.005,-0.036 -0.095,0.041 -0.202,0.067 -0.322,0.075 -0.095,0.279 -0.299,0.432 -0.7,0.452 0,-0.046 -0.001,-0.089 -0.002,-0.133 -0.1,0.063 -0.218,0.107 -0.353,0.127 -0.016,0.074 -0.036,0.146 -0.068,0.214 -0.096,0.205 -0.268,0.381 -0.582,0.499 0.229,0.431 0.433,0.814 0.636,1.197 0.043,-0.017 0.087,-0.034 0.13,-0.051 0.039,-0.345 0.078,-0.689 0.117,-1.034 0.036,0 0.072,0 0.107,0 0.129,0.553 0.258,1.106 0.388,1.658 0.053,-0.006 0.106,-0.012 0.16,-0.018 0.105,-0.679 0.211,-1.358 0.316,-2.037 0.033,0.002 0.065,0.005 0.098,0.007 0.055,0.856 0.109,1.712 0.164,2.569 0.058,0.007 0.116,0.014 0.173,0.021 0.193,-0.927 0.385,-1.853 0.577,-2.78 0.042,0.007 0.083,0.013 0.125,0.02 -0.075,1.106 -0.15,2.213 -0.225,3.319 0.06,0.006 0.12,0.012 0.179,0.019 0.312,-1.181 0.625,-2.362 0.937,-3.543 0.045,0.01 0.089,0.02 0.134,0.03 l -0.714,4.072 c 0.064,0.015 0.128,0.031 0.192,0.046 0.565,-1.577 1.13,-3.154 1.695,-4.731 0.027,0.009 0.053,0.018 0.08,0.026 -0.472,1.764 -0.945,3.528 -1.417,5.292 0.057,0.02 0.113,0.039 0.17,0.059 0.099,-0.234 0.195,-0.468 0.296,-0.701 0.735,-1.695 1.471,-3.389 2.207,-5.084 0.011,-0.094 0.022,-0.187 0.033,-0.278 0.037,-0.088 0.074,-0.177 0.111,-0.265 -0.033,0.01 -0.067,0.019 -0.1,0.024 z"
     id="path182" /><path
     class="st0"
     d="m 135.747,36.407 c -0.115,-0.006 -0.229,-0.004 -0.344,0.001 -0.118,0.038 -0.252,0.044 -0.407,0.017 -0.111,0.003 -0.222,0.004 -0.333,-0.004 -0.107,-0.008 -0.271,-0.065 -0.422,-0.116 -0.161,0.112 -0.373,0.168 -0.678,0.124 -0.095,-0.014 -0.219,0.166 -0.329,0.253 -0.011,0.091 -0.022,0.184 -0.033,0.278 -0.73,2.094 -1.46,4.188 -2.19,6.282 0.055,0.024 0.11,0.048 0.165,0.072 0.865,-1.72 1.729,-3.441 2.594,-5.161 0.048,0.022 0.095,0.043 0.143,0.065 -0.842,1.848 -1.683,3.696 -2.525,5.544 0.059,0.03 0.118,0.061 0.177,0.091 0.368,-0.617 0.727,-1.24 1.105,-1.851 0.981,-1.59 1.97,-3.175 2.956,-4.762 l 0.221,-0.436 c 0.052,-0.122 0.098,-0.247 0.15,-0.368 -0.083,-0.014 -0.166,-0.024 -0.25,-0.029 z"
     id="path184" /><path
     class="st0"
     d="m 136.701,36.604 c -0.155,0.047 -0.341,0.05 -0.576,-0.016 -0.067,-0.019 -0.184,0.139 -0.278,0.214 l -0.221,0.436 c -1.275,2.368 -2.551,4.735 -3.826,7.103 0.057,0.033 0.114,0.066 0.171,0.099 0.32,-0.482 0.636,-0.967 0.962,-1.444 1.422,-2.079 2.845,-4.158 4.267,-6.238 -0.167,-0.05 -0.333,-0.103 -0.499,-0.154 z"
     id="path186" /><path
     class="st1"
     d="m 126.808,65.911 c 0.072,0.02 0.144,0.039 0.215,0.059 0.002,0.019 0.003,0.039 0.005,0.058 0.064,-0.051 0.136,-0.092 0.217,-0.124 -0.131,-0.279 -0.372,-0.44 -0.825,-0.465 -0.027,0.194 -0.054,0.388 -0.096,0.687 -0.223,-0.369 -0.385,-0.637 -0.605,-1.002 -0.087,0.452 -0.143,0.748 -0.2,1.043 -0.034,-0.01 -0.068,-0.019 -0.102,-0.029 -0.119,-0.508 -0.238,-1.015 -0.357,-1.523 -0.056,0.002 -0.113,0.005 -0.169,0.007 -0.104,0.734 -0.208,1.468 -0.312,2.202 -0.028,0.002 -0.056,0.004 -0.085,0.006 -0.059,-0.904 -0.118,-1.808 -0.177,-2.712 -0.062,-10e-4 -0.124,-10e-4 -0.187,-0.002 -0.187,0.966 -0.375,1.931 -0.562,2.897 -0.036,-0.003 -0.072,-0.006 -0.108,-0.009 0.073,-1.152 0.147,-2.304 0.22,-3.456 -0.063,-0.005 -0.125,-0.011 -0.188,-0.016 -0.315,1.254 -0.631,2.509 -0.946,3.763 -0.04,-0.008 -0.08,-0.016 -0.12,-0.023 0.231,-1.415 0.463,-2.831 0.694,-4.246 -0.065,-0.016 -0.13,-0.032 -0.194,-0.047 -0.47,1.333 -0.94,2.666 -1.41,3.999 -0.044,-0.012 -0.088,-0.025 -0.133,-0.037 0.399,-1.521 0.798,-3.042 1.196,-4.562 -0.056,-0.02 -0.113,-0.04 -0.169,-0.059 -0.679,1.636 -1.359,3.273 -2.038,4.909 -0.05,-0.019 -0.099,-0.038 -0.149,-0.057 0.623,-1.773 1.247,-3.545 1.87,-5.318 -0.053,-0.022 -0.106,-0.043 -0.159,-0.065 l -2.907,5.641 c -0.189,0.369 -0.378,0.737 -0.567,1.106 -0.003,0.012 -0.005,0.025 -0.007,0.037 0.03,-0.002 0.06,-0.004 0.091,-0.004 0.104,0 0.199,0.015 0.287,0.039 0.034,-0.003 0.068,-0.007 0.104,-0.007 0.156,0 0.293,0.03 0.41,0.083 0.021,0.001 0.044,0.006 0.066,0.009 0.074,-0.017 0.154,-0.027 0.24,-0.027 0.158,0 0.294,0.033 0.412,0.087 0.036,-0.013 0.074,-0.024 0.114,-0.032 0.184,-0.132 0.424,-0.166 0.75,-0.114 -0.005,0.017 -0.01,0.032 -0.015,0.048 0.088,-0.03 0.185,-0.047 0.291,-0.051 0.075,-0.037 0.156,-0.068 0.248,-0.083 0.182,-0.122 0.419,-0.162 0.729,-0.145 -0.003,0.013 -0.007,0.025 -0.01,0.037 0.037,-0.004 0.076,-0.006 0.116,-0.006 0.015,0 0.029,0.002 0.044,0.002 0.07,-0.035 0.147,-0.062 0.232,-0.079 0.151,-0.192 0.381,-0.289 0.749,-0.264 -0.001,0.006 -0.001,0.011 -0.002,0.017 0.113,-0.056 0.244,-0.091 0.395,-0.097 0.136,-0.246 0.372,-0.366 0.769,-0.4 -0.001,0.007 -0.002,0.013 -0.003,0.019 0.05,-0.007 0.102,-0.012 0.157,-0.012 0.053,0 0.102,0.005 0.15,0.011 0.087,-0.273 0.274,-0.45 0.683,-0.477 0.086,-0.058 0.185,-0.102 0.299,-0.127 0.071,-0.213 0.219,-0.347 0.527,-0.368 v 0.106 c 0.006,-0.001 0.012,-0.002 0.017,-0.003 0.091,-0.132 0.218,-0.239 0.38,-0.306 0.031,-0.173 0.089,-0.346 0.125,-0.518 z"
     id="path188" /><path
     class="st1"
     d="m 121.501,61.222 c -1.328,2.291 -2.657,4.582 -3.985,6.873 -0.048,-0.027 -0.095,-0.053 -0.143,-0.08 1.315,-2.437 2.63,-4.873 3.945,-7.31 -0.063,-0.036 -0.126,-0.073 -0.189,-0.109 -1.747,2.64 -3.55,5.243 -5.247,7.919 0.051,-0.007 0.103,-0.013 0.159,-0.013 0.114,0 0.217,0.016 0.31,0.045 0.215,-0.064 0.47,-0.042 0.784,0.079 -0.014,0.029 -0.028,0.058 -0.042,0.087 0.058,-0.01 0.119,-0.016 0.184,-0.016 0.056,0 0.109,0.005 0.16,0.013 0.043,-0.005 0.086,-0.013 0.133,-0.013 0.04,0 0.08,0.002 0.117,0.006 0.206,-0.116 0.456,-0.182 0.774,-0.168 0.189,-0.369 0.378,-0.737 0.567,-1.106 0.88,-2.043 1.76,-4.086 2.64,-6.129 -0.055,-0.026 -0.111,-0.052 -0.167,-0.078 z"
     id="path190" /><path
     class="st1"
     d="m 113.973,67.79 c 0.082,0.029 0.164,0.062 0.246,0.097 0.216,-0.019 0.365,-0.182 0.532,-0.406 1.411,-1.892 2.844,-3.768 4.263,-5.654 0.557,-0.741 1.096,-1.495 1.643,-2.243 -0.063,-0.05 -0.126,-0.099 -0.19,-0.149 l -7.15,8.174 c 0.216,0.042 0.435,0.103 0.656,0.181 z"
     id="path192" /><path
     class="st1"
     d="m 120.796,60.031 -6.173,8.045 c 0.026,0.013 0.052,0.027 0.078,0.04 0.132,0.01 0.249,0.043 0.35,0.094 0.125,-0.033 0.274,-0.024 0.464,0.052 0.09,0.036 0.346,-0.204 0.451,-0.365 1.109,-1.689 2.206,-3.386 3.302,-5.084 0.571,-0.885 1.132,-1.777 1.697,-2.666 z"
     id="path194" /><path
     class="st1"
     d="m 146.319,40.995 c -0.302,0.123 -0.603,0.246 -0.98,0.4 0.064,0.099 0.109,0.209 0.135,0.325 0.017,0.032 0.033,0.064 0.046,0.097 0.311,-0.171 0.621,-0.342 0.932,-0.513 -0.045,-0.103 -0.089,-0.206 -0.133,-0.309 z"
     id="path196" /><path
     class="st1"
     d="m 146.335,42.547 c 0.046,0.068 0.083,0.141 0.11,0.218 0.371,-0.212 0.601,-0.363 0.639,-0.428 -0.267,0.075 -0.479,0.135 -0.749,0.21 z"
     id="path198" /><path
     class="st1"
     d="m 145.399,39.681 c -0.346,0.235 -0.692,0.47 -1.041,0.707 -0.041,-0.028 -0.078,-0.053 -0.117,-0.08 0.026,0.032 0.049,0.067 0.07,0.102 0.1,0.081 0.178,0.183 0.234,0.296 0.195,-0.126 0.391,-0.251 0.586,-0.377 0.174,-0.112 0.297,-0.304 0.444,-0.458 -0.058,-0.063 -0.117,-0.127 -0.176,-0.19 z"
     id="path200" /><path
     class="st1"
     d="m 143.231,39.918 c 0.513,-0.381 1.027,-0.761 1.54,-1.142 -0.061,-0.1 -0.123,-0.2 -0.184,-0.3 -0.237,0.147 -0.467,0.308 -0.713,0.438 -0.294,0.156 -0.594,0.309 -0.908,0.418 -0.072,0.025 -0.152,0.035 -0.234,0.042 0.251,0.103 0.418,0.307 0.499,0.544 z"
     id="path202" /><path
     class="st1"
     d="m 142.411,36.185 c -0.435,0.487 -0.854,0.989 -1.315,1.45 -0.098,0.098 -0.291,0.195 -0.438,0.218 0.145,0.093 0.25,0.226 0.32,0.376 0.022,-0.006 0.044,-0.011 0.067,-0.015 0.444,-0.442 0.887,-0.885 1.327,-1.332 0.14,-0.142 0.192,-0.371 0.285,-0.559 -0.081,-0.046 -0.163,-0.092 -0.246,-0.138 z"
     id="path204" /><path
     class="st1"
     d="m 141.116,35.454 c -0.293,0.325 -0.535,0.696 -0.83,1.02 -0.313,0.344 -0.498,0.933 -1.055,0.87 0.196,0.094 0.336,0.251 0.42,0.437 0.004,10e-4 0.009,10e-4 0.014,0.002 0.05,-0.056 0.101,-0.112 0.151,-0.167 0.553,-0.615 1.08,-1.255 1.602,-1.897 0.081,-0.099 0.067,-0.276 0.096,-0.416 -0.135,0.048 -0.313,0.057 -0.398,0.151 z"
     id="path206" /><path
     class="st1"
     d="m 143.53,37.32 c -0.489,0.444 -0.978,0.889 -1.472,1.338 0.058,0.107 0.096,0.225 0.114,0.348 0.427,-0.363 0.854,-0.726 1.28,-1.09 0.125,-0.107 0.171,-0.308 0.254,-0.464 -0.059,-0.044 -0.118,-0.088 -0.176,-0.132 z"
     id="path208" /><path
     class="st1"
     d="m 140.16,34.215 c -0.475,0.669 -0.943,1.344 -1.428,2.006 -0.19,0.26 -0.333,0.607 -0.636,0.686 0.119,0.064 0.216,0.151 0.29,0.254 0.016,-0.001 0.031,-0.004 0.047,-0.004 0.599,-0.766 1.197,-1.531 1.794,-2.299 0.111,-0.143 0.125,-0.36 0.184,-0.543 z"
     id="path210" /><path
     class="st0"
     d="m 107.75,63.394 c -0.025,-10e-4 -0.051,-0.002 -0.075,-0.005 -0.333,0.189 -0.667,0.378 -1,0.567 0.048,0.093 0.095,0.186 0.143,0.279 0.323,-0.158 0.647,-0.316 0.999,-0.488 0.009,0.015 0.019,0.027 0.028,0.041 -0.006,-0.037 -0.009,-0.075 -0.011,-0.113 -0.041,-0.089 -0.068,-0.184 -0.084,-0.281 z"
     id="path212" /><path
     class="st0"
     d="m 106.81,62.217 c -0.269,0.129 -0.537,0.259 -0.806,0.388 l 0.109,0.243 c 0.228,-0.083 0.456,-0.166 0.702,-0.256 0.023,0.03 0.046,0.06 0.069,0.09 -0.029,-0.092 -0.044,-0.188 -0.049,-0.284 -0.013,-0.059 -0.022,-0.12 -0.025,-0.181 z"
     id="path214" /><path
     class="st0"
     d="m 108.79,64.683 c -0.028,-0.031 -0.054,-0.063 -0.081,-0.095 -0.061,-0.003 -0.118,-0.011 -0.173,-0.023 l -1.036,0.683 c 0.054,0.087 0.108,0.174 0.162,0.261 0.382,-0.24 0.763,-0.479 1.178,-0.74 -0.004,-0.015 -0.006,-0.03 -0.01,-0.045 -0.012,-0.013 -0.026,-0.027 -0.04,-0.041 z"
     id="path216" /><path
     class="st0"
     d="m 112.322,67.245 c -0.04,-0.037 -0.077,-0.075 -0.11,-0.118 -0.045,-0.032 -0.085,-0.069 -0.122,-0.109 -0.57,0.572 -1.139,1.144 -1.709,1.716 0.097,0.091 0.194,0.183 0.29,0.274 0.449,-0.491 0.885,-0.996 1.354,-1.467 0.072,-0.072 0.185,-0.153 0.293,-0.212 0.001,-0.027 0.002,-0.056 0.004,-0.084 z"
     id="path218" /><path
     class="st0"
     d="m 109.887,65.572 c -0.016,-0.01 -0.032,-0.02 -0.048,-0.03 -0.816,0.7 -1.348,1.205 -1.386,1.353 0.554,-0.451 0.977,-0.795 1.494,-1.216 -0.022,-0.035 -0.042,-0.071 -0.06,-0.107 z"
     id="path220" /><path
     class="st0"
     d="m 111.027,66.237 c -0.019,-0.011 -0.039,-0.022 -0.059,-0.033 -0.541,0.471 -1.083,0.941 -1.624,1.412 0.072,0.088 0.145,0.176 0.217,0.264 0.517,-0.466 1.033,-0.932 1.55,-1.398 -0.038,-0.077 -0.066,-0.16 -0.084,-0.245 z"
     id="path222" /><path
     class="st0"
     d="m 126.635,38.803 c -0.153,-0.046 -0.299,-0.104 -0.434,-0.173 0.001,0.148 0,0.295 0.001,0.443 0.001,0.099 0.203,0.198 0.472,0.443 v -0.704 c -0.013,-0.004 -0.026,-0.005 -0.039,-0.009 z"
     id="path224" /><path
     class="st0"
     d="m 105.599,61.1 c -0.083,0.033 -0.166,0.066 -0.249,0.099 0.443,0.246 0.777,0.432 1.156,0.642 0.054,-0.025 0.107,-0.05 0.161,-0.075 -0.378,-0.176 -0.741,-0.414 -1.068,-0.666 z"
     id="path226" /></g>
<g
   id="g228">
</g>
<g
   id="g230">
</g>
<g
   id="g232">
</g>
<g
   id="g234">
</g>
<g
   id="g236">
</g>
<g
   id="g238">
</g>
<g
   id="g240">
</g>
<g
   id="g242">
</g>
<g
   id="g244">
</g>
<g
   id="g246">
</g>
<g
   id="g248">
</g>
<g
   id="g250">
</g>
<g
   id="g252">
</g>
<g
   id="g254">
</g>
<g
   id="g256">
</g>
<text
   xml:space="preserve"
   id="text1130"
   style="font-style:normal;font-weight:normal;font-size:40px;line-height:1.25;font-family:sans-serif;letter-spacing:0px;word-spacing:0px;white-space:pre;shape-inside:url(#rect1132);fill:#fe8efe;fill-opacity:1;stroke:none;"
   transform="rotate(-90,102.99268,-51.066674)"><tspan
     x="-44.089844"
     y="-22.581292"><tspan
       style="font-style:italic;font-variant:normal;font-weight:bold;font-stretch:normal;font-size:40px;font-family:Asap;-inkscape-font-specification:'Asap, Bold Italic';font-variant-ligatures:normal;font-variant-caps:normal;font-variant-numeric:normal;font-variant-east-asian:normal;fill:#fe8efe;fill-opacity:1">BETA</tspan></tspan></text></svg>
