<?xml version="1.0" encoding="UTF-8" standalone="no"?>
<svg
   xmlns:dc="http://purl.org/dc/elements/1.1/"
   xmlns:cc="http://creativecommons.org/ns#"
   xmlns:rdf="http://www.w3.org/1999/02/22-rdf-syntax-ns#"
   xmlns:svg="http://www.w3.org/2000/svg"
   xmlns="http://www.w3.org/2000/svg"
   xmlns:sodipodi="http://sodipodi.sourceforge.net/DTD/sodipodi-0.dtd"
   xmlns:inkscape="http://www.inkscape.org/namespaces/inkscape"
   width="1000"
   height="1000"
   viewBox="0 0 264.58333 264.58333"
   version="1.1"
   id="svg8"
   inkscape:version="1.0.1 (3bc2e813f5, 2020-09-07)"
   sodipodi:docname="needs.svg">
  <defs
     id="defs2">
    <inkscape:path-effect
       effect="mirror_symmetry"
       start_point="129.07097,10.103266"
       end_point="129.07097,20.22924"
       center_point="129.07097,15.166253"
       id="path-effect875"
       is_visible="true"
       lpeversion="1"
       mode="X"
       discard_orig_path="false"
       fuse_paths="true"
       oposite_fuse="true"
       split_items="false" />
    <filter
       inkscape:collect="always"
       style="color-interpolation-filters:sRGB"
       id="filter2407"
       x="-0.044574402"
       width="1.0891488"
       y="-0.02636187"
       height="1.0527236">
      <feGaussianBlur
         inkscape:collect="always"
         stdDeviation="0.13209962"
         id="feGaussianBlur2409" />
    </filter>
  </defs>
  <sodipodi:namedview
     id="base"
     pagecolor="#ffffff"
     bordercolor="#666666"
     borderopacity="1.0"
     inkscape:pageopacity="0.0"
     inkscape:pageshadow="2"
     inkscape:zoom="0.61271211"
     inkscape:cx="417.38118"
     inkscape:cy="413.19369"
     inkscape:document-units="mm"
     inkscape:current-layer="layer1"
     inkscape:document-rotation="0"
     showgrid="false"
     showguides="false"
     inkscape:guide-bbox="true"
     inkscape:window-width="1920"
     inkscape:window-height="997"
     inkscape:window-x="1920"
     inkscape:window-y="28"
     inkscape:window-maximized="1"
     units="px">
    <sodipodi:guide
       position="124.19596,293.39345"
       orientation="0,-1"
       id="guide873" />
  </sodipodi:namedview>
  <metadata
     id="metadata5">
    <rdf:RDF>
      <cc:Work
         rdf:about="">
        <dc:format>image/svg+xml</dc:format>
        <dc:type
           rdf:resource="http://purl.org/dc/dcmitype/StillImage" />
        <dc:title />
      </cc:Work>
    </rdf:RDF>
  </metadata>
  <g
     inkscape:label="Layer 1"
     inkscape:groupmode="layer"
     id="layer1">
    <path
       id="path1023"
       style="opacity:1;fill:#5a1d69;fill-opacity:1;stroke:none;stroke-width:0.385684;stroke-linecap:round;stroke-miterlimit:4;stroke-dasharray:0.385684, 0.771384;stroke-dashoffset:0;stroke-opacity:1;paint-order:stroke fill markers"
       d="m 129.9272,76.251832 a 7.5506601,6.2675775 0 0 0 -5.52928,1.999498 7.5506601,6.2675775 0 0 0 -3.75526,-0.830486 7.5506601,6.2675775 0 0 0 -7.31073,4.702079 7.5506601,6.2675775 0 0 0 -1.093,-0.0664 7.5506601,6.2675775 0 0 0 -7.55095,6.267816 7.5506601,6.2675775 0 0 0 0.0447,0.678364 7.5506601,6.2675775 0 0 0 -6.297005,6.180117 7.5506601,6.2675775 0 0 0 5.771995,6.0917 7.5506601,6.2675775 0 0 0 -0.29968,1.74598 7.5506601,6.2675775 0 0 0 7.55097,6.26781 7.5506601,6.2675775 0 0 0 1.21845,-0.0829 7.5506601,6.2675775 0 0 0 6.25162,2.75258 7.5506601,6.2675775 0 0 0 0.14367,-6.8e-4 7.5506601,6.2675775 0 0 0 0.15016,-0.003 7.5506601,6.2675775 0 0 0 2.87278,-0.57355 7.5506601,6.2675775 0 0 0 6.33747,2.86085 7.5506601,6.2675775 0 0 0 6.51413,-3.09862 7.5506601,6.2675775 0 0 0 2.34609,0.31046 7.5506601,6.2675775 0 0 0 7.31158,-4.70344 7.5506601,6.2675775 0 0 0 1.93005,0.2076 7.5506601,6.2675775 0 0 0 7.50474,-5.58672 7.5506601,6.2675775 0 0 0 6.4679,-6.20203 7.5506601,6.2675775 0 0 0 -6.22437,-6.170587 7.5506601,6.2675775 0 0 0 -6.55704,-6.0725 7.5506601,6.2675775 0 0 0 -7.06309,-4.053164 7.5506601,6.2675775 0 0 0 -3.93772,0.919585 7.5506601,6.2675775 0 0 0 -6.79809,-3.539991 z" />
    <g
       id="g1021"
       transform="matrix(3.1725197,0,0,3.1725197,-81.474584,28.389399)">
      <path
         style="fill:#33103c;fill-opacity:1;stroke:none;stroke-width:0.251461px;stroke-linecap:butt;stroke-linejoin:miter;stroke-opacity:1"
         d="m 75.707989,56.507113 2.13243,0.546711 c 0,0 2.88698,2.773159 3.91574,4.927329 0.49423,3.868432 -4.52859,8.396365 -4.52859,8.396365 l -4.14427,-3.571525 c 0,0 2.91756,-2.023969 4.38036,-4.565046 0.47431,-2.876902 -1.75567,-5.733834 -1.75567,-5.733834 z"
         id="path869"
         sodipodi:nodetypes="ccccccc" />
      <g
         id="g1010">
        <path
           style="fill:#5a1d69;fill-opacity:1;stroke:none;stroke-width:0.237841px;stroke-linecap:butt;stroke-linejoin:miter;stroke-opacity:1"
           d="M 81.258749,74.975334 H 50.39493 c 0,0 -1.123758,-18.565171 14.668559,-18.565171 15.79231,0 16.19526,18.565171 16.19526,18.565171 z"
           id="path837"
           sodipodi:nodetypes="cczc" />
        <rect
           style="opacity:1;fill:#78278c;fill-opacity:1;stroke:none;stroke-width:0.640593;stroke-linecap:round;stroke-opacity:1;paint-order:stroke fill markers"
           id="rect909"
           width="11.423151"
           height="13.729175"
           x="61.453228"
           y="48.032421"
           ry="5.7655268" />
        <g
           id="g853"
           transform="matrix(1.250269,0,0,1.250269,-65.492796,32.607479)">
          <circle
             style="opacity:0.991;fill:#ffffff;stroke:#000000;stroke-width:0.79375;stroke-linecap:round;paint-order:stroke fill markers"
             id="path843"
             cx="108.08921"
             cy="16.195866"
             r="2.4414604" />
          <path
             style="color:#000000;font-style:normal;font-variant:normal;font-weight:normal;font-stretch:normal;font-size:medium;line-height:normal;font-family:sans-serif;font-variant-ligatures:normal;font-variant-position:normal;font-variant-caps:normal;font-variant-numeric:normal;font-variant-alternates:normal;font-variant-east-asian:normal;font-feature-settings:normal;font-variation-settings:normal;text-indent:0;text-align:start;text-decoration:none;text-decoration-line:none;text-decoration-style:solid;text-decoration-color:#000000;letter-spacing:normal;word-spacing:normal;text-transform:none;writing-mode:lr-tb;direction:ltr;text-orientation:mixed;dominant-baseline:auto;baseline-shift:baseline;text-anchor:start;white-space:normal;shape-padding:0;shape-margin:0;inline-size:0;clip-rule:nonzero;display:inline;overflow:visible;visibility:visible;opacity:1;isolation:auto;mix-blend-mode:normal;color-interpolation:sRGB;color-interpolation-filters:linearRGB;solid-color:#000000;solid-opacity:1;vector-effect:none;fill:#000000;fill-opacity:1;fill-rule:nonzero;stroke:none;stroke-width:0.264583px;stroke-linecap:butt;stroke-linejoin:miter;stroke-miterlimit:4;stroke-dasharray:none;stroke-dashoffset:0;stroke-opacity:1;color-rendering:auto;image-rendering:auto;shape-rendering:auto;text-rendering:auto;enable-background:accumulate;stop-color:#000000;stop-opacity:1"
             d="m 110.79652,16.764229 -0.92897,1.590382 5.84627,2.535586 0.13086,-0.230469 z"
             id="path849"
             sodipodi:nodetypes="ccccc" />
        </g>
        <ellipse
           style="opacity:1;fill:#78278c;fill-opacity:1;stroke:none;stroke-width:0.427959;stroke-linecap:round;paint-order:stroke fill markers"
           id="path855"
           cx="95.049248"
           cy="7.6767435"
           rx="2.0232921"
           ry="1.4201319"
           transform="rotate(31.771661)" />
        <ellipse
           style="opacity:0.991;fill:#78278c;fill-opacity:1;stroke:none;stroke-width:0.204506;stroke-linecap:round;paint-order:stroke fill markers"
           id="ellipse861"
           cx="93.771194"
           cy="8.7867479"
           rx="0.96686113"
           ry="0.67863178"
           transform="rotate(31.771661)" />
      </g>
    </g>
    <g
       aria-label="?"
       transform="matrix(4.4187656,0,0,4.4187656,-162.33024,-56.764098)"
       id="text2365"
       style="font-style:italic;font-variant:normal;font-weight:bold;font-stretch:normal;font-size:16.6571px;line-height:1.25;font-family:Ubuntu;-inkscape-font-specification:'Ubuntu, Bold Italic';font-variant-ligatures:normal;font-variant-caps:normal;font-variant-numeric:normal;font-variant-east-asian:normal;letter-spacing:0px;word-spacing:0px;fill:#000000;fill-opacity:0.407157;stroke:none;stroke-width:0.416426;filter:url(#filter2407)">
      <path
         d="m 66.198197,33.716394 q 0.499713,-0.383113 0.849512,-0.666284 0.3498,-0.28317 0.566342,-0.51637 0.233199,-0.249856 0.333142,-0.466399 0.1166,-0.216542 0.1166,-0.449741 0,-0.433085 -0.316485,-0.63297 -0.299828,-0.199885 -0.766227,-0.199885 -0.299828,0 -0.63297,0.06663 -0.333142,0.04997 -0.649627,0.149914 -0.316485,0.09994 -0.599655,0.216542 -0.283171,0.1166 -0.499713,0.2332 l -0.316485,-1.948881 q 0.649627,-0.366456 1.482482,-0.582999 0.849512,-0.233199 1.699024,-0.233199 0.599656,0 1.14934,0.149914 0.549684,0.149914 0.966112,0.466399 0.416427,0.299828 0.666284,0.766226 0.249856,0.449742 0.249856,1.049398 0,0.716255 -0.233199,1.249282 -0.216542,0.533027 -0.566342,0.949455 -0.349799,0.416427 -0.79954,0.766227 -0.433085,0.333142 -0.86617,0.666284 -0.632969,0.483056 -1.116025,0.966111 -0.483056,0.483056 -0.533028,1.099369 h -2.198737 q 0,-0.51637 0.149914,-0.949455 0.166571,-0.433084 0.433085,-0.79954 0.28317,-0.366457 0.649627,-0.699599 0.366456,-0.333142 0.782883,-0.649627 z m -1.14934,3.931076 q 0.582999,0 0.966112,0.333142 0.399771,0.316485 0.399771,1.016083 0,0.383114 -0.149914,0.699599 -0.133257,0.316484 -0.366457,0.549684 -0.233199,0.216542 -0.533027,0.333142 -0.299828,0.133257 -0.616312,0.133257 -0.582999,0 -0.982769,-0.316485 -0.383114,-0.333142 -0.383114,-1.03274 0,-0.383114 0.133257,-0.699599 0.149914,-0.316485 0.383113,-0.533027 0.2332,-0.233199 0.533028,-0.349799 0.299827,-0.133257 0.616312,-0.133257 z"
         style="font-style:italic;font-variant:normal;font-weight:bold;font-stretch:normal;font-size:16.6571px;font-family:Ubuntu;-inkscape-font-specification:'Ubuntu, Bold Italic';font-variant-ligatures:normal;font-variant-caps:normal;font-variant-numeric:normal;font-variant-east-asian:normal;fill:#000000;fill-opacity:0.407157;stroke-width:0.416426"
         id="path995" />
    </g>
    <g
       aria-label="?"
       id="text917"
       style="font-style:italic;font-variant:normal;font-weight:bold;font-stretch:normal;font-size:73.6037px;line-height:1.25;font-family:Ubuntu;-inkscape-font-specification:'Ubuntu, Bold Italic';font-variant-ligatures:normal;font-variant-caps:normal;font-variant-numeric:normal;font-variant-east-asian:normal;letter-spacing:0px;word-spacing:0px;fill:#ff77ff;fill-opacity:1;stroke:none;stroke-width:1.8401">
      <path
         d="m 128.94262,91.166311 q 2.20811,-1.692885 3.75379,-2.944148 1.54568,-1.251263 2.50252,-2.281715 1.03046,-1.104055 1.47208,-2.060903 0.51522,-0.956848 0.51522,-1.9873 0,-1.913696 -1.39847,-2.796941 -1.32486,-0.883244 -3.38577,-0.883244 -1.32486,0 -2.79694,0.294415 -1.47207,0.220811 -2.87054,0.662433 -1.39847,0.441622 -2.64973,0.956848 -1.25127,0.515226 -2.20811,1.030452 l -1.39848,-8.611633 q 2.87055,-1.619281 6.55073,-2.576129 3.75379,-1.030452 7.50758,-1.030452 2.64973,0 5.07866,0.662433 2.42892,0.662434 4.26901,2.060904 1.84009,1.324866 2.94415,3.38577 1.10405,1.9873 1.10405,4.637033 0,3.164959 -1.03045,5.520277 -0.95685,2.355319 -2.50252,4.195411 -1.54568,1.840093 -3.53298,3.38577 -1.9137,1.472074 -3.82739,2.944148 -2.79694,2.134508 -4.93145,4.269015 -2.13451,2.134505 -2.35532,4.857845 h -9.71569 q 0,-2.28172 0.66244,-4.19541 0.73603,-1.913698 1.91369,-3.532979 1.25127,-1.619282 2.87055,-3.091356 1.61928,-1.472074 3.45937,-2.870544 z m -5.07865,17.370469 q 2.57612,0 4.26901,1.47208 1.76649,1.39847 1.76649,4.48982 0,1.69289 -0.66243,3.09136 -0.58883,1.39847 -1.61929,2.42892 -1.03045,0.95685 -2.35531,1.47207 -1.32487,0.58883 -2.72334,0.58883 -2.57613,0 -4.34262,-1.39847 -1.69288,-1.47207 -1.69288,-4.56343 0,-1.69288 0.58882,-3.09135 0.66244,-1.39847 1.69289,-2.35532 1.03045,-1.03045 2.35532,-1.54568 1.32486,-0.58883 2.72334,-0.58883 z"
         style="font-style:italic;font-variant:normal;font-weight:bold;font-stretch:normal;font-size:73.6037px;font-family:Ubuntu;-inkscape-font-specification:'Ubuntu, Bold Italic';font-variant-ligatures:normal;font-variant-caps:normal;font-variant-numeric:normal;font-variant-east-asian:normal;fill:#ff77ff;fill-opacity:1;stroke-width:1.8401"
         id="path992" />
    </g>
    <g
       aria-label="Scale"
       id="text921"
       style="font-style:normal;font-variant:normal;font-weight:300;font-stretch:normal;font-size:14.429px;line-height:1.25;font-family:Ubuntu;-inkscape-font-specification:'Ubuntu, Light';font-variant-ligatures:normal;font-variant-caps:normal;font-variant-numeric:normal;font-variant-east-asian:normal;letter-spacing:0px;word-spacing:0px;fill:#1a1a1a;fill-opacity:1;stroke:none;stroke-width:0.360728">
      <path
         d="m 135.30005,24.332108 q 1.16875,0 1.81805,-0.418441 0.64931,-0.43287 0.64931,-1.385184 0,-0.548302 -0.21644,-0.909027 -0.202,-0.375154 -0.5483,-0.620447 -0.3463,-0.259722 -0.7936,-0.43287 -0.44729,-0.187577 -0.93788,-0.389583 -0.62045,-0.245293 -1.11103,-0.505015 -0.49059,-0.259722 -0.83689,-0.57716 -0.34629,-0.331867 -0.53387,-0.750308 -0.17315,-0.418441 -0.17315,-0.981172 0,-1.284181 0.85131,-1.947915 0.85132,-0.663734 2.36636,-0.663734 0.40401,0 0.7936,0.05772 0.38958,0.05772 0.72145,0.158719 0.34629,0.08657 0.62044,0.202006 0.28858,0.115432 0.47616,0.245293 l -0.3463,0.822453 q -0.41844,-0.28858 -1.02446,-0.461728 -0.59158,-0.173148 -1.28418,-0.173148 -0.47615,0 -0.88017,0.101003 -0.38958,0.08657 -0.67816,0.303009 -0.28858,0.202006 -0.46173,0.519444 -0.15872,0.317438 -0.15872,0.764737 0,0.461728 0.17315,0.779166 0.17315,0.317438 0.47616,0.548302 0.31744,0.230864 0.73588,0.418441 0.41844,0.187577 0.90903,0.389583 0.59158,0.245293 1.11103,0.490586 0.53387,0.245293 0.92345,0.57716 0.38959,0.331867 0.62045,0.808024 0.23087,0.476157 0.23087,1.168749 0,1.356326 -0.95232,2.034489 -0.93788,0.678163 -2.55393,0.678163 -0.57716,0 -1.05332,-0.07214 -0.47616,-0.07215 -0.85131,-0.173148 -0.37515,-0.115432 -0.63488,-0.230864 -0.25972,-0.115432 -0.40401,-0.202006 l 0.31744,-0.851311 q 0.14429,0.08657 0.38958,0.202006 0.2453,0.115432 0.57716,0.230864 0.33187,0.101003 0.75031,0.173148 0.41844,0.07215 0.92346,0.07215 z"
         style="font-style:normal;font-variant:normal;font-weight:300;font-stretch:normal;font-size:14.429px;font-family:Ubuntu;-inkscape-font-specification:'Ubuntu, Light';font-variant-ligatures:normal;font-variant-caps:normal;font-variant-numeric:normal;font-variant-east-asian:normal;fill:#1a1a1a;fill-opacity:1;stroke-width:0.360728"
         id="path943" />
      <path
         d="m 143.63998,25.125703 q -0.86574,0 -1.52947,-0.274151 -0.66373,-0.274151 -1.11103,-0.779166 -0.43287,-0.519444 -0.66374,-1.226465 -0.23086,-0.72145 -0.23086,-1.58719 0,-0.880169 0.23086,-1.601619 0.2453,-0.72145 0.6926,-1.240894 0.4473,-0.519444 1.08217,-0.793595 0.63488,-0.28858 1.42847,-0.28858 0.60602,0 1.12546,0.101003 0.53388,0.101003 0.82246,0.259722 l -0.2453,0.808024 q -0.28858,-0.14429 -0.6493,-0.230864 -0.36073,-0.08657 -0.96674,-0.08657 -1.2409,0 -1.8902,0.808024 -0.63488,0.793595 -0.63488,2.265353 0,0.663734 0.14429,1.226465 0.14429,0.548302 0.46173,0.952314 0.33187,0.389583 0.83688,0.620447 0.51944,0.216435 1.25532,0.216435 0.60602,0 1.01003,-0.129861 0.41844,-0.14429 0.60602,-0.245293 l 0.20201,0.808024 q -0.25972,0.14429 -0.82246,0.274151 -0.5483,0.14429 -1.15432,0.14429 z"
         style="font-style:normal;font-variant:normal;font-weight:300;font-stretch:normal;font-size:14.429px;font-family:Ubuntu;-inkscape-font-specification:'Ubuntu, Light';font-variant-ligatures:normal;font-variant-caps:normal;font-variant-numeric:normal;font-variant-east-asian:normal;fill:#1a1a1a;fill-opacity:1;stroke-width:0.360728"
         id="path945" />
      <path
         d="m 149.54143,24.288821 q 0.54831,0 0.95232,-0.02886 0.41844,-0.04329 0.70702,-0.101003 v -2.626078 q -0.15872,-0.07214 -0.50502,-0.14429 -0.34629,-0.08657 -0.95231,-0.08657 -0.3463,0 -0.72145,0.05772 -0.37515,0.04329 -0.69259,0.216435 -0.31744,0.158719 -0.51945,0.447299 -0.202,0.28858 -0.202,0.764737 0,0.418441 0.12986,0.707021 0.14429,0.28858 0.38958,0.461728 0.25972,0.173148 0.60602,0.259722 0.36072,0.07214 0.80802,0.07214 z m -0.0866,-6.954778 q 0.73588,0 1.24089,0.216435 0.51945,0.202006 0.83689,0.57716 0.31743,0.360725 0.46172,0.86574 0.14429,0.505015 0.14429,1.096604 v 4.703854 q -0.14429,0.04329 -0.41844,0.101003 -0.27415,0.04329 -0.63487,0.101003 -0.36073,0.05772 -0.80803,0.08657 -0.43287,0.04329 -0.8946,0.04329 -0.59158,0 -1.0966,-0.129861 -0.49059,-0.129861 -0.86574,-0.404012 -0.36072,-0.28858 -0.57716,-0.72145 -0.20201,-0.447299 -0.20201,-1.082175 0,-0.606018 0.23087,-1.038888 0.23086,-0.43287 0.6493,-0.707021 0.41844,-0.28858 0.9956,-0.418441 0.57716,-0.129861 1.25533,-0.129861 0.202,0 0.41844,0.02886 0.23086,0.01443 0.43287,0.05772 0.21643,0.02886 0.36072,0.07214 0.15872,0.02886 0.21644,0.05772 v -0.461728 q 0,-0.389583 -0.0577,-0.750308 -0.0577,-0.375154 -0.25972,-0.663734 -0.18758,-0.303009 -0.5483,-0.476157 -0.3463,-0.187577 -0.92346,-0.187577 -0.82245,0 -1.22646,0.115432 -0.40401,0.115432 -0.59159,0.187577 l -0.12986,-0.822453 q 0.24529,-0.115432 0.75031,-0.216435 0.51944,-0.101003 1.24089,-0.101003 z"
         style="font-style:normal;font-variant:normal;font-weight:300;font-stretch:normal;font-size:14.429px;font-family:Ubuntu;-inkscape-font-specification:'Ubuntu, Light';font-variant-ligatures:normal;font-variant-caps:normal;font-variant-numeric:normal;font-variant-east-asian:normal;fill:#1a1a1a;fill-opacity:1;stroke-width:0.360728"
         id="path947" />
      <path
         d="m 156.42405,25.096845 q -0.47616,-0.01443 -0.83688,-0.129861 -0.3463,-0.101003 -0.59159,-0.317438 -0.23086,-0.230864 -0.36073,-0.57716 -0.11543,-0.360725 -0.11543,-0.894598 v -9.23456 l 0.93789,-0.173148 v 9.37885 q 0,0.346296 0.0577,0.562731 0.0721,0.202006 0.20201,0.331867 0.12986,0.115432 0.33187,0.173148 0.21643,0.05772 0.50501,0.101003 z"
         style="font-style:normal;font-variant:normal;font-weight:300;font-stretch:normal;font-size:14.429px;font-family:Ubuntu;-inkscape-font-specification:'Ubuntu, Light';font-variant-ligatures:normal;font-variant-caps:normal;font-variant-numeric:normal;font-variant-east-asian:normal;fill:#1a1a1a;fill-opacity:1;stroke-width:0.360728"
         id="path949" />
      <path
         d="m 157.76593,21.229873 q 0,-0.981172 0.27416,-1.702622 0.28858,-0.735879 0.73587,-1.226465 0.46173,-0.490586 1.03889,-0.72145 0.59159,-0.245293 1.21204,-0.245293 1.37075,0 2.17878,0.894598 0.82245,0.894598 0.82245,2.755939 0,0.115432 -0.0144,0.230864 0,0.115432 -0.0144,0.216435 h -5.23772 q 0.0433,1.370755 0.67816,2.106634 0.63487,0.735879 2.02006,0.735879 0.76474,0 1.21203,-0.14429 0.4473,-0.14429 0.64931,-0.245293 l 0.17315,0.808024 q -0.20201,0.115432 -0.76474,0.274151 -0.5483,0.158719 -1.29861,0.158719 -0.98117,0 -1.67376,-0.28858 -0.6926,-0.28858 -1.13989,-0.808024 -0.4473,-0.519444 -0.64931,-1.226465 -0.20201,-0.72145 -0.20201,-1.572761 z m 5.29545,-0.591589 q -0.0289,-1.168749 -0.5483,-1.818054 -0.51945,-0.649305 -1.47176,-0.649305 -0.50502,0 -0.90903,0.202006 -0.38958,0.202006 -0.69259,0.548302 -0.28858,0.331867 -0.46173,0.779166 -0.15872,0.447299 -0.18758,0.937885 z"
         style="font-style:normal;font-variant:normal;font-weight:300;font-stretch:normal;font-size:14.429px;font-family:Ubuntu;-inkscape-font-specification:'Ubuntu, Light';font-variant-ligatures:normal;font-variant-caps:normal;font-variant-numeric:normal;font-variant-east-asian:normal;fill:#1a1a1a;fill-opacity:1;stroke-width:0.360728"
         id="path951" />
    </g>
    <g
       aria-label="Hpc"
       transform="rotate(-15.654429)"
       id="text925"
       style="font-style:normal;font-variant:normal;font-weight:300;font-stretch:normal;font-size:15.6154px;line-height:1.25;font-family:Ubuntu;-inkscape-font-specification:'Ubuntu, Light';font-variant-ligatures:normal;font-variant-caps:normal;font-variant-numeric:normal;font-variant-east-asian:normal;letter-spacing:0px;word-spacing:0px;fill:#1a1a1a;fill-opacity:1;stroke:none;stroke-width:0.390384"
       inkscape:transform-center-x="15.234759"
       inkscape:transform-center-y="-4.0059403">
      <path
         d="m 177.40763,94.576164 h 1.5147 v 10.821476 h -1.5147 v -4.99693 h -5.29362 v 4.99693 h -1.51469 V 94.576164 h 1.51469 v 4.512851 h 5.29362 z"
         style="font-style:normal;font-variant:normal;font-weight:normal;font-stretch:normal;font-size:15.6154px;font-family:Ubuntu;-inkscape-font-specification:'Ubuntu, Normal';font-variant-ligatures:normal;font-variant-caps:normal;font-variant-numeric:normal;font-variant-east-asian:normal;fill:#1a1a1a;fill-opacity:1;stroke-width:0.390384"
         id="path954" />
      <path
         d="m 187.15164,101.35325 q 0,-1.421004 -0.70269,-2.186158 -0.7027,-0.765155 -1.87385,-0.765155 -0.65585,0 -1.03062,0.04685 -0.35915,0.04685 -0.57777,0.109308 v 5.121849 q 0.26547,0.21862 0.76516,0.42162 0.49969,0.203 1.09308,0.203 0.62461,0 1.06184,-0.21862 0.45285,-0.23423 0.73393,-0.62461 0.28107,-0.406 0.406,-0.93693 0.12492,-0.54654 0.12492,-1.17115 z m 1.51469,0 q 0,0.92131 -0.24984,1.70208 -0.23423,0.78077 -0.70269,1.34292 -0.46847,0.56216 -1.15554,0.87446 -0.67147,0.31231 -1.54593,0.31231 -0.70269,0 -1.24923,-0.18738 -0.53092,-0.18739 -0.79639,-0.35916 v 3.24801 h -1.45223 V 97.527475 q 0.51531,-0.124924 1.28046,-0.265462 0.78077,-0.156154 1.79578,-0.156154 0.93692,0 1.68646,0.296692 0.74954,0.296693 1.28046,0.843232 0.53092,0.546539 0.812,1.342924 0.29669,0.780773 0.29669,1.764543 z"
         style="font-style:normal;font-variant:normal;font-weight:normal;font-stretch:normal;font-size:15.6154px;font-family:Ubuntu;-inkscape-font-specification:'Ubuntu, Normal';font-variant-ligatures:normal;font-variant-caps:normal;font-variant-numeric:normal;font-variant-east-asian:normal;fill:#1a1a1a;fill-opacity:1;stroke-width:0.390384"
         id="path956" />
      <path
         d="m 194.24101,105.58502 q -0.98377,0 -1.73331,-0.31231 -0.73392,-0.3123 -1.24923,-0.87446 -0.49969,-0.56215 -0.74954,-1.32731 -0.24984,-0.78077 -0.24984,-1.71769 0,-0.93693 0.26546,-1.717696 0.28107,-0.78077 0.78077,-1.342925 0.49969,-0.57777 1.218,-0.890078 0.73392,-0.327923 1.624,-0.327923 0.54654,0 1.09308,0.09369 0.54654,0.09369 1.04623,0.296693 l -0.32792,1.233617 q -0.32793,-0.156154 -0.76516,-0.249847 -0.42161,-0.09369 -0.90569,-0.09369 -1.218,0 -1.87385,0.765154 -0.64023,0.765155 -0.64023,2.233005 0,0.65584 0.14054,1.20238 0.15615,0.54654 0.46846,0.93693 0.32792,0.39038 0.82762,0.609 0.49969,0.203 1.218,0.203 0.57777,0 1.04623,-0.10931 0.46846,-0.10931 0.73392,-0.23423 l 0.203,1.218 q -0.12492,0.0781 -0.35915,0.15615 -0.23423,0.0625 -0.53092,0.10931 -0.2967,0.0625 -0.64024,0.0937 -0.32792,0.0468 -0.64023,0.0468 z"
         style="font-style:normal;font-variant:normal;font-weight:normal;font-stretch:normal;font-size:15.6154px;font-family:Ubuntu;-inkscape-font-specification:'Ubuntu, Normal';font-variant-ligatures:normal;font-variant-caps:normal;font-variant-numeric:normal;font-variant-east-asian:normal;fill:#1a1a1a;fill-opacity:1;stroke-width:0.390384"
         id="path958" />
    </g>
    <g
       aria-label="Tecnologies"
       transform="rotate(-15.261368)"
       id="text929"
       style="font-style:normal;font-variant:normal;font-weight:300;font-stretch:normal;font-size:11.3413px;line-height:1.25;font-family:Ubuntu;-inkscape-font-specification:'Ubuntu, Light';font-variant-ligatures:normal;font-variant-caps:normal;font-variant-numeric:normal;font-variant-east-asian:normal;letter-spacing:0px;word-spacing:0px;fill:#1a1a1a;fill-opacity:1;stroke:none;stroke-width:0.283532">
      <path
         d="m 8.0731799,65.364532 v 0.669136 H 5.5554113 v 7.190384 H 4.7842029 V 66.033668 H 2.2664343 v -0.669136 z"
         style="font-style:normal;font-variant:normal;font-weight:300;font-stretch:normal;font-size:11.3413px;font-family:Ubuntu;-inkscape-font-specification:'Ubuntu, Light';font-variant-ligatures:normal;font-variant-caps:normal;font-variant-numeric:normal;font-variant-east-asian:normal;fill:#1a1a1a;fill-opacity:1;stroke-width:0.283532"
         id="path904" />
      <path
         d="m 8.4020525,70.286656 q 0,-0.771209 0.2154847,-1.338274 0.226826,-0.578406 0.5784063,-0.96401 0.3629216,-0.385604 0.8165735,-0.567065 0.464993,-0.192802 0.952669,-0.192802 1.077424,0 1.712537,0.70316 0.646454,0.703161 0.646454,2.166189 0,0.09073 -0.01134,0.18146 0,0.09073 -0.01134,0.17012 H 9.1846022 q 0.034024,1.077423 0.5330411,1.65583 0.4990167,0.578406 1.5877817,0.578406 0.601089,0 0.952669,-0.113413 0.351581,-0.113413 0.510359,-0.192802 l 0.136096,0.635113 q -0.158779,0.09073 -0.601089,0.215484 -0.43097,0.124755 -1.020717,0.124755 -0.771209,0 -1.3155911,-0.226826 Q 9.4227695,72.895155 9.0711892,72.486868 8.7196089,72.078581 8.5608307,71.522857 8.4020525,70.955792 8.4020525,70.286656 Z M 12.56431,69.821662 Q 12.541627,68.903017 12.13334,68.392659 11.725053,67.8823 10.976528,67.8823 q -0.396946,0 -0.714502,0.158778 -0.3062154,0.158779 -0.5443827,0.43097 -0.226826,0.26085 -0.3629216,0.61243 -0.1247543,0.35158 -0.1474369,0.737184 z"
         style="font-style:normal;font-variant:normal;font-weight:300;font-stretch:normal;font-size:11.3413px;font-family:Ubuntu;-inkscape-font-specification:'Ubuntu, Light';font-variant-ligatures:normal;font-variant-caps:normal;font-variant-numeric:normal;font-variant-east-asian:normal;fill:#1a1a1a;fill-opacity:1;stroke-width:0.283532"
         id="path906" />
      <path
         d="m 17.395685,73.348807 q -0.680478,0 -1.202177,-0.215485 -0.5217,-0.215485 -0.87328,-0.61243 -0.340239,-0.408287 -0.5217,-0.964011 -0.181461,-0.567065 -0.181461,-1.247543 0,-0.691819 0.181461,-1.258884 0.192802,-0.567065 0.544382,-0.975352 0.35158,-0.408287 0.850598,-0.623771 0.499017,-0.226826 1.122788,-0.226826 0.476335,0 0.884622,0.07939 0.419628,0.07939 0.646454,0.204143 L 18.65457,68.14315 q -0.226826,-0.113413 -0.510359,-0.181461 -0.283532,-0.06805 -0.759867,-0.06805 -0.975352,0 -1.48571,0.635113 -0.499017,0.623772 -0.499017,1.780584 0,0.5217 0.113413,0.964011 0.113413,0.430969 0.362921,0.748526 0.26085,0.306215 0.657796,0.487676 0.408286,0.170119 0.986693,0.170119 0.476334,0 0.793891,-0.102072 0.328897,-0.113413 0.476334,-0.192802 l 0.158779,0.635113 q -0.204144,0.113413 -0.646455,0.215485 -0.430969,0.113413 -0.907304,0.113413 z"
         style="font-style:normal;font-variant:normal;font-weight:300;font-stretch:normal;font-size:11.3413px;font-family:Ubuntu;-inkscape-font-specification:'Ubuntu, Light';font-variant-ligatures:normal;font-variant-caps:normal;font-variant-numeric:normal;font-variant-east-asian:normal;fill:#1a1a1a;fill-opacity:1;stroke-width:0.283532"
         id="path908" />
      <path
         d="m 20.185634,67.564744 q 0.328898,-0.09073 0.884621,-0.204144 0.555724,-0.113413 1.360956,-0.113413 0.669137,0 1.111448,0.192802 0.453652,0.192803 0.714502,0.555724 0.272191,0.35158 0.385604,0.850598 0.113413,0.499017 0.113413,1.100106 v 3.277635 h -0.737185 v -3.039468 q 0,-0.623771 -0.09073,-1.054741 -0.07939,-0.430969 -0.283533,-0.70316 -0.192802,-0.272192 -0.521699,-0.385605 -0.317557,-0.124754 -0.805233,-0.124754 -0.5217,0 -0.907304,0.05671 -0.374263,0.05671 -0.487676,0.102071 v 5.14895 h -0.737184 z"
         style="font-style:normal;font-variant:normal;font-weight:300;font-stretch:normal;font-size:11.3413px;font-family:Ubuntu;-inkscape-font-specification:'Ubuntu, Light';font-variant-ligatures:normal;font-variant-caps:normal;font-variant-numeric:normal;font-variant-east-asian:normal;fill:#1a1a1a;fill-opacity:1;stroke-width:0.283532"
         id="path910" />
      <path
         d="m 31.640329,70.297997 q 0,0.691819 -0.204143,1.258884 -0.192802,0.567065 -0.555724,0.964011 -0.35158,0.396945 -0.839256,0.623771 -0.487676,0.215485 -1.077423,0.215485 -0.589748,0 -1.077424,-0.215485 -0.487676,-0.226826 -0.850597,-0.623771 -0.351581,-0.396946 -0.555724,-0.964011 -0.192802,-0.567065 -0.192802,-1.258884 0,-0.691819 0.192802,-1.258884 0.204143,-0.567065 0.555724,-0.964011 0.362921,-0.408287 0.850597,-0.623771 0.487676,-0.226826 1.077424,-0.226826 0.589747,0 1.077423,0.226826 0.487676,0.215484 0.839256,0.623771 0.362922,0.396946 0.555724,0.964011 0.204143,0.567065 0.204143,1.258884 z m -0.782549,0 q 0,-1.100106 -0.510359,-1.74656 -0.510358,-0.657796 -1.383638,-0.657796 -0.87328,0 -1.383639,0.657796 -0.510358,0.646454 -0.510358,1.74656 0,1.100106 0.510358,1.74656 0.510359,0.646454 1.383639,0.646454 0.87328,0 1.383638,-0.646454 0.510359,-0.646454 0.510359,-1.74656 z"
         style="font-style:normal;font-variant:normal;font-weight:300;font-stretch:normal;font-size:11.3413px;font-family:Ubuntu;-inkscape-font-specification:'Ubuntu, Light';font-variant-ligatures:normal;font-variant-caps:normal;font-variant-numeric:normal;font-variant-east-asian:normal;fill:#1a1a1a;fill-opacity:1;stroke-width:0.283532"
         id="path912" />
      <path
         d="m 34.725149,73.326124 q -0.374263,-0.01134 -0.657796,-0.102072 -0.272191,-0.07939 -0.464993,-0.249508 -0.181461,-0.181461 -0.283533,-0.453652 -0.09073,-0.283533 -0.09073,-0.703161 v -7.258432 l 0.737184,-0.136095 v 7.371845 q 0,0.272191 0.04537,0.44231 0.05671,0.158779 0.158778,0.26085 0.102072,0.09073 0.26085,0.136096 0.170119,0.04537 0.396945,0.07939 z"
         style="font-style:normal;font-variant:normal;font-weight:300;font-stretch:normal;font-size:11.3413px;font-family:Ubuntu;-inkscape-font-specification:'Ubuntu, Light';font-variant-ligatures:normal;font-variant-caps:normal;font-variant-numeric:normal;font-variant-east-asian:normal;fill:#1a1a1a;fill-opacity:1;stroke-width:0.283532"
         id="path914" />
      <path
         d="m 41.132975,70.297997 q 0,0.691819 -0.204144,1.258884 -0.192802,0.567065 -0.555723,0.964011 -0.351581,0.396945 -0.839257,0.623771 -0.487676,0.215485 -1.077423,0.215485 -0.589748,0 -1.077424,-0.215485 -0.487676,-0.226826 -0.850597,-0.623771 -0.35158,-0.396946 -0.555724,-0.964011 -0.192802,-0.567065 -0.192802,-1.258884 0,-0.691819 0.192802,-1.258884 0.204144,-0.567065 0.555724,-0.964011 0.362921,-0.408287 0.850597,-0.623771 0.487676,-0.226826 1.077424,-0.226826 0.589747,0 1.077423,0.226826 0.487676,0.215484 0.839257,0.623771 0.362921,0.396946 0.555723,0.964011 0.204144,0.567065 0.204144,1.258884 z m -0.78255,0 q 0,-1.100106 -0.510359,-1.74656 -0.510358,-0.657796 -1.383638,-0.657796 -0.87328,0 -1.383639,0.657796 -0.510358,0.646454 -0.510358,1.74656 0,1.100106 0.510358,1.74656 0.510359,0.646454 1.383639,0.646454 0.87328,0 1.383638,-0.646454 0.510359,-0.646454 0.510359,-1.74656 z"
         style="font-style:normal;font-variant:normal;font-weight:300;font-stretch:normal;font-size:11.3413px;font-family:Ubuntu;-inkscape-font-specification:'Ubuntu, Light';font-variant-ligatures:normal;font-variant-caps:normal;font-variant-numeric:normal;font-variant-east-asian:normal;fill:#1a1a1a;fill-opacity:1;stroke-width:0.283532"
         id="path916" />
      <path
         d="m 46.554104,72.543574 q -0.06805,0.05671 -0.204144,0.136096 -0.136095,0.06805 -0.340239,0.147437 -0.192802,0.07939 -0.453652,0.136096 -0.249508,0.04537 -0.567065,0.04537 -0.510358,0 -0.986693,-0.158778 -0.476335,-0.158779 -0.839256,-0.499018 -0.35158,-0.340239 -0.567065,-0.87328 -0.215485,-0.544382 -0.215485,-1.315591 0,-0.623771 0.192802,-1.156812 0.192802,-0.533041 0.544383,-0.918645 0.362921,-0.396946 0.87328,-0.612431 0.5217,-0.226826 1.168154,-0.226826 0.816573,0 1.304249,0.113413 0.499017,0.102072 0.816574,0.204144 v 5.353093 q 0,1.315591 -0.680478,1.871315 -0.680478,0.567065 -2.052776,0.567065 -0.567065,0 -1.032058,-0.09073 -0.453652,-0.07939 -0.78255,-0.192802 l 0.147437,-0.669136 q 0.272192,0.124754 0.737185,0.215484 0.476334,0.09073 0.952669,0.09073 1.0434,0 1.508393,-0.408287 0.476335,-0.396946 0.476335,-1.372297 z m -0.01134,-4.468472 q -0.192802,-0.05671 -0.499017,-0.102071 -0.306215,-0.05671 -0.87328,-0.05671 -0.476335,0 -0.850598,0.17012 -0.362921,0.158778 -0.623771,0.464993 -0.26085,0.294874 -0.396946,0.714502 -0.136095,0.408287 -0.136095,0.907304 0,0.578406 0.158778,0.998034 0.158778,0.408287 0.408287,0.669137 0.26085,0.26085 0.589747,0.385604 0.328898,0.113413 0.669137,0.113413 0.499017,0 0.907304,-0.147437 0.419628,-0.147437 0.646454,-0.340239 z"
         style="font-style:normal;font-variant:normal;font-weight:300;font-stretch:normal;font-size:11.3413px;font-family:Ubuntu;-inkscape-font-specification:'Ubuntu, Light';font-variant-ligatures:normal;font-variant-caps:normal;font-variant-numeric:normal;font-variant-east-asian:normal;fill:#1a1a1a;fill-opacity:1;stroke-width:0.283532"
         id="path918" />
      <path
         d="M 49.967832,73.224052 H 49.230647 V 67.3606 h 0.737185 z m 0.170119,-7.632694 q 0,0.260849 -0.158778,0.419628 -0.158778,0.147437 -0.385604,0.147437 -0.226826,0 -0.385604,-0.147437 -0.158778,-0.158779 -0.158778,-0.419628 0,-0.26085 0.158778,-0.408287 0.158778,-0.158778 0.385604,-0.158778 0.226826,0 0.385604,0.158778 0.158778,0.147437 0.158778,0.408287 z"
         style="font-style:normal;font-variant:normal;font-weight:300;font-stretch:normal;font-size:11.3413px;font-family:Ubuntu;-inkscape-font-specification:'Ubuntu, Light';font-variant-ligatures:normal;font-variant-caps:normal;font-variant-numeric:normal;font-variant-east-asian:normal;fill:#1a1a1a;fill-opacity:1;stroke-width:0.283532"
         id="path920" />
      <path
         d="m 51.566952,70.286656 q 0,-0.771209 0.215485,-1.338274 0.226826,-0.578406 0.578406,-0.96401 0.362922,-0.385604 0.816574,-0.567065 0.464993,-0.192802 0.952669,-0.192802 1.077424,0 1.712536,0.70316 0.646455,0.703161 0.646455,2.166189 0,0.09073 -0.01134,0.18146 0,0.09073 -0.01134,0.17012 h -4.116892 q 0.03402,1.077423 0.533041,1.65583 0.499017,0.578406 1.587782,0.578406 0.601089,0 0.952669,-0.113413 0.351581,-0.113413 0.510359,-0.192802 l 0.136095,0.635113 q -0.158778,0.09073 -0.601088,0.215484 -0.43097,0.124755 -1.020717,0.124755 -0.771209,0 -1.315591,-0.226826 -0.544383,-0.226826 -0.895963,-0.635113 -0.35158,-0.408287 -0.510358,-0.964011 -0.158779,-0.567065 -0.158779,-1.236201 z m 4.162257,-0.464994 Q 55.706527,68.903017 55.29824,68.392659 54.889953,67.8823 54.141427,67.8823 q -0.396945,0 -0.714501,0.158778 -0.306216,0.158779 -0.544383,0.43097 -0.226826,0.26085 -0.362921,0.61243 -0.124755,0.35158 -0.147437,0.737184 z"
         style="font-style:normal;font-variant:normal;font-weight:300;font-stretch:normal;font-size:11.3413px;font-family:Ubuntu;-inkscape-font-specification:'Ubuntu, Light';font-variant-ligatures:normal;font-variant-caps:normal;font-variant-numeric:normal;font-variant-east-asian:normal;fill:#1a1a1a;fill-opacity:1;stroke-width:0.283532"
         id="path922" />
      <path
         d="m 59.335722,72.702353 q 0.635113,0 1.0434,-0.204144 0.419628,-0.215484 0.419628,-0.714502 0,-0.238167 -0.07939,-0.408286 -0.06805,-0.17012 -0.238168,-0.306216 -0.170119,-0.136095 -0.453652,-0.260849 -0.272191,-0.124755 -0.680478,-0.294874 -0.328897,-0.136096 -0.623771,-0.272191 -0.294874,-0.147437 -0.5217,-0.328898 -0.226826,-0.192802 -0.362922,-0.453652 -0.136095,-0.26085 -0.136095,-0.635113 0,-0.714502 0.533041,-1.156813 0.544382,-0.44231 1.48571,-0.44231 0.601089,0 0.986693,0.102071 0.396946,0.102072 0.555724,0.181461 l -0.17012,0.657796 q -0.136095,-0.06805 -0.464993,-0.181461 -0.317556,-0.113413 -0.941328,-0.113413 -0.249508,0 -0.476334,0.05671 -0.215485,0.04537 -0.385605,0.158779 -0.170119,0.102071 -0.272191,0.272191 -0.102071,0.158778 -0.102071,0.396945 0,0.238168 0.09073,0.408287 0.09073,0.17012 0.26085,0.306215 0.181461,0.124754 0.430969,0.238167 0.26085,0.113413 0.589748,0.249509 0.340239,0.136096 0.646454,0.283533 0.317556,0.136095 0.555724,0.340239 0.238167,0.192802 0.385604,0.476334 0.147437,0.272191 0.147437,0.691819 0,0.793891 -0.601089,1.202178 -0.589748,0.408287 -1.621806,0.408287 -0.771208,0 -1.179495,-0.136096 -0.408287,-0.124754 -0.544383,-0.192802 l 0.192802,-0.669136 q 0.03402,0.02268 0.147437,0.07939 0.113413,0.04537 0.306215,0.113413 0.192803,0.05671 0.453652,0.102071 0.272192,0.04537 0.623772,0.04537 z"
         style="font-style:normal;font-variant:normal;font-weight:300;font-stretch:normal;font-size:11.3413px;font-family:Ubuntu;-inkscape-font-specification:'Ubuntu, Light';font-variant-ligatures:normal;font-variant-caps:normal;font-variant-numeric:normal;font-variant-east-asian:normal;fill:#1a1a1a;fill-opacity:1;stroke-width:0.283532"
         id="path924" />
    </g>
    <g
       aria-label="Algorithm"
       transform="rotate(1.9815601)"
       id="text933"
       style="font-style:normal;font-variant:normal;font-weight:300;font-stretch:normal;font-size:11.8879px;line-height:1.25;font-family:Ubuntu;-inkscape-font-specification:'Ubuntu, Light';font-variant-ligatures:normal;font-variant-caps:normal;font-variant-numeric:normal;font-variant-east-asian:normal;letter-spacing:0px;word-spacing:0px;fill:#1a1a1a;fill-opacity:1;stroke:none;stroke-width:0.2972">
      <path
         d="m 210.57894,97.62648 q -0.22587,-0.606283 -0.42796,-1.165014 -0.2021,-0.558731 -0.3923,-1.093687 h -4.00623 q -0.20209,0.534956 -0.40418,1.093687 -0.2021,0.558731 -0.41608,1.165014 h -0.84404 q 0.47551,-1.283893 0.89159,-2.389468 0.41608,-1.117463 0.80838,-2.104158 0.40419,-0.998584 0.79649,-1.913952 0.3923,-0.915369 0.83215,-1.830737 h 0.71327 q 0.43986,0.915368 0.83216,1.830737 0.3923,0.915368 0.7846,1.913952 0.40419,0.986695 0.82026,2.104158 0.41608,1.105575 0.90348,2.389468 z m -2.82932,-7.311059 q -0.45174,1.02236 -0.8797,2.080383 -0.41608,1.058023 -0.86782,2.282477 h 3.50693 q -0.45174,-1.224454 -0.8797,-2.282477 -0.42797,-1.058023 -0.87971,-2.080383 z"
         style="font-style:normal;font-variant:normal;font-weight:300;font-stretch:normal;font-size:11.8879px;font-family:Ubuntu;-inkscape-font-specification:'Ubuntu, Light';font-variant-ligatures:normal;font-variant-caps:normal;font-variant-numeric:normal;font-variant-east-asian:normal;fill:#1a1a1a;fill-opacity:1;stroke-width:0.2972"
         id="path962" />
      <path
         d="m 214.16907,97.733471 q -0.3923,-0.01189 -0.68949,-0.106991 -0.28531,-0.08321 -0.48741,-0.261534 -0.1902,-0.190206 -0.2972,-0.475516 -0.0951,-0.297197 -0.0951,-0.73705 v -7.608256 l 0.77271,-0.142655 v 7.727136 q 0,0.285309 0.0476,0.463628 0.0594,0.16643 0.16643,0.273421 0.10699,0.0951 0.27342,0.142655 0.17832,0.04755 0.41607,0.08322 z"
         style="font-style:normal;font-variant:normal;font-weight:300;font-stretch:normal;font-size:11.8879px;font-family:Ubuntu;-inkscape-font-specification:'Ubuntu, Light';font-variant-ligatures:normal;font-variant-caps:normal;font-variant-numeric:normal;font-variant-east-asian:normal;fill:#1a1a1a;fill-opacity:1;stroke-width:0.2972"
         id="path964" />
      <path
         d="m 219.64939,96.913206 q -0.0713,0.05944 -0.21399,0.142655 -0.14265,0.07133 -0.35663,0.154543 -0.2021,0.08322 -0.47552,0.142654 -0.26153,0.04755 -0.59439,0.04755 -0.53496,0 -1.03425,-0.166431 -0.49929,-0.16643 -0.87971,-0.523067 -0.36852,-0.356637 -0.59439,-0.915369 -0.22587,-0.570619 -0.22587,-1.378996 0,-0.653835 0.20209,-1.212566 0.2021,-0.558731 0.57062,-0.96292 0.38041,-0.416076 0.91537,-0.641946 0.54684,-0.237758 1.22445,-0.237758 0.85593,0 1.36711,0.118879 0.52307,0.106991 0.85593,0.213982 v 5.611089 q 0,1.378996 -0.71327,1.961503 -0.71328,0.594395 -2.15171,0.594395 -0.5944,0 -1.0818,-0.0951 -0.47552,-0.08321 -0.82027,-0.202094 l 0.15455,-0.701386 q 0.28531,0.130767 0.77271,0.22587 0.49929,0.0951 0.99858,0.0951 1.09369,0 1.58109,-0.427964 0.4993,-0.416077 0.4993,-1.438436 z m -0.0119,-4.683833 q -0.2021,-0.05944 -0.52307,-0.106991 -0.32097,-0.05944 -0.91537,-0.05944 -0.49929,0 -0.89159,0.178318 -0.38041,0.166431 -0.65384,0.487404 -0.27342,0.309086 -0.41607,0.748938 -0.14266,0.427964 -0.14266,0.951032 0,0.606283 0.16643,1.046135 0.16643,0.427965 0.42797,0.701386 0.27342,0.273422 0.61817,0.404189 0.34475,0.118879 0.70139,0.118879 0.52306,0 0.95103,-0.154543 0.43985,-0.154543 0.67761,-0.356637 z"
         style="font-style:normal;font-variant:normal;font-weight:300;font-stretch:normal;font-size:11.8879px;font-family:Ubuntu;-inkscape-font-specification:'Ubuntu, Light';font-variant-ligatures:normal;font-variant-caps:normal;font-variant-numeric:normal;font-variant-east-asian:normal;fill:#1a1a1a;fill-opacity:1;stroke-width:0.2972"
         id="path966" />
      <path
         d="m 227.69749,94.559402 q 0,0.725162 -0.21398,1.319557 -0.20209,0.594395 -0.58251,1.010471 -0.36852,0.416077 -0.8797,0.653835 -0.51118,0.22587 -1.12935,0.22587 -0.61817,0 -1.12935,-0.22587 -0.51118,-0.237758 -0.89159,-0.653835 -0.36853,-0.416076 -0.58251,-1.010471 -0.2021,-0.594395 -0.2021,-1.319557 0,-0.725162 0.2021,-1.319557 0.21398,-0.594395 0.58251,-1.010472 0.38041,-0.427964 0.89159,-0.653834 0.51118,-0.237758 1.12935,-0.237758 0.61817,0 1.12935,0.237758 0.51118,0.22587 0.8797,0.653834 0.38042,0.416077 0.58251,1.010472 0.21398,0.594395 0.21398,1.319557 z m -0.82026,0 q 0,-1.153127 -0.53496,-1.830737 -0.53495,-0.689498 -1.45032,-0.689498 -0.91537,0 -1.45033,0.689498 -0.53495,0.67761 -0.53495,1.830737 0,1.153126 0.53495,1.830736 0.53496,0.677611 1.45033,0.677611 0.91537,0 1.45032,-0.677611 0.53496,-0.67761 0.53496,-1.830736 z"
         style="font-style:normal;font-variant:normal;font-weight:300;font-stretch:normal;font-size:11.8879px;font-family:Ubuntu;-inkscape-font-specification:'Ubuntu, Light';font-variant-ligatures:normal;font-variant-caps:normal;font-variant-numeric:normal;font-variant-east-asian:normal;fill:#1a1a1a;fill-opacity:1;stroke-width:0.2972"
         id="path968" />
      <path
         d="m 231.46594,91.361557 q 0.38042,0 0.71328,0.05944 0.34475,0.05944 0.47551,0.118879 l -0.15454,0.665723 q -0.0951,-0.04755 -0.3923,-0.0951 -0.28531,-0.05944 -0.76082,-0.05944 -0.4993,0 -0.80838,0.07133 -0.2972,0.07133 -0.3923,0.118879 v 5.385219 h -0.77272 v -5.860735 q 0.2972,-0.130767 0.82027,-0.261534 0.52307,-0.142654 1.272,-0.142654 z"
         style="font-style:normal;font-variant:normal;font-weight:300;font-stretch:normal;font-size:11.8879px;font-family:Ubuntu;-inkscape-font-specification:'Ubuntu, Light';font-variant-ligatures:normal;font-variant-caps:normal;font-variant-numeric:normal;font-variant-east-asian:normal;fill:#1a1a1a;fill-opacity:1;stroke-width:0.2972"
         id="path970" />
      <path
         d="m 234.59245,97.62648 h -0.77272 v -6.146044 h 0.77272 z m 0.17831,-8.000557 q 0,0.273422 -0.16643,0.439852 -0.16643,0.154543 -0.40418,0.154543 -0.23776,0 -0.40419,-0.154543 -0.16643,-0.16643 -0.16643,-0.439852 0,-0.273422 0.16643,-0.427964 0.16643,-0.166431 0.40419,-0.166431 0.23775,0 0.40418,0.166431 0.16643,0.154542 0.16643,0.427964 z"
         style="font-style:normal;font-variant:normal;font-weight:300;font-stretch:normal;font-size:11.8879px;font-family:Ubuntu;-inkscape-font-specification:'Ubuntu, Light';font-variant-ligatures:normal;font-variant-caps:normal;font-variant-numeric:normal;font-variant-east-asian:normal;fill:#1a1a1a;fill-opacity:1;stroke-width:0.2972"
         id="path972" />
      <path
         d="m 237.36232,91.480436 h 2.44891 v 0.653834 h -2.44891 v 3.269173 q 0,0.523067 0.0832,0.855929 0.0951,0.320973 0.26153,0.499291 0.16643,0.178319 0.40419,0.237758 0.23776,0.05944 0.52307,0.05944 0.4874,0 0.7846,-0.106991 0.2972,-0.118879 0.46363,-0.213982 l 0.1902,0.641946 q -0.16643,0.106991 -0.5825,0.249646 -0.41608,0.130767 -0.90349,0.130767 -0.57061,0 -0.96292,-0.142655 -0.38041,-0.154543 -0.61817,-0.45174 -0.22587,-0.309085 -0.32097,-0.760826 -0.0951,-0.45174 -0.0951,-1.069911 v -5.65864 l 0.77271,-0.142655 z"
         style="font-style:normal;font-variant:normal;font-weight:300;font-stretch:normal;font-size:11.8879px;font-family:Ubuntu;-inkscape-font-specification:'Ubuntu, Light';font-variant-ligatures:normal;font-variant-caps:normal;font-variant-numeric:normal;font-variant-east-asian:normal;fill:#1a1a1a;fill-opacity:1;stroke-width:0.2972"
         id="path974" />
      <path
         d="m 241.23777,97.62648 v -9.082356 l 0.77271,-0.142655 v 3.257285 q 0.38041,-0.142655 0.77271,-0.213982 0.39231,-0.08321 0.78461,-0.08321 0.71327,0 1.18879,0.202094 0.47551,0.202094 0.76082,0.582507 0.28531,0.368525 0.3923,0.891593 0.11888,0.523067 0.11888,1.153126 v 3.435603 h -0.77271 v -3.185957 q 0,-0.653835 -0.0951,-1.105575 -0.0832,-0.45174 -0.29719,-0.73705 -0.2021,-0.285309 -0.54685,-0.404188 -0.34475,-0.130767 -0.86781,-0.130767 -0.2021,0 -0.43986,0.03566 -0.22587,0.03566 -0.42796,0.08322 -0.20209,0.03566 -0.36852,0.08322 -0.15455,0.04755 -0.2021,0.07133 v 5.290116 z"
         style="font-style:normal;font-variant:normal;font-weight:300;font-stretch:normal;font-size:11.8879px;font-family:Ubuntu;-inkscape-font-specification:'Ubuntu, Light';font-variant-ligatures:normal;font-variant-caps:normal;font-variant-numeric:normal;font-variant-east-asian:normal;fill:#1a1a1a;fill-opacity:1;stroke-width:0.2972"
         id="path976" />
      <path
         d="m 248.00196,91.694418 q 0.34475,-0.0951 0.89159,-0.213982 0.55874,-0.118879 1.43844,-0.118879 1.16501,0 1.68808,0.67761 0.0594,-0.04755 0.22587,-0.154543 0.17832,-0.118879 0.43985,-0.237758 0.26154,-0.118879 0.60629,-0.202094 0.35663,-0.08321 0.7846,-0.08321 0.70139,0 1.12935,0.213982 0.43985,0.202094 0.67761,0.582507 0.23776,0.368525 0.32097,0.891592 0.0832,0.523068 0.0832,1.141239 v 3.435603 h -0.77271 v -3.185957 q 0,-0.606283 -0.0594,-1.046135 -0.0476,-0.451741 -0.21399,-0.73705 -0.15454,-0.297198 -0.45174,-0.439853 -0.29719,-0.154542 -0.77271,-0.154542 -0.35664,0 -0.65383,0.07133 -0.28531,0.05944 -0.4993,0.154543 -0.21398,0.0951 -0.35663,0.190206 -0.13077,0.0951 -0.19021,0.142655 0.10699,0.309085 0.15454,0.701386 0.0594,0.380413 0.0594,0.808377 v 3.495043 h -0.77271 v -3.185957 q 0,-0.606283 -0.0594,-1.046135 -0.0476,-0.451741 -0.21398,-0.73705 -0.16643,-0.297198 -0.47552,-0.439853 -0.2972,-0.154542 -0.79649,-0.154542 -0.55873,0 -0.95103,0.05944 -0.38041,0.05944 -0.4874,0.106991 v 5.397107 h -0.77272 z"
         style="font-style:normal;font-variant:normal;font-weight:300;font-stretch:normal;font-size:11.8879px;font-family:Ubuntu;-inkscape-font-specification:'Ubuntu, Light';font-variant-ligatures:normal;font-variant-caps:normal;font-variant-numeric:normal;font-variant-east-asian:normal;fill:#1a1a1a;fill-opacity:1;stroke-width:0.2972"
         id="path978" />
    </g>
    <g
       aria-label="Data"
       transform="rotate(18.903138)"
       id="text937"
       style="font-style:normal;font-variant:normal;font-weight:300;font-stretch:normal;font-size:13.6281px;line-height:1.25;font-family:Ubuntu;-inkscape-font-specification:'Ubuntu, Light';font-variant-ligatures:normal;font-variant-caps:normal;font-variant-numeric:normal;font-variant-east-asian:normal;letter-spacing:0px;word-spacing:0px;fill:#1a1a1a;fill-opacity:1;stroke:none;stroke-width:0.340703">
      <path
         d="m 228.00905,64.007316 q 0,1.226529 -0.38159,2.139612 -0.38159,0.899455 -1.07662,1.499091 -0.69503,0.586008 -1.66263,0.885827 -0.96759,0.28619 -2.12598,0.28619 -0.57238,0 -1.26741,-0.05451 -0.68141,-0.04088 -1.24016,-0.177165 v -9.158083 q 0.55875,-0.136281 1.24016,-0.177166 0.69503,-0.05451 1.26741,-0.05451 1.15839,0 2.12598,0.299818 0.9676,0.28619 1.66263,0.885827 0.69503,0.586008 1.07662,1.499091 0.38159,0.899454 0.38159,2.125983 z m -5.1378,3.652331 q 1.88068,0 2.80739,-0.953967 0.92671,-0.967595 0.92671,-2.698364 0,-1.730768 -0.92671,-2.684736 -0.92671,-0.967595 -2.80739,-0.967595 -0.55875,0 -0.87219,0.01363 -0.29982,0.01363 -0.42248,0.02726 v 7.222893 q 0.12266,0.01363 0.42248,0.02726 0.31344,0.01363 0.87219,0.01363 z"
         style="font-style:normal;font-variant:normal;font-weight:normal;font-stretch:normal;font-size:13.6281px;font-family:Ubuntu;-inkscape-font-specification:'Ubuntu, Normal';font-variant-ligatures:normal;font-variant-caps:normal;font-variant-numeric:normal;font-variant-east-asian:normal;fill:#1a1a1a;fill-opacity:1;stroke-width:0.340703"
         id="path982" />
      <path
         d="m 232.09744,67.823184 q 0.44973,0 0.79043,-0.01363 0.35433,-0.02726 0.58601,-0.08177 v -2.112356 q -0.13628,-0.06814 -0.44973,-0.109025 -0.29981,-0.05451 -0.73591,-0.05451 -0.28619,0 -0.61327,0.04088 -0.31344,0.04088 -0.58601,0.177166 -0.25893,0.122652 -0.4361,0.35433 -0.17716,0.21805 -0.17716,0.586008 0,0.681405 0.4361,0.953967 0.4361,0.258934 1.18564,0.258934 z m -0.10902,-6.350694 q 0.76317,0 1.28104,0.204421 0.5315,0.190793 0.84494,0.558752 0.32708,0.354331 0.46336,0.858571 0.13628,0.490611 0.13628,1.090248 v 4.429132 q -0.16354,0.02726 -0.46336,0.08177 -0.28619,0.04088 -0.65415,0.08177 -0.36795,0.04089 -0.80405,0.06814 -0.42248,0.04088 -0.84495,0.04088 -0.59963,0 -1.10387,-0.122653 -0.50424,-0.122653 -0.8722,-0.381587 -0.36796,-0.272562 -0.57238,-0.708661 -0.20442,-0.436099 -0.20442,-1.049363 0,-0.586009 0.23168,-1.00848 0.2453,-0.422471 0.65414,-0.681405 0.40885,-0.258934 0.95397,-0.381587 0.54513,-0.122653 1.14476,-0.122653 0.19079,0 0.39522,0.02726 0.20442,0.01363 0.38158,0.05451 0.1908,0.02726 0.32708,0.05451 0.13628,0.02726 0.19079,0.04089 v -0.354331 q 0,-0.313446 -0.0681,-0.613264 -0.0681,-0.313447 -0.24531,-0.545124 -0.17716,-0.245306 -0.49061,-0.381587 -0.29982,-0.149909 -0.79043,-0.149909 -0.62689,0 -1.10387,0.0954 -0.46336,0.08177 -0.69504,0.177166 l -0.14991,-1.049364 q 0.24531,-0.109025 0.81769,-0.204422 0.57238,-0.109024 1.24016,-0.109024 z"
         style="font-style:normal;font-variant:normal;font-weight:normal;font-stretch:normal;font-size:13.6281px;font-family:Ubuntu;-inkscape-font-specification:'Ubuntu, Normal';font-variant-ligatures:normal;font-variant-caps:normal;font-variant-numeric:normal;font-variant-east-asian:normal;fill:#1a1a1a;fill-opacity:1;stroke-width:0.340703"
         id="path984" />
      <path
         d="m 237.9984,61.649655 h 2.68474 v 1.062992 h -2.68474 v 3.270744 q 0,0.531496 0.0818,0.885826 0.0818,0.340703 0.24531,0.545124 0.16353,0.190794 0.40884,0.272562 0.24531,0.08177 0.57238,0.08177 0.57238,0 0.91308,-0.122653 0.35433,-0.136281 0.49061,-0.190793 l 0.24531,1.049363 q -0.19079,0.0954 -0.66778,0.231678 -0.47698,0.149909 -1.09025,0.149909 -0.72228,0 -1.19927,-0.177165 -0.46335,-0.190794 -0.74954,-0.558752 -0.28619,-0.367959 -0.40885,-0.899455 -0.10902,-0.545124 -0.10902,-1.253785 V 59.67358 l 1.26741,-0.218049 z"
         style="font-style:normal;font-variant:normal;font-weight:normal;font-stretch:normal;font-size:13.6281px;font-family:Ubuntu;-inkscape-font-specification:'Ubuntu, Normal';font-variant-ligatures:normal;font-variant-caps:normal;font-variant-numeric:normal;font-variant-east-asian:normal;fill:#1a1a1a;fill-opacity:1;stroke-width:0.340703"
         id="path986" />
      <path
         d="m 244.68978,67.823184 q 0.44973,0 0.79043,-0.01363 0.35433,-0.02726 0.58601,-0.08177 v -2.112356 q -0.13628,-0.06814 -0.44973,-0.109025 -0.29982,-0.05451 -0.73592,-0.05451 -0.28619,0 -0.61326,0.04088 -0.31345,0.04088 -0.58601,0.177166 -0.25893,0.122652 -0.4361,0.35433 -0.17717,0.21805 -0.17717,0.586008 0,0.681405 0.4361,0.953967 0.4361,0.258934 1.18565,0.258934 z m -0.10903,-6.350694 q 0.76318,0 1.28105,0.204421 0.53149,0.190793 0.84494,0.558752 0.32707,0.354331 0.46335,0.858571 0.13628,0.490611 0.13628,1.090248 v 4.429132 q -0.16353,0.02726 -0.46335,0.08177 -0.28619,0.04088 -0.65415,0.08177 -0.36796,0.04089 -0.80406,0.06814 -0.42247,0.04088 -0.84494,0.04088 -0.59964,0 -1.10388,-0.122653 -0.50424,-0.122653 -0.8722,-0.381587 -0.36795,-0.272562 -0.57238,-0.708661 -0.20442,-0.436099 -0.20442,-1.049363 0,-0.586009 0.23168,-1.00848 0.24531,-0.422471 0.65415,-0.681405 0.40884,-0.258934 0.95397,-0.381587 0.54512,-0.122653 1.14476,-0.122653 0.19079,0 0.39521,0.02726 0.20442,0.01363 0.38159,0.05451 0.19079,0.02726 0.32707,0.05451 0.13628,0.02726 0.1908,0.04089 v -0.354331 q 0,-0.313446 -0.0681,-0.613264 -0.0681,-0.313447 -0.24531,-0.545124 -0.17716,-0.245306 -0.49061,-0.381587 -0.29982,-0.149909 -0.79043,-0.149909 -0.62689,0 -1.10388,0.0954 -0.46335,0.08177 -0.69503,0.177166 l -0.14991,-1.049364 q 0.24531,-0.109025 0.81769,-0.204422 0.57238,-0.109024 1.24015,-0.109024 z"
         style="font-style:normal;font-variant:normal;font-weight:normal;font-stretch:normal;font-size:13.6281px;font-family:Ubuntu;-inkscape-font-specification:'Ubuntu, Normal';font-variant-ligatures:normal;font-variant-caps:normal;font-variant-numeric:normal;font-variant-east-asian:normal;fill:#1a1a1a;fill-opacity:1;stroke-width:0.340703"
         id="path988" />
    </g>
    <g
       aria-label="UI / UX"
       transform="rotate(7.8552507)"
       id="text941"
       style="font-style:normal;font-variant:normal;font-weight:300;font-stretch:normal;font-size:11.9306px;line-height:1.25;font-family:Ubuntu;-inkscape-font-specification:'Ubuntu, Light';font-variant-ligatures:normal;font-variant-caps:normal;font-variant-numeric:normal;font-variant-east-asian:normal;letter-spacing:0px;word-spacing:0px;fill:#1a1a1a;fill-opacity:1;stroke:none;stroke-width:0.298269">
      <path
         d="m 79.391243,143.20102 q -0.823211,0 -1.407811,-0.25054 -0.572669,-0.25054 -0.930587,-0.69197 -0.357918,-0.44144 -0.524946,-1.02604 -0.155098,-0.59653 -0.155098,-1.27657 v -5.20174 h 0.811281 v 5.09436 q 0,0.68005 0.155098,1.18113 0.167028,0.48916 0.453363,0.81128 0.286334,0.32213 0.691974,0.47723 0.405641,0.1551 0.906726,0.1551 0.501085,0 0.906726,-0.1551 0.40564,-0.1551 0.691974,-0.47723 0.286335,-0.32212 0.441433,-0.81128 0.167028,-0.50108 0.167028,-1.18113 v -5.09436 h 0.811281 v 5.20174 q 0,0.68004 -0.167029,1.27657 -0.155097,0.5846 -0.513015,1.02604 -0.357918,0.44143 -0.942518,0.69197 -0.572669,0.25054 -1.39588,0.25054 z"
         style="font-style:normal;font-variant:normal;font-weight:300;font-stretch:normal;font-size:11.9306px;font-family:Ubuntu;-inkscape-font-specification:'Ubuntu, Light';font-variant-ligatures:normal;font-variant-caps:normal;font-variant-numeric:normal;font-variant-east-asian:normal;fill:#1a1a1a;fill-opacity:1;stroke-width:0.298269"
         id="path932" />
      <path
         d="m 84.521382,134.75416 h 0.811281 v 8.2679 h -0.811281 z"
         style="font-style:normal;font-variant:normal;font-weight:300;font-stretch:normal;font-size:11.9306px;font-family:Ubuntu;-inkscape-font-specification:'Ubuntu, Light';font-variant-ligatures:normal;font-variant-caps:normal;font-variant-numeric:normal;font-variant-east-asian:normal;fill:#1a1a1a;fill-opacity:1;stroke-width:0.298269"
         id="path934" />
      <path
         d="m 89.639585,145.22923 h -0.78742 L 92.9205,133.6804 h 0.763558 z"
         style="font-style:normal;font-variant:normal;font-weight:300;font-stretch:normal;font-size:11.9306px;font-family:Ubuntu;-inkscape-font-specification:'Ubuntu, Light';font-variant-ligatures:normal;font-variant-caps:normal;font-variant-numeric:normal;font-variant-east-asian:normal;fill:#1a1a1a;fill-opacity:1;stroke-width:0.298269"
         id="path936" />
      <path
         d="m 100.18621,143.20102 q -0.823211,0 -1.40781,-0.25054 -0.572669,-0.25054 -0.930587,-0.69197 -0.357918,-0.44144 -0.524946,-1.02604 -0.155098,-0.59653 -0.155098,-1.27657 v -5.20174 h 0.811281 v 5.09436 q 0,0.68005 0.155097,1.18113 0.167029,0.48916 0.453363,0.81128 0.286335,0.32213 0.691975,0.47723 0.40564,0.1551 0.906725,0.1551 0.50109,0 0.90673,-0.1551 0.40564,-0.1551 0.69197,-0.47723 0.28634,-0.32212 0.44143,-0.81128 0.16703,-0.50108 0.16703,-1.18113 v -5.09436 h 0.81128 v 5.20174 q 0,0.68004 -0.16703,1.27657 -0.15509,0.5846 -0.51301,1.02604 -0.35792,0.44143 -0.94252,0.69197 -0.57267,0.25054 -1.39588,0.25054 z"
         style="font-style:normal;font-variant:normal;font-weight:300;font-stretch:normal;font-size:11.9306px;font-family:Ubuntu;-inkscape-font-specification:'Ubuntu, Light';font-variant-ligatures:normal;font-variant-caps:normal;font-variant-numeric:normal;font-variant-east-asian:normal;fill:#1a1a1a;fill-opacity:1;stroke-width:0.298269"
         id="path938" />
      <path
         d="m 110.08859,134.75416 h 0.90673 l -2.66053,3.87744 q 0.77549,1.09762 1.51519,2.20716 0.73969,1.09762 1.2885,2.1833 h -0.88286 q -0.17896,-0.35791 -0.4653,-0.82321 -0.2744,-0.46529 -0.60846,-0.97831 -0.32212,-0.51301 -0.68004,-1.02603 -0.34599,-0.51301 -0.66811,-0.96638 -0.32213,0.45337 -0.68005,0.96638 -0.34599,0.51302 -0.68004,1.02603 -0.32213,0.51302 -0.60846,0.97831 -0.27441,0.4653 -0.45337,0.82321 h -0.84707 q 0.54881,-1.08568 1.28851,-2.1833 0.73969,-1.09761 1.50325,-2.1833 l -2.66052,-3.9013 h 0.93059 l 2.23102,3.32864 z"
         style="font-style:normal;font-variant:normal;font-weight:300;font-stretch:normal;font-size:11.9306px;font-family:Ubuntu;-inkscape-font-specification:'Ubuntu, Light';font-variant-ligatures:normal;font-variant-caps:normal;font-variant-numeric:normal;font-variant-east-asian:normal;fill:#1a1a1a;fill-opacity:1;stroke-width:0.298269"
         id="path940" />
    </g>
    <g
       aria-label="Users"
       transform="rotate(16.545629)"
       id="text945"
       style="font-style:normal;font-variant:normal;font-weight:300;font-stretch:normal;font-size:15.9005px;line-height:1.25;font-family:Ubuntu;-inkscape-font-specification:'Ubuntu, Light';font-variant-ligatures:normal;font-variant-caps:normal;font-variant-numeric:normal;font-variant-east-asian:normal;letter-spacing:0px;word-spacing:0px;fill:#1a1a1a;fill-opacity:1;stroke:none;stroke-width:0.397514">
      <path
         d="m 76.45242,-0.27851373 q -1.128935,0 -1.939861,-0.31801001 -0.810925,-0.33391051 -1.351542,-0.92222906 -0.524717,-0.5883185 -0.779125,-1.3833435 -0.254408,-0.795025 -0.254408,-1.749055 v -6.8849167 h 2.019364 v 6.6941107 q 0,0.7473235 0.159005,1.2879405 0.174905,0.5247165 0.477015,0.858627 0.31801,0.3339105 0.731423,0.4929155 0.429313,0.159005 0.95403,0.159005 0.524716,0 0.95403,-0.159005 0.429313,-0.159005 0.731423,-0.4929155 0.31801,-0.3339105 0.477015,-0.858627 0.174905,-0.540617 0.174905,-1.2879405 v -6.6941107 h 2.019364 v 6.8849167 q 0,0.95403 -0.270309,1.749055 -0.254408,0.795025 -0.795025,1.3833435 -0.524716,0.58831855 -1.351542,0.92222906 -0.826826,0.31801001 -1.955762,0.31801001 z"
         style="font-style:normal;font-variant:normal;font-weight:500;font-stretch:normal;font-size:15.9005px;font-family:Ubuntu;-inkscape-font-specification:'Ubuntu, Medium';font-variant-ligatures:normal;font-variant-caps:normal;font-variant-numeric:normal;font-variant-east-asian:normal;fill:#1a1a1a;fill-opacity:1;stroke-width:0.397514"
         id="path893" />
      <path
         d="m 85.372587,-1.9003648 q 0.763224,0 1.113035,-0.1749055 0.349811,-0.190806 0.349811,-0.63602 0,-0.413413 -0.381612,-0.6837215 -0.365712,-0.2703085 -1.224339,-0.5883185 -0.524716,-0.190806 -0.96993,-0.3975125 -0.429314,-0.222607 -0.747324,-0.508816 -0.31801,-0.286209 -0.508816,-0.6837215 -0.174905,-0.413413 -0.174905,-1.0017316 0,-1.144836 0.842726,-1.7967565 0.842727,-0.667821 2.289672,-0.667821 0.731423,0 1.399244,0.1431045 0.667821,0.127204 1.001732,0.254408 l -0.349811,1.558249 q -0.31801,-0.1431045 -0.810926,-0.254408 -0.492915,-0.127204 -1.144836,-0.127204 -0.588318,0 -0.95403,0.2067065 -0.365711,0.190806 -0.365711,0.604219 0,0.2067066 0.0636,0.3657116 0.0795,0.159005 0.254408,0.3021095 0.174905,0.127204 0.461114,0.2703085 0.286209,0.127204 0.699622,0.2703085 0.683722,0.254408 1.160737,0.508816 0.477015,0.2385075 0.779124,0.5565175 0.31801,0.3021095 0.461115,0.699622 0.143104,0.3975125 0.143104,0.95403 0,1.1925375 -0.890428,1.81265705 -0.874527,0.60421902 -2.512279,0.60421902 -1.097134,0 -1.764955,-0.19080601 -0.667821,-0.1749055 -0.93813,-0.286209 l 0.333911,-1.60595056 q 0.429313,0.1749055 1.017632,0.3339105 0.604219,0.159005 1.367443,0.159005 z"
         style="font-style:normal;font-variant:normal;font-weight:500;font-stretch:normal;font-size:15.9005px;font-family:Ubuntu;-inkscape-font-specification:'Ubuntu, Medium';font-variant-ligatures:normal;font-variant-caps:normal;font-variant-numeric:normal;font-variant-east-asian:normal;fill:#1a1a1a;fill-opacity:1;stroke-width:0.397514"
         id="path895" />
      <path
         d="m 90.095017,-4.6352508 q 0,-1.0971345 0.31801,-1.9239606 0.33391,-0.826826 0.874527,-1.367443 0.540617,-0.5565175 1.240239,-0.826826 0.699622,-0.286209 1.431045,-0.286209 1.717254,0 2.671284,1.0653335 0.969931,1.0653335 0.969931,3.1801001 0,0.159005 -0.0159,0.3657115 0,0.190806 -0.0159,0.349811 h -5.485673 q 0.0795,1.0017315 0.699622,1.558249 0.63602,0.540617 1.828558,0.540617 0.699622,0 1.27204,-0.127204 0.588318,-0.127204 0.922229,-0.2703085 l 0.254408,1.57414956 q -0.159005,0.0795025 -0.445214,0.1749055 -0.270309,0.0795025 -0.63602,0.1431045 -0.349811,0.0795025 -0.763224,0.127204 -0.413413,0.0477015 -0.842727,0.0477015 -1.097134,0 -1.90806,-0.31801001 -0.810925,-0.33391051 -1.335642,-0.90632856 -0.524716,-0.5883185 -0.779124,-1.367443 -0.254408,-0.795025 -0.254408,-1.7331545 z m 5.581075,-0.858627 q 0,-0.3975125 -0.111303,-0.7473235 -0.111304,-0.3657116 -0.333911,-0.6201196 -0.206706,-0.2703085 -0.524716,-0.413413 -0.30211,-0.159005 -0.731423,-0.159005 -0.445214,0 -0.779125,0.1749055 -0.33391,0.159005 -0.572418,0.4293135 -0.222607,0.2703085 -0.349811,0.6201196 -0.127204,0.349811 -0.174905,0.7155225 z"
         style="font-style:normal;font-variant:normal;font-weight:500;font-stretch:normal;font-size:15.9005px;font-family:Ubuntu;-inkscape-font-specification:'Ubuntu, Medium';font-variant-ligatures:normal;font-variant-caps:normal;font-variant-numeric:normal;font-variant-east-asian:normal;fill:#1a1a1a;fill-opacity:1;stroke-width:0.397514"
         id="path897" />
      <path
         d="m 104.37365,-7.0998284 q -0.2385,-0.079503 -0.66782,-0.159005 -0.41341,-0.095403 -0.96993,-0.095403 -0.31801,0 -0.68372,0.063602 -0.34981,0.063602 -0.49292,0.1113035 v 6.66230966 H 99.635303 V -8.4354704 q 0.556517,-0.2067065 1.383347,-0.381612 0.84272,-0.190806 1.86036,-0.190806 0.1908,0 0.44521,0.031801 0.25441,0.015901 0.50882,0.063602 0.2544,0.031801 0.49291,0.095403 0.23851,0.047702 0.38161,0.095403 z"
         style="font-style:normal;font-variant:normal;font-weight:500;font-stretch:normal;font-size:15.9005px;font-family:Ubuntu;-inkscape-font-specification:'Ubuntu, Medium';font-variant-ligatures:normal;font-variant-caps:normal;font-variant-numeric:normal;font-variant-east-asian:normal;fill:#1a1a1a;fill-opacity:1;stroke-width:0.397514"
         id="path899" />
      <path
         d="m 108.12617,-1.9003648 q 0.76322,0 1.11303,-0.1749055 0.34981,-0.190806 0.34981,-0.63602 0,-0.413413 -0.38161,-0.6837215 -0.36571,-0.2703085 -1.22434,-0.5883185 -0.52471,-0.190806 -0.96993,-0.3975125 -0.42931,-0.222607 -0.74732,-0.508816 -0.31801,-0.286209 -0.50882,-0.6837215 -0.1749,-0.413413 -0.1749,-1.0017316 0,-1.144836 0.84272,-1.7967565 0.84273,-0.667821 2.28968,-0.667821 0.73142,0 1.39924,0.1431045 0.66782,0.127204 1.00173,0.254408 l -0.34981,1.558249 q -0.31801,-0.1431045 -0.81093,-0.254408 -0.49291,-0.127204 -1.14483,-0.127204 -0.58832,0 -0.95403,0.2067065 -0.36571,0.190806 -0.36571,0.604219 0,0.2067066 0.0636,0.3657116 0.0795,0.159005 0.25441,0.3021095 0.1749,0.127204 0.46111,0.2703085 0.28621,0.127204 0.69962,0.2703085 0.68373,0.254408 1.16074,0.508816 0.47702,0.2385075 0.77912,0.5565175 0.31801,0.3021095 0.46112,0.699622 0.1431,0.3975125 0.1431,0.95403 0,1.1925375 -0.89042,1.81265705 -0.87453,0.60421902 -2.51228,0.60421902 -1.09714,0 -1.76496,-0.19080601 -0.66782,-0.1749055 -0.93813,-0.286209 l 0.33391,-1.60595056 q 0.42932,0.1749055 1.01763,0.3339105 0.60422,0.159005 1.36745,0.159005 z"
         style="font-style:normal;font-variant:normal;font-weight:500;font-stretch:normal;font-size:15.9005px;font-family:Ubuntu;-inkscape-font-specification:'Ubuntu, Medium';font-variant-ligatures:normal;font-variant-caps:normal;font-variant-numeric:normal;font-variant-east-asian:normal;fill:#1a1a1a;fill-opacity:1;stroke-width:0.397514"
         id="path901" />
    </g>
    <g
       aria-label="AI"
       transform="rotate(-13.279486)"
       id="text949"
       style="font-style:normal;font-variant:normal;font-weight:300;font-stretch:normal;font-size:15.1108px;line-height:1.25;font-family:Ubuntu;-inkscape-font-specification:'Ubuntu, Light';font-variant-ligatures:normal;font-variant-caps:normal;font-variant-numeric:normal;font-variant-east-asian:normal;letter-spacing:0px;word-spacing:0px;fill:#1a1a1a;fill-opacity:1;stroke:none;stroke-width:0.37777">
      <path
         d="m 15.078956,124.19878 q -0.166219,-0.54399 -0.37777,-1.1182 -0.19644,-0.57421 -0.392881,-1.14842 H 10.22839 q -0.196441,0.57421 -0.407992,1.14842 -0.1964404,0.57421 -0.3626592,1.1182 H 7.0097892 q 0.5893212,-1.69241 1.1181992,-3.12794 0.528878,-1.43553 1.0275344,-2.70483 0.5137672,-1.26931 0.9973132,-2.40262 0.498656,-1.14842 1.027534,-2.2364 h 2.251509 q 0.513767,1.08798 1.012424,2.2364 0.498656,1.13331 0.997312,2.40262 0.513768,1.2693 1.042646,2.70483 0.528878,1.43553 1.118199,3.12794 z m -2.825719,-8.09939 q -0.07555,0.22666 -0.226662,0.61954 -0.151108,0.39288 -0.347549,0.90665 -0.19644,0.51377 -0.438213,1.13331 -0.226662,0.61954 -0.468435,1.29953 h 2.976828 q -0.241773,-0.67999 -0.468435,-1.29953 -0.226662,-0.61954 -0.438213,-1.13331 -0.19644,-0.51377 -0.347548,-0.90665 -0.151108,-0.39288 -0.241773,-0.61954 z"
         style="font-style:normal;font-variant:normal;font-weight:bold;font-stretch:normal;font-size:15.1108px;font-family:Ubuntu;-inkscape-font-specification:'Ubuntu, Bold';font-variant-ligatures:normal;font-variant-caps:normal;font-variant-numeric:normal;font-variant-east-asian:normal;fill:#1a1a1a;fill-opacity:1;stroke-width:0.37777"
         id="path927" />
      <path
         d="m 18.962413,113.72699 h 2.357285 v 10.47179 h -2.357285 z"
         style="font-style:normal;font-variant:normal;font-weight:bold;font-stretch:normal;font-size:15.1108px;font-family:Ubuntu;-inkscape-font-specification:'Ubuntu, Bold';font-variant-ligatures:normal;font-variant-caps:normal;font-variant-numeric:normal;font-variant-east-asian:normal;fill:#1a1a1a;fill-opacity:1;stroke-width:0.37777"
         id="path929" />
    </g>
    <g
       id="g959"
       transform="matrix(1.0012406,1.0602964,-1.0600239,1.1260771,124.15307,43.881893)"
       style="fill:#5a1d69;fill-opacity:1">
      <path
         sodipodi:type="star"
         style="opacity:1;fill:#5a1d69;fill-opacity:1;stroke:#999999;stroke-width:0.264999;stroke-linecap:round;stroke-miterlimit:4;stroke-dasharray:0.264999, 0.53;stroke-dashoffset:0;stroke-opacity:1;paint-order:stroke fill markers"
         id="path953"
         sodipodi:sides="3"
         sodipodi:cx="24.119587"
         sodipodi:cy="59.356331"
         sodipodi:r1="13.918084"
         sodipodi:r2="6.9590421"
         sodipodi:arg1="-1.5707963"
         sodipodi:arg2="-0.52359878"
         inkscape:flatsided="true"
         inkscape:rounded="0"
         inkscape:randomized="0"
         d="m 24.119587,45.438247 12.053414,20.877126 -24.106829,0 z"
         inkscape:transform-center-y="-2.6328669"
         transform="matrix(0.03830989,0,0,0.75667485,23.046047,10.933)" />
      <path
         sodipodi:type="star"
         style="opacity:1;fill:#5a1d69;fill-opacity:1;stroke:none;stroke-width:0.264999;stroke-linecap:round;stroke-miterlimit:4;stroke-dasharray:0.264999, 0.53;stroke-dashoffset:0;stroke-opacity:1;paint-order:stroke fill markers"
         id="path955"
         sodipodi:sides="3"
         sodipodi:cx="23.970066"
         sodipodi:cy="60.921741"
         sodipodi:r1="1.9566636"
         sodipodi:r2="0.9783318"
         sodipodi:arg1="-0.52359878"
         sodipodi:arg2="0.52359878"
         inkscape:flatsided="true"
         inkscape:rounded="0"
         inkscape:randomized="0"
         d="m 25.664586,59.94341 -1.69452,2.934995 -1.69452,-2.934995 z"
         inkscape:transform-center-y="0.48916518"
         transform="matrix(0.70317547,0,0,1,7.1149035,0.00117436)" />
    </g>
    <g
       id="g965"
       transform="matrix(0.27013216,1.4330875,-1.500271,0.37534911,148.96149,49.176702)"
       style="fill:#5a1d69;fill-opacity:1">
      <path
         sodipodi:type="star"
         style="opacity:1;fill:#5a1d69;fill-opacity:1;stroke:#999999;stroke-width:0.264999;stroke-linecap:round;stroke-miterlimit:4;stroke-dasharray:0.264999, 0.53;stroke-dashoffset:0;stroke-opacity:1;paint-order:stroke fill markers"
         id="path961"
         sodipodi:sides="3"
         sodipodi:cx="24.119587"
         sodipodi:cy="59.356331"
         sodipodi:r1="13.918084"
         sodipodi:r2="6.9590421"
         sodipodi:arg1="-1.5707963"
         sodipodi:arg2="-0.52359878"
         inkscape:flatsided="true"
         inkscape:rounded="0"
         inkscape:randomized="0"
         d="m 24.119587,45.438247 12.053414,20.877126 -24.106829,0 z"
         inkscape:transform-center-y="-2.6328669"
         transform="matrix(0.03830989,0,0,0.75667485,23.046047,10.933)" />
      <path
         sodipodi:type="star"
         style="opacity:1;fill:#5a1d69;fill-opacity:1;stroke:none;stroke-width:0.264999;stroke-linecap:round;stroke-miterlimit:4;stroke-dasharray:0.264999, 0.53;stroke-dashoffset:0;stroke-opacity:1;paint-order:stroke fill markers"
         id="path963"
         sodipodi:sides="3"
         sodipodi:cx="23.970066"
         sodipodi:cy="60.921741"
         sodipodi:r1="1.9566636"
         sodipodi:r2="0.9783318"
         sodipodi:arg1="-0.52359878"
         sodipodi:arg2="0.52359878"
         inkscape:flatsided="true"
         inkscape:rounded="0"
         inkscape:randomized="0"
         d="m 25.664586,59.94341 -1.69452,2.934995 -1.69452,-2.934995 z"
         inkscape:transform-center-y="0.48916518"
         transform="matrix(0.70317547,0,0,1,7.1149035,0.00117436)" />
    </g>
    <g
       id="g971"
       transform="matrix(-0.69385725,1.4338427,-1.5237121,-0.66371387,176.12928,77.72474)"
       style="fill:#5a1d69;fill-opacity:1"
       inkscape:transform-center-x="-0.59857192"
       inkscape:transform-center-y="-5.8382473">
      <path
         sodipodi:type="star"
         style="opacity:1;fill:#5a1d69;fill-opacity:1;stroke:#999999;stroke-width:0.264999;stroke-linecap:round;stroke-miterlimit:4;stroke-dasharray:0.264999, 0.53;stroke-dashoffset:0;stroke-opacity:1;paint-order:stroke fill markers"
         id="path967"
         sodipodi:sides="3"
         sodipodi:cx="24.119587"
         sodipodi:cy="59.356331"
         sodipodi:r1="13.918084"
         sodipodi:r2="6.9590421"
         sodipodi:arg1="-1.5707963"
         sodipodi:arg2="-0.52359878"
         inkscape:flatsided="true"
         inkscape:rounded="0"
         inkscape:randomized="0"
         d="m 24.119587,45.438247 12.053414,20.877126 -24.106829,0 z"
         inkscape:transform-center-y="-2.6328669"
         transform="matrix(0.03830989,0,0,0.75667485,23.046047,10.933)" />
      <path
         sodipodi:type="star"
         style="opacity:1;fill:#5a1d69;fill-opacity:1;stroke:none;stroke-width:0.264999;stroke-linecap:round;stroke-miterlimit:4;stroke-dasharray:0.264999, 0.53;stroke-dashoffset:0;stroke-opacity:1;paint-order:stroke fill markers"
         id="path969"
         sodipodi:sides="3"
         sodipodi:cx="23.970066"
         sodipodi:cy="60.921741"
         sodipodi:r1="1.9566636"
         sodipodi:r2="0.9783318"
         sodipodi:arg1="-0.52359878"
         sodipodi:arg2="0.52359878"
         inkscape:flatsided="true"
         inkscape:rounded="0"
         inkscape:randomized="0"
         d="m 25.664586,59.94341 -1.69452,2.934995 -1.69452,-2.934995 z"
         inkscape:transform-center-y="0.48916518"
         transform="matrix(0.70317547,0,0,1,7.1149035,0.00117436)" />
    </g>
    <g
       id="g977"
       transform="matrix(1.0602964,-1.0012406,1.1260771,1.0600239,80.303411,88.712526)"
       style="fill:#5a1d69;fill-opacity:1">
      <path
         sodipodi:type="star"
         style="opacity:1;fill:#5a1d69;fill-opacity:1;stroke:#999999;stroke-width:0.264999;stroke-linecap:round;stroke-miterlimit:4;stroke-dasharray:0.264999, 0.53;stroke-dashoffset:0;stroke-opacity:1;paint-order:stroke fill markers"
         id="path973"
         sodipodi:sides="3"
         sodipodi:cx="24.119587"
         sodipodi:cy="59.356331"
         sodipodi:r1="13.918084"
         sodipodi:r2="6.9590421"
         sodipodi:arg1="-1.5707963"
         sodipodi:arg2="-0.52359878"
         inkscape:flatsided="true"
         inkscape:rounded="0"
         inkscape:randomized="0"
         d="m 24.119587,45.438247 12.053414,20.877126 -24.106829,0 z"
         inkscape:transform-center-y="-2.6328669"
         transform="matrix(0.03830989,0,0,0.75667485,23.046047,10.933)" />
      <path
         sodipodi:type="star"
         style="opacity:1;fill:#5a1d69;fill-opacity:1;stroke:none;stroke-width:0.264999;stroke-linecap:round;stroke-miterlimit:4;stroke-dasharray:0.264999, 0.53;stroke-dashoffset:0;stroke-opacity:1;paint-order:stroke fill markers"
         id="path975"
         sodipodi:sides="3"
         sodipodi:cx="23.970066"
         sodipodi:cy="60.921741"
         sodipodi:r1="1.9566636"
         sodipodi:r2="0.9783318"
         sodipodi:arg1="-0.52359878"
         sodipodi:arg2="0.52359878"
         inkscape:flatsided="true"
         inkscape:rounded="0"
         inkscape:randomized="0"
         d="m 25.664586,59.94341 -1.69452,2.934995 -1.69452,-2.934995 z"
         inkscape:transform-center-y="0.48916518"
         transform="matrix(0.70317547,0,0,1,7.1149035,0.00117436)" />
    </g>
    <g
       id="g983"
       transform="matrix(0.41762337,-1.3972481,1.5052233,0.35496905,87.171035,110.99866)"
       style="fill:#5a1d69;fill-opacity:1">
      <path
         sodipodi:type="star"
         style="opacity:1;fill:#5a1d69;fill-opacity:1;stroke:#999999;stroke-width:0.264999;stroke-linecap:round;stroke-miterlimit:4;stroke-dasharray:0.264999, 0.53;stroke-dashoffset:0;stroke-opacity:1;paint-order:stroke fill markers"
         id="path979"
         sodipodi:sides="3"
         sodipodi:cx="24.119587"
         sodipodi:cy="59.356331"
         sodipodi:r1="13.918084"
         sodipodi:r2="6.9590421"
         sodipodi:arg1="-1.5707963"
         sodipodi:arg2="-0.52359878"
         inkscape:flatsided="true"
         inkscape:rounded="0"
         inkscape:randomized="0"
         d="m 24.119587,45.438247 12.053414,20.877126 -24.106829,0 z"
         inkscape:transform-center-y="-2.6328669"
         transform="matrix(0.03830989,0,0,0.75667485,23.046047,10.933)" />
      <path
         sodipodi:type="star"
         style="opacity:1;fill:#5a1d69;fill-opacity:1;stroke:none;stroke-width:0.264999;stroke-linecap:round;stroke-miterlimit:4;stroke-dasharray:0.264999, 0.53;stroke-dashoffset:0;stroke-opacity:1;paint-order:stroke fill markers"
         id="path981"
         sodipodi:sides="3"
         sodipodi:cx="23.970066"
         sodipodi:cy="60.921741"
         sodipodi:r1="1.9566636"
         sodipodi:r2="0.9783318"
         sodipodi:arg1="-0.52359878"
         sodipodi:arg2="0.52359878"
         inkscape:flatsided="true"
         inkscape:rounded="0"
         inkscape:randomized="0"
         d="m 25.664586,59.94341 -1.69452,2.934995 -1.69452,-2.934995 z"
         inkscape:transform-center-y="0.48916518"
         transform="matrix(0.70317547,0,0,1,7.1149035,0.00117436)" />
    </g>
    <g
       id="g989"
       transform="matrix(-0.6926992,-1.2833078,1.3153546,-0.81335255,114.86578,137.39266)"
       style="fill:#5a1d69;fill-opacity:1">
      <path
         sodipodi:type="star"
         style="opacity:1;fill:#5a1d69;fill-opacity:1;stroke:#999999;stroke-width:0.264999;stroke-linecap:round;stroke-miterlimit:4;stroke-dasharray:0.264999, 0.53;stroke-dashoffset:0;stroke-opacity:1;paint-order:stroke fill markers"
         id="path985"
         sodipodi:sides="3"
         sodipodi:cx="24.119587"
         sodipodi:cy="59.356331"
         sodipodi:r1="13.918084"
         sodipodi:r2="6.9590421"
         sodipodi:arg1="-1.5707963"
         sodipodi:arg2="-0.52359878"
         inkscape:flatsided="true"
         inkscape:rounded="0"
         inkscape:randomized="0"
         d="m 24.119587,45.438247 12.053414,20.877126 -24.106829,0 z"
         inkscape:transform-center-y="-2.6328669"
         transform="matrix(0.03830989,0,0,0.75667485,23.046047,10.933)" />
      <path
         sodipodi:type="star"
         style="opacity:1;fill:#5a1d69;fill-opacity:1;stroke:none;stroke-width:0.264999;stroke-linecap:round;stroke-miterlimit:4;stroke-dasharray:0.264999, 0.53;stroke-dashoffset:0;stroke-opacity:1;paint-order:stroke fill markers"
         id="path987"
         sodipodi:sides="3"
         sodipodi:cx="23.970066"
         sodipodi:cy="60.921741"
         sodipodi:r1="1.9566636"
         sodipodi:r2="0.9783318"
         sodipodi:arg1="-0.52359878"
         sodipodi:arg2="0.52359878"
         inkscape:flatsided="true"
         inkscape:rounded="0"
         inkscape:randomized="0"
         d="m 25.664586,59.94341 -1.69452,2.934995 -1.69452,-2.934995 z"
         inkscape:transform-center-y="0.48916518"
         transform="matrix(0.70317547,0,0,1,7.1149035,0.00117436)" />
    </g>
    <g
       id="g995"
       transform="matrix(-1.397248,-0.41762332,0.35496908,-1.5052233,153.5706,140.90053)"
       style="fill:#5a1d69;fill-opacity:1">
      <path
         sodipodi:type="star"
         style="opacity:1;fill:#5a1d69;fill-opacity:1;stroke:#999999;stroke-width:0.264999;stroke-linecap:round;stroke-miterlimit:4;stroke-dasharray:0.264999, 0.53;stroke-dashoffset:0;stroke-opacity:1;paint-order:stroke fill markers"
         id="path991"
         sodipodi:sides="3"
         sodipodi:cx="24.119587"
         sodipodi:cy="59.356331"
         sodipodi:r1="13.918084"
         sodipodi:r2="6.9590421"
         sodipodi:arg1="-1.5707963"
         sodipodi:arg2="-0.52359878"
         inkscape:flatsided="true"
         inkscape:rounded="0"
         inkscape:randomized="0"
         d="m 24.119587,45.438247 12.053414,20.877126 -24.106829,0 z"
         inkscape:transform-center-y="-2.6328669"
         transform="matrix(0.03830989,0,0,0.75667485,23.046047,10.933)" />
      <path
         sodipodi:type="star"
         style="opacity:1;fill:#5a1d69;fill-opacity:1;stroke:none;stroke-width:0.264999;stroke-linecap:round;stroke-miterlimit:4;stroke-dasharray:0.264999, 0.53;stroke-dashoffset:0;stroke-opacity:1;paint-order:stroke fill markers"
         id="path993"
         sodipodi:sides="3"
         sodipodi:cx="23.970066"
         sodipodi:cy="60.921741"
         sodipodi:r1="1.9566636"
         sodipodi:r2="0.9783318"
         sodipodi:arg1="-0.52359878"
         sodipodi:arg2="0.52359878"
         inkscape:flatsided="true"
         inkscape:rounded="0"
         inkscape:randomized="0"
         d="m 25.664586,59.94341 -1.69452,2.934995 -1.69452,-2.934995 z"
         inkscape:transform-center-y="0.48916518"
         transform="matrix(0.70317547,0,0,1,7.1149035,0.00117436)" />
    </g>
    <g
       id="g1001"
       transform="matrix(-1.2833079,0.69269924,-0.81335259,-1.3153546,175.55741,102.77368)"
       style="fill:#5a1d69;fill-opacity:1">
      <path
         sodipodi:type="star"
         style="opacity:1;fill:#5a1d69;fill-opacity:1;stroke:#999999;stroke-width:0.264999;stroke-linecap:round;stroke-miterlimit:4;stroke-dasharray:0.264999, 0.53;stroke-dashoffset:0;stroke-opacity:1;paint-order:stroke fill markers"
         id="path997"
         sodipodi:sides="3"
         sodipodi:cx="24.119587"
         sodipodi:cy="59.356331"
         sodipodi:r1="13.918084"
         sodipodi:r2="6.9590421"
         sodipodi:arg1="-1.5707963"
         sodipodi:arg2="-0.52359878"
         inkscape:flatsided="true"
         inkscape:rounded="0"
         inkscape:randomized="0"
         d="m 24.119587,45.438247 12.053414,20.877126 -24.106829,0 z"
         inkscape:transform-center-y="-2.6328669"
         transform="matrix(0.03830989,0,0,0.75667485,23.046047,10.933)" />
      <path
         sodipodi:type="star"
         style="opacity:1;fill:#5a1d69;fill-opacity:1;stroke:none;stroke-width:0.264999;stroke-linecap:round;stroke-miterlimit:4;stroke-dasharray:0.264999, 0.53;stroke-dashoffset:0;stroke-opacity:1;paint-order:stroke fill markers"
         id="path999"
         sodipodi:sides="3"
         sodipodi:cx="23.970066"
         sodipodi:cy="60.921741"
         sodipodi:r1="1.9566636"
         sodipodi:r2="0.9783318"
         sodipodi:arg1="-0.52359878"
         sodipodi:arg2="0.52359878"
         inkscape:flatsided="true"
         inkscape:rounded="0"
         inkscape:randomized="0"
         d="m 25.664586,59.94341 -1.69452,2.934995 -1.69452,-2.934995 z"
         inkscape:transform-center-y="0.48916518"
         transform="matrix(0.70317547,0,0,1,7.1149035,0.00117436)" />
    </g>
    <path
       id="path1111"
       style="opacity:1;fill:#5a1d69;fill-opacity:0.8;stroke:none;stroke-width:0.120812;stroke-linecap:round;stroke-miterlimit:4;stroke-dasharray:0.120812, 0.241629;stroke-dashoffset:0;stroke-opacity:1;paint-order:stroke fill markers"
       d="m 138.66253,145.89821 a 2.2334058,2.0791369 0 0 0 -1.63551,0.6633 2.2334058,2.0791369 0 0 0 -1.11076,-0.27552 2.2334058,2.0791369 0 0 0 -2.16243,1.55982 2.2334058,2.0791369 0 0 0 -0.32326,-0.0221 2.2334058,2.0791369 0 0 0 -2.2335,2.07922 2.2334058,2.0791369 0 0 0 0.0138,0.22504 2.2334058,2.0791369 0 0 0 -1.86259,2.05014 2.2334058,2.0791369 0 0 0 1.70731,2.02079 2.2334058,2.0791369 0 0 0 -0.0886,0.57919 2.2334058,2.0791369 0 0 0 2.23351,2.07923 2.2334058,2.0791369 0 0 0 0.36039,-0.0275 2.2334058,2.0791369 0 0 0 1.84917,0.91312 2.2334058,2.0791369 0 0 0 0.0426,-2.3e-4 2.2334058,2.0791369 0 0 0 0.0444,-9.3e-4 2.2334058,2.0791369 0 0 0 0.84975,-0.19025 2.2334058,2.0791369 0 0 0 1.87454,0.94902 2.2334058,2.0791369 0 0 0 1.92681,-1.02789 2.2334058,2.0791369 0 0 0 0.69396,0.10301 2.2334058,2.0791369 0 0 0 2.16268,-1.56027 2.2334058,2.0791369 0 0 0 0.5709,0.0689 2.2334058,2.0791369 0 0 0 2.2198,-1.85326 2.2334058,2.0791369 0 0 0 1.91314,-2.05742 2.2334058,2.0791369 0 0 0 -1.84108,-2.04693 2.2334058,2.0791369 0 0 0 -1.93952,-2.01444 2.2334058,2.0791369 0 0 0 -2.08918,-1.34454 2.2334058,2.0791369 0 0 0 -1.16473,0.30502 2.2334058,2.0791369 0 0 0 -2.01077,-1.1743 z" />
    <path
       id="path1113"
       style="opacity:1;fill:#5a1c68;fill-opacity:0.701961;stroke:none;stroke-width:0.0564396;stroke-linecap:round;stroke-miterlimit:4;stroke-dasharray:0.0564396, 0.112881;stroke-dashoffset:0;stroke-opacity:1;paint-order:stroke fill markers"
       d="m 138.70431,164.84684 a 1.05023,0.96495682 0 0 0 -0.76906,0.30784 1.05023,0.96495682 0 0 0 -0.52234,-0.12787 1.05023,0.96495682 0 0 0 -1.01685,0.72394 1.05023,0.96495682 0 0 0 -0.15202,-0.01 1.05023,0.96495682 0 0 0 -1.05027,0.965 1.05023,0.96495682 0 0 0 0.006,0.10447 1.05023,0.96495682 0 0 0 -0.87586,0.95149 1.05023,0.96495682 0 0 0 0.80283,0.93789 1.05023,0.96495682 0 0 0 -0.0416,0.2688 1.05023,0.96495682 0 0 0 1.05028,0.96501 1.05023,0.96495682 0 0 0 0.16947,-0.0129 1.05023,0.96495682 0 0 0 0.86956,0.42379 1.05023,0.96495682 0 0 0 0.0199,-1e-4 1.05023,0.96495682 0 0 0 0.0209,-5.6e-4 1.05023,0.96495682 0 0 0 0.39957,-0.0882 1.05023,0.96495682 0 0 0 0.88148,0.44046 1.05023,0.96495682 0 0 0 0.90605,-0.47707 1.05023,0.96495682 0 0 0 0.32634,0.0478 1.05023,0.96495682 0 0 0 1.01697,-0.72413 1.05023,0.96495682 0 0 0 0.26845,0.032 1.05023,0.96495682 0 0 0 1.04384,-0.86013 1.05023,0.96495682 0 0 0 0.89963,-0.95486 1.05023,0.96495682 0 0 0 -0.86574,-0.95002 1.05023,0.96495682 0 0 0 -0.91204,-0.93494 1.05023,0.96495682 0 0 0 -0.98242,-0.62401 1.05023,0.96495682 0 0 0 -0.5477,0.14157 1.05023,0.96495682 0 0 0 -0.94553,-0.54502 z" />
    <path
       id="path1115"
       style="opacity:1;fill:#5a1d69;fill-opacity:0.600353;stroke:none;stroke-width:0.038432;stroke-linecap:round;stroke-miterlimit:4;stroke-dasharray:0.038432, 0.0768651;stroke-dashoffset:0;stroke-opacity:1;paint-order:stroke fill markers"
       d="m 133.24899,174.49746 a 0.67096486,0.70034566 0 0 0 -0.49134,0.22342 0.67096486,0.70034566 0 0 0 -0.33369,-0.0928 0.67096486,0.70034566 0 0 0 -0.64965,0.52543 0.67096486,0.70034566 0 0 0 -0.0971,-0.007 0.67096486,0.70034566 0 0 0 -0.671,0.70037 0.67096486,0.70034566 0 0 0 0.004,0.0758 0.67096486,0.70034566 0 0 0 -0.55956,0.69057 0.67096486,0.70034566 0 0 0 0.51291,0.68071 0.67096486,0.70034566 0 0 0 -0.0267,0.19509 0.67096486,0.70034566 0 0 0 0.67099,0.70038 0.67096486,0.70034566 0 0 0 0.10828,-0.01 0.67096486,0.70034566 0 0 0 0.55554,0.30758 0.67096486,0.70034566 0 0 0 0.0129,-9e-5 0.67096486,0.70034566 0 0 0 0.0134,-4.1e-4 0.67096486,0.70034566 0 0 0 0.25528,-0.0642 0.67096486,0.70034566 0 0 0 0.56315,0.31969 0.67096486,0.70034566 0 0 0 0.57886,-0.34625 0.67096486,0.70034566 0 0 0 0.2085,0.0346 0.67096486,0.70034566 0 0 0 0.64971,-0.52558 0.67096486,0.70034566 0 0 0 0.17152,0.0232 0.67096486,0.70034566 0 0 0 0.66687,-0.62426 0.67096486,0.70034566 0 0 0 0.57475,-0.69304 0.67096486,0.70034566 0 0 0 -0.55311,-0.68949 0.67096486,0.70034566 0 0 0 -0.58266,-0.67855 0.67096486,0.70034566 0 0 0 -0.62765,-0.4529 0.67096486,0.70034566 0 0 0 -0.34991,0.10274 0.67096486,0.70034566 0 0 0 -0.60407,-0.39555 z" />
    <path
       id="path1323"
       style="opacity:1;fill:#5a1d69;fill-opacity:0.9;stroke:none;stroke-width:0.157168;stroke-linecap:round;stroke-miterlimit:4;stroke-dasharray:0.157168, 0.314342;stroke-dashoffset:0;stroke-opacity:1;paint-order:stroke fill markers"
       d="m 124.48803,126.94856 a 2.9545283,2.6599212 0 0 0 -2.16357,0.84858 2.9545283,2.6599212 0 0 0 -1.46941,-0.35247 2.9545283,2.6599212 0 0 0 -2.86064,1.99553 2.9545283,2.6599212 0 0 0 -0.42762,-0.0283 2.9545283,2.6599212 0 0 0 -2.95466,2.66003 2.9545283,2.6599212 0 0 0 0.0183,0.28791 2.9545283,2.6599212 0 0 0 -2.46398,2.62282 2.9545283,2.6599212 0 0 0 2.25856,2.58528 2.9545283,2.6599212 0 0 0 -0.11723,0.74098 2.9545283,2.6599212 0 0 0 2.95466,2.66003 2.9545283,2.6599212 0 0 0 0.47677,-0.0351 2.9545283,2.6599212 0 0 0 2.44622,1.16819 2.9545283,2.6599212 0 0 0 0.0563,-3.1e-4 2.9545283,2.6599212 0 0 0 0.0587,-9.3e-4 2.9545283,2.6599212 0 0 0 1.12412,-0.2434 2.9545283,2.6599212 0 0 0 2.47979,1.21413 2.9545283,2.6599212 0 0 0 2.54894,-1.31503 2.9545283,2.6599212 0 0 0 0.91802,0.13179 2.9545283,2.6599212 0 0 0 2.86096,-1.99612 2.9545283,2.6599212 0 0 0 0.75524,0.088 2.9545283,2.6599212 0 0 0 2.93653,-2.37096 2.9545283,2.6599212 0 0 0 2.53085,-2.63212 2.9545283,2.6599212 0 0 0 -2.43552,-2.61874 2.9545283,2.6599212 0 0 0 -2.56576,-2.57715 2.9545283,2.6599212 0 0 0 -2.76373,-1.72012 2.9545283,2.6599212 0 0 0 -1.5408,0.39022 2.9545283,2.6599212 0 0 0 -2.66,-1.50233 z" />
  </g>
</svg>
