<?xml version="1.0" encoding="UTF-8" standalone="no"?>
<svg
   width="300"
   height="250"
   viewBox="0 0 79.374998 66.145835"
   version="1.1"
   id="svg4264"
   inkscape:version="1.1.2 (0a00cf5339, 2022-02-04)"
   sodipodi:docname="scientist.svg"
   xmlns:inkscape="http://www.inkscape.org/namespaces/inkscape"
   xmlns:sodipodi="http://sodipodi.sourceforge.net/DTD/sodipodi-0.dtd"
   xmlns:xlink="http://www.w3.org/1999/xlink"
   xmlns="http://www.w3.org/2000/svg"
   xmlns:svg="http://www.w3.org/2000/svg"
   xmlns:rdf="http://www.w3.org/1999/02/22-rdf-syntax-ns#"
   xmlns:cc="http://creativecommons.org/ns#"
   xmlns:dc="http://purl.org/dc/elements/1.1/">
  <defs
     id="defs4258">
    <linearGradient
       inkscape:collect="always"
       xlink:href="#linearGradient3009"
       id="linearGradient3011"
       x1="163.96654"
       y1="167.31645"
       x2="163.74515"
       y2="173.63161"
       gradientUnits="userSpaceOnUse"
       gradientTransform="matrix(1.095163,0,0,1.095163,-15.525792,-15.329384)" />
    <linearGradient
       inkscape:collect="always"
       id="linearGradient3009">
      <stop
         style="stop-color:#ff75ff;stop-opacity:1;"
         offset="0"
         id="stop3005" />
      <stop
         style="stop-color:#ff75ff;stop-opacity:0;"
         offset="1"
         id="stop3007" />
    </linearGradient>
    <filter
       inkscape:collect="always"
       style="color-interpolation-filters:sRGB"
       id="filter1887"
       x="-0.17667456"
       width="1.3533491"
       y="-0.049386289"
       height="1.0987726">
      <feGaussianBlur
         inkscape:collect="always"
         stdDeviation="0.049458928"
         id="feGaussianBlur1889" />
    </filter>
  </defs>
  <sodipodi:namedview
     id="base"
     pagecolor="#ffffff"
     bordercolor="#666666"
     borderopacity="1.0"
     inkscape:pageopacity="0.0"
     inkscape:pageshadow="2"
     inkscape:zoom="1.3098068"
     inkscape:cx="161.4742"
     inkscape:cy="229.04141"
     inkscape:document-units="px"
     inkscape:current-layer="layer1"
     inkscape:document-rotation="0"
     showgrid="false"
     units="px"
     inkscape:window-width="1920"
     inkscape:window-height="1043"
     inkscape:window-x="0"
     inkscape:window-y="0"
     inkscape:window-maximized="1"
     inkscape:pagecheckerboard="0" />
  <metadata
     id="metadata4261">
    <rdf:RDF>
      <cc:Work
         rdf:about="">
        <dc:format>image/svg+xml</dc:format>
        <dc:type
           rdf:resource="http://purl.org/dc/dcmitype/StillImage" />
      </cc:Work>
    </rdf:RDF>
  </metadata>
  <g
     inkscape:label="Layer 1"
     inkscape:groupmode="layer"
     id="layer1">
    <g
       id="g3193"
       transform="matrix(2.4569036,0,0,2.4569036,-343.40924,-398.00134)"
       inkscape:export-filename="/home/chuijse/motivus/images/presentaciones/Pitch comercial/scientist.png"
       inkscape:export-xdpi="500"
       inkscape:export-ydpi="500">
      <path
         style="fill:#732486;fill-opacity:1;stroke:#732486;stroke-width:0.169097px;stroke-linecap:butt;stroke-linejoin:miter;stroke-opacity:1"
         d="m 148.78712,188.51205 14.76112,-0.0945 c 0,0 3.02824,-12.83109 -8.55529,-12.63661 -7.25716,0.10219 -6.20583,12.73116 -6.20583,12.73116 z"
         id="path1935"
         sodipodi:nodetypes="cccc" />
      <path
         id="path1949"
         style="fill:url(#linearGradient3011);fill-opacity:1;stroke:none;stroke-width:0.0692188px;stroke-linecap:butt;stroke-linejoin:miter;stroke-opacity:1"
         d="m 163.89979,162.31197 1.8e-4,6.5456 c 0.2988,8.8e-4 0.363,0.004 0.58797,-0.0445 v -0.21728 c 0,-0.14104 -0.0376,-0.47761 0.0487,-0.79418 0.0433,-0.15829 0.12131,-0.31922 0.2626,-0.43936 0.14127,-0.12014 0.34007,-0.18911 0.58351,-0.18802 0.4039,0.002 0.74414,0.3324 0.74744,0.74887 9e-4,0.20724 -0.0493,0.57733 -0.37944,0.88034 -0.15716,0.1443 -0.62657,0.15714 -0.91745,0.24957 v 3.00977 l 0.97882,-8.9e-4 c 0,0 0.11156,-0.95464 0.35001,-1.35593 0.29601,-0.49819 1.77469,-1.63638 2.02702,-2.74575 0.29937,-1.31618 0.21182,-2.69088 -0.75941,-3.97771 -0.78418,-1.03901 -2.18153,-1.67007 -3.52995,-1.67007 z m 0,0 c -1.34841,0 -2.74595,0.63107 -3.53011,1.67007 -0.97124,1.28684 -1.05861,2.66134 -0.75922,3.97754 0.25232,1.10936 1.73118,2.24754 2.02719,2.74576 0.23844,0.40129 0.35001,1.35609 0.35001,1.35609 l 0.82575,8.9e-4 v -3.00941 c -0.29089,-0.0925 -0.76028,-0.10535 -0.91745,-0.24957 -0.33016,-0.30302 -0.38052,-0.67309 -0.37944,-0.88035 0.003,-0.41646 0.34354,-0.74668 0.74746,-0.74886 0.24341,-8.9e-4 0.44224,0.0679 0.58352,0.18801 0.14126,0.12013 0.21931,0.28109 0.26258,0.43937 0.0864,0.31657 0.0487,0.65314 0.0487,0.79419 v 0.21727 c 0.24548,0.0533 0.28593,0.0444 0.66467,0.0444 0.0316,0 0.0491,8e-5 0.0763,1.7e-4 z m -1.63258,5.20894 c -0.21996,8.9e-4 -0.40312,0.17253 -0.40532,0.4037 -8.9e-4,0.15592 0.0255,0.40195 0.26759,0.62418 0.0978,0.0898 0.49122,0.10183 0.68411,0.17499 v -0.12808 c 0,-0.18583 0.0263,-0.47616 -0.0357,-0.70338 -0.031,-0.11362 -0.0806,-0.20366 -0.15412,-0.26599 -0.0734,-0.0623 -0.17621,-0.10631 -0.35661,-0.10524 z m 3.11232,1.8e-4 c -0.18026,-9e-4 -0.28318,0.0429 -0.35642,0.10524 -0.0733,0.0623 -0.12154,0.15237 -0.15251,0.26599 -0.0621,0.22722 -0.0373,0.51755 -0.0373,0.70338 v 0.12808 c 0.19288,-0.0732 0.58632,-0.0853 0.68412,-0.17499 0.24217,-0.22223 0.26849,-0.46826 0.2674,-0.62418 -0.002,-0.23111 -0.18525,-0.40232 -0.40512,-0.40352 z m -2.22076,1.62584 v 2.91577 l 0.74085,8.7e-4 v -2.86152 c -0.0267,1.5e-4 -0.0454,7.1e-4 -0.0763,7.1e-4 -0.35039,0 -0.40987,-0.01 -0.66449,-0.0559 z m 1.32917,0 c -0.232,0.0429 -0.31221,0.0535 -0.58797,0.0551 v 2.86171 l 0.58797,-7.3e-4 z m -2.45711,3.14659 c -0.21131,0 -0.3814,0.17026 -0.3814,0.38157 v 0.23637 c 0,0.21131 0.17009,0.38157 0.3814,0.38157 h 3.68978 c 0.21131,0 0.38158,-0.17026 0.38158,-0.38157 v -0.23637 c 0,-0.21131 -0.17027,-0.38157 -0.38158,-0.38157 z m 0.17784,1.28993 c -0.16067,0 -0.29023,0.12936 -0.29023,0.29005 v 0.17982 c 0,0.16069 0.12956,0.29007 0.29023,0.29007 h 3.37101 c 0.16069,0 0.29007,-0.12938 0.29007,-0.29007 v -0.17982 c 0,-0.16069 -0.12938,-0.29005 -0.29007,-0.29005 z m 0.6199,1.02038 c -0.15955,0 -0.2881,0.12835 -0.2881,0.28791 v 0.17857 c 0,0.15955 0.12855,0.28811 0.2881,0.28811 h 2.09983 c 0.15954,0 0.2881,-0.12856 0.2881,-0.28811 v -0.17857 c 0,-0.15956 -0.12856,-0.28791 -0.2881,-0.28791 z" />
      <path
         style="fill:#ffffff;stroke:#732486;stroke-width:0.0967599px;stroke-linecap:butt;stroke-linejoin:miter;stroke-opacity:1"
         d="m 159.32608,184.41042 c -1.22462,3.04456 -5.83497,4.07129 -9.10118,3.75366 -1.93256,-0.18794 -4.85619,-3.21691 -4.85619,-3.21691 0,0 2.17076,-0.6786 2.97894,-1.42616 1.73423,-1.60412 0.28367,-2.96846 3.54851,-6.13472 0.94998,-0.92129 1.25904,-1.47869 3.66123,-1.53514 0,0 4.93202,5.66706 3.76869,8.55927 z"
         id="path2929"
         sodipodi:nodetypes="aacasca" />
      <path
         style="fill:#ffffff;stroke:#732486;stroke-width:0.0967599px;stroke-linecap:butt;stroke-linejoin:miter;stroke-opacity:1"
         d="m 159.97737,183.24869 c 0.67216,1.66988 0.60301,4.45803 2.35805,4.85821 1.60173,0.36523 3.86142,-3.06266 3.86142,-3.06266 0,0 -1.07794,-0.73451 -1.4834,-1.23373 -1.30055,-1.60132 -1.37425,-4.07732 -2.89736,-5.46865 -1.05896,-0.96733 -1.56622,-1.6066 -3.96841,-1.66305 0,0 1.27007,4.43425 2.1297,6.56988 z"
         id="path2933"
         sodipodi:nodetypes="aacaaca" />
      <path
         style="fill:#732486;fill-opacity:1;stroke:none;stroke-width:0.0833985px;stroke-linecap:butt;stroke-linejoin:miter;stroke-opacity:1"
         d="m 156.38753,182.61125 c 0,0 -0.83575,-0.87163 -1.24993,-2.7302 0,0 0.17052,-1.16496 -0.8728,-2.21388 -1.34758,-1.35481 -1.96584,-0.71766 -2.74781,-0.23437 -0.5885,0.36371 -0.8042,1.23768 -0.76705,1.9285 0.0946,1.7589 1.33853,3.32105 2.46837,4.6724 0.90423,1.08151 3.33035,2.60665 3.33035,2.60665 3.46235,-1.62944 7.95119,-6.83066 7.95119,-6.83066 0,0 -0.90899,0.22417 -1.99621,-0.78338 -0.46082,-0.42705 -0.47613,-0.9136 -0.47613,-0.9136 -3.57173,3.95291 -3.52961,2.88461 -5.63998,4.49854 z"
         id="path2935"
         sodipodi:nodetypes="ccsaaaccscc" />
      <path
         style="fill:#3f144a;fill-opacity:1;stroke:none;stroke-width:0.0833985px;stroke-linecap:butt;stroke-linejoin:miter;stroke-opacity:1"
         d="m 161.84921,178.73941 c 0,0 0.24561,-0.33857 0.27488,-0.53774 0.0872,-0.59318 -0.22149,-1.17852 -0.32318,-1.76939 -0.0751,-0.43632 -0.21184,-1.31119 -0.21184,-1.31119 l -0.71321,-0.95279 c 0,0 0.28264,-0.25993 0.45515,-0.24863 0.41334,0.0271 0.75669,0.40027 1.00354,0.73291 0.22437,0.30235 0.3733,1.06606 0.3733,1.06606 l 0.7683,-0.20219 0.98297,-0.86457 0.55526,-0.83503 0.26615,-0.78661 0.27207,-0.78433 0.38699,-0.26288 0.0757,0.0333 0.0497,0.17371 0.36317,-0.15177 c 0,0 0.0793,0.93409 0.0896,1.4024 0.0129,0.58507 0.10527,1.1871 -0.0349,1.75528 -0.21898,0.88782 -0.76991,1.66161 -1.22716,2.4535 -0.40446,0.70047 -1.33692,2.02504 -1.33692,2.02504 l -0.5793,0.61118 z"
         id="path2047"
         sodipodi:nodetypes="caaccaaccccccccccaaaccc" />
      <path
         style="fill:#732486;fill-opacity:1;stroke:none;stroke-width:0.0833985px;stroke-linecap:butt;stroke-linejoin:miter;stroke-opacity:1"
         d="m 161.84921,178.73941 c 0,0 0.34211,-0.28829 0.3954,-0.49176 0.15665,-0.59802 -0.20903,-1.21864 -0.30434,-1.82944 -0.0699,-0.4481 -0.19625,-1.34636 -0.19625,-1.34636 l -0.86816,-0.90355 c 0,0 0.28264,-0.25993 0.45515,-0.24863 0.41334,0.0271 0.75669,0.40027 1.00354,0.73291 0.22437,0.30235 0.3733,1.06606 0.3733,1.06606 l 0.7683,-0.20219 0.98297,-0.86457 0.55526,-0.83503 0.26615,-0.78661 0.27207,-0.78433 0.38699,-0.26288 0.0757,0.0333 0.0497,0.17371 0.36317,-0.15177 c 0,0 0.0918,0.93399 0.0896,1.4024 -0.003,0.58067 0.0265,1.17738 -0.12713,1.73737 -0.24073,0.87775 -0.77723,1.64746 -1.21787,2.44385 -0.38816,0.70155 -1.25398,2.0526 -1.25398,2.0526 l -0.5793,0.61118 z"
         id="path2041"
         sodipodi:nodetypes="caaccaaccccccccccaaaccc" />
      <path
         style="fill:#b346cd;fill-opacity:1;stroke:none;stroke-width:0.0833985px;stroke-linecap:butt;stroke-linejoin:miter;stroke-opacity:1"
         d="m 163.45611,175.52457 c 1.50183,-0.95079 1.89753,-2.04699 2.23196,-3.36982 l -0.13483,0.0923 c -0.2636,0.86393 -0.7429,2.21558 -2.09713,3.27749 z"
         id="path2043"
         sodipodi:nodetypes="cccc" />
      <path
         style="fill:#b346cd;fill-opacity:1;stroke:none;stroke-width:0.0833985px;stroke-linecap:butt;stroke-linejoin:miter;stroke-opacity:1"
         d="m 165.48663,174.83955 c 0.56681,-0.89963 0.73341,-1.78903 0.68636,-2.69349 l -0.10491,0.0408 c -0.008,0.90565 -0.32333,1.91689 -0.58145,2.65268 z"
         id="path2045"
         sodipodi:nodetypes="cccc" />
      <path
         style="fill:#3f144a;fill-opacity:1;stroke:none;stroke-width:0.0833985px;stroke-linecap:butt;stroke-linejoin:miter;stroke-opacity:1"
         d="m 166.51921,173.46957 c 0,0 -0.18105,1.35107 -0.82109,2.15505 0.71463,-0.25616 0.82109,-2.15505 0.82109,-2.15505 z"
         id="path2049"
         sodipodi:nodetypes="ccc" />
      <path
         style="fill:#3f144a;fill-opacity:1;stroke:none;stroke-width:0.0833985px;stroke-linecap:butt;stroke-linejoin:miter;stroke-opacity:1"
         d="m 166.08201,173.44716 c 0,0 -0.34305,1.31928 -1.07559,2.03999 0.74036,-0.16789 1.07559,-2.03999 1.07559,-2.03999 z"
         id="path2051"
         sodipodi:nodetypes="ccc" />
      <path
         style="fill:#3f144a;fill-opacity:1;stroke:none;stroke-width:0.0952573px;stroke-linecap:butt;stroke-linejoin:miter;stroke-opacity:1"
         d="m 154.78727,172.81244 c 0.0692,-1.55798 0.17145,-3.57976 3.15941,-3.36262 2.5201,0.18314 2.33454,2.92796 2.18814,4.65991 0,0 -0.57344,3.47218 -2.69332,3.43005 -1.83306,-0.0364 -2.73207,-2.97629 -2.65423,-4.72734 z"
         id="path2927"
         sodipodi:nodetypes="sscss" />
      <path
         style="fill:#732486;fill-opacity:1;stroke:none;stroke-width:0.0952573px;stroke-linecap:butt;stroke-linejoin:miter;stroke-opacity:1"
         d="m 154.95179,172.73749 c 0.0692,-1.55797 0.006,-3.48128 2.99489,-3.28767 2.5032,0.16214 2.33454,2.92796 2.18814,4.65991 0,0 -0.5114,2.77938 -2.63128,2.73726 -1.83306,-0.0365 -2.62959,-2.35844 -2.55175,-4.1095 z"
         id="path2925"
         sodipodi:nodetypes="sscss" />
      <path
         style="fill:#33103c;fill-opacity:1;stroke:none;stroke-width:0.0993979px;stroke-linecap:butt;stroke-linejoin:miter;stroke-opacity:1"
         d="m 158.38288,172.48346 c 0,0 -0.3197,-0.20077 -0.50112,-0.21999 -0.1781,-0.0189 -0.52629,0.10817 -0.52629,0.10817 l 0.0988,0.4193 c 0,0 0.2467,-0.25049 0.40124,-0.23616 0.16157,0.0149 0.36699,0.31977 0.36699,0.31977 z"
         id="path1607"
         sodipodi:nodetypes="caccacc" />
      <circle
         style="fill:#33103c;fill-opacity:1;stroke:none;stroke-width:1.52028;stroke-linecap:round;paint-order:stroke fill markers"
         id="path2907"
         cx="158.99109"
         cy="172.85895"
         r="0.95257348" />
      <circle
         style="fill:#33103c;fill-opacity:1;stroke:none;stroke-width:1.52027;stroke-linecap:round;paint-order:stroke fill markers"
         id="circle2909"
         cx="156.65004"
         cy="172.69977"
         r="0.95257348" />
      <circle
         style="fill:#5a1d69;fill-opacity:1;stroke:none;stroke-width:1.49885;stroke-linecap:round;paint-order:stroke fill markers"
         id="circle2911"
         cx="156.72536"
         cy="172.70082"
         r="0.93914652" />
      <circle
         style="fill:#5a1d69;fill-opacity:1;stroke:none;stroke-width:1.49885;stroke-linecap:round;paint-order:stroke fill markers"
         id="circle2913"
         cx="159.0741"
         cy="172.85614"
         r="0.93914652" />
      <circle
         style="fill:#d093e2;fill-opacity:1;stroke:none;stroke-width:1.28942;stroke-linecap:round;paint-order:stroke fill markers"
         id="circle2915"
         cx="156.72536"
         cy="172.70082"
         r="0.80792987" />
      <circle
         style="fill:#d093e2;fill-opacity:1;stroke:none;stroke-width:1.28942;stroke-linecap:round;paint-order:stroke fill markers"
         id="circle2917"
         cx="159.07288"
         cy="172.87164"
         r="0.80792987" />
      <path
         style="fill:#33103c;fill-opacity:1;stroke:none;stroke-width:0.0306674px;stroke-linecap:butt;stroke-linejoin:miter;stroke-opacity:1"
         d="m 155.76403,172.617 -0.67971,-0.19781 c 0,0 0.57646,0.20879 0.641,0.53566 z"
         id="path2919"
         sodipodi:nodetypes="cccc" />
      <path
         style="fill:#e4bceb;fill-opacity:1;stroke:none;stroke-width:0.0621121px;stroke-linecap:butt;stroke-linejoin:miter;stroke-opacity:1;filter:url(#filter1887)"
         d="m 145.12747,170.23262 c -0.0864,0.19214 -0.13661,0.57883 -0.13826,0.87368 -0.001,0.30684 0.0279,0.68469 0.13373,0.91077 0,0 0.18253,0.28565 0.53811,0.32952 0,0 -0.18318,-0.54886 -0.18318,-1.20387 0,-0.74405 0.18318,-1.19966 0.18318,-1.19966 -0.39299,0.007 -0.53358,0.28956 -0.53358,0.28956 z"
         id="path2921"
         sodipodi:nodetypes="caccscc"
         transform="matrix(-0.51223584,0,0,0.51223584,233.98436,85.196904)" />
      <path
         style="fill:#e4bceb;fill-opacity:1;stroke:none;stroke-width:0.0621121px;stroke-linecap:butt;stroke-linejoin:miter;stroke-opacity:1;filter:url(#filter1887)"
         d="m 145.12747,170.23262 c -0.0864,0.19214 -0.13661,0.57883 -0.13826,0.87368 -0.001,0.30684 0.0279,0.68469 0.13373,0.91077 0,0 0.18253,0.28565 0.53811,0.32952 0,0 -0.18318,-0.54886 -0.18318,-1.20387 0,-0.74405 0.18318,-1.19966 0.18318,-1.19966 -0.39299,0.007 -0.53358,0.28956 -0.53358,0.28956 z"
         id="path2923"
         sodipodi:nodetypes="caccscc"
         transform="matrix(-0.51223584,0,0,0.51223584,231.56456,85.05142)" />
      <path
         style="fill:#ffffff;fill-opacity:1;stroke:none;stroke-width:0.0833985px;stroke-linecap:butt;stroke-linejoin:miter;stroke-opacity:1"
         d="m 156.34046,182.91603 c 0,0 -0.78868,-1.17641 -1.20286,-3.03498 0,0 0.0633,-1.05786 -0.98004,-2.10678 -1.34758,-1.35481 -1.87563,-0.79153 -2.64057,-0.34147 -0.59627,0.35082 -0.82039,1.23874 -0.76705,1.9285 0.13501,1.74607 1.51448,3.2086 2.66914,4.52532 0.88601,1.01036 3.17526,2.48402 3.17526,2.48402 3.46235,-1.62944 7.90551,-6.56095 7.90551,-6.56095 0,0 -0.98768,0.36952 -2.0749,-0.63803 -0.46082,-0.42705 -0.48155,-0.80276 -0.48155,-0.80276 -3.57173,3.95291 -3.49257,2.9332 -5.60294,4.54713 z"
         id="path1649"
         sodipodi:nodetypes="ccsaaaccscc" />
      <path
         style="fill:#ffffff;fill-opacity:1;stroke:#732486;stroke-width:0.0833985px;stroke-linecap:butt;stroke-linejoin:miter;stroke-opacity:1"
         d="m 149.46548,187.67655 c -2.57776,-1.00991 -3.95128,-5.54364 -3.95128,-5.54364 0,0 -2.39852,-0.51323 -4.12346,1.48756 3.16341,-2.19503 3.23853,8.44995 15.01897,3.58374 0,0 -3.94038,1.64919 -6.94423,0.47234 z"
         id="path2937"
         sodipodi:nodetypes="scccs" />
      <path
         style="fill:#ffffff;stroke:#732486;stroke-width:0.0833985px;stroke-linecap:butt;stroke-linejoin:miter;stroke-opacity:1"
         d="m 164.35376,186.93344 c 1.88261,-1.04201 1.6015,-2.7019 2.76169,-3.15365 0,0 3.11561,0.16525 3.32411,2.55741 -2.36343,-3.24927 -5.55257,3.75966 -8.81618,1.33403 1.6619,-0.56426 0.97595,0.23328 2.73038,-0.73779 z"
         id="path2939"
         sodipodi:nodetypes="scccs" />
      <path
         style="fill:#ffffff;stroke:#732486;stroke-width:0.0833985px;stroke-linecap:butt;stroke-linejoin:miter;stroke-opacity:1"
         d="m 146.55558,184.51918 c 0,0 1.34178,-0.64761 1.68482,-1.27627 0.34303,-0.62865 2.62466,2.2326 2.62466,2.2326"
         id="path2941"
         sodipodi:nodetypes="csc" />
      <path
         style="fill:none;stroke:#732486;stroke-width:0.0833985px;stroke-linecap:butt;stroke-linejoin:miter;stroke-opacity:0.972549"
         d="m 149.0517,183.51909 c 0,0 1.41914,1.12216 2.211,1.17061"
         id="path2943"
         sodipodi:nodetypes="cc" />
      <path
         style="fill:#ffffff;stroke:#732486;stroke-width:0.0833985px;stroke-linecap:butt;stroke-linejoin:miter;stroke-opacity:1"
         d="m 166.11664,184.95056 c 0,0 -1.10292,-0.47816 -1.72633,-2.06431 -0.25651,-0.65265 -1.83908,1.24111 -1.83908,1.24111"
         id="path2945"
         sodipodi:nodetypes="csc" />
      <path
         style="fill:none;stroke:#732486;stroke-width:0.0833985px;stroke-linecap:butt;stroke-linejoin:miter;stroke-opacity:1"
         d="m 164.04755,182.78045 c 0,0 -1.44839,0.68991 -2.01575,0.21543"
         id="path2949" />
    </g>
  </g>
</svg>
