<?xml version="1.0" encoding="UTF-8" standalone="no"?>
<svg
   xmlns:dc="http://purl.org/dc/elements/1.1/"
   xmlns:cc="http://creativecommons.org/ns#"
   xmlns:rdf="http://www.w3.org/1999/02/22-rdf-syntax-ns#"
   xmlns:svg="http://www.w3.org/2000/svg"
   xmlns="http://www.w3.org/2000/svg"
   xmlns:xlink="http://www.w3.org/1999/xlink"
   xmlns:sodipodi="http://sodipodi.sourceforge.net/DTD/sodipodi-0.dtd"
   xmlns:inkscape="http://www.inkscape.org/namespaces/inkscape"
   width="300"
   height="250"
   viewBox="0 0 79.374998 66.14584"
   version="1.1"
   id="svg3620"
   inkscape:version="1.0.1 (3bc2e813f5, 2020-09-07)"
   sodipodi:docname="script.svg">
  <defs
     id="defs3614">
    <linearGradient
       inkscape:collect="always"
       id="linearGradient7209">
      <stop
         style="stop-color:#ff75ff;stop-opacity:1;"
         offset="0"
         id="stop7205" />
      <stop
         style="stop-color:#ff75ff;stop-opacity:0;"
         offset="1"
         id="stop7207" />
    </linearGradient>
    <rect
       x="-149.0117"
       y="119.7261"
       width="77.262604"
       height="17.838747"
       id="rect3243" />
    <rect
       x="-149.0117"
       y="119.7261"
       width="77.262604"
       height="17.838747"
       id="rect3592" />
    <rect
       x="-149.0117"
       y="119.7261"
       width="77.262604"
       height="17.838747"
       id="rect3255" />
    <rect
       x="-149.0117"
       y="119.7261"
       width="77.262604"
       height="17.838747"
       id="rect3595" />
    <rect
       x="-188.50909"
       y="123.64174"
       width="66.661312"
       height="14.603538"
       id="rect3267" />
    <rect
       x="-188.50909"
       y="123.64174"
       width="48.534912"
       height="4.2642245"
       id="rect3598" />
    <filter
       inkscape:collect="always"
       style="color-interpolation-filters:sRGB"
       id="filter1887"
       x="-0.17667456"
       width="1.3533491"
       y="-0.049386289"
       height="1.0987726">
      <feGaussianBlur
         inkscape:collect="always"
         stdDeviation="0.049458928"
         id="feGaussianBlur1889" />
    </filter>
    <linearGradient
       inkscape:collect="always"
       xlink:href="#linearGradient1533"
       id="linearGradient1575"
       gradientUnits="userSpaceOnUse"
       x1="33.476292"
       y1="22.903339"
       x2="33.476292"
       y2="23.723089" />
    <linearGradient
       inkscape:collect="always"
       id="linearGradient1533">
      <stop
         style="stop-color:#ff75ff;stop-opacity:1;"
         offset="0"
         id="stop1529" />
      <stop
         style="stop-color:#ff75ff;stop-opacity:0;"
         offset="1"
         id="stop1531" />
    </linearGradient>
    <rect
       x="32.507607"
       y="20.713451"
       width="12.528049"
       height="14.297926"
       id="rect6933" />
    <rect
       x="32.507607"
       y="20.713451"
       width="12.528049"
       height="14.297926"
       id="rect7030" />
    <linearGradient
       inkscape:collect="always"
       xlink:href="#linearGradient7209"
       id="linearGradient7211"
       x1="52.688362"
       y1="-65.170006"
       x2="17.821468"
       y2="-30.050966"
       gradientUnits="userSpaceOnUse"
       gradientTransform="matrix(1.0056795,0,0,0.86313845,-7.0556699,62.387973)" />
    <rect
       x="32.507607"
       y="20.713451"
       width="12.528049"
       height="14.297926"
       id="rect7356" />
    <linearGradient
       inkscape:collect="always"
       xlink:href="#linearGradient1533"
       id="linearGradient7358"
       gradientUnits="userSpaceOnUse"
       x1="33.476292"
       y1="22.903339"
       x2="33.476292"
       y2="23.723089" />
  </defs>
  <sodipodi:namedview
     id="base"
     pagecolor="#ffffff"
     bordercolor="#666666"
     borderopacity="1.0"
     inkscape:pageopacity="0.0"
     inkscape:pageshadow="2"
     inkscape:zoom="1.8523466"
     inkscape:cx="68.849342"
     inkscape:cy="145.69127"
     inkscape:document-units="mm"
     inkscape:current-layer="layer1"
     inkscape:document-rotation="0"
     showgrid="false"
     units="px"
     inkscape:window-width="1920"
     inkscape:window-height="997"
     inkscape:window-x="1920"
     inkscape:window-y="28"
     inkscape:window-maximized="1"
     inkscape:snap-global="false"
     showguides="true"
     inkscape:guide-bbox="true">
    <sodipodi:guide
       position="106.10653,103.5883"
       orientation="-0.59629333,-0.80276663"
       id="guide7203" />
    <sodipodi:guide
       position="69.077203,87.357317"
       orientation="0.68649682,0.72713281"
       id="guide7238" />
  </sodipodi:namedview>
  <metadata
     id="metadata3617">
    <rdf:RDF>
      <cc:Work
         rdf:about="">
        <dc:format>image/svg+xml</dc:format>
        <dc:type
           rdf:resource="http://purl.org/dc/dcmitype/StillImage" />
        <dc:title></dc:title>
      </cc:Work>
    </rdf:RDF>
  </metadata>
  <g
     inkscape:label="Layer 1"
     inkscape:groupmode="layer"
     id="layer1">
    <path
       style="fill:#732486;fill-opacity:1;stroke:#732486;stroke-width:0.415455px;stroke-linecap:butt;stroke-linejoin:miter;stroke-opacity:1"
       d="m 106.81805,32.890184 36.26665,-0.232177 c 0,0 7.44009,-31.5247513 -21.01952,-31.0469327 -17.83015,0.251071 -15.24713,31.2792327 -15.24713,31.2792327 z"
       id="path1935"
       sodipodi:nodetypes="cccc" />
    <path
       style="fill:#ffffff;stroke:#732486;stroke-width:0.23773px;stroke-linecap:butt;stroke-linejoin:miter;stroke-opacity:1"
       d="m 132.71126,22.812875 c -3.00877,7.48019 -14.33596,10.002767 -22.36072,9.222381 -4.74812,-0.461751 -11.931193,-7.903638 -11.931193,-7.903638 0,0 5.333343,-1.667255 7.318973,-3.503938 4.26083,-3.941168 0.69695,-7.29322 8.71834,-15.0724155 2.33401,-2.2635207 3.09334,-3.6329988 8.99529,-3.771691 0,0 12.1175,13.9234205 9.25931,21.0293015 z"
       id="path2929"
       sodipodi:nodetypes="aacasca" />
    <path
       style="fill:#ffffff;stroke:#732486;stroke-width:0.23773px;stroke-linecap:butt;stroke-linejoin:miter;stroke-opacity:1"
       d="m 134.31142,19.958616 c 1.65143,4.102734 1.48153,10.95295 5.7935,11.936154 3.93529,0.897335 9.48713,-7.524661 9.48713,-7.524661 0,0 -2.64839,-1.80462 -3.64457,-3.031155 -3.19532,-3.934289 -3.3764,-10.017582 -7.11853,-13.4359461 -2.60176,-2.3766366 -3.84805,-3.9472614 -9.75,-4.0859536 0,0 3.12044,10.8945247 5.23247,16.1415617 z"
       id="path2933"
       sodipodi:nodetypes="aacaaca" />
    <path
       style="fill:#732486;fill-opacity:1;stroke:none;stroke-width:0.204902px;stroke-linecap:butt;stroke-linejoin:miter;stroke-opacity:1"
       d="m 125.49153,18.392488 c 0,0 -2.05336,-2.141511 -3.07096,-6.707839 0,0 0.41895,-2.8621941 -2.14439,-5.4392894 -3.31087,-3.3286376 -4.82988,-1.7632215 -6.7511,-0.5758245 -1.44589,0.8936004 -1.97584,3.0408604 -1.88457,4.7381389 0.23242,4.321447 3.28864,8.159499 6.06455,11.479636 2.2216,2.657166 8.18235,6.404288 8.18235,6.404288 8.50666,-4.003377 19.5353,-16.782273 19.5353,-16.782273 0,0 -2.2333,0.550764 -4.90449,-1.9246895 -1.13219,-1.0492206 -1.16981,-2.2446271 -1.16981,-2.2446271 -8.77539,9.7119186 -8.67191,7.0872086 -13.85688,11.0524796 z"
       id="path2935"
       sodipodi:nodetypes="ccsaaaccscc" />
    <path
       style="fill:#3f144a;fill-opacity:1;stroke:none;stroke-width:0.204902px;stroke-linecap:butt;stroke-linejoin:miter;stroke-opacity:1"
       d="m 138.91035,8.8797499 c 0,0 0.60344,-0.8318339 0.67535,-1.3211754 0.21424,-1.457386 -0.54418,-2.89551 -0.79402,-4.3472206 -0.18452,-1.0719962 -0.52047,-3.22146744 -0.52047,-3.22146744 l -1.75229,-2.34091316 c 0,0 0.69442,-0.638623 1.11826,-0.61086 1.01554,0.066582 1.85911,0.9834248 2.4656,1.8006893 0.55126,0.74284475 0.91716,2.6192066 0.91716,2.6192066 l 1.88764,-0.49676134 2.41506,-2.12416516 1.36422,-2.0515882 0.65391,-1.9326249 0.66845,-1.9270232 0.9508,-0.6458709 0.18598,0.081815 0.12211,0.4267888 0.89228,-0.3728843 c 0,0 0.19483,2.2949691 0.22013,3.4455616 0.0317,1.4374606 0.25864,2.9165903 -0.0857,4.31255376 -0.53801,2.18128814 -1.8916,4.08241564 -3.01502,6.02801294 -0.99371,1.7209873 -3.28468,4.9753277 -3.28468,4.9753277 l -1.42328,1.501611 z"
       id="path2047"
       sodipodi:nodetypes="caaccaaccccccccccaaaccc" />
    <path
       style="fill:#732486;fill-opacity:1;stroke:none;stroke-width:0.204902px;stroke-linecap:butt;stroke-linejoin:miter;stroke-opacity:1"
       d="m 138.91035,8.8797499 c 0,0 0.84053,-0.7083007 0.97146,-1.2082069 0.38487,-1.4692775 -0.51357,-2.994081 -0.74774,-4.4947577 -0.17174,-1.1009385 -0.48216,-3.30787678 -0.48216,-3.30787678 l -2.13299,-2.21993522 c 0,0 0.69442,-0.638623 1.11826,-0.61086 1.01554,0.066582 1.85911,0.9834248 2.4656,1.8006893 0.55126,0.74284475 0.91716,2.6192066 0.91716,2.6192066 l 1.88764,-0.49676134 2.41506,-2.12416516 1.36422,-2.0515882 0.65391,-1.9326249 0.66845,-1.9270232 0.9508,-0.6458709 0.18598,0.081815 0.12211,0.4267888 0.89228,-0.3728843 c 0,0 0.22554,2.2947234 0.22013,3.4455616 -0.007,1.4266502 0.0651,2.8927092 -0.31234,4.26855062 -0.59145,2.15654718 -1.90958,4.04765038 -2.99219,6.00430388 -0.95367,1.7236407 -3.08091,5.0430399 -3.08091,5.0430399 l -1.42328,1.501611 z"
       id="path2041"
       sodipodi:nodetypes="caaccaaccccccccccaaaccc" />
    <path
       style="fill:#b346cd;fill-opacity:1;stroke:none;stroke-width:0.204902px;stroke-linecap:butt;stroke-linejoin:miter;stroke-opacity:1"
       d="m 142.85835,0.98119792 c 3.68985,-2.33599942 4.66204,-5.02925712 5.48371,-8.27932292 l -0.33127,0.2267722 c -0.64764,2.1225928 -1.82523,5.4434665 -5.15244,8.05247701 z"
       id="path2043"
       sodipodi:nodetypes="cccc" />
    <path
       style="fill:#b346cd;fill-opacity:1;stroke:none;stroke-width:0.204902px;stroke-linecap:butt;stroke-linejoin:miter;stroke-opacity:1"
       d="m 147.84714,-0.70183018 c 1.39259,-2.21030422 1.80191,-4.39547422 1.68632,-6.61764532 l -0.25776,0.1002417 c -0.0197,2.2250948 -0.79439,4.7096139 -1.42856,6.51737905 z"
       id="path2045"
       sodipodi:nodetypes="cccc" />
    <path
       style="fill:#3f144a;fill-opacity:1;stroke:none;stroke-width:0.204902px;stroke-linecap:butt;stroke-linejoin:miter;stroke-opacity:1"
       d="m 150.38409,-4.067739 c 0,0 -0.44483,3.31944877 -2.01734,5.2947501 1.75577,-0.6293604 2.01734,-5.2947501 2.01734,-5.2947501 z"
       id="path2049"
       sodipodi:nodetypes="ccc" />
    <path
       style="fill:#3f144a;fill-opacity:1;stroke:none;stroke-width:0.204902px;stroke-linecap:butt;stroke-linejoin:miter;stroke-opacity:1"
       d="m 149.30993,-4.1227982 c 0,0 -0.84284,3.2413438 -2.64262,5.01205879 1.81899,-0.41248955 2.64262,-5.01205879 2.64262,-5.01205879 z"
       id="path2051"
       sodipodi:nodetypes="ccc" />
    <path
       style="fill:#3f144a;fill-opacity:1;stroke:none;stroke-width:0.234038px;stroke-linecap:butt;stroke-linejoin:miter;stroke-opacity:1"
       d="m 121.55984,-5.682244 c 0.17002,-3.8278067 0.42124,-8.795125 7.76237,-8.261633 6.19164,0.449957 5.73574,7.1937152 5.37605,11.4489494 0,0 -1.40889,8.5308116 -6.61723,8.4273022 -4.50365,-0.089431 -6.71243,-7.3124576 -6.52119,-11.6146186 z"
       id="path2927"
       sodipodi:nodetypes="sscss" />
    <path
       style="fill:#732486;fill-opacity:1;stroke:none;stroke-width:0.234038px;stroke-linecap:butt;stroke-linejoin:miter;stroke-opacity:1"
       d="m 121.96405,-5.866389 c 0.17002,-3.8277821 0.0147,-8.553169 7.35816,-8.077488 6.15012,0.398362 5.73574,7.1937152 5.37605,11.4489494 0,0 -1.25646,6.8286688 -6.46481,6.725184 -4.50365,-0.089677 -6.46064,-5.7944597 -6.2694,-10.0966454 z"
       id="path2925"
       sodipodi:nodetypes="sscss" />
    <path
       style="fill:#33103c;fill-opacity:1;stroke:none;stroke-width:0.244211px;stroke-linecap:butt;stroke-linejoin:miter;stroke-opacity:1"
       d="m 130.39391,-6.4905162 c 0,0 -0.78547,-0.4932725 -1.23121,-0.5404942 -0.43757,-0.046435 -1.29304,0.2657633 -1.29304,0.2657633 l 0.24274,1.0301796 c 0,0 0.60612,-0.6154297 0.98581,-0.5802223 0.39696,0.036608 0.90166,0.785644 0.90166,0.785644 z"
       id="path1607"
       sodipodi:nodetypes="caccacc" />
    <circle
       style="fill:#33103c;fill-opacity:1;stroke:none;stroke-width:3.73518;stroke-linecap:round;paint-order:stroke fill markers"
       id="path2907"
       cx="131.88821"
       cy="-5.5679789"
       r="2.3403811" />
    <circle
       style="fill:#33103c;fill-opacity:1;stroke:none;stroke-width:3.73516;stroke-linecap:round;paint-order:stroke fill markers"
       id="circle2909"
       cx="126.13649"
       cy="-5.9590683"
       r="2.3403811" />
    <circle
       style="fill:#5a1d69;fill-opacity:1;stroke:none;stroke-width:3.68253;stroke-linecap:round;paint-order:stroke fill markers"
       id="circle2911"
       cx="126.32153"
       cy="-5.9564815"
       r="2.3073924" />
    <circle
       style="fill:#5a1d69;fill-opacity:1;stroke:none;stroke-width:3.68253;stroke-linecap:round;paint-order:stroke fill markers"
       id="circle2913"
       cx="132.09216"
       cy="-5.5748768"
       r="2.3073924" />
    <circle
       style="fill:#d093e2;fill-opacity:1;stroke:none;stroke-width:3.16798;stroke-linecap:round;paint-order:stroke fill markers"
       id="circle2915"
       cx="126.32153"
       cy="-5.9564815"
       r="1.9850059" />
    <circle
       style="fill:#d093e2;fill-opacity:1;stroke:none;stroke-width:3.16798;stroke-linecap:round;paint-order:stroke fill markers"
       id="circle2917"
       cx="132.08916"
       cy="-5.536788"
       r="1.9850059" />
    <path
       style="fill:#33103c;fill-opacity:1;stroke:none;stroke-width:0.0753468px;stroke-linecap:butt;stroke-linejoin:miter;stroke-opacity:1"
       d="m 123.95965,-6.1624213 -1.66999,-0.4860001 c 0,0 1.41631,0.5129769 1.57488,1.316065 z"
       id="path2919"
       sodipodi:nodetypes="cccc" />
    <path
       style="fill:#e4bceb;fill-opacity:1;stroke:none;stroke-width:0.0621121px;stroke-linecap:butt;stroke-linejoin:miter;stroke-opacity:1;filter:url(#filter1887)"
       d="m 145.12747,170.23262 c -0.0864,0.19214 -0.13661,0.57883 -0.13826,0.87368 -0.001,0.30684 0.0279,0.68469 0.13373,0.91077 0,0 0.18253,0.28565 0.53811,0.32952 0,0 -0.18318,-0.54886 -0.18318,-1.20387 0,-0.74405 0.18318,-1.19966 0.18318,-1.19966 -0.39299,0.007 -0.53358,0.28956 -0.53358,0.28956 z"
       id="path2921"
       sodipodi:nodetypes="caccscc"
       transform="matrix(-1.2585141,0,0,1.2585141,316.13946,-220.94517)" />
    <path
       style="fill:#e4bceb;fill-opacity:1;stroke:none;stroke-width:0.0621121px;stroke-linecap:butt;stroke-linejoin:miter;stroke-opacity:1;filter:url(#filter1887)"
       d="m 145.12747,170.23262 c -0.0864,0.19214 -0.13661,0.57883 -0.13826,0.87368 -0.001,0.30684 0.0279,0.68469 0.13373,0.91077 0,0 0.18253,0.28565 0.53811,0.32952 0,0 -0.18318,-0.54886 -0.18318,-1.20387 0,-0.74405 0.18318,-1.19966 0.18318,-1.19966 -0.39299,0.007 -0.53358,0.28956 -0.53358,0.28956 z"
       id="path2923"
       sodipodi:nodetypes="caccscc"
       transform="matrix(-1.2585141,0,0,1.2585141,310.19424,-221.30261)" />
    <path
       style="fill:#ffffff;fill-opacity:1;stroke:none;stroke-width:0.204902px;stroke-linecap:butt;stroke-linejoin:miter;stroke-opacity:1"
       d="m 125.37588,19.141303 c 0,0 -1.93771,-2.890326 -2.95531,-7.456654 0,0 0.15552,-2.5990597 -2.40787,-5.176155 -3.31087,-3.3286376 -4.60824,-1.944713 -6.48762,-0.8389589 -1.46498,0.8619309 -2.01562,3.0434647 -1.88457,4.7381389 0.33171,4.289925 3.72093,7.883221 6.55782,11.118275 2.17684,2.482357 7.80131,6.102997 7.80131,6.102997 8.50666,-4.003377 19.42307,-16.119621 19.42307,-16.119621 0,0 -2.42663,0.907875 -5.09783,-1.5675785 -1.13219,-1.0492207 -1.18312,-1.972304 -1.18312,-1.972304 -8.77539,9.7119185 -8.58091,7.2065895 -13.76588,11.1718605 z"
       id="path1649"
       sodipodi:nodetypes="ccsaaaccscc" />
    <path
       style="fill:#ffffff;fill-opacity:1;stroke:#732486;stroke-width:0.204902px;stroke-linecap:butt;stroke-linejoin:miter;stroke-opacity:1"
       d="m 108.48472,30.837441 c -6.33331,-2.481251 -9.707918,-13.620189 -9.707918,-13.620189 0,0 -5.892933,-1.260956 -10.130944,3.654792 7.772194,-5.392977 7.956756,20.760712 36.900162,8.804903 0,0 -9.68113,4.051901 -17.0613,1.160494 z"
       id="path2937"
       sodipodi:nodetypes="scccs" />
    <path
       style="fill:#ffffff;stroke:#732486;stroke-width:0.204902px;stroke-linecap:butt;stroke-linejoin:miter;stroke-opacity:1"
       d="m 145.06378,29.011692 c 4.6254,-2.560118 3.93474,-6.638308 6.78521,-7.748214 0,0 7.65475,0.406003 8.16702,6.283309 -5.80672,-7.983143 -13.64213,9.237123 -21.66051,3.277584 4.08313,-1.386333 2.39782,0.573146 6.70828,-1.812679 z"
       id="path2939"
       sodipodi:nodetypes="scccs" />
    <path
       style="fill:#ffffff;stroke:#732486;stroke-width:0.204902px;stroke-linecap:butt;stroke-linejoin:miter;stroke-opacity:1"
       d="m 101.33537,23.080088 c 0,0 3.29663,-1.591116 4.13944,-3.135673 0.84279,-1.544532 6.44854,5.485283 6.44854,5.485283"
       id="path2941"
       sodipodi:nodetypes="csc" />
    <path
       style="fill:none;stroke:#732486;stroke-width:0.204902px;stroke-linecap:butt;stroke-linejoin:miter;stroke-opacity:0.972549"
       d="m 107.4681,20.622963 c 0,0 3.48669,2.757039 5.43221,2.876076"
       id="path2943"
       sodipodi:nodetypes="cc" />
    <path
       style="fill:#ffffff;stroke:#732486;stroke-width:0.204902px;stroke-linecap:butt;stroke-linejoin:miter;stroke-opacity:1"
       d="m 149.39501,24.139947 c 0,0 -2.70977,-1.174793 -4.24143,-5.071811 -0.63022,-1.603498 -4.51844,3.049288 -4.51844,3.049288"
       id="path2945"
       sodipodi:nodetypes="csc" />
    <path
       style="fill:none;stroke:#732486;stroke-width:0.204902px;stroke-linecap:butt;stroke-linejoin:miter;stroke-opacity:1"
       d="m 144.31146,18.808196 c 0,0 -3.55856,1.695042 -4.95251,0.52929"
       id="path2949" />
    <text
       xml:space="preserve"
       id="text6895"
       style="font-style:normal;font-weight:normal;font-size:3.33594px;line-height:1.25;font-family:sans-serif;letter-spacing:0px;word-spacing:0px;white-space:pre;shape-inside:url(#rect6933);fill:url(#linearGradient1575);fill-opacity:1;stroke:none;"
       transform="matrix(15.019632,0,0,15.019632,-115.91251,-364.59225)"><tspan
         x="32.507812"
         y="23.74818"><tspan
           style="font-style:normal;font-variant:normal;font-weight:bold;font-stretch:normal;font-size:3.33594px;font-family:sans-serif;-inkscape-font-specification:'sans-serif, Bold';font-variant-ligatures:normal;font-variant-caps:normal;font-variant-numeric:normal;font-variant-east-asian:normal;fill:url(#linearGradient1575);fill-opacity:1">$</tspan></tspan></text>
    <path
       style="fill:#33103c;fill-opacity:1;stroke:none;stroke-width:0.106251px;stroke-linecap:butt;stroke-linejoin:miter;stroke-opacity:1"
       d="m 368.92265,-9.3475193 c 0,0 7.89602,-6.0909357 8.12501,-6.6554507 0.50177,-0.684221 3.95149,-8.319056 3.95149,-8.319056 0.3998,-0.918524 -0.46147,-2.637294 -0.10447,-4.529482 -0.68559,-1.187557 -2.98948,-1.528049 -2.98948,-1.528049 0,0 0.66199,-0.74359 1.1168,-0.80566 0.84466,-0.115298 2.39919,0.885769 2.39919,0.885769 l 3.27626,-6.050257 0.50836,0.559623 -2.04879,5.022027 c 0,0 1.25318,0.347194 1.83565,0.628241 0.54804,0.26446 1.5375,0.9842 1.5375,0.9842 l 2.80088,-4.726482 0.62647,0.280919 -2.60909,5.986327 c -1.34375,2.952204 -2.44126,2.484527 -3.98666,4.571193 -1.35094,3.910389 -2.7854,9.770385 -2.7854,9.770385 l -6.26553,9.2528297"
       id="path6897"
       sodipodi:nodetypes="cccccaccccaccccccc" />
    <path
       style="fill:#732486;fill-opacity:1;stroke:none;stroke-width:0.106251px;stroke-linecap:butt;stroke-linejoin:miter;stroke-opacity:1"
       d="m 369.20121,-9.6155331 c 0,0 7.61746,-5.8229219 7.84645,-6.3874369 0.50177,-0.684221 4.17381,-8.25417 4.17381,-8.25417 0.39979,-0.918525 -0.68379,-2.70218 -0.32674,-4.594368 -0.68559,-1.187557 -2.98948,-1.528049 -2.98948,-1.528049 0,0 0.66199,-0.74359 1.1168,-0.80566 0.84466,-0.115298 2.39919,0.885769 2.39919,0.885769 l 3.27627,-6.050257 0.50835,0.559623 -2.04879,5.022027 c 0,0 -0.3855,0.819343 -0.51168,1.252252 -0.16083,0.551775 -0.30755,1.696564 -0.30755,1.696564 0,0 0.52151,-2.157998 0.91664,-2.728564 0.36289,-0.524002 1.73121,0.204873 1.87683,0.274689 0.137,0.06612 1.38173,0.728811 1.21309,1.099243 -0.38734,0.850849 -1.72065,2.316714 -1.72065,2.316714 0,0 0.74383,-0.520726 1.03704,-0.861232 0.36536,-0.424322 0.86943,-1.437327 0.86943,-1.437327 l 2.80088,-4.726482 0.62648,0.280919 -2.63603,5.807724 c -1.34375,2.952204 -2.43981,2.390581 -3.98521,4.477247 -1.35094,3.910388 -3.1362,9.94565 -3.1362,9.94565 l -6.49063,8.8382667"
       id="path6899"
       sodipodi:nodetypes="cccccaccccacssscaccccccc" />
    <path
       style="fill:#000000;stroke:none;stroke-width:0.106251px;stroke-linecap:butt;stroke-linejoin:miter;stroke-opacity:1"
       d="m 375.05879,-2.6248897 c 0,0 -0.34415,-0.9962646 -0.18711,-1.4616866 0.23243,-0.6888837 1.53104,-1.5534537 1.53104,-1.5534537 0,0 -2.279,-2.1070118 -3.0892,-3.4090137 -0.69237,-1.1126583 -1.44744,-3.6553063 -1.44744,-3.6553063 l -5.63079,1.610606 5.20906,6.5749082 z"
       id="path6901"
       sodipodi:nodetypes="cacacccc" />
    <path
       style="fill:#732486;fill-opacity:1;stroke:none;stroke-width:0.106251px;stroke-linecap:butt;stroke-linejoin:miter;stroke-opacity:1"
       d="m 360.90463,11.134362 c 0,0 -8.05407,-9.5728868 -4.51359,-15.1879669 3.88004,-6.1535921 4.75946,-7.9984121 4.75946,-7.9984121 0,0 -1.48589,0.824884 7.68816,5.5472005 4.67094,2.4043662 5.69833,12.3486661 5.69833,12.3486661 0,0 7.483,2.6536776 -4.76307,7.8615964 -16.88658,7.181401 -8.86929,-2.571084 -8.86929,-2.571084 z"
       id="path6903"
       sodipodi:nodetypes="cscscsc" />
    <path
       id="path6905"
       style="fill:#33103c;fill-opacity:1;stroke:none;stroke-width:1.59376;stroke-linecap:round;paint-order:stroke fill markers"
       d="m 364.94075,-20.926274 c -8.13135,0.05746 -8.50329,12.7822373 -2.71592,15.6841307 1.10423,0.5756368 2.50194,0.3353709 3.59107,-0.1642966 1.74615,-0.8010732 2.91845,-2.5747398 3.9549,-4.1923145 0.89973,-1.4042156 1.8716,-2.9093976 1.87163,-4.6399516 -2e-5,-3.693437 -2.99414,-6.687556 -6.68757,-6.687568 z"
       sodipodi:nodetypes="ccaacsc" />
    <path
       style="fill:#000000;fill-opacity:1;stroke:none;stroke-width:0.106251px;stroke-linecap:butt;stroke-linejoin:miter;stroke-opacity:1"
       d="m 363.17272,-11.690707 c 0,0 -3.51745,-1.705049 6.22593,1.69055 6.16427,2.148264 7.58718,15.9389842 7.58718,15.9389842 0,0 5.03416,2.5587 -7.21191,7.7666188 0.82459,-12.3330469 -0.22607,-15.2235506 -6.6012,-25.396153 z"
       id="path6907"
       sodipodi:nodetypes="csccc" />
    <path
       style="fill:#000000;fill-opacity:1;stroke:none;stroke-width:0.106251px;stroke-linecap:butt;stroke-linejoin:miter;stroke-opacity:1"
       d="m 347.41339,14.151223 c 0,0 -1.52719,-14.15071815565 2.52214,-19.4106674 4.31425,-5.6040726 11.26739,-6.1286086 11.26739,-6.1286086 0.1434,13.2617758 3.96063,13.5616145 3.88782,26.886288 -13.98851,3.812914 -17.67735,-1.347012 -17.67735,-1.347012 z"
       id="path6909"
       sodipodi:nodetypes="csccc" />
    <path
       id="path6911"
       style="fill:#732486;fill-opacity:1;stroke:none;stroke-width:1.59376;stroke-linecap:round;paint-order:stroke fill markers"
       d="m 364.94075,-20.926274 c -3.64049,0.0076 -6.29373,2.907613 -6.46142,6.01768 -0.26917,3.219173 0.68972,7.2272275 3.15113,8.9183382 1.19861,0.6980693 2.84664,0.8318151 4.14662,0.3480473 1.75294,-0.6523323 2.88767,-2.4537469 3.92434,-4.010564 0.92001,-1.3816405 1.94098,-2.8553795 1.94101,-4.5859335 -2e-5,-3.693437 -2.99414,-6.687556 -6.68757,-6.687568 z"
       sodipodi:nodetypes="cccaacsc" />
    <path
       style="fill:#800080;fill-opacity:1;stroke:none;stroke-width:0.106251px;stroke-linecap:butt;stroke-linejoin:miter;stroke-opacity:1"
       d="m 367.61311,-12.771745 9.2567,-5.762241 -5.89286,-0.295583 5.83288,-5.873259 -7.47042,2.761153 2.21293,-7.068192 -4.45903,5.121502 -0.97903,-5.361653 -1.66615,5.579254 -2.46789,-3.419983 0.25822,4.505034 -2.47434,-0.675864 1.43049,3.530351 c 0,0 3.03114,-2.35747 5.23846,0.191433 2.52468,2.91536 1.18004,6.768048 1.18004,6.768048 z"
       id="path6913"
       sodipodi:nodetypes="cccccccccccccsc" />
    <path
       style="fill:#ff00ff;fill-opacity:1;stroke:none;stroke-width:0.106251px;stroke-linecap:butt;stroke-linejoin:miter;stroke-opacity:1"
       d="m 376.86981,-18.533986 -6.25589,-0.311521 6.19591,-5.857321 -7.48725,2.809056 2.22976,-7.116095 -4.43796,5.419914 -1.0001,-5.660065 -1.49896,5.772305 -2.63508,-3.613034 0.41162,4.515251 -2.62774,-0.686081 1.60364,3.388579 c 0,0 3.04857,-2.339519 5.1869,0.09861 2.94013,3.35232 1.09988,6.955888 1.09988,6.955888 2.51448,-1.96487 9.21527,-5.715485 9.21527,-5.715486 z"
       id="path6915"
       sodipodi:nodetypes="ccccccccccccscc" />
    <path
       style="fill:#33103c;fill-opacity:1;stroke:none;stroke-width:0.106251px;stroke-linecap:butt;stroke-linejoin:miter;stroke-opacity:1"
       d="m 382.33784,-27.819239 c 0,0 0.50214,0.5644 0.83499,0.720466 0.44392,0.208161 1.45092,0.241616 1.45092,0.241616 0,0 -0.94557,-0.17645 -1.38059,-0.370966 -0.32902,-0.147111 -0.90532,-0.591116 -0.90532,-0.591116 z"
       id="path6917"
       sodipodi:nodetypes="cacac" />
    <path
       style="fill:#515151;fill-opacity:1;stroke:none;stroke-width:0.106251px;stroke-linecap:butt;stroke-linejoin:miter;stroke-opacity:1"
       d="m 361.37639,14.017184 15.51973,-6.9034758 7.62309,4.7582048 -17.87205,7.339621 z"
       id="path6919"
       sodipodi:nodetypes="ccccc" />
    <path
       style="fill:#33103c;fill-opacity:1;stroke:none;stroke-width:0.106251px;stroke-linecap:butt;stroke-linejoin:miter;stroke-opacity:1"
       d="m 352.70578,10.554547 11.52675,1.305008 c 0,0 1.38546,0.908511 2.38331,1.407389 l 0.84139,0.947164 0.44268,0.794244 0.49359,-0.02357 -0.16019,-0.988327 -0.53035,-0.901466 0.0963,-0.05109 1.28117,1.02967 0.91153,1.283719 0.67014,-0.163468 -0.65112,-1.539784 -0.98443,-1.142368 0.10804,-0.0465 1.56772,0.950833 0.95687,1.191188 0.62254,-0.235322 -0.6737,-1.337726 -1.2504,-1.004418 0.0919,-0.0465 1.66632,0.639299 1.27958,0.887451 0.60935,-0.226213 -1.37175,-1.348771 -1.51636,-0.818031 -1.02974,-0.413225 1.18346,-0.423507 0.17383,-0.6822083 -2.32128,0.5630623 -2.87128,-0.01605 -10.31168,-3.4890977 c 0,0 0.0938,-3.8281637 0.15927,-5.7416659 0.0438,-1.28147761 0.90501,-2.499433 0.15657,-3.8435155 -1.43208,-2.1049607 -3.50793,-1.8870028 -4.85352,-0.7358056 -1.27344,1.1939657 -1.35804,3.21742786 -1.3496,4.9170362 0.0161,3.2244349 2.65304,9.3025165 2.65304,9.3025165 z"
       id="path6921"
       sodipodi:nodetypes="ccccccccccccccccccccccccccccccccaccacc" />
    <path
       style="fill:#732486;fill-opacity:1;stroke:none;stroke-width:0.106251px;stroke-linecap:butt;stroke-linejoin:miter;stroke-opacity:1"
       d="m 364.25361,11.865097 c 0,0 1.46276,0.730137 2.46062,1.229014 l 0.743,1.119997 0.44268,0.794244 0.49359,-0.02357 -0.16019,-0.988327 -0.53035,-0.901466 0.16638,-0.08994 1.21111,1.068527 0.91153,1.283719 0.67014,-0.163468 -0.65112,-1.539784 -0.98443,-1.142368 0.10804,-0.0465 1.56772,0.950833 0.95687,1.191188 0.62254,-0.235322 -0.6737,-1.337726 -1.2504,-1.004418 0.0919,-0.0465 1.66632,0.639299 1.27958,0.887451 0.60935,-0.226213 -1.37175,-1.348771 -1.51636,-0.818031 -1.02974,-0.413225 1.18346,-0.423507 0.17383,-0.6822083 -2.32128,0.5630623 -2.90714,0.07797 -10.27582,-3.583108 c 0,0 0.0938,-3.8281637 0.15927,-5.74166586 0.0438,-1.28147761 0.90501,-2.49943294 0.15657,-3.84351554 -1.43208,-2.1049607 -3.50793,-1.8870027 -4.85352,-0.7358056 -1.27344,1.1939658 -1.38001,3.2176827 -1.3496,4.9170362 0.0566,3.1633843 3.00882,8.9064648 2.83822,9.0573838 z"
       id="path6923"
       sodipodi:nodetypes="cccccccccccccccccccccccccccccccaccacc" />
    <path
       style="fill:#6a6a6a;fill-opacity:1;stroke:none;stroke-width:0.106251px;stroke-linecap:butt;stroke-linejoin:miter;stroke-opacity:1"
       d="M 366.64716,19.211534 369.41613,7.9254704 387.29539,0.5564072 384.51921,11.871913 Z"
       id="path6925"
       sodipodi:nodetypes="ccccc" />
    <path
       style="fill:#454545;fill-opacity:1;stroke:none;stroke-width:0.106251px;stroke-linecap:butt;stroke-linejoin:miter;stroke-opacity:1"
       d="m 361.37639,14.017171 5.27077,5.19435 -0.0115,0.439216 -5.22931,-5.603448 -0.0306,-0.03007"
       id="path6927" />
    <path
       style="fill:#4c4c4c;fill-opacity:1;stroke:none;stroke-width:0.106251px;stroke-linecap:butt;stroke-linejoin:miter;stroke-opacity:1"
       d="m 366.63621,19.650737 0.0115,-0.439203 17.87927,-7.369063 -0.003,0.41929 z"
       id="path6929"
       sodipodi:nodetypes="ccccc" />
    <path
       style="fill:url(#linearGradient7211);fill-opacity:1;stroke:none;stroke-width:0.276785px;stroke-linecap:butt;stroke-linejoin:miter;stroke-opacity:1"
       d="M -0.52874897,29.980143 24.170435,7.5755992 52.365334,22.37045 61.355308,10.529419 59.250223,8.4976598 67.546713,5.1557637 65.404988,14.365255 63.010963,12.187569 52.713845,25.306631 24.402768,10.750747 Z"
       id="path7201"
       sodipodi:nodetypes="ccccccccccc" />
    <g
       id="g7236"
       transform="matrix(1.3233625,0,0,1.2864372,-5.8087736,-11.875641)">
      <g
         id="g7199"
         transform="matrix(0.73828022,0,0,0.73828022,-141.87511,48.681123)">
        <path
           style="fill:#732486;fill-opacity:1;stroke:#732486;stroke-width:0.506249px;stroke-linecap:butt;stroke-linejoin:miter;stroke-opacity:1"
           d="m 200.70277,15.044546 54.30246,-0.03171 c 0.35055,-6.8182273 2.05652,-31.379722 -31.30158,-30.956701 -22.7025,-0.307368 -23.00088,30.988407 -23.00088,30.988407 z"
           id="path7171"
           sodipodi:nodetypes="cccc" />
        <path
           style="fill:#db7cc7;fill-opacity:1;stroke:none;stroke-width:0.506249px;stroke-linecap:butt;stroke-linejoin:miter;stroke-opacity:1"
           d="m 245.9693,15.333992 c 0,0 1.67851,-9.1887649 -2.98272,-13.5086147 7.71834,-2.44934101 6.43276,-0.87770279 11.1028,-2.8628475 -0.8544,-4.0297564 -2.1705,-5.95098 -7.08681,-9.8096438 -4.42512,-3.473148 -12.07726,-4.669773 -22.67254,-4.550665 -6.63802,0.06259 -11.41527,2.009014 -14.84727,4.893454 -3.43199,2.8844391 -5.51873,6.7068888 -6.77571,10.52151537 4.8171,0.12282074 3.10747,-0.12315862 10.5897,1.20947503 -3.4181,8.0677117 -0.87205,14.1832246 -0.87205,14.1832246 z"
           id="path7175"
           sodipodi:nodetypes="cccscscccc" />
        <path
           style="fill:#800080;stroke:none;stroke-width:0.274668px;stroke-linecap:butt;stroke-linejoin:miter;stroke-opacity:1;fill-opacity:1"
           d="m 216.57953,-21.701536 -0.53584,8.301683 21.335,0.373589 -0.69166,-8.534196 z"
           id="path7360" />
        <path
           style="fill:#e9afdd;fill-opacity:1;stroke:none;stroke-width:0.506249px;stroke-linecap:butt;stroke-linejoin:miter;stroke-opacity:1"
           d="m 244.4723,15.280669 c 0,0 4.68941,-8.2764075 -2.86689,-13.7951134 7.71834,-2.44934104 7.81393,-0.53788109 12.48397,-2.5230258 -0.8544,-4.0297564 -2.52912,-5.4224943 -7.44543,-9.2811578 -4.42512,-3.473148 -11.71864,-5.198259 -22.31392,-5.079151 -6.63802,0.06259 -11.10742,2.304931 -14.53942,5.189371 -3.43199,2.884439 -5.13975,6.0569092 -6.39673,9.87153579 4.8171,0.12282074 2.42064,0.23090396 9.90287,1.56353761 -3.4181,8.0677117 -0.22261,14.0507936 -0.22261,14.0507936 z"
           id="path7173"
           sodipodi:nodetypes="cccscscccc" />
        <path
           style="fill:#3f144a;fill-opacity:1;stroke:none;stroke-width:0.264583px;stroke-linecap:butt;stroke-linejoin:miter;stroke-opacity:1"
           d="m 218.30816,-25.346105 c 0.0479,1.097259 0.048,11.865422 8.38275,11.81748 6.14896,-0.03537 8.97324,-5.455045 8.9107,-11.209781 -0.0545,-5.018061 -1.94898,-12.618058 -8.14958,-12.649622 -9.59309,-0.04883 -9.25651,9.460221 -9.14387,12.041923 z"
           id="path6887"
           sodipodi:nodetypes="sssss" />
        <path
           style="fill:#732486;fill-opacity:1;stroke:none;stroke-width:0.264583px;stroke-linecap:butt;stroke-linejoin:miter;stroke-opacity:1"
           d="m 218.65184,-25.376697 c 0.0479,1.097259 -0.18789,11.220287 8.14686,11.172345 6.14896,-0.03537 8.59879,-5.14921 8.53625,-10.903946 -0.0545,-5.018061 -1.68232,-12.248166 -7.88292,-12.27973 -9.59309,-0.04883 -8.91283,9.429629 -8.80019,12.011331 z"
           id="path6885"
           sodipodi:nodetypes="sssss" />
        <path
           style="fill:#33103c;fill-opacity:1;stroke:none;stroke-width:0.27311px;stroke-linecap:butt;stroke-linejoin:miter;stroke-opacity:1"
           d="m 228.29778,-29.205742 c 0,0 -1.01021,-0.433399 -1.56952,-0.447064 -0.54905,-0.01349 -1.59829,0.362381 -1.59829,0.362381 l 0.36489,1.010094 c 0,0 0.71974,-0.659835 1.19587,-0.653203 0.49777,0.0067 1.17281,0.716519 1.17281,0.716519 z"
           id="path6881"
           sodipodi:nodetypes="caccacc" />
        <ellipse
           style="fill:#33103c;fill-opacity:1;stroke:none;stroke-width:4.4695;paint-order:stroke fill markers"
           id="ellipse6865"
           cx="231.59308"
           cy="-28.126856"
           rx="3.7274172"
           ry="3.0184555" />
        <path
           style="fill:#33103c;fill-opacity:1;stroke:none;stroke-width:0.456582px;stroke-linecap:butt;stroke-linejoin:miter;stroke-opacity:1"
           d="m 224.44003,-30.282097 h 4.83432 l 0.15779,-0.271289 h -5.09243 z"
           id="path6883" />
        <path
           style="fill:#e4bceb;fill-opacity:1;stroke:none;stroke-width:0.0621121px;stroke-linecap:butt;stroke-linejoin:miter;stroke-opacity:1;filter:url(#filter1887)"
           d="m 145.12747,170.23262 c -0.0864,0.19214 -0.13661,0.57883 -0.13826,0.87368 -0.001,0.30684 0.0279,0.68469 0.13373,0.91077 0,0 0.18253,0.28565 0.53811,0.32952 0,0 -0.18318,-0.54886 -0.18318,-1.20387 0,-0.74405 0.18318,-1.19966 0.18318,-1.19966 -0.39299,0.007 -0.53358,0.28956 -0.53358,0.28956 z"
           id="path6879"
           sodipodi:nodetypes="caccscc"
           transform="matrix(-2.112835,0,0,1.6287311,530.68316,-307.18844)" />
        <path
           style="fill:#800080;fill-opacity:1;stroke:none;stroke-width:0.264583px;stroke-linecap:butt;stroke-linejoin:miter;stroke-opacity:1"
           d="m 226.96256,-36.481464 c 1.82738,1.925027 0.39274,2.79137 0.71233,3.468052 0.57077,1.208524 2.61592,-7.44e-4 3.90561,0.584833 1.2892,0.585357 2.55236,0.533808 2.55236,0.533808 l 1.1496,3.330677 c 0,0 0.56107,8.726212 -1.75698,11.509891 -1.99051,2.390337 1.14873,6.160802 1.14873,6.160802 0,0 -1.85797,3.8726294 1.15896,5.5478756 2.29112,1.2722182 6.22737,-2.0064962 6.22737,-2.0064962 0,0 7.00521,0.4050606 7.34961,-2.1214634 0.36814,-2.700571 -4.6767,-1.601384 -6.96233,-4.287585 -2.28562,-2.686203 -1.17884,-7.103241 -1.92718,-10.283034 -0.74833,-3.179793 -3.55981,-6.465756 -5.00901,-9.51269 -0.91922,-1.932653 -0.36882,-4.873287 -3.75903,-5.735203 -2.44565,-0.621774 -6.96319,-3.680574 -10.8834,-0.09977 -3.92021,3.580794 -5.27084,9.329783 -5.85919,12.302546 -0.65881,3.540669 0.67274,3.412071 0.34198,6.488304 -0.38763,3.605157 -1.95688,2.692216 -2.76985,8.634905 -0.37411,2.7347434 -0.95375,6.7363908 2.0679,6.8280308 3.02164,0.09164 5.98459,-0.3219882 7.17286,-2.4891037 0.96539,-1.7606132 -1.45216,-2.7848581 -1.64076,-4.3107201 -0.17571,-1.421682 0.81181,-2.835334 0.50484,-4.267744 -0.30696,-1.43241 -1.03903,-2.215459 -1.41559,-3.379233 -0.44985,-1.390302 -0.76335,-2.330364 -0.99811,-4.274293 0.0749,-1.797859 0.0862,-4.470016 0.0862,-4.470016 0.0723,-1.402281 0.80273,-1.855886 0.96303,-3.111771 0,0 0.39925,-1.557787 1.72948,-2.195061 1.0871,-0.788093 2.36674,1.135985 4.01928,0.820999 1.49491,-1.239393 1.89132,-3.666536 1.89132,-3.666536 z"
           id="path7157"
           sodipodi:nodetypes="cssccscscassssscssssazaccccccc" />
        <path
           style="fill:#ff00ff;fill-opacity:1;stroke:none;stroke-width:0.264583px;stroke-linecap:butt;stroke-linejoin:miter;stroke-opacity:1"
           d="m 226.96256,-36.481464 c 1.82738,1.925027 0.71385,2.64788 1.03344,3.324562 0.57077,1.208524 2.29481,0.142746 3.5845,0.728323 1.2892,0.585357 2.764,0.127671 2.764,0.127671 l 0.93796,3.736814 c 0,0 1.33009,9.003731 -0.98796,11.78741 -1.99051,2.390337 0.31298,5.923419 0.31298,5.923419 0,0 -1.38317,3.2907879 1.63376,4.9660341 2.29112,1.2722182 5.8193,-2.2655329 5.8193,-2.2655329 0,0 6.93614,1.1338083 7.34961,-1.3207212 0.46123,-2.738064 -4.97785,-1.391713 -7.26348,-4.077914 -2.28562,-2.686203 -0.87769,-7.312912 -1.62603,-10.492705 -0.74833,-3.179793 -3.55981,-6.465756 -5.00901,-9.51269 -0.91922,-1.932653 -0.36882,-4.873287 -3.75903,-5.735203 -2.44565,-0.621774 -6.96319,-3.680574 -10.8834,-0.09977 -3.92021,3.580794 -4.98156,9.365011 -5.56991,12.337774 -0.65881,3.540669 0.38346,3.376843 0.0527,6.453076 -0.38763,3.605157 -1.95688,2.692216 -2.76985,8.634905 -0.37411,2.7347434 -0.94821,6.3303066 2.07344,6.4219466 3.02164,0.09164 5.53631,-0.032985 6.72458,-2.2001008 0.96539,-1.7606132 -1.59075,-2.7007658 -1.70501,-4.2107238 -0.10989,-1.452324 1.3188,-2.818249 1.01183,-4.250659 -0.30696,-1.43241 -0.89028,-2.373508 -1.2327,-3.594118 -0.36159,-1.288934 -0.96112,-1.753248 -0.86414,-3.925196 0.0386,-2.222415 -0.49838,-4.598735 -0.49838,-4.598735 0.0723,-1.402281 0.74925,-2.054279 0.90955,-3.310164 0,0 0.72022,-1.364887 2.05045,-2.002161 1.0871,-0.788093 2.28116,0.866979 3.9337,0.551993 1.49491,-1.239393 1.9769,-3.39753 1.9769,-3.39753 z"
           id="path6889"
           sodipodi:nodetypes="cssccscscassssscssssazaccccccc" />
        <path
           style="fill:#3f144a;fill-opacity:1;stroke:none;stroke-width:0.264583px;stroke-linecap:butt;stroke-linejoin:miter;stroke-opacity:1"
           d="m 205.49178,7.2769303 6.71563,-11.4047681 5.49527,-7.8099212 2.5295,-5.372033 0.77859,0.829172 1.27587,1.386125 -0.4441,1.071781 2.42819,-0.488062 1.98922,-0.547716 2.1589,-1.001016 c 0,0 1.29756,0.04423 1.64239,0.501069 0.22523,0.298399 0.0207,1.121392 0.0207,1.121392 0,0 0.72276,-0.313895 0.91296,-0.07502 0.35788,0.449483 -0.52242,1.642598 -0.52242,1.642598 l -0.83514,0.702537 c 0,0 0.23747,0.210437 0.31159,0.347116 0.21045,0.388058 0.34345,1.279043 0.34345,1.279043 l -1.95777,2.3321969 c 0,0 0.0213,1.2839948 -0.29679,1.8037219 -0.85806,1.4021184 -3.96868,2.9273508 -3.96868,2.9273508 l -3.07772,1.9839243 -2.6512,0.69304959 -6.97612,16.08207051"
           id="path7169"
           sodipodi:nodetypes="ccccccccccacaccaccacccc" />
        <path
           style="fill:#732486;fill-opacity:1;stroke:none;stroke-width:0.264583px;stroke-linecap:butt;stroke-linejoin:miter;stroke-opacity:1"
           d="m 204.91599,8.2883333 7.55499,-12.0725344 5.64521,-7.8530399 2.01364,-5.214841 0.56015,0.867638 0.92245,0.922982 -0.15089,1.48391 2.80919,-0.933224 2.34174,-0.32141 1.73843,-0.885408 c 0,0 1.05108,-0.114683 1.41092,0.195043 0.28591,0.246097 0.32012,1.085504 0.32012,1.085504 0,0 0.73342,-0.322006 0.91296,-0.07502 0.33892,0.466251 -0.66649,1.595662 -0.66649,1.595662 l -0.69107,0.749473 c 0,0 0.2583,0.20105 0.31159,0.347116 0.14832,0.406528 -0.0413,1.297562 -0.0413,1.297562 l -1.65983,2.0710257 c 0,0 -0.0751,1.4186578 -0.45956,1.9742931 -0.91652,1.3245091 -4.01824,2.6838028 -4.01824,2.6838028 l -2.79159,2.1603824 -2.98097,0.5622306 -6.78177,16.3058074"
           id="path7159"
           sodipodi:nodetypes="ccccccccccacaccaccacccc" />
        <path
           style="fill:#3f144a;fill-opacity:1;stroke:none;stroke-width:0.264583px;stroke-linecap:butt;stroke-linejoin:miter;stroke-opacity:1"
           d="m 223.97693,-8.7045862 c 0.98008,-0.7301216 2.18251,-1.0643705 3.20133,-1.6322228 0.79652,-0.524633 1.53526,-1.085798 2.17837,-1.778743 z"
           id="path7163"
           sodipodi:nodetypes="cccc" />
        <path
           style="fill:#3f144a;fill-opacity:1;stroke:none;stroke-width:0.264583px;stroke-linecap:butt;stroke-linejoin:miter;stroke-opacity:1"
           d="m 224.42864,-6.0135386 1.38877,-1.0395817 2.46093,-1.2387025 -0.36288,0.3548973 z"
           id="path7165" />
        <path
           style="fill:#3f144a;fill-opacity:1;stroke:none;stroke-width:0.264583px;stroke-linecap:butt;stroke-linejoin:miter;stroke-opacity:1"
           d="m 229.89905,-14.2433 c 0,0 -2.72191,0.981387 -2.6974,0.934455 0,0 -2.33654,1.254151 -3.61146,1.562328 -0.85065,0.205622 -2.61972,0.173296 -2.61972,0.173296 0,0 1.64,0.188005 2.44526,0.06022 1.40604,-0.22312 4.0273,-1.421759 4.0273,-1.421759 z"
           id="path7167"
           sodipodi:nodetypes="ccacacc" />
        <ellipse
           style="fill:#33103c;fill-opacity:1;stroke:none;stroke-width:4.45804;paint-order:stroke fill markers"
           id="ellipse6863"
           cx="221.89984"
           cy="-28.312502"
           rx="3.68855"
           ry="3.034627" />
        <ellipse
           style="fill:#732486;fill-opacity:1;stroke:none;stroke-width:4.1587;paint-order:stroke fill markers"
           id="ellipse6867"
           cx="221.87138"
           cy="-28.49983"
           rx="3.4736426"
           ry="2.8041539" />
        <ellipse
           style="fill:#d093e2;fill-opacity:1;stroke:none;stroke-width:4.66963;stroke-linecap:round;paint-order:stroke fill markers"
           id="ellipse6877"
           cx="221.88098"
           cy="-28.511398"
           rx="3.3324933"
           ry="2.5689349" />
        <ellipse
           style="fill:#732486;fill-opacity:1;stroke:none;stroke-width:4.1587;paint-order:stroke fill markers"
           id="ellipse6871"
           cx="231.56799"
           cy="-28.280485"
           rx="3.4736426"
           ry="2.8041539" />
        <ellipse
           style="fill:#d093e2;fill-opacity:1;stroke:none;stroke-width:4.66963;stroke-linecap:round;paint-order:stroke fill markers"
           id="circle6873"
           cx="231.59235"
           cy="-28.3001"
           rx="3.3324933"
           ry="2.5689349" />
        <path
           style="fill:#e4bceb;fill-opacity:1;stroke:none;stroke-width:0.0621121px;stroke-linecap:butt;stroke-linejoin:miter;stroke-opacity:1;filter:url(#filter1887)"
           d="m 145.12747,170.23262 c -0.0864,0.19214 -0.13661,0.57883 -0.13826,0.87368 -0.001,0.30684 0.0279,0.68469 0.13373,0.91077 0,0 0.18253,0.28565 0.53811,0.32952 0,0 -0.18318,-0.54886 -0.18318,-1.20387 0,-0.74405 0.18318,-1.19966 0.18318,-1.19966 -0.39299,0.007 -0.53358,0.28956 -0.53358,0.28956 z"
           id="path6875"
           sodipodi:nodetypes="caccscc"
           transform="matrix(-2.112835,0,0,1.6287311,540.58203,-307.07516)" />
      </g>
    </g>
    <g
       id="g4256"
       transform="matrix(0.54967089,0,0,0.54967089,80.297698,44.226789)">
      <g
         id="g3423"
         transform="matrix(1.5343505,0,0,1.5343505,316.06604,-172.09146)">
        <text
           xml:space="preserve"
           id="text3235"
           style="font-style:normal;font-weight:normal;font-size:3.33594px;line-height:1.25;font-family:sans-serif;letter-spacing:0px;word-spacing:0px;white-space:pre;shape-inside:url(#rect3243);fill:#ff75ff;fill-opacity:1;stroke:none;"
           transform="matrix(2.0223293,0,0,2.0223293,103.54329,-129.9118)"><tspan
             x="-149.01172"
             y="122.83797"><tspan
               style="font-style:normal;font-variant:normal;font-weight:normal;font-stretch:normal;font-family:'Ubuntu Mono';-inkscape-font-specification:'Ubuntu Mono';fill:#ff75ff;fill-opacity:1">script </tspan></tspan></text>
        <g
           id="g3416">
          <path
             style="fill:none;stroke:#732486;stroke-width:1.07044;stroke-linecap:butt;stroke-linejoin:miter;stroke-miterlimit:4;stroke-dasharray:none;stroke-opacity:1"
             d="m -198.97552,118.93184 -3.71912,-2.14724 3.65344,-2.10931"
             id="path3237" />
          <path
             style="fill:none;stroke:#732486;stroke-width:1.07044;stroke-linecap:butt;stroke-linejoin:miter;stroke-miterlimit:4;stroke-dasharray:none;stroke-opacity:1"
             d="m -175.95514,114.67529 3.71912,2.14724 -3.65344,2.10931"
             id="path3239" />
        </g>
      </g>
      <g
         id="g3412"
         transform="matrix(1.5343505,0,0,1.5343505,328.18499,-171.95121)">
        <text
           xml:space="preserve"
           id="text3247"
           style="font-style:normal;font-weight:normal;font-size:3.33594px;line-height:1.25;font-family:sans-serif;letter-spacing:0px;word-spacing:0px;white-space:pre;shape-inside:url(#rect3255);fill:#ff75ff;fill-opacity:1;stroke:none;"
           transform="matrix(2.0223293,0,0,2.0223293,106.75619,-110.66341)"><tspan
             x="-149.01172"
             y="122.83797"><tspan
               style="font-style:normal;font-variant:normal;font-weight:normal;font-stretch:normal;font-family:'Ubuntu Mono';-inkscape-font-specification:'Ubuntu Mono';fill:#ff75ff;fill-opacity:1">script</tspan></tspan></text>
        <path
           style="fill:none;stroke:#732486;stroke-width:1.07044;stroke-linecap:butt;stroke-linejoin:miter;stroke-miterlimit:4;stroke-dasharray:none;stroke-opacity:1"
           d="m -198.59212,138.18023 -3.71912,-2.14724 3.65344,-2.10931"
           id="path3249" />
        <path
           style="fill:none;stroke:#732486;stroke-width:1.07044;stroke-linecap:butt;stroke-linejoin:miter;stroke-miterlimit:4;stroke-dasharray:none;stroke-opacity:1"
           d="m -173.71406,133.92367 3.71912,2.14724 -3.65344,2.10931"
           id="path3251" />
        <path
           style="fill:#000000;fill-opacity:0;stroke:#732486;stroke-width:0.699644;stroke-linecap:butt;stroke-linejoin:miter;stroke-miterlimit:4;stroke-dasharray:none;stroke-opacity:1"
           d="m -195.19841,131.86494 -2.24381,8.37402"
           id="path3253" />
      </g>
      <text
         xml:space="preserve"
         id="text3265"
         style="font-style:normal;font-variant:normal;font-weight:normal;font-stretch:normal;font-size:3.33594px;line-height:1.25;font-family:'Ubuntu Mono';-inkscape-font-specification:'Ubuntu Mono';letter-spacing:0px;word-spacing:0px;white-space:pre;shape-inside:url(#rect3267);fill:#732486;fill-opacity:1;stroke:none;"
         transform="matrix(1.47266,0,0,1.47266,283.04087,-170.27946)"><tspan
           x="-188.50977"
           y="128.52029"><tspan
             style="font-size:5.22971px">'cover your website </tspan></tspan><tspan
           x="-188.50977"
           y="135.05743"><tspan
             style="font-size:5.22971px">expenses'</tspan></tspan></text>
    </g>
    <text
       xml:space="preserve"
       id="text7354"
       style="font-style:normal;font-weight:normal;font-size:3.33594px;line-height:1.25;font-family:sans-serif;letter-spacing:0px;word-spacing:0px;white-space:pre;shape-inside:url(#rect7356);fill:url(#linearGradient7358);fill-opacity:1;stroke:none;"
       transform="matrix(6.9948929,0,0,6.9948929,-163.44917,-134.13032)"><tspan
         x="32.507812"
         y="23.74818"><tspan
           style="font-style:normal;font-variant:normal;font-weight:bold;font-stretch:normal;font-size:3.33594px;font-family:sans-serif;-inkscape-font-specification:'sans-serif, Bold';font-variant-ligatures:normal;font-variant-caps:normal;font-variant-numeric:normal;font-variant-east-asian:normal;fill:url(#linearGradient7358);fill-opacity:1">$</tspan></tspan></text>
  </g>
</svg>
