<?xml version="1.0" encoding="UTF-8" standalone="no"?>
<svg
   xmlns:dc="http://purl.org/dc/elements/1.1/"
   xmlns:cc="http://creativecommons.org/ns#"
   xmlns:rdf="http://www.w3.org/1999/02/22-rdf-syntax-ns#"
   xmlns:svg="http://www.w3.org/2000/svg"
   xmlns="http://www.w3.org/2000/svg"
   xmlns:xlink="http://www.w3.org/1999/xlink"
   xmlns:sodipodi="http://sodipodi.sourceforge.net/DTD/sodipodi-0.dtd"
   xmlns:inkscape="http://www.inkscape.org/namespaces/inkscape"
   width="300"
   height="250"
   viewBox="0 0 79.374999 66.145833"
   version="1.1"
   id="svg5368"
   inkscape:version="1.0.1 (3bc2e813f5, 2020-09-07)"
   sodipodi:docname="sharePower.svg">
  <defs
     id="defs5362">
    <linearGradient
       inkscape:collect="always"
       xlink:href="#linearGradient1533"
       id="linearGradient1575"
       gradientUnits="userSpaceOnUse"
       x1="33.476292"
       y1="22.903339"
       x2="33.476292"
       y2="23.723089" />
    <linearGradient
       inkscape:collect="always"
       id="linearGradient1533">
      <stop
         style="stop-color:#ff75ff;stop-opacity:1;"
         offset="0"
         id="stop1529" />
      <stop
         style="stop-color:#ff75ff;stop-opacity:0;"
         offset="1"
         id="stop1531" />
    </linearGradient>
    <rect
       x="32.507607"
       y="20.713451"
       width="12.528049"
       height="14.297926"
       id="rect1573" />
    <rect
       x="32.507607"
       y="20.713451"
       width="12.528049"
       height="14.297926"
       id="rect5323" />
  </defs>
  <sodipodi:namedview
     id="base"
     pagecolor="#ffffff"
     bordercolor="#666666"
     borderopacity="1.0"
     inkscape:pageopacity="0.0"
     inkscape:pageshadow="2"
     inkscape:zoom="1.8523466"
     inkscape:cx="178.48907"
     inkscape:cy="63.624468"
     inkscape:document-units="mm"
     inkscape:current-layer="layer1"
     inkscape:document-rotation="0"
     showgrid="false"
     units="px"
     inkscape:window-width="1920"
     inkscape:window-height="997"
     inkscape:window-x="1920"
     inkscape:window-y="28"
     inkscape:window-maximized="1" />
  <metadata
     id="metadata5365">
    <rdf:RDF>
      <cc:Work
         rdf:about="">
        <dc:format>image/svg+xml</dc:format>
        <dc:type
           rdf:resource="http://purl.org/dc/dcmitype/StillImage" />
        <dc:title></dc:title>
      </cc:Work>
    </rdf:RDF>
  </metadata>
  <g
     inkscape:label="Layer 1"
     inkscape:groupmode="layer"
     id="layer1">
    <g
       id="g3215"
       transform="matrix(1.2740119,0,0,1.2740119,250.42693,-165.35126)">
      <text
         xml:space="preserve"
         id="text1571"
         style="font-style:normal;font-weight:normal;font-size:3.33594px;line-height:1.25;font-family:sans-serif;letter-spacing:0px;word-spacing:0px;white-space:pre;shape-inside:url(#rect1573);fill:url(#linearGradient1575);fill-opacity:1;stroke:none;"
         transform="matrix(11.78924,0,0,11.78924,-549.24273,-120.11433)"><tspan
           x="32.507812"
           y="23.74818"><tspan
             style="font-style:normal;font-variant:normal;font-weight:bold;font-stretch:normal;font-size:3.33594px;font-family:sans-serif;-inkscape-font-specification:'sans-serif, Bold';font-variant-ligatures:normal;font-variant-caps:normal;font-variant-numeric:normal;font-variant-east-asian:normal;fill:url(#linearGradient1575);fill-opacity:1">$</tspan></tspan></text>
      <path
         style="fill:#33103c;fill-opacity:1;stroke:none;stroke-width:0.0833985px;stroke-linecap:butt;stroke-linejoin:miter;stroke-opacity:1"
         d="m -168.68493,158.72508 c 0,0 6.19776,-4.78091 6.3775,-5.22401 0.39385,-0.53706 3.10161,-6.52981 3.10161,-6.52981 0.31381,-0.72097 -0.36222,-2.07007 -0.082,-3.55529 -0.53814,-0.93214 -2.34651,-1.1994 -2.34651,-1.1994 0,0 0.51961,-0.58366 0.8766,-0.63238 0.66299,-0.0905 1.88318,0.69526 1.88318,0.69526 l 2.57161,-4.74898 0.39902,0.43926 -1.60814,3.9419 c 0,0 0.98365,0.27252 1.44084,0.49312 0.43017,0.20758 1.20682,0.77252 1.20682,0.77252 l 2.19847,-3.70992 0.49173,0.2205 -2.04793,4.6988 c -1.05474,2.31725 -1.9162,1.95016 -3.12922,3.58803 -1.06038,3.06935 -2.18632,7.66899 -2.18632,7.66899 l -4.91795,7.26275"
         id="path1360"
         sodipodi:nodetypes="cccccaccccaccccccc" />
      <path
         style="fill:#732486;fill-opacity:1;stroke:none;stroke-width:0.0833985px;stroke-linecap:butt;stroke-linejoin:miter;stroke-opacity:1"
         d="m -168.46628,158.51471 c 0,0 5.97911,-4.57054 6.15885,-5.01364 0.39385,-0.53706 3.27611,-6.47888 3.27611,-6.47888 0.31381,-0.72097 -0.53672,-2.121 -0.25646,-3.60622 -0.53814,-0.93214 -2.34651,-1.1994 -2.34651,-1.1994 0,0 0.51961,-0.58366 0.8766,-0.63238 0.66299,-0.0905 1.88318,0.69526 1.88318,0.69526 l 2.57161,-4.74898 0.39902,0.43926 -1.60814,3.9419 c 0,0 -0.30259,0.64312 -0.40163,0.98292 -0.12624,0.4331 -0.2414,1.33167 -0.2414,1.33167 0,0 0.40934,-1.69386 0.71949,-2.14171 0.28484,-0.4113 1.35886,0.16081 1.47316,0.21561 0.10754,0.0519 1.08455,0.57206 0.95218,0.86282 -0.30403,0.66785 -1.35057,1.81844 -1.35057,1.81844 0,0 0.58385,-0.40873 0.81399,-0.676 0.28678,-0.33306 0.68244,-1.12819 0.68244,-1.12819 l 2.19847,-3.70992 0.49174,0.2205 -2.06908,4.55861 c -1.05474,2.31725 -1.91506,1.87642 -3.12808,3.51429 -1.06038,3.06935 -2.46167,7.80656 -2.46167,7.80656 l -5.09464,6.93735"
         id="path1358"
         sodipodi:nodetypes="cccccaccccacssscaccccccc" />
      <path
         style="fill:#000000;stroke:none;stroke-width:0.0833985px;stroke-linecap:butt;stroke-linejoin:miter;stroke-opacity:1"
         d="m -163.86854,164.00182 c 0,0 -0.27013,-0.78199 -0.14687,-1.14731 0.18244,-0.54072 1.20175,-1.21934 1.20175,-1.21934 0,0 -1.78884,-1.65384 -2.42478,-2.67581 -0.54346,-0.87335 -1.13613,-2.86913 -1.13613,-2.86913 l -4.41973,1.2642 4.08871,5.16079 z"
         id="path1366"
         sodipodi:nodetypes="cacacccc" />
      <path
         style="fill:#732486;fill-opacity:1;stroke:none;stroke-width:0.0833985px;stroke-linecap:butt;stroke-linejoin:miter;stroke-opacity:1"
         d="m -174.97845,174.80176 c 0,0 -6.32182,-7.51397 -3.54282,-11.92137 3.04553,-4.83009 3.73581,-6.27813 3.73581,-6.27813 0,0 -1.16631,0.64747 6.0346,4.35412 3.66633,1.88724 4.47275,9.69274 4.47275,9.69274 0,0 5.87357,2.08293 -3.73864,6.17074 -13.25465,5.63684 -6.9617,-2.0181 -6.9617,-2.0181 z"
         id="path1344"
         sodipodi:nodetypes="cscscsc" />
      <path
         id="path1326"
         style="fill:#33103c;fill-opacity:1;stroke:none;stroke-width:1.25098;stroke-linecap:round;paint-order:stroke fill markers"
         d="m -171.81041,149.63666 c -6.38248,0.0451 -6.67442,10.03306 -2.13179,12.31082 0.86674,0.45183 1.96383,0.26324 2.81871,-0.12896 1.37059,-0.62878 2.29076,-2.02097 3.10429,-3.29064 0.70622,-1.1022 1.46906,-2.28365 1.46908,-3.642 -1e-5,-2.89906 -2.35016,-5.24921 -5.24922,-5.24922 z"
         sodipodi:nodetypes="ccaacsc" />
      <path
         style="fill:#000000;fill-opacity:1;stroke:none;stroke-width:0.0833985px;stroke-linecap:butt;stroke-linejoin:miter;stroke-opacity:1"
         d="m -173.19818,156.88586 c 0,0 -2.76092,-1.33833 4.88687,1.32695 4.83847,1.68622 5.95535,12.51086 5.95535,12.51086 0,0 3.95142,2.00838 -5.66079,6.09619 0.64724,-9.68048 -0.17745,-11.9493 -5.18143,-19.934 z"
         id="path1348"
         sodipodi:nodetypes="csccc" />
      <path
         style="fill:#000000;fill-opacity:1;stroke:none;stroke-width:0.0833985px;stroke-linecap:butt;stroke-linejoin:miter;stroke-opacity:1"
         d="m -185.56802,177.16976 c 0,0 -1.19873,-11.10721 1.97968,-15.23586 3.38635,-4.39876 8.84402,-4.81048 8.84402,-4.81048 0.11256,10.40946 3.10879,10.64481 3.05164,21.10364 -10.97989,2.99284 -13.87534,-1.0573 -13.87534,-1.0573 z"
         id="path1350"
         sodipodi:nodetypes="csccc" />
      <path
         id="path1336"
         style="fill:#732486;fill-opacity:1;stroke:none;stroke-width:1.25098;stroke-linecap:round;paint-order:stroke fill markers"
         d="m -171.81041,149.63666 c -2.8575,0.006 -4.94009,2.28225 -5.07171,4.72341 -0.21128,2.5268 0.54137,5.67281 2.47339,7.0002 0.94081,0.54793 2.23439,0.65291 3.25477,0.27319 1.37592,-0.51203 2.2666,-1.926 3.0803,-3.14798 0.72214,-1.08448 1.52352,-2.24125 1.52354,-3.5996 -1e-5,-2.89906 -2.35016,-5.24921 -5.24922,-5.24922 z"
         sodipodi:nodetypes="cccaacsc" />
      <path
         style="fill:#800080;fill-opacity:1;stroke:none;stroke-width:0.0833985px;stroke-linecap:butt;stroke-linejoin:miter;stroke-opacity:1"
         d="m -169.71282,156.03733 7.26579,-4.52291 -4.62544,-0.23201 4.57836,-4.61005 -5.8637,2.16729 1.73698,-5.54798 -3.49999,4.01998 -0.76846,-4.20848 -1.3078,4.37928 -1.9371,-2.68442 0.20268,3.5361 -1.94216,-0.5305 1.12282,2.77105 c 0,0 2.37921,-1.85043 4.11178,0.15026 1.98168,2.28833 0.92624,5.31239 0.92624,5.31239 z"
         id="path1334"
         sodipodi:nodetypes="cccccccccccccsc" />
      <path
         style="fill:#ff00ff;fill-opacity:1;stroke:none;stroke-width:0.0833985px;stroke-linecap:butt;stroke-linejoin:miter;stroke-opacity:1"
         d="m -162.44703,151.51442 -4.91039,-0.24452 4.86331,-4.59754 -5.87691,2.20489 1.75019,-5.58558 -3.48345,4.25421 -0.785,-4.44271 -1.17657,4.53081 -2.06833,-2.83595 0.32309,3.54412 -2.06257,-0.53852 1.25873,2.65977 c 0,0 2.39289,-1.83634 4.07131,0.0774 2.30777,2.63131 0.86332,5.45983 0.86332,5.45983 1.97367,-1.54227 7.23327,-4.48621 7.23327,-4.48621 z"
         id="path1338"
         sodipodi:nodetypes="ccccccccccccscc" />
      <path
         style="fill:#33103c;fill-opacity:1;stroke:none;stroke-width:0.0833985px;stroke-linecap:butt;stroke-linejoin:miter;stroke-opacity:1"
         d="m -158.15505,144.22622 c 0,0 0.39414,0.44301 0.6554,0.56551 0.34844,0.16339 1.13886,0.18965 1.13886,0.18965 0,0 -0.7422,-0.1385 -1.08366,-0.29118 -0.25825,-0.11547 -0.7106,-0.46398 -0.7106,-0.46398 z"
         id="path1364"
         sodipodi:nodetypes="cacac" />
      <path
         style="fill:#515151;fill-opacity:1;stroke:none;stroke-width:0.0833985px;stroke-linecap:butt;stroke-linejoin:miter;stroke-opacity:1"
         d="m -174.60816,177.06455 12.18178,-5.41869 5.98353,3.73482 -14.02816,5.76103 z"
         id="path1368"
         sodipodi:nodetypes="ccccc" />
      <path
         style="fill:#33103c;fill-opacity:1;stroke:none;stroke-width:0.0833985px;stroke-linecap:butt;stroke-linejoin:miter;stroke-opacity:1"
         d="m -181.41391,174.34665 9.0476,1.02433 c 0,0 1.08748,0.71311 1.87071,1.10469 l 0.66043,0.74345 0.34747,0.62342 0.38743,-0.0185 -0.12574,-0.77576 -0.41628,-0.70758 0.0756,-0.0401 1.00562,0.80821 0.71548,1.00762 0.52601,-0.12831 -0.51108,-1.20861 -0.7727,-0.89667 0.0848,-0.0365 1.23054,0.74633 0.75107,0.93499 0.48864,-0.18471 -0.5288,-1.05001 -0.98147,-0.78839 0.0721,-0.0365 1.30793,0.5018 1.00437,0.69658 0.47829,-0.17756 -1.07671,-1.05868 -1.19023,-0.64209 -0.80826,-0.32435 0.92892,-0.33242 0.13644,-0.53548 -1.82202,0.44196 -2.25373,-0.0126 -8.09387,-2.73867 c 0,0 0.0736,-3.00481 0.12502,-4.50676 0.0344,-1.00586 0.71036,-1.96186 0.12289,-3.01686 -1.12407,-1.65223 -2.75345,-1.48115 -3.80963,-0.57755 -0.99955,0.93717 -1.06596,2.52543 -1.05933,3.85949 0.0126,2.53093 2.08243,7.30175 2.08243,7.30175 z"
         id="path1392"
         sodipodi:nodetypes="ccccccccccccccccccccccccccccccccaccacc" />
      <path
         style="fill:#732486;fill-opacity:1;stroke:none;stroke-width:0.0833985px;stroke-linecap:butt;stroke-linejoin:miter;stroke-opacity:1"
         d="m -172.34976,175.37533 c 0,0 1.14815,0.5731 1.93139,0.96468 l 0.5832,0.87911 0.34747,0.62342 0.38743,-0.0185 -0.12574,-0.77576 -0.41628,-0.70758 0.13059,-0.0706 0.95063,0.83871 0.71548,1.00762 0.52601,-0.12831 -0.51108,-1.20861 -0.7727,-0.89667 0.0848,-0.0365 1.23054,0.74633 0.75107,0.93499 0.48864,-0.18471 -0.5288,-1.05001 -0.98147,-0.78839 0.0721,-0.0365 1.30793,0.5018 1.00437,0.69658 0.47829,-0.17756 -1.07671,-1.05868 -1.19023,-0.64209 -0.80826,-0.32435 0.92892,-0.33242 0.13644,-0.53548 -1.82202,0.44196 -2.28188,0.0612 -8.06572,-2.81246 c 0,0 0.0736,-3.00481 0.12502,-4.50676 0.0344,-1.00586 0.71036,-1.96186 0.12289,-3.01686 -1.12407,-1.65223 -2.75345,-1.48115 -3.80963,-0.57755 -0.99955,0.93717 -1.0832,2.52563 -1.05933,3.85949 0.0444,2.48301 2.36169,6.99088 2.22778,7.10934 z"
         id="path1372"
         sodipodi:nodetypes="cccccccccccccccccccccccccccccccaccacc" />
      <path
         style="fill:#6a6a6a;fill-opacity:1;stroke:none;stroke-width:0.0833985px;stroke-linecap:butt;stroke-linejoin:miter;stroke-opacity:1"
         d="m -170.47101,181.14171 2.17342,-8.85868 14.03383,-5.78414 -2.17909,8.88179 z"
         id="path1370"
         sodipodi:nodetypes="ccccc" />
      <path
         style="fill:#454545;fill-opacity:1;stroke:none;stroke-width:0.0833985px;stroke-linecap:butt;stroke-linejoin:miter;stroke-opacity:1"
         d="m -174.60816,177.06454 4.13715,4.07716 -0.009,0.34475 -4.1046,-4.39827 -0.024,-0.0236"
         id="path1382" />
      <path
         style="fill:#4c4c4c;fill-opacity:1;stroke:none;stroke-width:0.0833985px;stroke-linecap:butt;stroke-linejoin:miter;stroke-opacity:1"
         d="m -170.47961,181.48645 0.009,-0.34474 14.03383,-5.78414 -0.002,0.32911 z"
         id="path1384"
         sodipodi:nodetypes="ccccc" />
    </g>
  </g>
</svg>
